G04 #@! TF.GenerationSoftware,KiCad,Pcbnew,(2017-12-02 revision 3109343b9)-master*
G04 #@! TF.CreationDate,2017-12-03T21:55:53+01:00*
G04 #@! TF.ProjectId,TC214_CNKEY_Adapter,54433231345F434E4B45595F41646170,rev?*
G04 #@! TF.SameCoordinates,Original*
G04 #@! TF.FileFunction,Soldermask,Top*
G04 #@! TF.FilePolarity,Negative*
%FSLAX46Y46*%
G04 Gerber Fmt 4.6, Leading zero omitted, Abs format (unit mm)*
G04 Created by KiCad (PCBNEW (2017-12-02 revision 3109343b9)-master) date Sun Dec  3 21:55:53 2017*
%MOMM*%
%LPD*%
G01*
G04 APERTURE LIST*
%ADD10C,6.100000*%
%ADD11R,2.127200X2.127200*%
%ADD12O,2.127200X2.127200*%
G04 APERTURE END LIST*
D10*
X126365000Y-148590000D03*
X178435000Y-148590000D03*
X126365000Y-54610000D03*
X178435000Y-54610000D03*
D11*
X128270000Y-71120000D03*
D12*
X130810000Y-71120000D03*
X128270000Y-73660000D03*
X130810000Y-73660000D03*
X128270000Y-76200000D03*
X130810000Y-76200000D03*
X128270000Y-78740000D03*
X130810000Y-78740000D03*
X128270000Y-81280000D03*
X130810000Y-81280000D03*
X128270000Y-83820000D03*
X130810000Y-83820000D03*
X128270000Y-86360000D03*
X130810000Y-86360000D03*
X128270000Y-88900000D03*
X130810000Y-88900000D03*
X128270000Y-91440000D03*
X130810000Y-91440000D03*
X128270000Y-93980000D03*
X130810000Y-93980000D03*
X128270000Y-96520000D03*
X130810000Y-96520000D03*
X128270000Y-99060000D03*
X130810000Y-99060000D03*
X128270000Y-101600000D03*
X130810000Y-101600000D03*
X128270000Y-104140000D03*
X130810000Y-104140000D03*
X128270000Y-106680000D03*
X130810000Y-106680000D03*
X128270000Y-109220000D03*
X130810000Y-109220000D03*
X128270000Y-111760000D03*
X130810000Y-111760000D03*
X128270000Y-114300000D03*
X130810000Y-114300000D03*
X128270000Y-116840000D03*
X130810000Y-116840000D03*
X128270000Y-119380000D03*
X130810000Y-119380000D03*
X128270000Y-121920000D03*
X130810000Y-121920000D03*
X128270000Y-124460000D03*
X130810000Y-124460000D03*
X128270000Y-127000000D03*
X130810000Y-127000000D03*
X128270000Y-129540000D03*
X130810000Y-129540000D03*
X128270000Y-132080000D03*
X130810000Y-132080000D03*
X146050000Y-132080000D03*
X143510000Y-132080000D03*
X146050000Y-129540000D03*
X143510000Y-129540000D03*
X146050000Y-127000000D03*
X143510000Y-127000000D03*
X146050000Y-124460000D03*
X143510000Y-124460000D03*
X146050000Y-121920000D03*
X143510000Y-121920000D03*
X146050000Y-119380000D03*
X143510000Y-119380000D03*
X146050000Y-116840000D03*
X143510000Y-116840000D03*
X146050000Y-114300000D03*
X143510000Y-114300000D03*
X146050000Y-111760000D03*
X143510000Y-111760000D03*
X146050000Y-109220000D03*
X143510000Y-109220000D03*
X146050000Y-106680000D03*
X143510000Y-106680000D03*
X146050000Y-104140000D03*
X143510000Y-104140000D03*
X146050000Y-101600000D03*
X143510000Y-101600000D03*
X146050000Y-99060000D03*
X143510000Y-99060000D03*
X146050000Y-96520000D03*
X143510000Y-96520000D03*
X146050000Y-93980000D03*
X143510000Y-93980000D03*
X146050000Y-91440000D03*
X143510000Y-91440000D03*
X146050000Y-88900000D03*
X143510000Y-88900000D03*
X146050000Y-86360000D03*
X143510000Y-86360000D03*
X146050000Y-83820000D03*
X143510000Y-83820000D03*
X146050000Y-81280000D03*
X143510000Y-81280000D03*
X146050000Y-78740000D03*
X143510000Y-78740000D03*
X146050000Y-76200000D03*
X143510000Y-76200000D03*
X146050000Y-73660000D03*
X143510000Y-73660000D03*
X146050000Y-71120000D03*
D11*
X143510000Y-71120000D03*
X173990000Y-114300000D03*
D12*
X176530000Y-114300000D03*
X173990000Y-116840000D03*
X176530000Y-116840000D03*
X173990000Y-119380000D03*
X176530000Y-119380000D03*
X173990000Y-121920000D03*
X176530000Y-121920000D03*
X173990000Y-124460000D03*
X176530000Y-124460000D03*
X173990000Y-127000000D03*
X176530000Y-127000000D03*
X173990000Y-129540000D03*
X176530000Y-129540000D03*
X173990000Y-132080000D03*
X176530000Y-132080000D03*
D11*
X158750000Y-71120000D03*
D12*
X161290000Y-71120000D03*
X158750000Y-73660000D03*
X161290000Y-73660000D03*
X158750000Y-76200000D03*
X161290000Y-76200000D03*
X158750000Y-78740000D03*
X161290000Y-78740000D03*
X158750000Y-81280000D03*
X161290000Y-81280000D03*
X158750000Y-83820000D03*
X161290000Y-83820000D03*
X158750000Y-86360000D03*
X161290000Y-86360000D03*
X158750000Y-88900000D03*
X161290000Y-88900000D03*
X158750000Y-91440000D03*
X161290000Y-91440000D03*
X158750000Y-93980000D03*
X161290000Y-93980000D03*
X158750000Y-96520000D03*
X161290000Y-96520000D03*
X158750000Y-99060000D03*
X161290000Y-99060000D03*
X158750000Y-101600000D03*
X161290000Y-101600000D03*
X158750000Y-104140000D03*
X161290000Y-104140000D03*
X158750000Y-106680000D03*
X161290000Y-106680000D03*
X158750000Y-109220000D03*
X161290000Y-109220000D03*
X158750000Y-111760000D03*
X161290000Y-111760000D03*
X158750000Y-114300000D03*
X161290000Y-114300000D03*
X158750000Y-116840000D03*
X161290000Y-116840000D03*
X158750000Y-119380000D03*
X161290000Y-119380000D03*
X158750000Y-121920000D03*
X161290000Y-121920000D03*
X158750000Y-124460000D03*
X161290000Y-124460000D03*
X158750000Y-127000000D03*
X161290000Y-127000000D03*
X158750000Y-129540000D03*
X161290000Y-129540000D03*
X158750000Y-132080000D03*
X161290000Y-132080000D03*
M02*
