M48
;DRILL file {KiCad (2017-12-02 revision 3109343b9)-master} date Sun Dec  3 21:55:55 2017
;FORMAT={-:-/ absolute / inch / decimal}
FMAT,2
INCH,TZ
T1C0.039
T2C0.040
T3C0.126
%
G90
G05
M72
T1
X5.9Y-5.5
T2
X6.85Y-4.5
X6.85Y-4.6
X6.85Y-4.7
X6.85Y-4.8
X6.85Y-4.9
X6.85Y-5.
X6.85Y-5.1
X6.85Y-5.2
X6.95Y-4.5
X6.95Y-4.6
X6.95Y-4.7
X6.95Y-4.8
X6.95Y-4.9
X6.95Y-5.
X6.95Y-5.1
X6.95Y-5.2
X6.25Y-2.8
X6.25Y-2.9
X6.25Y-3.
X6.25Y-3.1
X6.25Y-3.2
X6.25Y-3.3
X6.25Y-3.4
X6.25Y-3.5
X6.25Y-3.6
X6.25Y-3.7
X6.25Y-3.8
X6.25Y-3.9
X6.25Y-4.
X6.25Y-4.1
X6.25Y-4.2
X6.25Y-4.3
X6.25Y-4.4
X6.25Y-4.5
X6.25Y-4.6
X6.25Y-4.7
X6.25Y-4.8
X6.25Y-4.9
X6.25Y-5.
X6.25Y-5.1
X6.25Y-5.2
X6.35Y-2.8
X6.35Y-2.9
X6.35Y-3.
X6.35Y-3.1
X6.35Y-3.2
X6.35Y-3.3
X6.35Y-3.4
X6.35Y-3.5
X6.35Y-3.6
X6.35Y-3.7
X6.35Y-3.8
X6.35Y-3.9
X6.35Y-4.
X6.35Y-4.1
X6.35Y-4.2
X6.35Y-4.3
X6.35Y-4.4
X6.35Y-4.5
X6.35Y-4.6
X6.35Y-4.7
X6.35Y-4.8
X6.35Y-4.9
X6.35Y-5.
X6.35Y-5.1
X6.35Y-5.2
X5.05Y-2.8
X5.05Y-2.9
X5.05Y-3.
X5.05Y-3.1
X5.05Y-3.2
X5.05Y-3.3
X5.05Y-3.4
X5.05Y-3.5
X5.05Y-3.6
X5.05Y-3.7
X5.05Y-3.8
X5.05Y-3.9
X5.05Y-4.
X5.05Y-4.1
X5.05Y-4.2
X5.05Y-4.3
X5.05Y-4.4
X5.05Y-4.5
X5.05Y-4.6
X5.05Y-4.7
X5.05Y-4.8
X5.05Y-4.9
X5.05Y-5.
X5.05Y-5.1
X5.05Y-5.2
X5.15Y-2.8
X5.15Y-2.9
X5.15Y-3.
X5.15Y-3.1
X5.15Y-3.2
X5.15Y-3.3
X5.15Y-3.4
X5.15Y-3.5
X5.15Y-3.6
X5.15Y-3.7
X5.15Y-3.8
X5.15Y-3.9
X5.15Y-4.
X5.15Y-4.1
X5.15Y-4.2
X5.15Y-4.3
X5.15Y-4.4
X5.15Y-4.5
X5.15Y-4.6
X5.15Y-4.7
X5.15Y-4.8
X5.15Y-4.9
X5.15Y-5.
X5.15Y-5.1
X5.15Y-5.2
X5.65Y-2.8
X5.65Y-2.9
X5.65Y-3.
X5.65Y-3.1
X5.65Y-3.2
X5.65Y-3.3
X5.65Y-3.4
X5.65Y-3.5
X5.65Y-3.6
X5.65Y-3.7
X5.65Y-3.8
X5.65Y-3.9
X5.65Y-4.
X5.65Y-4.1
X5.65Y-4.2
X5.65Y-4.3
X5.65Y-4.4
X5.65Y-4.5
X5.65Y-4.6
X5.65Y-4.7
X5.65Y-4.8
X5.65Y-4.9
X5.65Y-5.
X5.65Y-5.1
X5.65Y-5.2
X5.75Y-2.8
X5.75Y-2.9
X5.75Y-3.
X5.75Y-3.1
X5.75Y-3.2
X5.75Y-3.3
X5.75Y-3.4
X5.75Y-3.5
X5.75Y-3.6
X5.75Y-3.7
X5.75Y-3.8
X5.75Y-3.9
X5.75Y-4.
X5.75Y-4.1
X5.75Y-4.2
X5.75Y-4.3
X5.75Y-4.4
X5.75Y-4.5
X5.75Y-4.6
X5.75Y-4.7
X5.75Y-4.8
X5.75Y-4.9
X5.75Y-5.
X5.75Y-5.1
X5.75Y-5.2
T3
X4.975Y-2.15
X7.025Y-2.15
X7.025Y-5.85
X4.975Y-5.85
T0
M30
