G04 #@! TF.GenerationSoftware,KiCad,Pcbnew,(2017-12-02 revision 3109343b9)-master*
G04 #@! TF.CreationDate,2017-12-03T21:55:53+01:00*
G04 #@! TF.ProjectId,TC214_CNKEY_Adapter,54433231345F434E4B45595F41646170,rev?*
G04 #@! TF.SameCoordinates,Original*
G04 #@! TF.FileFunction,Copper,L2,Bot,Signal*
G04 #@! TF.FilePolarity,Positive*
%FSLAX46Y46*%
G04 Gerber Fmt 4.6, Leading zero omitted, Abs format (unit mm)*
G04 Created by KiCad (PCBNEW (2017-12-02 revision 3109343b9)-master) date Sun Dec  3 21:55:53 2017*
%MOMM*%
%LPD*%
G01*
G04 APERTURE LIST*
%ADD10C,5.700000*%
%ADD11R,1.727200X1.727200*%
%ADD12O,1.727200X1.727200*%
%ADD13C,1.600000*%
%ADD14C,1.000000*%
%ADD15C,0.250000*%
%ADD16C,0.254000*%
G04 APERTURE END LIST*
D10*
X126365000Y-148590000D03*
X178435000Y-148590000D03*
X126365000Y-54610000D03*
X178435000Y-54610000D03*
D11*
X128270000Y-71120000D03*
D12*
X130810000Y-71120000D03*
X128270000Y-73660000D03*
X130810000Y-73660000D03*
X128270000Y-76200000D03*
X130810000Y-76200000D03*
X128270000Y-78740000D03*
X130810000Y-78740000D03*
X128270000Y-81280000D03*
X130810000Y-81280000D03*
X128270000Y-83820000D03*
X130810000Y-83820000D03*
X128270000Y-86360000D03*
X130810000Y-86360000D03*
X128270000Y-88900000D03*
X130810000Y-88900000D03*
X128270000Y-91440000D03*
X130810000Y-91440000D03*
X128270000Y-93980000D03*
X130810000Y-93980000D03*
X128270000Y-96520000D03*
X130810000Y-96520000D03*
X128270000Y-99060000D03*
X130810000Y-99060000D03*
X128270000Y-101600000D03*
X130810000Y-101600000D03*
X128270000Y-104140000D03*
X130810000Y-104140000D03*
X128270000Y-106680000D03*
X130810000Y-106680000D03*
X128270000Y-109220000D03*
X130810000Y-109220000D03*
X128270000Y-111760000D03*
X130810000Y-111760000D03*
X128270000Y-114300000D03*
X130810000Y-114300000D03*
X128270000Y-116840000D03*
X130810000Y-116840000D03*
X128270000Y-119380000D03*
X130810000Y-119380000D03*
X128270000Y-121920000D03*
X130810000Y-121920000D03*
X128270000Y-124460000D03*
X130810000Y-124460000D03*
X128270000Y-127000000D03*
X130810000Y-127000000D03*
X128270000Y-129540000D03*
X130810000Y-129540000D03*
X128270000Y-132080000D03*
X130810000Y-132080000D03*
X146050000Y-132080000D03*
X143510000Y-132080000D03*
X146050000Y-129540000D03*
X143510000Y-129540000D03*
X146050000Y-127000000D03*
X143510000Y-127000000D03*
X146050000Y-124460000D03*
X143510000Y-124460000D03*
X146050000Y-121920000D03*
X143510000Y-121920000D03*
X146050000Y-119380000D03*
X143510000Y-119380000D03*
X146050000Y-116840000D03*
X143510000Y-116840000D03*
X146050000Y-114300000D03*
X143510000Y-114300000D03*
X146050000Y-111760000D03*
X143510000Y-111760000D03*
X146050000Y-109220000D03*
X143510000Y-109220000D03*
X146050000Y-106680000D03*
X143510000Y-106680000D03*
X146050000Y-104140000D03*
X143510000Y-104140000D03*
X146050000Y-101600000D03*
X143510000Y-101600000D03*
X146050000Y-99060000D03*
X143510000Y-99060000D03*
X146050000Y-96520000D03*
X143510000Y-96520000D03*
X146050000Y-93980000D03*
X143510000Y-93980000D03*
X146050000Y-91440000D03*
X143510000Y-91440000D03*
X146050000Y-88900000D03*
X143510000Y-88900000D03*
X146050000Y-86360000D03*
X143510000Y-86360000D03*
X146050000Y-83820000D03*
X143510000Y-83820000D03*
X146050000Y-81280000D03*
X143510000Y-81280000D03*
X146050000Y-78740000D03*
X143510000Y-78740000D03*
X146050000Y-76200000D03*
X143510000Y-76200000D03*
X146050000Y-73660000D03*
X143510000Y-73660000D03*
X146050000Y-71120000D03*
D11*
X143510000Y-71120000D03*
X173990000Y-114300000D03*
D12*
X176530000Y-114300000D03*
X173990000Y-116840000D03*
X176530000Y-116840000D03*
X173990000Y-119380000D03*
X176530000Y-119380000D03*
X173990000Y-121920000D03*
X176530000Y-121920000D03*
X173990000Y-124460000D03*
X176530000Y-124460000D03*
X173990000Y-127000000D03*
X176530000Y-127000000D03*
X173990000Y-129540000D03*
X176530000Y-129540000D03*
X173990000Y-132080000D03*
X176530000Y-132080000D03*
D11*
X158750000Y-71120000D03*
D12*
X161290000Y-71120000D03*
X158750000Y-73660000D03*
X161290000Y-73660000D03*
X158750000Y-76200000D03*
X161290000Y-76200000D03*
X158750000Y-78740000D03*
X161290000Y-78740000D03*
X158750000Y-81280000D03*
X161290000Y-81280000D03*
X158750000Y-83820000D03*
X161290000Y-83820000D03*
X158750000Y-86360000D03*
X161290000Y-86360000D03*
X158750000Y-88900000D03*
X161290000Y-88900000D03*
X158750000Y-91440000D03*
X161290000Y-91440000D03*
X158750000Y-93980000D03*
X161290000Y-93980000D03*
X158750000Y-96520000D03*
X161290000Y-96520000D03*
X158750000Y-99060000D03*
X161290000Y-99060000D03*
X158750000Y-101600000D03*
X161290000Y-101600000D03*
X158750000Y-104140000D03*
X161290000Y-104140000D03*
X158750000Y-106680000D03*
X161290000Y-106680000D03*
X158750000Y-109220000D03*
X161290000Y-109220000D03*
X158750000Y-111760000D03*
X161290000Y-111760000D03*
X158750000Y-114300000D03*
X161290000Y-114300000D03*
X158750000Y-116840000D03*
X161290000Y-116840000D03*
X158750000Y-119380000D03*
X161290000Y-119380000D03*
X158750000Y-121920000D03*
X161290000Y-121920000D03*
X158750000Y-124460000D03*
X161290000Y-124460000D03*
X158750000Y-127000000D03*
X161290000Y-127000000D03*
X158750000Y-129540000D03*
X161290000Y-129540000D03*
X158750000Y-132080000D03*
X161290000Y-132080000D03*
D13*
X149860000Y-139700000D03*
D14*
X152400000Y-139700000D02*
X158750000Y-133350000D01*
X149860000Y-139700000D02*
X152400000Y-139700000D01*
X158750000Y-132080000D02*
X158750000Y-133350000D01*
X172226399Y-133843601D02*
X159243601Y-133843601D01*
X173990000Y-132080000D02*
X172226399Y-133843601D01*
X159243601Y-133843601D02*
X158750000Y-133350000D01*
D15*
X135890000Y-59055000D02*
X153670000Y-59055000D01*
X133350000Y-61595000D02*
X135890000Y-59055000D01*
X133350000Y-111760000D02*
X133350000Y-61595000D01*
X132080000Y-113030000D02*
X133350000Y-111760000D01*
X128270000Y-111760000D02*
X129540000Y-113030000D01*
X153670000Y-59055000D02*
X156210000Y-61595000D01*
X129540000Y-113030000D02*
X132080000Y-113030000D01*
X156210000Y-61595000D02*
X156210000Y-71120000D01*
X156210000Y-71120000D02*
X158750000Y-73660000D01*
X154305000Y-58420000D02*
X156845000Y-60960000D01*
X156845000Y-60960000D02*
X156845000Y-70485000D01*
X156845000Y-70485000D02*
X157480000Y-71120000D01*
X132715000Y-60960000D02*
X135255000Y-58420000D01*
X157480000Y-71120000D02*
X158750000Y-71120000D01*
X130810000Y-111760000D02*
X132715000Y-109855000D01*
X135255000Y-58420000D02*
X154305000Y-58420000D01*
X132715000Y-109855000D02*
X132715000Y-60960000D01*
X137160000Y-60325000D02*
X152400000Y-60325000D01*
X134620000Y-113665000D02*
X134620000Y-62865000D01*
X132715000Y-115570000D02*
X134620000Y-113665000D01*
X134620000Y-62865000D02*
X137160000Y-60325000D01*
X128270000Y-114300000D02*
X129540000Y-115570000D01*
X129540000Y-115570000D02*
X132715000Y-115570000D01*
X152400000Y-60325000D02*
X154940000Y-62865000D01*
X154940000Y-62865000D02*
X154940000Y-74930000D01*
X154940000Y-74930000D02*
X157886401Y-77876401D01*
X157886401Y-77876401D02*
X158750000Y-78740000D01*
X136525000Y-59690000D02*
X153035000Y-59690000D01*
X133985000Y-112346314D02*
X133985000Y-62230000D01*
X153035000Y-59690000D02*
X155575000Y-62230000D01*
X130810000Y-114300000D02*
X132031314Y-114300000D01*
X133985000Y-62230000D02*
X136525000Y-59690000D01*
X157886401Y-75336401D02*
X158750000Y-76200000D01*
X132031314Y-114300000D02*
X133985000Y-112346314D01*
X155575000Y-62230000D02*
X155575000Y-73025000D01*
X155575000Y-73025000D02*
X157886401Y-75336401D01*
X138430000Y-61595000D02*
X135890000Y-64135000D01*
X151130000Y-61595000D02*
X138430000Y-61595000D01*
X129133599Y-117703599D02*
X128270000Y-116840000D01*
X153670000Y-64135000D02*
X151130000Y-61595000D01*
X135890000Y-64135000D02*
X135890000Y-114935000D01*
X158750000Y-83820000D02*
X153670000Y-78740000D01*
X153670000Y-78740000D02*
X153670000Y-64135000D01*
X135890000Y-114935000D02*
X132715000Y-118110000D01*
X132715000Y-118110000D02*
X129540000Y-118110000D01*
X129540000Y-118110000D02*
X129133599Y-117703599D01*
X137795000Y-60960000D02*
X151765000Y-60960000D01*
X135255000Y-63500000D02*
X137795000Y-60960000D01*
X132715000Y-116840000D02*
X135255000Y-114300000D01*
X154305000Y-63500000D02*
X154305000Y-76835000D01*
X135255000Y-114300000D02*
X135255000Y-63500000D01*
X151765000Y-60960000D02*
X154305000Y-63500000D01*
X130810000Y-116840000D02*
X132715000Y-116840000D01*
X154305000Y-76835000D02*
X157886401Y-80416401D01*
X157886401Y-80416401D02*
X158750000Y-81280000D01*
X139700000Y-62865000D02*
X137160000Y-65405000D01*
X149860000Y-62865000D02*
X139700000Y-62865000D01*
X158750000Y-88900000D02*
X154305000Y-88900000D01*
X152400000Y-86995000D02*
X152400000Y-65405000D01*
X152400000Y-65405000D02*
X149860000Y-62865000D01*
X137160000Y-65405000D02*
X137160000Y-116205000D01*
X154305000Y-88900000D02*
X152400000Y-86995000D01*
X137160000Y-116205000D02*
X132715000Y-120650000D01*
X132715000Y-120650000D02*
X129540000Y-120650000D01*
X129540000Y-120650000D02*
X129133599Y-120243599D01*
X129133599Y-120243599D02*
X128270000Y-119380000D01*
X150495000Y-62230000D02*
X153035000Y-64770000D01*
X139065000Y-62230000D02*
X150495000Y-62230000D01*
X154940000Y-86360000D02*
X157528686Y-86360000D01*
X136525000Y-64770000D02*
X139065000Y-62230000D01*
X153035000Y-64770000D02*
X153035000Y-84455000D01*
X136525000Y-115570000D02*
X136525000Y-64770000D01*
X132715000Y-119380000D02*
X136525000Y-115570000D01*
X157528686Y-86360000D02*
X158750000Y-86360000D01*
X130810000Y-119380000D02*
X132715000Y-119380000D01*
X153035000Y-84455000D02*
X154940000Y-86360000D01*
X148590000Y-64135000D02*
X140970000Y-64135000D01*
X151130000Y-66675000D02*
X148590000Y-64135000D01*
X151130000Y-92075000D02*
X151130000Y-66675000D01*
X140970000Y-64135000D02*
X138430000Y-66675000D01*
X153035000Y-93980000D02*
X151130000Y-92075000D01*
X158750000Y-93980000D02*
X153035000Y-93980000D01*
X138430000Y-66675000D02*
X138430000Y-117475000D01*
X129540000Y-123190000D02*
X129133599Y-122783599D01*
X129133599Y-122783599D02*
X128270000Y-121920000D01*
X138430000Y-117475000D02*
X132715000Y-123190000D01*
X132715000Y-123190000D02*
X129540000Y-123190000D01*
X130810000Y-121920000D02*
X132715000Y-121920000D01*
X149225000Y-63500000D02*
X151765000Y-66040000D01*
X157528686Y-91440000D02*
X158750000Y-91440000D01*
X140335000Y-63500000D02*
X149225000Y-63500000D01*
X132715000Y-121920000D02*
X137795000Y-116840000D01*
X151765000Y-89535000D02*
X153670000Y-91440000D01*
X137795000Y-66040000D02*
X140335000Y-63500000D01*
X137795000Y-116840000D02*
X137795000Y-66040000D01*
X151765000Y-66040000D02*
X151765000Y-89535000D01*
X153670000Y-91440000D02*
X157528686Y-91440000D01*
X149860000Y-67945000D02*
X147320000Y-65405000D01*
X147320000Y-65405000D02*
X142240000Y-65405000D01*
X142240000Y-65405000D02*
X139700000Y-67945000D01*
X149860000Y-97155000D02*
X149860000Y-67945000D01*
X158750000Y-99060000D02*
X151765000Y-99060000D01*
X151765000Y-99060000D02*
X149860000Y-97155000D01*
X139700000Y-67945000D02*
X139700000Y-118745000D01*
X139700000Y-118745000D02*
X132715000Y-125730000D01*
X132715000Y-125730000D02*
X129540000Y-125730000D01*
X129540000Y-125730000D02*
X129133599Y-125323599D01*
X129133599Y-125323599D02*
X128270000Y-124460000D01*
X147955000Y-64770000D02*
X150495000Y-67310000D01*
X152400000Y-96520000D02*
X157528686Y-96520000D01*
X141605000Y-64770000D02*
X147955000Y-64770000D01*
X139065000Y-118110000D02*
X139065000Y-67310000D01*
X132715000Y-124460000D02*
X139065000Y-118110000D01*
X139065000Y-67310000D02*
X141605000Y-64770000D01*
X130810000Y-124460000D02*
X132715000Y-124460000D01*
X150495000Y-67310000D02*
X150495000Y-94615000D01*
X150495000Y-94615000D02*
X152400000Y-96520000D01*
X157528686Y-96520000D02*
X158750000Y-96520000D01*
X140970000Y-69215000D02*
X143510000Y-66675000D01*
X140970000Y-120015000D02*
X140970000Y-69215000D01*
X132715000Y-128270000D02*
X140970000Y-120015000D01*
X128270000Y-127000000D02*
X129540000Y-128270000D01*
X143510000Y-66675000D02*
X146050000Y-66675000D01*
X129540000Y-128270000D02*
X132715000Y-128270000D01*
X146050000Y-66675000D02*
X148590000Y-69215000D01*
X148590000Y-69215000D02*
X148590000Y-102235000D01*
X148590000Y-102235000D02*
X150495000Y-104140000D01*
X150495000Y-104140000D02*
X157528686Y-104140000D01*
X157528686Y-104140000D02*
X158750000Y-104140000D01*
X146685000Y-66040000D02*
X149225000Y-68580000D01*
X132715000Y-127000000D02*
X140335000Y-119380000D01*
X140335000Y-68580000D02*
X142875000Y-66040000D01*
X140335000Y-119380000D02*
X140335000Y-68580000D01*
X130810000Y-127000000D02*
X132715000Y-127000000D01*
X142875000Y-66040000D02*
X146685000Y-66040000D01*
X149225000Y-99695000D02*
X151130000Y-101600000D01*
X149225000Y-68580000D02*
X149225000Y-99695000D01*
X151130000Y-101600000D02*
X157528686Y-101600000D01*
X157528686Y-101600000D02*
X158750000Y-101600000D01*
X149225000Y-134620000D02*
X149225000Y-111125000D01*
X139700000Y-137160000D02*
X146685000Y-137160000D01*
X146685000Y-137160000D02*
X149225000Y-134620000D01*
X133350000Y-130810000D02*
X139700000Y-137160000D01*
X128270000Y-129540000D02*
X129540000Y-130810000D01*
X129540000Y-130810000D02*
X133350000Y-130810000D01*
X149225000Y-111125000D02*
X151130000Y-109220000D01*
X151130000Y-109220000D02*
X158750000Y-109220000D01*
X145415000Y-67310000D02*
X147955000Y-69850000D01*
X147955000Y-104775000D02*
X149860000Y-106680000D01*
X144164741Y-67310000D02*
X145415000Y-67310000D01*
X130810000Y-129540000D02*
X132715000Y-129540000D01*
X157528686Y-106680000D02*
X158750000Y-106680000D01*
X141605000Y-69869741D02*
X144164741Y-67310000D01*
X141605000Y-120650000D02*
X141605000Y-69869741D01*
X132715000Y-129540000D02*
X141605000Y-120650000D01*
X147955000Y-69850000D02*
X147955000Y-104775000D01*
X149860000Y-106680000D02*
X157528686Y-106680000D01*
X150495000Y-135890000D02*
X150495000Y-116205000D01*
X147955000Y-138430000D02*
X150495000Y-135890000D01*
X138430000Y-138430000D02*
X147955000Y-138430000D01*
X133350000Y-133350000D02*
X138430000Y-138430000D01*
X128270000Y-132080000D02*
X129540000Y-133350000D01*
X129540000Y-133350000D02*
X133350000Y-133350000D01*
X150495000Y-116205000D02*
X152400000Y-114300000D01*
X152400000Y-114300000D02*
X158750000Y-114300000D01*
X149860000Y-135255000D02*
X147320000Y-137795000D01*
X139063590Y-137795000D02*
X133348590Y-132080000D01*
X147320000Y-137795000D02*
X139063590Y-137795000D01*
X149860000Y-113665000D02*
X149860000Y-135255000D01*
X151765000Y-111760000D02*
X149860000Y-113665000D01*
X158750000Y-111760000D02*
X151765000Y-111760000D01*
X132715000Y-132080000D02*
X130810000Y-132080000D01*
X133348590Y-132080000D02*
X132715000Y-132080000D01*
X160020000Y-118110000D02*
X172720000Y-118110000D01*
X158750000Y-116840000D02*
X160020000Y-118110000D01*
X172720000Y-118110000D02*
X173990000Y-116840000D01*
X172720000Y-120650000D02*
X160020000Y-120650000D01*
X173990000Y-119380000D02*
X172720000Y-120650000D01*
X160020000Y-120650000D02*
X158750000Y-119380000D01*
X160020000Y-123190000D02*
X172720000Y-123190000D01*
X172720000Y-123190000D02*
X173990000Y-121920000D01*
X158750000Y-121920000D02*
X160020000Y-123190000D01*
X160020000Y-125730000D02*
X172720000Y-125730000D01*
X158750000Y-124460000D02*
X160020000Y-125730000D01*
X172720000Y-125730000D02*
X173990000Y-124460000D01*
X160020000Y-128270000D02*
X158750000Y-127000000D01*
X172720000Y-128270000D02*
X160020000Y-128270000D01*
X173990000Y-127000000D02*
X172720000Y-128270000D01*
X160020000Y-130810000D02*
X172720000Y-130810000D01*
X172720000Y-130810000D02*
X173990000Y-129540000D01*
X158750000Y-129540000D02*
X160020000Y-130810000D01*
D16*
G36*
X175482284Y-52633329D02*
X174950606Y-53913749D01*
X174949397Y-55300168D01*
X175478838Y-56581515D01*
X176458329Y-57562716D01*
X177738749Y-58094394D01*
X179125168Y-58095603D01*
X180406515Y-57566162D01*
X181387716Y-56586671D01*
X181820000Y-55545618D01*
X181820000Y-147656354D01*
X181391162Y-146618485D01*
X180411671Y-145637284D01*
X179131251Y-145105606D01*
X177744832Y-145104397D01*
X176463485Y-145633838D01*
X175482284Y-146613329D01*
X174950606Y-147893749D01*
X174949397Y-149280168D01*
X175478838Y-150561515D01*
X175781794Y-150865000D01*
X129018866Y-150865000D01*
X129317716Y-150566671D01*
X129849394Y-149286251D01*
X129850603Y-147899832D01*
X129321162Y-146618485D01*
X128341671Y-145637284D01*
X127061251Y-145105606D01*
X125674832Y-145104397D01*
X124393485Y-145633838D01*
X123412284Y-146613329D01*
X123290000Y-146907821D01*
X123290000Y-76200000D01*
X126742041Y-76200000D01*
X126856115Y-76773489D01*
X127180971Y-77259670D01*
X127495752Y-77470000D01*
X127180971Y-77680330D01*
X126856115Y-78166511D01*
X126742041Y-78740000D01*
X126856115Y-79313489D01*
X127180971Y-79799670D01*
X127495752Y-80010000D01*
X127180971Y-80220330D01*
X126856115Y-80706511D01*
X126742041Y-81280000D01*
X126856115Y-81853489D01*
X127180971Y-82339670D01*
X127495752Y-82550000D01*
X127180971Y-82760330D01*
X126856115Y-83246511D01*
X126742041Y-83820000D01*
X126856115Y-84393489D01*
X127180971Y-84879670D01*
X127495752Y-85090000D01*
X127180971Y-85300330D01*
X126856115Y-85786511D01*
X126742041Y-86360000D01*
X126856115Y-86933489D01*
X127180971Y-87419670D01*
X127495752Y-87630000D01*
X127180971Y-87840330D01*
X126856115Y-88326511D01*
X126742041Y-88900000D01*
X126856115Y-89473489D01*
X127180971Y-89959670D01*
X127495752Y-90170000D01*
X127180971Y-90380330D01*
X126856115Y-90866511D01*
X126742041Y-91440000D01*
X126856115Y-92013489D01*
X127180971Y-92499670D01*
X127495752Y-92710000D01*
X127180971Y-92920330D01*
X126856115Y-93406511D01*
X126742041Y-93980000D01*
X126856115Y-94553489D01*
X127180971Y-95039670D01*
X127495752Y-95250000D01*
X127180971Y-95460330D01*
X126856115Y-95946511D01*
X126742041Y-96520000D01*
X126856115Y-97093489D01*
X127180971Y-97579670D01*
X127495752Y-97790000D01*
X127180971Y-98000330D01*
X126856115Y-98486511D01*
X126742041Y-99060000D01*
X126856115Y-99633489D01*
X127180971Y-100119670D01*
X127495752Y-100330000D01*
X127180971Y-100540330D01*
X126856115Y-101026511D01*
X126742041Y-101600000D01*
X126856115Y-102173489D01*
X127180971Y-102659670D01*
X127495752Y-102870000D01*
X127180971Y-103080330D01*
X126856115Y-103566511D01*
X126742041Y-104140000D01*
X126856115Y-104713489D01*
X127180971Y-105199670D01*
X127495752Y-105410000D01*
X127180971Y-105620330D01*
X126856115Y-106106511D01*
X126742041Y-106680000D01*
X126856115Y-107253489D01*
X127180971Y-107739670D01*
X127495752Y-107950000D01*
X127180971Y-108160330D01*
X126856115Y-108646511D01*
X126742041Y-109220000D01*
X126856115Y-109793489D01*
X127180971Y-110279670D01*
X127495752Y-110490000D01*
X127180971Y-110700330D01*
X126856115Y-111186511D01*
X126742041Y-111760000D01*
X126856115Y-112333489D01*
X127180971Y-112819670D01*
X127495752Y-113030000D01*
X127180971Y-113240330D01*
X126856115Y-113726511D01*
X126742041Y-114300000D01*
X126856115Y-114873489D01*
X127180971Y-115359670D01*
X127495752Y-115570000D01*
X127180971Y-115780330D01*
X126856115Y-116266511D01*
X126742041Y-116840000D01*
X126856115Y-117413489D01*
X127180971Y-117899670D01*
X127495752Y-118110000D01*
X127180971Y-118320330D01*
X126856115Y-118806511D01*
X126742041Y-119380000D01*
X126856115Y-119953489D01*
X127180971Y-120439670D01*
X127495752Y-120650000D01*
X127180971Y-120860330D01*
X126856115Y-121346511D01*
X126742041Y-121920000D01*
X126856115Y-122493489D01*
X127180971Y-122979670D01*
X127495752Y-123190000D01*
X127180971Y-123400330D01*
X126856115Y-123886511D01*
X126742041Y-124460000D01*
X126856115Y-125033489D01*
X127180971Y-125519670D01*
X127495752Y-125730000D01*
X127180971Y-125940330D01*
X126856115Y-126426511D01*
X126742041Y-127000000D01*
X126856115Y-127573489D01*
X127180971Y-128059670D01*
X127495752Y-128270000D01*
X127180971Y-128480330D01*
X126856115Y-128966511D01*
X126742041Y-129540000D01*
X126856115Y-130113489D01*
X127180971Y-130599670D01*
X127495752Y-130810000D01*
X127180971Y-131020330D01*
X126856115Y-131506511D01*
X126742041Y-132080000D01*
X126856115Y-132653489D01*
X127180971Y-133139670D01*
X127667152Y-133464526D01*
X128240641Y-133578600D01*
X128299359Y-133578600D01*
X128628356Y-133513158D01*
X129002599Y-133887401D01*
X129249160Y-134052148D01*
X129540000Y-134110000D01*
X133035198Y-134110000D01*
X137892599Y-138967401D01*
X138139161Y-139132148D01*
X138430000Y-139190000D01*
X147955000Y-139190000D01*
X148245839Y-139132148D01*
X148492401Y-138967401D01*
X151032401Y-136427401D01*
X151197148Y-136180840D01*
X151206746Y-136132586D01*
X151255000Y-135890000D01*
X151255000Y-116519802D01*
X152714802Y-115060000D01*
X157460738Y-115060000D01*
X157660971Y-115359670D01*
X157975752Y-115570000D01*
X157660971Y-115780330D01*
X157336115Y-116266511D01*
X157222041Y-116840000D01*
X157336115Y-117413489D01*
X157660971Y-117899670D01*
X157975752Y-118110000D01*
X157660971Y-118320330D01*
X157336115Y-118806511D01*
X157222041Y-119380000D01*
X157336115Y-119953489D01*
X157660971Y-120439670D01*
X157975752Y-120650000D01*
X157660971Y-120860330D01*
X157336115Y-121346511D01*
X157222041Y-121920000D01*
X157336115Y-122493489D01*
X157660971Y-122979670D01*
X157975752Y-123190000D01*
X157660971Y-123400330D01*
X157336115Y-123886511D01*
X157222041Y-124460000D01*
X157336115Y-125033489D01*
X157660971Y-125519670D01*
X157975752Y-125730000D01*
X157660971Y-125940330D01*
X157336115Y-126426511D01*
X157222041Y-127000000D01*
X157336115Y-127573489D01*
X157660971Y-128059670D01*
X157975752Y-128270000D01*
X157660971Y-128480330D01*
X157336115Y-128966511D01*
X157222041Y-129540000D01*
X157336115Y-130113489D01*
X157660971Y-130599670D01*
X157975752Y-130810000D01*
X157660971Y-131020330D01*
X157336115Y-131506511D01*
X157222041Y-132080000D01*
X157336115Y-132653489D01*
X157538495Y-132956373D01*
X151929868Y-138565000D01*
X150754606Y-138565000D01*
X150673923Y-138484176D01*
X150146691Y-138265250D01*
X149575813Y-138264752D01*
X149048200Y-138482757D01*
X148644176Y-138886077D01*
X148425250Y-139413309D01*
X148424752Y-139984187D01*
X148642757Y-140511800D01*
X149046077Y-140915824D01*
X149573309Y-141134750D01*
X150144187Y-141135248D01*
X150671800Y-140917243D01*
X150754187Y-140835000D01*
X152400000Y-140835000D01*
X152834346Y-140748603D01*
X153202566Y-140502566D01*
X158812319Y-134892813D01*
X159243601Y-134978601D01*
X172226399Y-134978601D01*
X172660745Y-134892204D01*
X173028965Y-134646167D01*
X174115695Y-133559438D01*
X174592848Y-133464526D01*
X175079029Y-133139670D01*
X175259992Y-132868839D01*
X175641510Y-133286821D01*
X176170973Y-133534968D01*
X176403000Y-133414469D01*
X176403000Y-132207000D01*
X176657000Y-132207000D01*
X176657000Y-133414469D01*
X176889027Y-133534968D01*
X177418490Y-133286821D01*
X177812688Y-132854947D01*
X177984958Y-132439026D01*
X177863817Y-132207000D01*
X176657000Y-132207000D01*
X176403000Y-132207000D01*
X176383000Y-132207000D01*
X176383000Y-131953000D01*
X176403000Y-131953000D01*
X176403000Y-131933000D01*
X176657000Y-131933000D01*
X176657000Y-131953000D01*
X177863817Y-131953000D01*
X177984958Y-131720974D01*
X177812688Y-131305053D01*
X177418490Y-130873179D01*
X177295772Y-130815664D01*
X177619029Y-130599670D01*
X177943885Y-130113489D01*
X178057959Y-129540000D01*
X177943885Y-128966511D01*
X177619029Y-128480330D01*
X177304248Y-128270000D01*
X177619029Y-128059670D01*
X177943885Y-127573489D01*
X178057959Y-127000000D01*
X177943885Y-126426511D01*
X177619029Y-125940330D01*
X177304248Y-125730000D01*
X177619029Y-125519670D01*
X177943885Y-125033489D01*
X178057959Y-124460000D01*
X177943885Y-123886511D01*
X177619029Y-123400330D01*
X177304248Y-123190000D01*
X177619029Y-122979670D01*
X177943885Y-122493489D01*
X178057959Y-121920000D01*
X177943885Y-121346511D01*
X177619029Y-120860330D01*
X177304248Y-120650000D01*
X177619029Y-120439670D01*
X177943885Y-119953489D01*
X178057959Y-119380000D01*
X177943885Y-118806511D01*
X177619029Y-118320330D01*
X177304248Y-118110000D01*
X177619029Y-117899670D01*
X177943885Y-117413489D01*
X178057959Y-116840000D01*
X177943885Y-116266511D01*
X177619029Y-115780330D01*
X177304248Y-115570000D01*
X177619029Y-115359670D01*
X177943885Y-114873489D01*
X178057959Y-114300000D01*
X177943885Y-113726511D01*
X177619029Y-113240330D01*
X177132848Y-112915474D01*
X176559359Y-112801400D01*
X176500641Y-112801400D01*
X175927152Y-112915474D01*
X175455644Y-113230526D01*
X175391927Y-113076701D01*
X175213298Y-112898073D01*
X174979909Y-112801400D01*
X174275750Y-112801400D01*
X174117000Y-112960150D01*
X174117000Y-114173000D01*
X174137000Y-114173000D01*
X174137000Y-114427000D01*
X174117000Y-114427000D01*
X174117000Y-114447000D01*
X173863000Y-114447000D01*
X173863000Y-114427000D01*
X172650150Y-114427000D01*
X172491400Y-114585750D01*
X172491400Y-115289910D01*
X172588073Y-115523299D01*
X172766702Y-115701927D01*
X172922023Y-115766263D01*
X172900971Y-115780330D01*
X172576115Y-116266511D01*
X172462041Y-116840000D01*
X172537225Y-117217973D01*
X172405198Y-117350000D01*
X162682426Y-117350000D01*
X162744958Y-117199026D01*
X162623817Y-116967000D01*
X161417000Y-116967000D01*
X161417000Y-116987000D01*
X161163000Y-116987000D01*
X161163000Y-116967000D01*
X161143000Y-116967000D01*
X161143000Y-116713000D01*
X161163000Y-116713000D01*
X161163000Y-114427000D01*
X161417000Y-114427000D01*
X161417000Y-116713000D01*
X162623817Y-116713000D01*
X162744958Y-116480974D01*
X162572688Y-116065053D01*
X162178490Y-115633179D01*
X162043687Y-115570000D01*
X162178490Y-115506821D01*
X162572688Y-115074947D01*
X162744958Y-114659026D01*
X162623817Y-114427000D01*
X161417000Y-114427000D01*
X161163000Y-114427000D01*
X161143000Y-114427000D01*
X161143000Y-114173000D01*
X161163000Y-114173000D01*
X161163000Y-111887000D01*
X161417000Y-111887000D01*
X161417000Y-114173000D01*
X162623817Y-114173000D01*
X162744958Y-113940974D01*
X162572688Y-113525053D01*
X162376479Y-113310090D01*
X172491400Y-113310090D01*
X172491400Y-114014250D01*
X172650150Y-114173000D01*
X173863000Y-114173000D01*
X173863000Y-112960150D01*
X173704250Y-112801400D01*
X173000091Y-112801400D01*
X172766702Y-112898073D01*
X172588073Y-113076701D01*
X172491400Y-113310090D01*
X162376479Y-113310090D01*
X162178490Y-113093179D01*
X162043687Y-113030000D01*
X162178490Y-112966821D01*
X162572688Y-112534947D01*
X162744958Y-112119026D01*
X162623817Y-111887000D01*
X161417000Y-111887000D01*
X161163000Y-111887000D01*
X161143000Y-111887000D01*
X161143000Y-111633000D01*
X161163000Y-111633000D01*
X161163000Y-109347000D01*
X161417000Y-109347000D01*
X161417000Y-111633000D01*
X162623817Y-111633000D01*
X162744958Y-111400974D01*
X162572688Y-110985053D01*
X162178490Y-110553179D01*
X162043687Y-110490000D01*
X162178490Y-110426821D01*
X162572688Y-109994947D01*
X162744958Y-109579026D01*
X162623817Y-109347000D01*
X161417000Y-109347000D01*
X161163000Y-109347000D01*
X161143000Y-109347000D01*
X161143000Y-109093000D01*
X161163000Y-109093000D01*
X161163000Y-106807000D01*
X161417000Y-106807000D01*
X161417000Y-109093000D01*
X162623817Y-109093000D01*
X162744958Y-108860974D01*
X162572688Y-108445053D01*
X162178490Y-108013179D01*
X162043687Y-107950000D01*
X162178490Y-107886821D01*
X162572688Y-107454947D01*
X162744958Y-107039026D01*
X162623817Y-106807000D01*
X161417000Y-106807000D01*
X161163000Y-106807000D01*
X161143000Y-106807000D01*
X161143000Y-106553000D01*
X161163000Y-106553000D01*
X161163000Y-104267000D01*
X161417000Y-104267000D01*
X161417000Y-106553000D01*
X162623817Y-106553000D01*
X162744958Y-106320974D01*
X162572688Y-105905053D01*
X162178490Y-105473179D01*
X162043687Y-105410000D01*
X162178490Y-105346821D01*
X162572688Y-104914947D01*
X162744958Y-104499026D01*
X162623817Y-104267000D01*
X161417000Y-104267000D01*
X161163000Y-104267000D01*
X161143000Y-104267000D01*
X161143000Y-104013000D01*
X161163000Y-104013000D01*
X161163000Y-101727000D01*
X161417000Y-101727000D01*
X161417000Y-104013000D01*
X162623817Y-104013000D01*
X162744958Y-103780974D01*
X162572688Y-103365053D01*
X162178490Y-102933179D01*
X162043687Y-102870000D01*
X162178490Y-102806821D01*
X162572688Y-102374947D01*
X162744958Y-101959026D01*
X162623817Y-101727000D01*
X161417000Y-101727000D01*
X161163000Y-101727000D01*
X161143000Y-101727000D01*
X161143000Y-101473000D01*
X161163000Y-101473000D01*
X161163000Y-99187000D01*
X161417000Y-99187000D01*
X161417000Y-101473000D01*
X162623817Y-101473000D01*
X162744958Y-101240974D01*
X162572688Y-100825053D01*
X162178490Y-100393179D01*
X162043687Y-100330000D01*
X162178490Y-100266821D01*
X162572688Y-99834947D01*
X162744958Y-99419026D01*
X162623817Y-99187000D01*
X161417000Y-99187000D01*
X161163000Y-99187000D01*
X161143000Y-99187000D01*
X161143000Y-98933000D01*
X161163000Y-98933000D01*
X161163000Y-96647000D01*
X161417000Y-96647000D01*
X161417000Y-98933000D01*
X162623817Y-98933000D01*
X162744958Y-98700974D01*
X162572688Y-98285053D01*
X162178490Y-97853179D01*
X162043687Y-97790000D01*
X162178490Y-97726821D01*
X162572688Y-97294947D01*
X162744958Y-96879026D01*
X162623817Y-96647000D01*
X161417000Y-96647000D01*
X161163000Y-96647000D01*
X161143000Y-96647000D01*
X161143000Y-96393000D01*
X161163000Y-96393000D01*
X161163000Y-94107000D01*
X161417000Y-94107000D01*
X161417000Y-96393000D01*
X162623817Y-96393000D01*
X162744958Y-96160974D01*
X162572688Y-95745053D01*
X162178490Y-95313179D01*
X162043687Y-95250000D01*
X162178490Y-95186821D01*
X162572688Y-94754947D01*
X162744958Y-94339026D01*
X162623817Y-94107000D01*
X161417000Y-94107000D01*
X161163000Y-94107000D01*
X161143000Y-94107000D01*
X161143000Y-93853000D01*
X161163000Y-93853000D01*
X161163000Y-91567000D01*
X161417000Y-91567000D01*
X161417000Y-93853000D01*
X162623817Y-93853000D01*
X162744958Y-93620974D01*
X162572688Y-93205053D01*
X162178490Y-92773179D01*
X162043687Y-92710000D01*
X162178490Y-92646821D01*
X162572688Y-92214947D01*
X162744958Y-91799026D01*
X162623817Y-91567000D01*
X161417000Y-91567000D01*
X161163000Y-91567000D01*
X161143000Y-91567000D01*
X161143000Y-91313000D01*
X161163000Y-91313000D01*
X161163000Y-89027000D01*
X161417000Y-89027000D01*
X161417000Y-91313000D01*
X162623817Y-91313000D01*
X162744958Y-91080974D01*
X162572688Y-90665053D01*
X162178490Y-90233179D01*
X162043687Y-90170000D01*
X162178490Y-90106821D01*
X162572688Y-89674947D01*
X162744958Y-89259026D01*
X162623817Y-89027000D01*
X161417000Y-89027000D01*
X161163000Y-89027000D01*
X161143000Y-89027000D01*
X161143000Y-88773000D01*
X161163000Y-88773000D01*
X161163000Y-86487000D01*
X161417000Y-86487000D01*
X161417000Y-88773000D01*
X162623817Y-88773000D01*
X162744958Y-88540974D01*
X162572688Y-88125053D01*
X162178490Y-87693179D01*
X162043687Y-87630000D01*
X162178490Y-87566821D01*
X162572688Y-87134947D01*
X162744958Y-86719026D01*
X162623817Y-86487000D01*
X161417000Y-86487000D01*
X161163000Y-86487000D01*
X161143000Y-86487000D01*
X161143000Y-86233000D01*
X161163000Y-86233000D01*
X161163000Y-83947000D01*
X161417000Y-83947000D01*
X161417000Y-86233000D01*
X162623817Y-86233000D01*
X162744958Y-86000974D01*
X162572688Y-85585053D01*
X162178490Y-85153179D01*
X162043687Y-85090000D01*
X162178490Y-85026821D01*
X162572688Y-84594947D01*
X162744958Y-84179026D01*
X162623817Y-83947000D01*
X161417000Y-83947000D01*
X161163000Y-83947000D01*
X161143000Y-83947000D01*
X161143000Y-83693000D01*
X161163000Y-83693000D01*
X161163000Y-81407000D01*
X161417000Y-81407000D01*
X161417000Y-83693000D01*
X162623817Y-83693000D01*
X162744958Y-83460974D01*
X162572688Y-83045053D01*
X162178490Y-82613179D01*
X162043687Y-82550000D01*
X162178490Y-82486821D01*
X162572688Y-82054947D01*
X162744958Y-81639026D01*
X162623817Y-81407000D01*
X161417000Y-81407000D01*
X161163000Y-81407000D01*
X161143000Y-81407000D01*
X161143000Y-81153000D01*
X161163000Y-81153000D01*
X161163000Y-78867000D01*
X161417000Y-78867000D01*
X161417000Y-81153000D01*
X162623817Y-81153000D01*
X162744958Y-80920974D01*
X162572688Y-80505053D01*
X162178490Y-80073179D01*
X162043687Y-80010000D01*
X162178490Y-79946821D01*
X162572688Y-79514947D01*
X162744958Y-79099026D01*
X162623817Y-78867000D01*
X161417000Y-78867000D01*
X161163000Y-78867000D01*
X161143000Y-78867000D01*
X161143000Y-78613000D01*
X161163000Y-78613000D01*
X161163000Y-76327000D01*
X161417000Y-76327000D01*
X161417000Y-78613000D01*
X162623817Y-78613000D01*
X162744958Y-78380974D01*
X162572688Y-77965053D01*
X162178490Y-77533179D01*
X162043687Y-77470000D01*
X162178490Y-77406821D01*
X162572688Y-76974947D01*
X162744958Y-76559026D01*
X162623817Y-76327000D01*
X161417000Y-76327000D01*
X161163000Y-76327000D01*
X161143000Y-76327000D01*
X161143000Y-76073000D01*
X161163000Y-76073000D01*
X161163000Y-73787000D01*
X161417000Y-73787000D01*
X161417000Y-76073000D01*
X162623817Y-76073000D01*
X162744958Y-75840974D01*
X162572688Y-75425053D01*
X162178490Y-74993179D01*
X162043687Y-74930000D01*
X162178490Y-74866821D01*
X162572688Y-74434947D01*
X162744958Y-74019026D01*
X162623817Y-73787000D01*
X161417000Y-73787000D01*
X161163000Y-73787000D01*
X161143000Y-73787000D01*
X161143000Y-73533000D01*
X161163000Y-73533000D01*
X161163000Y-71247000D01*
X161417000Y-71247000D01*
X161417000Y-73533000D01*
X162623817Y-73533000D01*
X162744958Y-73300974D01*
X162572688Y-72885053D01*
X162178490Y-72453179D01*
X162043687Y-72390000D01*
X162178490Y-72326821D01*
X162572688Y-71894947D01*
X162744958Y-71479026D01*
X162623817Y-71247000D01*
X161417000Y-71247000D01*
X161163000Y-71247000D01*
X161143000Y-71247000D01*
X161143000Y-70993000D01*
X161163000Y-70993000D01*
X161163000Y-69785531D01*
X161417000Y-69785531D01*
X161417000Y-70993000D01*
X162623817Y-70993000D01*
X162744958Y-70760974D01*
X162572688Y-70345053D01*
X162178490Y-69913179D01*
X161649027Y-69665032D01*
X161417000Y-69785531D01*
X161163000Y-69785531D01*
X160930973Y-69665032D01*
X160401510Y-69913179D01*
X160230119Y-70100950D01*
X160211757Y-70008635D01*
X160071409Y-69798591D01*
X159861365Y-69658243D01*
X159613600Y-69608960D01*
X157886400Y-69608960D01*
X157638635Y-69658243D01*
X157605000Y-69680717D01*
X157605000Y-60960000D01*
X157547148Y-60669161D01*
X157547148Y-60669160D01*
X157382401Y-60422599D01*
X154842401Y-57882599D01*
X154595839Y-57717852D01*
X154305000Y-57660000D01*
X135255000Y-57660000D01*
X135012414Y-57708254D01*
X134964160Y-57717852D01*
X134717599Y-57882599D01*
X132177599Y-60422599D01*
X132012852Y-60669161D01*
X131955000Y-60960000D01*
X131955000Y-70194205D01*
X131698490Y-69913179D01*
X131169027Y-69665032D01*
X130937000Y-69785531D01*
X130937000Y-70993000D01*
X130957000Y-70993000D01*
X130957000Y-71247000D01*
X130937000Y-71247000D01*
X130937000Y-73533000D01*
X130957000Y-73533000D01*
X130957000Y-73787000D01*
X130937000Y-73787000D01*
X130937000Y-73807000D01*
X130683000Y-73807000D01*
X130683000Y-73787000D01*
X128397000Y-73787000D01*
X128397000Y-73807000D01*
X128143000Y-73807000D01*
X128143000Y-73787000D01*
X126936183Y-73787000D01*
X126815042Y-74019026D01*
X126987312Y-74434947D01*
X127381510Y-74866821D01*
X127504228Y-74924336D01*
X127180971Y-75140330D01*
X126856115Y-75626511D01*
X126742041Y-76200000D01*
X123290000Y-76200000D01*
X123290000Y-71405750D01*
X126771400Y-71405750D01*
X126771400Y-72109910D01*
X126868073Y-72343299D01*
X127046702Y-72521927D01*
X127244120Y-72603700D01*
X126987312Y-72885053D01*
X126815042Y-73300974D01*
X126936183Y-73533000D01*
X128143000Y-73533000D01*
X128143000Y-71247000D01*
X128397000Y-71247000D01*
X128397000Y-73533000D01*
X130683000Y-73533000D01*
X130683000Y-71247000D01*
X128397000Y-71247000D01*
X128143000Y-71247000D01*
X126930150Y-71247000D01*
X126771400Y-71405750D01*
X123290000Y-71405750D01*
X123290000Y-70130090D01*
X126771400Y-70130090D01*
X126771400Y-70834250D01*
X126930150Y-70993000D01*
X128143000Y-70993000D01*
X128143000Y-69780150D01*
X128397000Y-69780150D01*
X128397000Y-70993000D01*
X130683000Y-70993000D01*
X130683000Y-69785531D01*
X130450973Y-69665032D01*
X129921510Y-69913179D01*
X129754529Y-70096119D01*
X129671927Y-69896701D01*
X129493298Y-69718073D01*
X129259909Y-69621400D01*
X128555750Y-69621400D01*
X128397000Y-69780150D01*
X128143000Y-69780150D01*
X127984250Y-69621400D01*
X127280091Y-69621400D01*
X127046702Y-69718073D01*
X126868073Y-69896701D01*
X126771400Y-70130090D01*
X123290000Y-70130090D01*
X123290000Y-56293905D01*
X123408838Y-56581515D01*
X124388329Y-57562716D01*
X125668749Y-58094394D01*
X127055168Y-58095603D01*
X128336515Y-57566162D01*
X129317716Y-56586671D01*
X129849394Y-55306251D01*
X129850603Y-53919832D01*
X129321162Y-52638485D01*
X129018206Y-52335000D01*
X175781134Y-52335000D01*
X175482284Y-52633329D01*
X175482284Y-52633329D01*
G37*
X175482284Y-52633329D02*
X174950606Y-53913749D01*
X174949397Y-55300168D01*
X175478838Y-56581515D01*
X176458329Y-57562716D01*
X177738749Y-58094394D01*
X179125168Y-58095603D01*
X180406515Y-57566162D01*
X181387716Y-56586671D01*
X181820000Y-55545618D01*
X181820000Y-147656354D01*
X181391162Y-146618485D01*
X180411671Y-145637284D01*
X179131251Y-145105606D01*
X177744832Y-145104397D01*
X176463485Y-145633838D01*
X175482284Y-146613329D01*
X174950606Y-147893749D01*
X174949397Y-149280168D01*
X175478838Y-150561515D01*
X175781794Y-150865000D01*
X129018866Y-150865000D01*
X129317716Y-150566671D01*
X129849394Y-149286251D01*
X129850603Y-147899832D01*
X129321162Y-146618485D01*
X128341671Y-145637284D01*
X127061251Y-145105606D01*
X125674832Y-145104397D01*
X124393485Y-145633838D01*
X123412284Y-146613329D01*
X123290000Y-146907821D01*
X123290000Y-76200000D01*
X126742041Y-76200000D01*
X126856115Y-76773489D01*
X127180971Y-77259670D01*
X127495752Y-77470000D01*
X127180971Y-77680330D01*
X126856115Y-78166511D01*
X126742041Y-78740000D01*
X126856115Y-79313489D01*
X127180971Y-79799670D01*
X127495752Y-80010000D01*
X127180971Y-80220330D01*
X126856115Y-80706511D01*
X126742041Y-81280000D01*
X126856115Y-81853489D01*
X127180971Y-82339670D01*
X127495752Y-82550000D01*
X127180971Y-82760330D01*
X126856115Y-83246511D01*
X126742041Y-83820000D01*
X126856115Y-84393489D01*
X127180971Y-84879670D01*
X127495752Y-85090000D01*
X127180971Y-85300330D01*
X126856115Y-85786511D01*
X126742041Y-86360000D01*
X126856115Y-86933489D01*
X127180971Y-87419670D01*
X127495752Y-87630000D01*
X127180971Y-87840330D01*
X126856115Y-88326511D01*
X126742041Y-88900000D01*
X126856115Y-89473489D01*
X127180971Y-89959670D01*
X127495752Y-90170000D01*
X127180971Y-90380330D01*
X126856115Y-90866511D01*
X126742041Y-91440000D01*
X126856115Y-92013489D01*
X127180971Y-92499670D01*
X127495752Y-92710000D01*
X127180971Y-92920330D01*
X126856115Y-93406511D01*
X126742041Y-93980000D01*
X126856115Y-94553489D01*
X127180971Y-95039670D01*
X127495752Y-95250000D01*
X127180971Y-95460330D01*
X126856115Y-95946511D01*
X126742041Y-96520000D01*
X126856115Y-97093489D01*
X127180971Y-97579670D01*
X127495752Y-97790000D01*
X127180971Y-98000330D01*
X126856115Y-98486511D01*
X126742041Y-99060000D01*
X126856115Y-99633489D01*
X127180971Y-100119670D01*
X127495752Y-100330000D01*
X127180971Y-100540330D01*
X126856115Y-101026511D01*
X126742041Y-101600000D01*
X126856115Y-102173489D01*
X127180971Y-102659670D01*
X127495752Y-102870000D01*
X127180971Y-103080330D01*
X126856115Y-103566511D01*
X126742041Y-104140000D01*
X126856115Y-104713489D01*
X127180971Y-105199670D01*
X127495752Y-105410000D01*
X127180971Y-105620330D01*
X126856115Y-106106511D01*
X126742041Y-106680000D01*
X126856115Y-107253489D01*
X127180971Y-107739670D01*
X127495752Y-107950000D01*
X127180971Y-108160330D01*
X126856115Y-108646511D01*
X126742041Y-109220000D01*
X126856115Y-109793489D01*
X127180971Y-110279670D01*
X127495752Y-110490000D01*
X127180971Y-110700330D01*
X126856115Y-111186511D01*
X126742041Y-111760000D01*
X126856115Y-112333489D01*
X127180971Y-112819670D01*
X127495752Y-113030000D01*
X127180971Y-113240330D01*
X126856115Y-113726511D01*
X126742041Y-114300000D01*
X126856115Y-114873489D01*
X127180971Y-115359670D01*
X127495752Y-115570000D01*
X127180971Y-115780330D01*
X126856115Y-116266511D01*
X126742041Y-116840000D01*
X126856115Y-117413489D01*
X127180971Y-117899670D01*
X127495752Y-118110000D01*
X127180971Y-118320330D01*
X126856115Y-118806511D01*
X126742041Y-119380000D01*
X126856115Y-119953489D01*
X127180971Y-120439670D01*
X127495752Y-120650000D01*
X127180971Y-120860330D01*
X126856115Y-121346511D01*
X126742041Y-121920000D01*
X126856115Y-122493489D01*
X127180971Y-122979670D01*
X127495752Y-123190000D01*
X127180971Y-123400330D01*
X126856115Y-123886511D01*
X126742041Y-124460000D01*
X126856115Y-125033489D01*
X127180971Y-125519670D01*
X127495752Y-125730000D01*
X127180971Y-125940330D01*
X126856115Y-126426511D01*
X126742041Y-127000000D01*
X126856115Y-127573489D01*
X127180971Y-128059670D01*
X127495752Y-128270000D01*
X127180971Y-128480330D01*
X126856115Y-128966511D01*
X126742041Y-129540000D01*
X126856115Y-130113489D01*
X127180971Y-130599670D01*
X127495752Y-130810000D01*
X127180971Y-131020330D01*
X126856115Y-131506511D01*
X126742041Y-132080000D01*
X126856115Y-132653489D01*
X127180971Y-133139670D01*
X127667152Y-133464526D01*
X128240641Y-133578600D01*
X128299359Y-133578600D01*
X128628356Y-133513158D01*
X129002599Y-133887401D01*
X129249160Y-134052148D01*
X129540000Y-134110000D01*
X133035198Y-134110000D01*
X137892599Y-138967401D01*
X138139161Y-139132148D01*
X138430000Y-139190000D01*
X147955000Y-139190000D01*
X148245839Y-139132148D01*
X148492401Y-138967401D01*
X151032401Y-136427401D01*
X151197148Y-136180840D01*
X151206746Y-136132586D01*
X151255000Y-135890000D01*
X151255000Y-116519802D01*
X152714802Y-115060000D01*
X157460738Y-115060000D01*
X157660971Y-115359670D01*
X157975752Y-115570000D01*
X157660971Y-115780330D01*
X157336115Y-116266511D01*
X157222041Y-116840000D01*
X157336115Y-117413489D01*
X157660971Y-117899670D01*
X157975752Y-118110000D01*
X157660971Y-118320330D01*
X157336115Y-118806511D01*
X157222041Y-119380000D01*
X157336115Y-119953489D01*
X157660971Y-120439670D01*
X157975752Y-120650000D01*
X157660971Y-120860330D01*
X157336115Y-121346511D01*
X157222041Y-121920000D01*
X157336115Y-122493489D01*
X157660971Y-122979670D01*
X157975752Y-123190000D01*
X157660971Y-123400330D01*
X157336115Y-123886511D01*
X157222041Y-124460000D01*
X157336115Y-125033489D01*
X157660971Y-125519670D01*
X157975752Y-125730000D01*
X157660971Y-125940330D01*
X157336115Y-126426511D01*
X157222041Y-127000000D01*
X157336115Y-127573489D01*
X157660971Y-128059670D01*
X157975752Y-128270000D01*
X157660971Y-128480330D01*
X157336115Y-128966511D01*
X157222041Y-129540000D01*
X157336115Y-130113489D01*
X157660971Y-130599670D01*
X157975752Y-130810000D01*
X157660971Y-131020330D01*
X157336115Y-131506511D01*
X157222041Y-132080000D01*
X157336115Y-132653489D01*
X157538495Y-132956373D01*
X151929868Y-138565000D01*
X150754606Y-138565000D01*
X150673923Y-138484176D01*
X150146691Y-138265250D01*
X149575813Y-138264752D01*
X149048200Y-138482757D01*
X148644176Y-138886077D01*
X148425250Y-139413309D01*
X148424752Y-139984187D01*
X148642757Y-140511800D01*
X149046077Y-140915824D01*
X149573309Y-141134750D01*
X150144187Y-141135248D01*
X150671800Y-140917243D01*
X150754187Y-140835000D01*
X152400000Y-140835000D01*
X152834346Y-140748603D01*
X153202566Y-140502566D01*
X158812319Y-134892813D01*
X159243601Y-134978601D01*
X172226399Y-134978601D01*
X172660745Y-134892204D01*
X173028965Y-134646167D01*
X174115695Y-133559438D01*
X174592848Y-133464526D01*
X175079029Y-133139670D01*
X175259992Y-132868839D01*
X175641510Y-133286821D01*
X176170973Y-133534968D01*
X176403000Y-133414469D01*
X176403000Y-132207000D01*
X176657000Y-132207000D01*
X176657000Y-133414469D01*
X176889027Y-133534968D01*
X177418490Y-133286821D01*
X177812688Y-132854947D01*
X177984958Y-132439026D01*
X177863817Y-132207000D01*
X176657000Y-132207000D01*
X176403000Y-132207000D01*
X176383000Y-132207000D01*
X176383000Y-131953000D01*
X176403000Y-131953000D01*
X176403000Y-131933000D01*
X176657000Y-131933000D01*
X176657000Y-131953000D01*
X177863817Y-131953000D01*
X177984958Y-131720974D01*
X177812688Y-131305053D01*
X177418490Y-130873179D01*
X177295772Y-130815664D01*
X177619029Y-130599670D01*
X177943885Y-130113489D01*
X178057959Y-129540000D01*
X177943885Y-128966511D01*
X177619029Y-128480330D01*
X177304248Y-128270000D01*
X177619029Y-128059670D01*
X177943885Y-127573489D01*
X178057959Y-127000000D01*
X177943885Y-126426511D01*
X177619029Y-125940330D01*
X177304248Y-125730000D01*
X177619029Y-125519670D01*
X177943885Y-125033489D01*
X178057959Y-124460000D01*
X177943885Y-123886511D01*
X177619029Y-123400330D01*
X177304248Y-123190000D01*
X177619029Y-122979670D01*
X177943885Y-122493489D01*
X178057959Y-121920000D01*
X177943885Y-121346511D01*
X177619029Y-120860330D01*
X177304248Y-120650000D01*
X177619029Y-120439670D01*
X177943885Y-119953489D01*
X178057959Y-119380000D01*
X177943885Y-118806511D01*
X177619029Y-118320330D01*
X177304248Y-118110000D01*
X177619029Y-117899670D01*
X177943885Y-117413489D01*
X178057959Y-116840000D01*
X177943885Y-116266511D01*
X177619029Y-115780330D01*
X177304248Y-115570000D01*
X177619029Y-115359670D01*
X177943885Y-114873489D01*
X178057959Y-114300000D01*
X177943885Y-113726511D01*
X177619029Y-113240330D01*
X177132848Y-112915474D01*
X176559359Y-112801400D01*
X176500641Y-112801400D01*
X175927152Y-112915474D01*
X175455644Y-113230526D01*
X175391927Y-113076701D01*
X175213298Y-112898073D01*
X174979909Y-112801400D01*
X174275750Y-112801400D01*
X174117000Y-112960150D01*
X174117000Y-114173000D01*
X174137000Y-114173000D01*
X174137000Y-114427000D01*
X174117000Y-114427000D01*
X174117000Y-114447000D01*
X173863000Y-114447000D01*
X173863000Y-114427000D01*
X172650150Y-114427000D01*
X172491400Y-114585750D01*
X172491400Y-115289910D01*
X172588073Y-115523299D01*
X172766702Y-115701927D01*
X172922023Y-115766263D01*
X172900971Y-115780330D01*
X172576115Y-116266511D01*
X172462041Y-116840000D01*
X172537225Y-117217973D01*
X172405198Y-117350000D01*
X162682426Y-117350000D01*
X162744958Y-117199026D01*
X162623817Y-116967000D01*
X161417000Y-116967000D01*
X161417000Y-116987000D01*
X161163000Y-116987000D01*
X161163000Y-116967000D01*
X161143000Y-116967000D01*
X161143000Y-116713000D01*
X161163000Y-116713000D01*
X161163000Y-114427000D01*
X161417000Y-114427000D01*
X161417000Y-116713000D01*
X162623817Y-116713000D01*
X162744958Y-116480974D01*
X162572688Y-116065053D01*
X162178490Y-115633179D01*
X162043687Y-115570000D01*
X162178490Y-115506821D01*
X162572688Y-115074947D01*
X162744958Y-114659026D01*
X162623817Y-114427000D01*
X161417000Y-114427000D01*
X161163000Y-114427000D01*
X161143000Y-114427000D01*
X161143000Y-114173000D01*
X161163000Y-114173000D01*
X161163000Y-111887000D01*
X161417000Y-111887000D01*
X161417000Y-114173000D01*
X162623817Y-114173000D01*
X162744958Y-113940974D01*
X162572688Y-113525053D01*
X162376479Y-113310090D01*
X172491400Y-113310090D01*
X172491400Y-114014250D01*
X172650150Y-114173000D01*
X173863000Y-114173000D01*
X173863000Y-112960150D01*
X173704250Y-112801400D01*
X173000091Y-112801400D01*
X172766702Y-112898073D01*
X172588073Y-113076701D01*
X172491400Y-113310090D01*
X162376479Y-113310090D01*
X162178490Y-113093179D01*
X162043687Y-113030000D01*
X162178490Y-112966821D01*
X162572688Y-112534947D01*
X162744958Y-112119026D01*
X162623817Y-111887000D01*
X161417000Y-111887000D01*
X161163000Y-111887000D01*
X161143000Y-111887000D01*
X161143000Y-111633000D01*
X161163000Y-111633000D01*
X161163000Y-109347000D01*
X161417000Y-109347000D01*
X161417000Y-111633000D01*
X162623817Y-111633000D01*
X162744958Y-111400974D01*
X162572688Y-110985053D01*
X162178490Y-110553179D01*
X162043687Y-110490000D01*
X162178490Y-110426821D01*
X162572688Y-109994947D01*
X162744958Y-109579026D01*
X162623817Y-109347000D01*
X161417000Y-109347000D01*
X161163000Y-109347000D01*
X161143000Y-109347000D01*
X161143000Y-109093000D01*
X161163000Y-109093000D01*
X161163000Y-106807000D01*
X161417000Y-106807000D01*
X161417000Y-109093000D01*
X162623817Y-109093000D01*
X162744958Y-108860974D01*
X162572688Y-108445053D01*
X162178490Y-108013179D01*
X162043687Y-107950000D01*
X162178490Y-107886821D01*
X162572688Y-107454947D01*
X162744958Y-107039026D01*
X162623817Y-106807000D01*
X161417000Y-106807000D01*
X161163000Y-106807000D01*
X161143000Y-106807000D01*
X161143000Y-106553000D01*
X161163000Y-106553000D01*
X161163000Y-104267000D01*
X161417000Y-104267000D01*
X161417000Y-106553000D01*
X162623817Y-106553000D01*
X162744958Y-106320974D01*
X162572688Y-105905053D01*
X162178490Y-105473179D01*
X162043687Y-105410000D01*
X162178490Y-105346821D01*
X162572688Y-104914947D01*
X162744958Y-104499026D01*
X162623817Y-104267000D01*
X161417000Y-104267000D01*
X161163000Y-104267000D01*
X161143000Y-104267000D01*
X161143000Y-104013000D01*
X161163000Y-104013000D01*
X161163000Y-101727000D01*
X161417000Y-101727000D01*
X161417000Y-104013000D01*
X162623817Y-104013000D01*
X162744958Y-103780974D01*
X162572688Y-103365053D01*
X162178490Y-102933179D01*
X162043687Y-102870000D01*
X162178490Y-102806821D01*
X162572688Y-102374947D01*
X162744958Y-101959026D01*
X162623817Y-101727000D01*
X161417000Y-101727000D01*
X161163000Y-101727000D01*
X161143000Y-101727000D01*
X161143000Y-101473000D01*
X161163000Y-101473000D01*
X161163000Y-99187000D01*
X161417000Y-99187000D01*
X161417000Y-101473000D01*
X162623817Y-101473000D01*
X162744958Y-101240974D01*
X162572688Y-100825053D01*
X162178490Y-100393179D01*
X162043687Y-100330000D01*
X162178490Y-100266821D01*
X162572688Y-99834947D01*
X162744958Y-99419026D01*
X162623817Y-99187000D01*
X161417000Y-99187000D01*
X161163000Y-99187000D01*
X161143000Y-99187000D01*
X161143000Y-98933000D01*
X161163000Y-98933000D01*
X161163000Y-96647000D01*
X161417000Y-96647000D01*
X161417000Y-98933000D01*
X162623817Y-98933000D01*
X162744958Y-98700974D01*
X162572688Y-98285053D01*
X162178490Y-97853179D01*
X162043687Y-97790000D01*
X162178490Y-97726821D01*
X162572688Y-97294947D01*
X162744958Y-96879026D01*
X162623817Y-96647000D01*
X161417000Y-96647000D01*
X161163000Y-96647000D01*
X161143000Y-96647000D01*
X161143000Y-96393000D01*
X161163000Y-96393000D01*
X161163000Y-94107000D01*
X161417000Y-94107000D01*
X161417000Y-96393000D01*
X162623817Y-96393000D01*
X162744958Y-96160974D01*
X162572688Y-95745053D01*
X162178490Y-95313179D01*
X162043687Y-95250000D01*
X162178490Y-95186821D01*
X162572688Y-94754947D01*
X162744958Y-94339026D01*
X162623817Y-94107000D01*
X161417000Y-94107000D01*
X161163000Y-94107000D01*
X161143000Y-94107000D01*
X161143000Y-93853000D01*
X161163000Y-93853000D01*
X161163000Y-91567000D01*
X161417000Y-91567000D01*
X161417000Y-93853000D01*
X162623817Y-93853000D01*
X162744958Y-93620974D01*
X162572688Y-93205053D01*
X162178490Y-92773179D01*
X162043687Y-92710000D01*
X162178490Y-92646821D01*
X162572688Y-92214947D01*
X162744958Y-91799026D01*
X162623817Y-91567000D01*
X161417000Y-91567000D01*
X161163000Y-91567000D01*
X161143000Y-91567000D01*
X161143000Y-91313000D01*
X161163000Y-91313000D01*
X161163000Y-89027000D01*
X161417000Y-89027000D01*
X161417000Y-91313000D01*
X162623817Y-91313000D01*
X162744958Y-91080974D01*
X162572688Y-90665053D01*
X162178490Y-90233179D01*
X162043687Y-90170000D01*
X162178490Y-90106821D01*
X162572688Y-89674947D01*
X162744958Y-89259026D01*
X162623817Y-89027000D01*
X161417000Y-89027000D01*
X161163000Y-89027000D01*
X161143000Y-89027000D01*
X161143000Y-88773000D01*
X161163000Y-88773000D01*
X161163000Y-86487000D01*
X161417000Y-86487000D01*
X161417000Y-88773000D01*
X162623817Y-88773000D01*
X162744958Y-88540974D01*
X162572688Y-88125053D01*
X162178490Y-87693179D01*
X162043687Y-87630000D01*
X162178490Y-87566821D01*
X162572688Y-87134947D01*
X162744958Y-86719026D01*
X162623817Y-86487000D01*
X161417000Y-86487000D01*
X161163000Y-86487000D01*
X161143000Y-86487000D01*
X161143000Y-86233000D01*
X161163000Y-86233000D01*
X161163000Y-83947000D01*
X161417000Y-83947000D01*
X161417000Y-86233000D01*
X162623817Y-86233000D01*
X162744958Y-86000974D01*
X162572688Y-85585053D01*
X162178490Y-85153179D01*
X162043687Y-85090000D01*
X162178490Y-85026821D01*
X162572688Y-84594947D01*
X162744958Y-84179026D01*
X162623817Y-83947000D01*
X161417000Y-83947000D01*
X161163000Y-83947000D01*
X161143000Y-83947000D01*
X161143000Y-83693000D01*
X161163000Y-83693000D01*
X161163000Y-81407000D01*
X161417000Y-81407000D01*
X161417000Y-83693000D01*
X162623817Y-83693000D01*
X162744958Y-83460974D01*
X162572688Y-83045053D01*
X162178490Y-82613179D01*
X162043687Y-82550000D01*
X162178490Y-82486821D01*
X162572688Y-82054947D01*
X162744958Y-81639026D01*
X162623817Y-81407000D01*
X161417000Y-81407000D01*
X161163000Y-81407000D01*
X161143000Y-81407000D01*
X161143000Y-81153000D01*
X161163000Y-81153000D01*
X161163000Y-78867000D01*
X161417000Y-78867000D01*
X161417000Y-81153000D01*
X162623817Y-81153000D01*
X162744958Y-80920974D01*
X162572688Y-80505053D01*
X162178490Y-80073179D01*
X162043687Y-80010000D01*
X162178490Y-79946821D01*
X162572688Y-79514947D01*
X162744958Y-79099026D01*
X162623817Y-78867000D01*
X161417000Y-78867000D01*
X161163000Y-78867000D01*
X161143000Y-78867000D01*
X161143000Y-78613000D01*
X161163000Y-78613000D01*
X161163000Y-76327000D01*
X161417000Y-76327000D01*
X161417000Y-78613000D01*
X162623817Y-78613000D01*
X162744958Y-78380974D01*
X162572688Y-77965053D01*
X162178490Y-77533179D01*
X162043687Y-77470000D01*
X162178490Y-77406821D01*
X162572688Y-76974947D01*
X162744958Y-76559026D01*
X162623817Y-76327000D01*
X161417000Y-76327000D01*
X161163000Y-76327000D01*
X161143000Y-76327000D01*
X161143000Y-76073000D01*
X161163000Y-76073000D01*
X161163000Y-73787000D01*
X161417000Y-73787000D01*
X161417000Y-76073000D01*
X162623817Y-76073000D01*
X162744958Y-75840974D01*
X162572688Y-75425053D01*
X162178490Y-74993179D01*
X162043687Y-74930000D01*
X162178490Y-74866821D01*
X162572688Y-74434947D01*
X162744958Y-74019026D01*
X162623817Y-73787000D01*
X161417000Y-73787000D01*
X161163000Y-73787000D01*
X161143000Y-73787000D01*
X161143000Y-73533000D01*
X161163000Y-73533000D01*
X161163000Y-71247000D01*
X161417000Y-71247000D01*
X161417000Y-73533000D01*
X162623817Y-73533000D01*
X162744958Y-73300974D01*
X162572688Y-72885053D01*
X162178490Y-72453179D01*
X162043687Y-72390000D01*
X162178490Y-72326821D01*
X162572688Y-71894947D01*
X162744958Y-71479026D01*
X162623817Y-71247000D01*
X161417000Y-71247000D01*
X161163000Y-71247000D01*
X161143000Y-71247000D01*
X161143000Y-70993000D01*
X161163000Y-70993000D01*
X161163000Y-69785531D01*
X161417000Y-69785531D01*
X161417000Y-70993000D01*
X162623817Y-70993000D01*
X162744958Y-70760974D01*
X162572688Y-70345053D01*
X162178490Y-69913179D01*
X161649027Y-69665032D01*
X161417000Y-69785531D01*
X161163000Y-69785531D01*
X160930973Y-69665032D01*
X160401510Y-69913179D01*
X160230119Y-70100950D01*
X160211757Y-70008635D01*
X160071409Y-69798591D01*
X159861365Y-69658243D01*
X159613600Y-69608960D01*
X157886400Y-69608960D01*
X157638635Y-69658243D01*
X157605000Y-69680717D01*
X157605000Y-60960000D01*
X157547148Y-60669161D01*
X157547148Y-60669160D01*
X157382401Y-60422599D01*
X154842401Y-57882599D01*
X154595839Y-57717852D01*
X154305000Y-57660000D01*
X135255000Y-57660000D01*
X135012414Y-57708254D01*
X134964160Y-57717852D01*
X134717599Y-57882599D01*
X132177599Y-60422599D01*
X132012852Y-60669161D01*
X131955000Y-60960000D01*
X131955000Y-70194205D01*
X131698490Y-69913179D01*
X131169027Y-69665032D01*
X130937000Y-69785531D01*
X130937000Y-70993000D01*
X130957000Y-70993000D01*
X130957000Y-71247000D01*
X130937000Y-71247000D01*
X130937000Y-73533000D01*
X130957000Y-73533000D01*
X130957000Y-73787000D01*
X130937000Y-73787000D01*
X130937000Y-73807000D01*
X130683000Y-73807000D01*
X130683000Y-73787000D01*
X128397000Y-73787000D01*
X128397000Y-73807000D01*
X128143000Y-73807000D01*
X128143000Y-73787000D01*
X126936183Y-73787000D01*
X126815042Y-74019026D01*
X126987312Y-74434947D01*
X127381510Y-74866821D01*
X127504228Y-74924336D01*
X127180971Y-75140330D01*
X126856115Y-75626511D01*
X126742041Y-76200000D01*
X123290000Y-76200000D01*
X123290000Y-71405750D01*
X126771400Y-71405750D01*
X126771400Y-72109910D01*
X126868073Y-72343299D01*
X127046702Y-72521927D01*
X127244120Y-72603700D01*
X126987312Y-72885053D01*
X126815042Y-73300974D01*
X126936183Y-73533000D01*
X128143000Y-73533000D01*
X128143000Y-71247000D01*
X128397000Y-71247000D01*
X128397000Y-73533000D01*
X130683000Y-73533000D01*
X130683000Y-71247000D01*
X128397000Y-71247000D01*
X128143000Y-71247000D01*
X126930150Y-71247000D01*
X126771400Y-71405750D01*
X123290000Y-71405750D01*
X123290000Y-70130090D01*
X126771400Y-70130090D01*
X126771400Y-70834250D01*
X126930150Y-70993000D01*
X128143000Y-70993000D01*
X128143000Y-69780150D01*
X128397000Y-69780150D01*
X128397000Y-70993000D01*
X130683000Y-70993000D01*
X130683000Y-69785531D01*
X130450973Y-69665032D01*
X129921510Y-69913179D01*
X129754529Y-70096119D01*
X129671927Y-69896701D01*
X129493298Y-69718073D01*
X129259909Y-69621400D01*
X128555750Y-69621400D01*
X128397000Y-69780150D01*
X128143000Y-69780150D01*
X127984250Y-69621400D01*
X127280091Y-69621400D01*
X127046702Y-69718073D01*
X126868073Y-69896701D01*
X126771400Y-70130090D01*
X123290000Y-70130090D01*
X123290000Y-56293905D01*
X123408838Y-56581515D01*
X124388329Y-57562716D01*
X125668749Y-58094394D01*
X127055168Y-58095603D01*
X128336515Y-57566162D01*
X129317716Y-56586671D01*
X129849394Y-55306251D01*
X129850603Y-53919832D01*
X129321162Y-52638485D01*
X129018206Y-52335000D01*
X175781134Y-52335000D01*
X175482284Y-52633329D01*
G36*
X147195000Y-70164802D02*
X147195000Y-70194205D01*
X146938490Y-69913179D01*
X146409027Y-69665032D01*
X146177000Y-69785531D01*
X146177000Y-70993000D01*
X146197000Y-70993000D01*
X146197000Y-71247000D01*
X146177000Y-71247000D01*
X146177000Y-73533000D01*
X146197000Y-73533000D01*
X146197000Y-73787000D01*
X146177000Y-73787000D01*
X146177000Y-76073000D01*
X146197000Y-76073000D01*
X146197000Y-76327000D01*
X146177000Y-76327000D01*
X146177000Y-78613000D01*
X146197000Y-78613000D01*
X146197000Y-78867000D01*
X146177000Y-78867000D01*
X146177000Y-81153000D01*
X146197000Y-81153000D01*
X146197000Y-81407000D01*
X146177000Y-81407000D01*
X146177000Y-83693000D01*
X146197000Y-83693000D01*
X146197000Y-83947000D01*
X146177000Y-83947000D01*
X146177000Y-86233000D01*
X146197000Y-86233000D01*
X146197000Y-86487000D01*
X146177000Y-86487000D01*
X146177000Y-88773000D01*
X146197000Y-88773000D01*
X146197000Y-89027000D01*
X146177000Y-89027000D01*
X146177000Y-91313000D01*
X146197000Y-91313000D01*
X146197000Y-91567000D01*
X146177000Y-91567000D01*
X146177000Y-93853000D01*
X146197000Y-93853000D01*
X146197000Y-94107000D01*
X146177000Y-94107000D01*
X146177000Y-96393000D01*
X146197000Y-96393000D01*
X146197000Y-96647000D01*
X146177000Y-96647000D01*
X146177000Y-98933000D01*
X146197000Y-98933000D01*
X146197000Y-99187000D01*
X146177000Y-99187000D01*
X146177000Y-101473000D01*
X146197000Y-101473000D01*
X146197000Y-101727000D01*
X146177000Y-101727000D01*
X146177000Y-104013000D01*
X146197000Y-104013000D01*
X146197000Y-104267000D01*
X146177000Y-104267000D01*
X146177000Y-106553000D01*
X147383817Y-106553000D01*
X147504958Y-106320974D01*
X147332688Y-105905053D01*
X146938490Y-105473179D01*
X146803687Y-105410000D01*
X146938490Y-105346821D01*
X147242493Y-105013762D01*
X147252852Y-105065839D01*
X147417599Y-105312401D01*
X149322599Y-107217401D01*
X149569161Y-107382148D01*
X149860000Y-107440000D01*
X157460738Y-107440000D01*
X157660971Y-107739670D01*
X157975752Y-107950000D01*
X157660971Y-108160330D01*
X157460738Y-108460000D01*
X151130000Y-108460000D01*
X150839161Y-108517852D01*
X150592599Y-108682599D01*
X148687599Y-110587599D01*
X148522852Y-110834161D01*
X148465000Y-111125000D01*
X148465000Y-134305198D01*
X146370198Y-136400000D01*
X140014802Y-136400000D01*
X133887401Y-130272599D01*
X133640839Y-130107852D01*
X133350000Y-130050000D01*
X133279802Y-130050000D01*
X142142401Y-121187401D01*
X142307148Y-120940839D01*
X142365000Y-120650000D01*
X142365000Y-120355904D01*
X142420971Y-120439670D01*
X142735752Y-120650000D01*
X142420971Y-120860330D01*
X142096115Y-121346511D01*
X141982041Y-121920000D01*
X142096115Y-122493489D01*
X142420971Y-122979670D01*
X142735752Y-123190000D01*
X142420971Y-123400330D01*
X142096115Y-123886511D01*
X141982041Y-124460000D01*
X142096115Y-125033489D01*
X142420971Y-125519670D01*
X142735752Y-125730000D01*
X142420971Y-125940330D01*
X142096115Y-126426511D01*
X141982041Y-127000000D01*
X142096115Y-127573489D01*
X142420971Y-128059670D01*
X142735752Y-128270000D01*
X142420971Y-128480330D01*
X142096115Y-128966511D01*
X141982041Y-129540000D01*
X142096115Y-130113489D01*
X142420971Y-130599670D01*
X142735752Y-130810000D01*
X142420971Y-131020330D01*
X142096115Y-131506511D01*
X141982041Y-132080000D01*
X142096115Y-132653489D01*
X142420971Y-133139670D01*
X142907152Y-133464526D01*
X143480641Y-133578600D01*
X143539359Y-133578600D01*
X144112848Y-133464526D01*
X144599029Y-133139670D01*
X144779992Y-132868839D01*
X145161510Y-133286821D01*
X145690973Y-133534968D01*
X145923000Y-133414469D01*
X145923000Y-132207000D01*
X146177000Y-132207000D01*
X146177000Y-133414469D01*
X146409027Y-133534968D01*
X146938490Y-133286821D01*
X147332688Y-132854947D01*
X147504958Y-132439026D01*
X147383817Y-132207000D01*
X146177000Y-132207000D01*
X145923000Y-132207000D01*
X145903000Y-132207000D01*
X145903000Y-131953000D01*
X145923000Y-131953000D01*
X145923000Y-129667000D01*
X146177000Y-129667000D01*
X146177000Y-131953000D01*
X147383817Y-131953000D01*
X147504958Y-131720974D01*
X147332688Y-131305053D01*
X146938490Y-130873179D01*
X146803687Y-130810000D01*
X146938490Y-130746821D01*
X147332688Y-130314947D01*
X147504958Y-129899026D01*
X147383817Y-129667000D01*
X146177000Y-129667000D01*
X145923000Y-129667000D01*
X145903000Y-129667000D01*
X145903000Y-129413000D01*
X145923000Y-129413000D01*
X145923000Y-127127000D01*
X146177000Y-127127000D01*
X146177000Y-129413000D01*
X147383817Y-129413000D01*
X147504958Y-129180974D01*
X147332688Y-128765053D01*
X146938490Y-128333179D01*
X146803687Y-128270000D01*
X146938490Y-128206821D01*
X147332688Y-127774947D01*
X147504958Y-127359026D01*
X147383817Y-127127000D01*
X146177000Y-127127000D01*
X145923000Y-127127000D01*
X145903000Y-127127000D01*
X145903000Y-126873000D01*
X145923000Y-126873000D01*
X145923000Y-124587000D01*
X146177000Y-124587000D01*
X146177000Y-126873000D01*
X147383817Y-126873000D01*
X147504958Y-126640974D01*
X147332688Y-126225053D01*
X146938490Y-125793179D01*
X146803687Y-125730000D01*
X146938490Y-125666821D01*
X147332688Y-125234947D01*
X147504958Y-124819026D01*
X147383817Y-124587000D01*
X146177000Y-124587000D01*
X145923000Y-124587000D01*
X145903000Y-124587000D01*
X145903000Y-124333000D01*
X145923000Y-124333000D01*
X145923000Y-122047000D01*
X146177000Y-122047000D01*
X146177000Y-124333000D01*
X147383817Y-124333000D01*
X147504958Y-124100974D01*
X147332688Y-123685053D01*
X146938490Y-123253179D01*
X146803687Y-123190000D01*
X146938490Y-123126821D01*
X147332688Y-122694947D01*
X147504958Y-122279026D01*
X147383817Y-122047000D01*
X146177000Y-122047000D01*
X145923000Y-122047000D01*
X145903000Y-122047000D01*
X145903000Y-121793000D01*
X145923000Y-121793000D01*
X145923000Y-119507000D01*
X146177000Y-119507000D01*
X146177000Y-121793000D01*
X147383817Y-121793000D01*
X147504958Y-121560974D01*
X147332688Y-121145053D01*
X146938490Y-120713179D01*
X146803687Y-120650000D01*
X146938490Y-120586821D01*
X147332688Y-120154947D01*
X147504958Y-119739026D01*
X147383817Y-119507000D01*
X146177000Y-119507000D01*
X145923000Y-119507000D01*
X145903000Y-119507000D01*
X145903000Y-119253000D01*
X145923000Y-119253000D01*
X145923000Y-116967000D01*
X146177000Y-116967000D01*
X146177000Y-119253000D01*
X147383817Y-119253000D01*
X147504958Y-119020974D01*
X147332688Y-118605053D01*
X146938490Y-118173179D01*
X146803687Y-118110000D01*
X146938490Y-118046821D01*
X147332688Y-117614947D01*
X147504958Y-117199026D01*
X147383817Y-116967000D01*
X146177000Y-116967000D01*
X145923000Y-116967000D01*
X145903000Y-116967000D01*
X145903000Y-116713000D01*
X145923000Y-116713000D01*
X145923000Y-114427000D01*
X146177000Y-114427000D01*
X146177000Y-116713000D01*
X147383817Y-116713000D01*
X147504958Y-116480974D01*
X147332688Y-116065053D01*
X146938490Y-115633179D01*
X146803687Y-115570000D01*
X146938490Y-115506821D01*
X147332688Y-115074947D01*
X147504958Y-114659026D01*
X147383817Y-114427000D01*
X146177000Y-114427000D01*
X145923000Y-114427000D01*
X145903000Y-114427000D01*
X145903000Y-114173000D01*
X145923000Y-114173000D01*
X145923000Y-111887000D01*
X146177000Y-111887000D01*
X146177000Y-114173000D01*
X147383817Y-114173000D01*
X147504958Y-113940974D01*
X147332688Y-113525053D01*
X146938490Y-113093179D01*
X146803687Y-113030000D01*
X146938490Y-112966821D01*
X147332688Y-112534947D01*
X147504958Y-112119026D01*
X147383817Y-111887000D01*
X146177000Y-111887000D01*
X145923000Y-111887000D01*
X145903000Y-111887000D01*
X145903000Y-111633000D01*
X145923000Y-111633000D01*
X145923000Y-109347000D01*
X146177000Y-109347000D01*
X146177000Y-111633000D01*
X147383817Y-111633000D01*
X147504958Y-111400974D01*
X147332688Y-110985053D01*
X146938490Y-110553179D01*
X146803687Y-110490000D01*
X146938490Y-110426821D01*
X147332688Y-109994947D01*
X147504958Y-109579026D01*
X147383817Y-109347000D01*
X146177000Y-109347000D01*
X145923000Y-109347000D01*
X145903000Y-109347000D01*
X145903000Y-109093000D01*
X145923000Y-109093000D01*
X145923000Y-106807000D01*
X146177000Y-106807000D01*
X146177000Y-109093000D01*
X147383817Y-109093000D01*
X147504958Y-108860974D01*
X147332688Y-108445053D01*
X146938490Y-108013179D01*
X146803687Y-107950000D01*
X146938490Y-107886821D01*
X147332688Y-107454947D01*
X147504958Y-107039026D01*
X147383817Y-106807000D01*
X146177000Y-106807000D01*
X145923000Y-106807000D01*
X145903000Y-106807000D01*
X145903000Y-106553000D01*
X145923000Y-106553000D01*
X145923000Y-104267000D01*
X145903000Y-104267000D01*
X145903000Y-104013000D01*
X145923000Y-104013000D01*
X145923000Y-101727000D01*
X145903000Y-101727000D01*
X145903000Y-101473000D01*
X145923000Y-101473000D01*
X145923000Y-99187000D01*
X145903000Y-99187000D01*
X145903000Y-98933000D01*
X145923000Y-98933000D01*
X145923000Y-96647000D01*
X145903000Y-96647000D01*
X145903000Y-96393000D01*
X145923000Y-96393000D01*
X145923000Y-94107000D01*
X145903000Y-94107000D01*
X145903000Y-93853000D01*
X145923000Y-93853000D01*
X145923000Y-91567000D01*
X145903000Y-91567000D01*
X145903000Y-91313000D01*
X145923000Y-91313000D01*
X145923000Y-89027000D01*
X145903000Y-89027000D01*
X145903000Y-88773000D01*
X145923000Y-88773000D01*
X145923000Y-86487000D01*
X145903000Y-86487000D01*
X145903000Y-86233000D01*
X145923000Y-86233000D01*
X145923000Y-83947000D01*
X145903000Y-83947000D01*
X145903000Y-83693000D01*
X145923000Y-83693000D01*
X145923000Y-81407000D01*
X145903000Y-81407000D01*
X145903000Y-81153000D01*
X145923000Y-81153000D01*
X145923000Y-78867000D01*
X145903000Y-78867000D01*
X145903000Y-78613000D01*
X145923000Y-78613000D01*
X145923000Y-76327000D01*
X145903000Y-76327000D01*
X145903000Y-76073000D01*
X145923000Y-76073000D01*
X145923000Y-73787000D01*
X145903000Y-73787000D01*
X145903000Y-73533000D01*
X145923000Y-73533000D01*
X145923000Y-71247000D01*
X145903000Y-71247000D01*
X145903000Y-70993000D01*
X145923000Y-70993000D01*
X145923000Y-69785531D01*
X145690973Y-69665032D01*
X145161510Y-69913179D01*
X144990119Y-70100950D01*
X144971757Y-70008635D01*
X144831409Y-69798591D01*
X144621365Y-69658243D01*
X144373600Y-69608960D01*
X142940583Y-69608960D01*
X144479543Y-68070000D01*
X145100198Y-68070000D01*
X147195000Y-70164802D01*
X147195000Y-70164802D01*
G37*
X147195000Y-70164802D02*
X147195000Y-70194205D01*
X146938490Y-69913179D01*
X146409027Y-69665032D01*
X146177000Y-69785531D01*
X146177000Y-70993000D01*
X146197000Y-70993000D01*
X146197000Y-71247000D01*
X146177000Y-71247000D01*
X146177000Y-73533000D01*
X146197000Y-73533000D01*
X146197000Y-73787000D01*
X146177000Y-73787000D01*
X146177000Y-76073000D01*
X146197000Y-76073000D01*
X146197000Y-76327000D01*
X146177000Y-76327000D01*
X146177000Y-78613000D01*
X146197000Y-78613000D01*
X146197000Y-78867000D01*
X146177000Y-78867000D01*
X146177000Y-81153000D01*
X146197000Y-81153000D01*
X146197000Y-81407000D01*
X146177000Y-81407000D01*
X146177000Y-83693000D01*
X146197000Y-83693000D01*
X146197000Y-83947000D01*
X146177000Y-83947000D01*
X146177000Y-86233000D01*
X146197000Y-86233000D01*
X146197000Y-86487000D01*
X146177000Y-86487000D01*
X146177000Y-88773000D01*
X146197000Y-88773000D01*
X146197000Y-89027000D01*
X146177000Y-89027000D01*
X146177000Y-91313000D01*
X146197000Y-91313000D01*
X146197000Y-91567000D01*
X146177000Y-91567000D01*
X146177000Y-93853000D01*
X146197000Y-93853000D01*
X146197000Y-94107000D01*
X146177000Y-94107000D01*
X146177000Y-96393000D01*
X146197000Y-96393000D01*
X146197000Y-96647000D01*
X146177000Y-96647000D01*
X146177000Y-98933000D01*
X146197000Y-98933000D01*
X146197000Y-99187000D01*
X146177000Y-99187000D01*
X146177000Y-101473000D01*
X146197000Y-101473000D01*
X146197000Y-101727000D01*
X146177000Y-101727000D01*
X146177000Y-104013000D01*
X146197000Y-104013000D01*
X146197000Y-104267000D01*
X146177000Y-104267000D01*
X146177000Y-106553000D01*
X147383817Y-106553000D01*
X147504958Y-106320974D01*
X147332688Y-105905053D01*
X146938490Y-105473179D01*
X146803687Y-105410000D01*
X146938490Y-105346821D01*
X147242493Y-105013762D01*
X147252852Y-105065839D01*
X147417599Y-105312401D01*
X149322599Y-107217401D01*
X149569161Y-107382148D01*
X149860000Y-107440000D01*
X157460738Y-107440000D01*
X157660971Y-107739670D01*
X157975752Y-107950000D01*
X157660971Y-108160330D01*
X157460738Y-108460000D01*
X151130000Y-108460000D01*
X150839161Y-108517852D01*
X150592599Y-108682599D01*
X148687599Y-110587599D01*
X148522852Y-110834161D01*
X148465000Y-111125000D01*
X148465000Y-134305198D01*
X146370198Y-136400000D01*
X140014802Y-136400000D01*
X133887401Y-130272599D01*
X133640839Y-130107852D01*
X133350000Y-130050000D01*
X133279802Y-130050000D01*
X142142401Y-121187401D01*
X142307148Y-120940839D01*
X142365000Y-120650000D01*
X142365000Y-120355904D01*
X142420971Y-120439670D01*
X142735752Y-120650000D01*
X142420971Y-120860330D01*
X142096115Y-121346511D01*
X141982041Y-121920000D01*
X142096115Y-122493489D01*
X142420971Y-122979670D01*
X142735752Y-123190000D01*
X142420971Y-123400330D01*
X142096115Y-123886511D01*
X141982041Y-124460000D01*
X142096115Y-125033489D01*
X142420971Y-125519670D01*
X142735752Y-125730000D01*
X142420971Y-125940330D01*
X142096115Y-126426511D01*
X141982041Y-127000000D01*
X142096115Y-127573489D01*
X142420971Y-128059670D01*
X142735752Y-128270000D01*
X142420971Y-128480330D01*
X142096115Y-128966511D01*
X141982041Y-129540000D01*
X142096115Y-130113489D01*
X142420971Y-130599670D01*
X142735752Y-130810000D01*
X142420971Y-131020330D01*
X142096115Y-131506511D01*
X141982041Y-132080000D01*
X142096115Y-132653489D01*
X142420971Y-133139670D01*
X142907152Y-133464526D01*
X143480641Y-133578600D01*
X143539359Y-133578600D01*
X144112848Y-133464526D01*
X144599029Y-133139670D01*
X144779992Y-132868839D01*
X145161510Y-133286821D01*
X145690973Y-133534968D01*
X145923000Y-133414469D01*
X145923000Y-132207000D01*
X146177000Y-132207000D01*
X146177000Y-133414469D01*
X146409027Y-133534968D01*
X146938490Y-133286821D01*
X147332688Y-132854947D01*
X147504958Y-132439026D01*
X147383817Y-132207000D01*
X146177000Y-132207000D01*
X145923000Y-132207000D01*
X145903000Y-132207000D01*
X145903000Y-131953000D01*
X145923000Y-131953000D01*
X145923000Y-129667000D01*
X146177000Y-129667000D01*
X146177000Y-131953000D01*
X147383817Y-131953000D01*
X147504958Y-131720974D01*
X147332688Y-131305053D01*
X146938490Y-130873179D01*
X146803687Y-130810000D01*
X146938490Y-130746821D01*
X147332688Y-130314947D01*
X147504958Y-129899026D01*
X147383817Y-129667000D01*
X146177000Y-129667000D01*
X145923000Y-129667000D01*
X145903000Y-129667000D01*
X145903000Y-129413000D01*
X145923000Y-129413000D01*
X145923000Y-127127000D01*
X146177000Y-127127000D01*
X146177000Y-129413000D01*
X147383817Y-129413000D01*
X147504958Y-129180974D01*
X147332688Y-128765053D01*
X146938490Y-128333179D01*
X146803687Y-128270000D01*
X146938490Y-128206821D01*
X147332688Y-127774947D01*
X147504958Y-127359026D01*
X147383817Y-127127000D01*
X146177000Y-127127000D01*
X145923000Y-127127000D01*
X145903000Y-127127000D01*
X145903000Y-126873000D01*
X145923000Y-126873000D01*
X145923000Y-124587000D01*
X146177000Y-124587000D01*
X146177000Y-126873000D01*
X147383817Y-126873000D01*
X147504958Y-126640974D01*
X147332688Y-126225053D01*
X146938490Y-125793179D01*
X146803687Y-125730000D01*
X146938490Y-125666821D01*
X147332688Y-125234947D01*
X147504958Y-124819026D01*
X147383817Y-124587000D01*
X146177000Y-124587000D01*
X145923000Y-124587000D01*
X145903000Y-124587000D01*
X145903000Y-124333000D01*
X145923000Y-124333000D01*
X145923000Y-122047000D01*
X146177000Y-122047000D01*
X146177000Y-124333000D01*
X147383817Y-124333000D01*
X147504958Y-124100974D01*
X147332688Y-123685053D01*
X146938490Y-123253179D01*
X146803687Y-123190000D01*
X146938490Y-123126821D01*
X147332688Y-122694947D01*
X147504958Y-122279026D01*
X147383817Y-122047000D01*
X146177000Y-122047000D01*
X145923000Y-122047000D01*
X145903000Y-122047000D01*
X145903000Y-121793000D01*
X145923000Y-121793000D01*
X145923000Y-119507000D01*
X146177000Y-119507000D01*
X146177000Y-121793000D01*
X147383817Y-121793000D01*
X147504958Y-121560974D01*
X147332688Y-121145053D01*
X146938490Y-120713179D01*
X146803687Y-120650000D01*
X146938490Y-120586821D01*
X147332688Y-120154947D01*
X147504958Y-119739026D01*
X147383817Y-119507000D01*
X146177000Y-119507000D01*
X145923000Y-119507000D01*
X145903000Y-119507000D01*
X145903000Y-119253000D01*
X145923000Y-119253000D01*
X145923000Y-116967000D01*
X146177000Y-116967000D01*
X146177000Y-119253000D01*
X147383817Y-119253000D01*
X147504958Y-119020974D01*
X147332688Y-118605053D01*
X146938490Y-118173179D01*
X146803687Y-118110000D01*
X146938490Y-118046821D01*
X147332688Y-117614947D01*
X147504958Y-117199026D01*
X147383817Y-116967000D01*
X146177000Y-116967000D01*
X145923000Y-116967000D01*
X145903000Y-116967000D01*
X145903000Y-116713000D01*
X145923000Y-116713000D01*
X145923000Y-114427000D01*
X146177000Y-114427000D01*
X146177000Y-116713000D01*
X147383817Y-116713000D01*
X147504958Y-116480974D01*
X147332688Y-116065053D01*
X146938490Y-115633179D01*
X146803687Y-115570000D01*
X146938490Y-115506821D01*
X147332688Y-115074947D01*
X147504958Y-114659026D01*
X147383817Y-114427000D01*
X146177000Y-114427000D01*
X145923000Y-114427000D01*
X145903000Y-114427000D01*
X145903000Y-114173000D01*
X145923000Y-114173000D01*
X145923000Y-111887000D01*
X146177000Y-111887000D01*
X146177000Y-114173000D01*
X147383817Y-114173000D01*
X147504958Y-113940974D01*
X147332688Y-113525053D01*
X146938490Y-113093179D01*
X146803687Y-113030000D01*
X146938490Y-112966821D01*
X147332688Y-112534947D01*
X147504958Y-112119026D01*
X147383817Y-111887000D01*
X146177000Y-111887000D01*
X145923000Y-111887000D01*
X145903000Y-111887000D01*
X145903000Y-111633000D01*
X145923000Y-111633000D01*
X145923000Y-109347000D01*
X146177000Y-109347000D01*
X146177000Y-111633000D01*
X147383817Y-111633000D01*
X147504958Y-111400974D01*
X147332688Y-110985053D01*
X146938490Y-110553179D01*
X146803687Y-110490000D01*
X146938490Y-110426821D01*
X147332688Y-109994947D01*
X147504958Y-109579026D01*
X147383817Y-109347000D01*
X146177000Y-109347000D01*
X145923000Y-109347000D01*
X145903000Y-109347000D01*
X145903000Y-109093000D01*
X145923000Y-109093000D01*
X145923000Y-106807000D01*
X146177000Y-106807000D01*
X146177000Y-109093000D01*
X147383817Y-109093000D01*
X147504958Y-108860974D01*
X147332688Y-108445053D01*
X146938490Y-108013179D01*
X146803687Y-107950000D01*
X146938490Y-107886821D01*
X147332688Y-107454947D01*
X147504958Y-107039026D01*
X147383817Y-106807000D01*
X146177000Y-106807000D01*
X145923000Y-106807000D01*
X145903000Y-106807000D01*
X145903000Y-106553000D01*
X145923000Y-106553000D01*
X145923000Y-104267000D01*
X145903000Y-104267000D01*
X145903000Y-104013000D01*
X145923000Y-104013000D01*
X145923000Y-101727000D01*
X145903000Y-101727000D01*
X145903000Y-101473000D01*
X145923000Y-101473000D01*
X145923000Y-99187000D01*
X145903000Y-99187000D01*
X145903000Y-98933000D01*
X145923000Y-98933000D01*
X145923000Y-96647000D01*
X145903000Y-96647000D01*
X145903000Y-96393000D01*
X145923000Y-96393000D01*
X145923000Y-94107000D01*
X145903000Y-94107000D01*
X145903000Y-93853000D01*
X145923000Y-93853000D01*
X145923000Y-91567000D01*
X145903000Y-91567000D01*
X145903000Y-91313000D01*
X145923000Y-91313000D01*
X145923000Y-89027000D01*
X145903000Y-89027000D01*
X145903000Y-88773000D01*
X145923000Y-88773000D01*
X145923000Y-86487000D01*
X145903000Y-86487000D01*
X145903000Y-86233000D01*
X145923000Y-86233000D01*
X145923000Y-83947000D01*
X145903000Y-83947000D01*
X145903000Y-83693000D01*
X145923000Y-83693000D01*
X145923000Y-81407000D01*
X145903000Y-81407000D01*
X145903000Y-81153000D01*
X145923000Y-81153000D01*
X145923000Y-78867000D01*
X145903000Y-78867000D01*
X145903000Y-78613000D01*
X145923000Y-78613000D01*
X145923000Y-76327000D01*
X145903000Y-76327000D01*
X145903000Y-76073000D01*
X145923000Y-76073000D01*
X145923000Y-73787000D01*
X145903000Y-73787000D01*
X145903000Y-73533000D01*
X145923000Y-73533000D01*
X145923000Y-71247000D01*
X145903000Y-71247000D01*
X145903000Y-70993000D01*
X145923000Y-70993000D01*
X145923000Y-69785531D01*
X145690973Y-69665032D01*
X145161510Y-69913179D01*
X144990119Y-70100950D01*
X144971757Y-70008635D01*
X144831409Y-69798591D01*
X144621365Y-69658243D01*
X144373600Y-69608960D01*
X142940583Y-69608960D01*
X144479543Y-68070000D01*
X145100198Y-68070000D01*
X147195000Y-70164802D01*
G36*
X172481203Y-131983664D02*
X171756267Y-132708601D01*
X162633303Y-132708601D01*
X162744958Y-132439026D01*
X162623817Y-132207000D01*
X161417000Y-132207000D01*
X161417000Y-132227000D01*
X161163000Y-132227000D01*
X161163000Y-132207000D01*
X161143000Y-132207000D01*
X161143000Y-131953000D01*
X161163000Y-131953000D01*
X161163000Y-131933000D01*
X161417000Y-131933000D01*
X161417000Y-131953000D01*
X162623817Y-131953000D01*
X162744958Y-131720974D01*
X162682426Y-131570000D01*
X172563486Y-131570000D01*
X172481203Y-131983664D01*
X172481203Y-131983664D01*
G37*
X172481203Y-131983664D02*
X171756267Y-132708601D01*
X162633303Y-132708601D01*
X162744958Y-132439026D01*
X162623817Y-132207000D01*
X161417000Y-132207000D01*
X161417000Y-132227000D01*
X161163000Y-132227000D01*
X161163000Y-132207000D01*
X161143000Y-132207000D01*
X161143000Y-131953000D01*
X161163000Y-131953000D01*
X161163000Y-131933000D01*
X161417000Y-131933000D01*
X161417000Y-131953000D01*
X162623817Y-131953000D01*
X162744958Y-131720974D01*
X162682426Y-131570000D01*
X172563486Y-131570000D01*
X172481203Y-131983664D01*
G36*
X172462041Y-129540000D02*
X172537225Y-129917973D01*
X172405198Y-130050000D01*
X162682426Y-130050000D01*
X162744958Y-129899026D01*
X162623817Y-129667000D01*
X161417000Y-129667000D01*
X161417000Y-129687000D01*
X161163000Y-129687000D01*
X161163000Y-129667000D01*
X161143000Y-129667000D01*
X161143000Y-129413000D01*
X161163000Y-129413000D01*
X161163000Y-129393000D01*
X161417000Y-129393000D01*
X161417000Y-129413000D01*
X162623817Y-129413000D01*
X162744958Y-129180974D01*
X162682426Y-129030000D01*
X172563486Y-129030000D01*
X172462041Y-129540000D01*
X172462041Y-129540000D01*
G37*
X172462041Y-129540000D02*
X172537225Y-129917973D01*
X172405198Y-130050000D01*
X162682426Y-130050000D01*
X162744958Y-129899026D01*
X162623817Y-129667000D01*
X161417000Y-129667000D01*
X161417000Y-129687000D01*
X161163000Y-129687000D01*
X161163000Y-129667000D01*
X161143000Y-129667000D01*
X161143000Y-129413000D01*
X161163000Y-129413000D01*
X161163000Y-129393000D01*
X161417000Y-129393000D01*
X161417000Y-129413000D01*
X162623817Y-129413000D01*
X162744958Y-129180974D01*
X162682426Y-129030000D01*
X172563486Y-129030000D01*
X172462041Y-129540000D01*
G36*
X172462041Y-127000000D02*
X172537225Y-127377973D01*
X172405198Y-127510000D01*
X162682426Y-127510000D01*
X162744958Y-127359026D01*
X162623817Y-127127000D01*
X161417000Y-127127000D01*
X161417000Y-127147000D01*
X161163000Y-127147000D01*
X161163000Y-127127000D01*
X161143000Y-127127000D01*
X161143000Y-126873000D01*
X161163000Y-126873000D01*
X161163000Y-126853000D01*
X161417000Y-126853000D01*
X161417000Y-126873000D01*
X162623817Y-126873000D01*
X162744958Y-126640974D01*
X162682426Y-126490000D01*
X172563486Y-126490000D01*
X172462041Y-127000000D01*
X172462041Y-127000000D01*
G37*
X172462041Y-127000000D02*
X172537225Y-127377973D01*
X172405198Y-127510000D01*
X162682426Y-127510000D01*
X162744958Y-127359026D01*
X162623817Y-127127000D01*
X161417000Y-127127000D01*
X161417000Y-127147000D01*
X161163000Y-127147000D01*
X161163000Y-127127000D01*
X161143000Y-127127000D01*
X161143000Y-126873000D01*
X161163000Y-126873000D01*
X161163000Y-126853000D01*
X161417000Y-126853000D01*
X161417000Y-126873000D01*
X162623817Y-126873000D01*
X162744958Y-126640974D01*
X162682426Y-126490000D01*
X172563486Y-126490000D01*
X172462041Y-127000000D01*
G36*
X172462041Y-124460000D02*
X172537225Y-124837973D01*
X172405198Y-124970000D01*
X162682426Y-124970000D01*
X162744958Y-124819026D01*
X162623817Y-124587000D01*
X161417000Y-124587000D01*
X161417000Y-124607000D01*
X161163000Y-124607000D01*
X161163000Y-124587000D01*
X161143000Y-124587000D01*
X161143000Y-124333000D01*
X161163000Y-124333000D01*
X161163000Y-124313000D01*
X161417000Y-124313000D01*
X161417000Y-124333000D01*
X162623817Y-124333000D01*
X162744958Y-124100974D01*
X162682426Y-123950000D01*
X172563486Y-123950000D01*
X172462041Y-124460000D01*
X172462041Y-124460000D01*
G37*
X172462041Y-124460000D02*
X172537225Y-124837973D01*
X172405198Y-124970000D01*
X162682426Y-124970000D01*
X162744958Y-124819026D01*
X162623817Y-124587000D01*
X161417000Y-124587000D01*
X161417000Y-124607000D01*
X161163000Y-124607000D01*
X161163000Y-124587000D01*
X161143000Y-124587000D01*
X161143000Y-124333000D01*
X161163000Y-124333000D01*
X161163000Y-124313000D01*
X161417000Y-124313000D01*
X161417000Y-124333000D01*
X162623817Y-124333000D01*
X162744958Y-124100974D01*
X162682426Y-123950000D01*
X172563486Y-123950000D01*
X172462041Y-124460000D01*
G36*
X172462041Y-121920000D02*
X172537225Y-122297973D01*
X172405198Y-122430000D01*
X162682426Y-122430000D01*
X162744958Y-122279026D01*
X162623817Y-122047000D01*
X161417000Y-122047000D01*
X161417000Y-122067000D01*
X161163000Y-122067000D01*
X161163000Y-122047000D01*
X161143000Y-122047000D01*
X161143000Y-121793000D01*
X161163000Y-121793000D01*
X161163000Y-121773000D01*
X161417000Y-121773000D01*
X161417000Y-121793000D01*
X162623817Y-121793000D01*
X162744958Y-121560974D01*
X162682426Y-121410000D01*
X172563486Y-121410000D01*
X172462041Y-121920000D01*
X172462041Y-121920000D01*
G37*
X172462041Y-121920000D02*
X172537225Y-122297973D01*
X172405198Y-122430000D01*
X162682426Y-122430000D01*
X162744958Y-122279026D01*
X162623817Y-122047000D01*
X161417000Y-122047000D01*
X161417000Y-122067000D01*
X161163000Y-122067000D01*
X161163000Y-122047000D01*
X161143000Y-122047000D01*
X161143000Y-121793000D01*
X161163000Y-121793000D01*
X161163000Y-121773000D01*
X161417000Y-121773000D01*
X161417000Y-121793000D01*
X162623817Y-121793000D01*
X162744958Y-121560974D01*
X162682426Y-121410000D01*
X172563486Y-121410000D01*
X172462041Y-121920000D01*
G36*
X172462041Y-119380000D02*
X172537225Y-119757973D01*
X172405198Y-119890000D01*
X162682426Y-119890000D01*
X162744958Y-119739026D01*
X162623817Y-119507000D01*
X161417000Y-119507000D01*
X161417000Y-119527000D01*
X161163000Y-119527000D01*
X161163000Y-119507000D01*
X161143000Y-119507000D01*
X161143000Y-119253000D01*
X161163000Y-119253000D01*
X161163000Y-119233000D01*
X161417000Y-119233000D01*
X161417000Y-119253000D01*
X162623817Y-119253000D01*
X162744958Y-119020974D01*
X162682426Y-118870000D01*
X172563486Y-118870000D01*
X172462041Y-119380000D01*
X172462041Y-119380000D01*
G37*
X172462041Y-119380000D02*
X172537225Y-119757973D01*
X172405198Y-119890000D01*
X162682426Y-119890000D01*
X162744958Y-119739026D01*
X162623817Y-119507000D01*
X161417000Y-119507000D01*
X161417000Y-119527000D01*
X161163000Y-119527000D01*
X161163000Y-119507000D01*
X161143000Y-119507000D01*
X161143000Y-119253000D01*
X161163000Y-119253000D01*
X161163000Y-119233000D01*
X161417000Y-119233000D01*
X161417000Y-119253000D01*
X162623817Y-119253000D01*
X162744958Y-119020974D01*
X162682426Y-118870000D01*
X172563486Y-118870000D01*
X172462041Y-119380000D01*
M02*
