G04 #@! TF.GenerationSoftware,KiCad,Pcbnew,(2017-12-02 revision 3109343b9)-master*
G04 #@! TF.CreationDate,2017-12-03T21:55:53+01:00*
G04 #@! TF.ProjectId,TC214_CNKEY_Adapter,54433231345F434E4B45595F41646170,rev?*
G04 #@! TF.SameCoordinates,Original*
G04 #@! TF.FileFunction,Legend,Top*
G04 #@! TF.FilePolarity,Positive*
%FSLAX46Y46*%
G04 Gerber Fmt 4.6, Leading zero omitted, Abs format (unit mm)*
G04 Created by KiCad (PCBNEW (2017-12-02 revision 3109343b9)-master) date Sun Dec  3 21:55:53 2017*
%MOMM*%
%LPD*%
G01*
G04 APERTURE LIST*
%ADD10C,0.300000*%
%ADD11C,0.002540*%
%ADD12C,0.120000*%
%ADD13C,0.150000*%
G04 APERTURE END LIST*
D10*
X142805000Y-61638571D02*
X142805000Y-60138571D01*
X143662142Y-61638571D02*
X143019285Y-60781428D01*
X143662142Y-60138571D02*
X142805000Y-60995714D01*
X144947857Y-61638571D02*
X144947857Y-60852857D01*
X144876428Y-60710000D01*
X144733571Y-60638571D01*
X144447857Y-60638571D01*
X144305000Y-60710000D01*
X144947857Y-61567142D02*
X144805000Y-61638571D01*
X144447857Y-61638571D01*
X144305000Y-61567142D01*
X144233571Y-61424285D01*
X144233571Y-61281428D01*
X144305000Y-61138571D01*
X144447857Y-61067142D01*
X144805000Y-61067142D01*
X144947857Y-60995714D01*
X145662142Y-61638571D02*
X145662142Y-60638571D01*
X145662142Y-60924285D02*
X145733571Y-60781428D01*
X145805000Y-60710000D01*
X145947857Y-60638571D01*
X146090714Y-60638571D01*
X146519285Y-61567142D02*
X146662142Y-61638571D01*
X146947857Y-61638571D01*
X147090714Y-61567142D01*
X147162142Y-61424285D01*
X147162142Y-61352857D01*
X147090714Y-61210000D01*
X146947857Y-61138571D01*
X146733571Y-61138571D01*
X146590714Y-61067142D01*
X146519285Y-60924285D01*
X146519285Y-60852857D01*
X146590714Y-60710000D01*
X146733571Y-60638571D01*
X146947857Y-60638571D01*
X147090714Y-60710000D01*
X147590714Y-60638571D02*
X148162142Y-60638571D01*
X147805000Y-60138571D02*
X147805000Y-61424285D01*
X147876428Y-61567142D01*
X148019285Y-61638571D01*
X148162142Y-61638571D01*
X149233571Y-61567142D02*
X149090714Y-61638571D01*
X148805000Y-61638571D01*
X148662142Y-61567142D01*
X148590714Y-61424285D01*
X148590714Y-60852857D01*
X148662142Y-60710000D01*
X148805000Y-60638571D01*
X149090714Y-60638571D01*
X149233571Y-60710000D01*
X149305000Y-60852857D01*
X149305000Y-60995714D01*
X148590714Y-61138571D01*
X149947857Y-60638571D02*
X149947857Y-61638571D01*
X149947857Y-60781428D02*
X150019285Y-60710000D01*
X150162142Y-60638571D01*
X150376428Y-60638571D01*
X150519285Y-60710000D01*
X150590714Y-60852857D01*
X150590714Y-61638571D01*
X152447857Y-61638571D02*
X152447857Y-60138571D01*
X153019285Y-60138571D01*
X153162142Y-60210000D01*
X153233571Y-60281428D01*
X153305000Y-60424285D01*
X153305000Y-60638571D01*
X153233571Y-60781428D01*
X153162142Y-60852857D01*
X153019285Y-60924285D01*
X152447857Y-60924285D01*
X154590714Y-60638571D02*
X154590714Y-61638571D01*
X153947857Y-60638571D02*
X153947857Y-61424285D01*
X154019285Y-61567142D01*
X154162142Y-61638571D01*
X154376428Y-61638571D01*
X154519285Y-61567142D01*
X154590714Y-61495714D01*
X155090714Y-60638571D02*
X155662142Y-60638571D01*
X155305000Y-61638571D02*
X155305000Y-60352857D01*
X155376428Y-60210000D01*
X155519285Y-60138571D01*
X155662142Y-60138571D01*
X156805000Y-61638571D02*
X156805000Y-60852857D01*
X156733571Y-60710000D01*
X156590714Y-60638571D01*
X156305000Y-60638571D01*
X156162142Y-60710000D01*
X156805000Y-61567142D02*
X156662142Y-61638571D01*
X156305000Y-61638571D01*
X156162142Y-61567142D01*
X156090714Y-61424285D01*
X156090714Y-61281428D01*
X156162142Y-61138571D01*
X156305000Y-61067142D01*
X156662142Y-61067142D01*
X156805000Y-60995714D01*
X157519285Y-61638571D02*
X157519285Y-60138571D01*
X158162142Y-61638571D02*
X158162142Y-60852857D01*
X158090714Y-60710000D01*
X157947857Y-60638571D01*
X157733571Y-60638571D01*
X157590714Y-60710000D01*
X157519285Y-60781428D01*
X159090714Y-61638571D02*
X158947857Y-61567142D01*
X158876428Y-61424285D01*
X158876428Y-60138571D01*
X160733571Y-60281428D02*
X160805000Y-60210000D01*
X160947857Y-60138571D01*
X161305000Y-60138571D01*
X161447857Y-60210000D01*
X161519285Y-60281428D01*
X161590714Y-60424285D01*
X161590714Y-60567142D01*
X161519285Y-60781428D01*
X160662142Y-61638571D01*
X161590714Y-61638571D01*
X162519285Y-60138571D02*
X162662142Y-60138571D01*
X162805000Y-60210000D01*
X162876428Y-60281428D01*
X162947857Y-60424285D01*
X163019285Y-60710000D01*
X163019285Y-61067142D01*
X162947857Y-61352857D01*
X162876428Y-61495714D01*
X162805000Y-61567142D01*
X162662142Y-61638571D01*
X162519285Y-61638571D01*
X162376428Y-61567142D01*
X162305000Y-61495714D01*
X162233571Y-61352857D01*
X162162142Y-61067142D01*
X162162142Y-60710000D01*
X162233571Y-60424285D01*
X162305000Y-60281428D01*
X162376428Y-60210000D01*
X162519285Y-60138571D01*
X164447857Y-61638571D02*
X163590714Y-61638571D01*
X164019285Y-61638571D02*
X164019285Y-60138571D01*
X163876428Y-60352857D01*
X163733571Y-60495714D01*
X163590714Y-60567142D01*
X164947857Y-60138571D02*
X165947857Y-60138571D01*
X165305000Y-61638571D01*
X134427857Y-54502857D02*
X134642142Y-54574285D01*
X134713571Y-54645714D01*
X134784999Y-54788571D01*
X134784999Y-55002857D01*
X134713571Y-55145714D01*
X134642142Y-55217142D01*
X134499285Y-55288571D01*
X133927857Y-55288571D01*
X133927857Y-53788571D01*
X134427857Y-53788571D01*
X134570714Y-53860000D01*
X134642142Y-53931428D01*
X134713571Y-54074285D01*
X134713571Y-54217142D01*
X134642142Y-54360000D01*
X134570714Y-54431428D01*
X134427857Y-54502857D01*
X133927857Y-54502857D01*
X135427857Y-55288571D02*
X135427857Y-54288571D01*
X135427857Y-54574285D02*
X135499285Y-54431428D01*
X135570714Y-54360000D01*
X135713571Y-54288571D01*
X135856428Y-54288571D01*
X136570714Y-55288571D02*
X136427857Y-55217142D01*
X136356428Y-55145714D01*
X136284999Y-55002857D01*
X136284999Y-54574285D01*
X136356428Y-54431428D01*
X136427857Y-54360000D01*
X136570714Y-54288571D01*
X136784999Y-54288571D01*
X136927857Y-54360000D01*
X136999285Y-54431428D01*
X137070714Y-54574285D01*
X137070714Y-55002857D01*
X136999285Y-55145714D01*
X136927857Y-55217142D01*
X136784999Y-55288571D01*
X136570714Y-55288571D01*
X137499285Y-54288571D02*
X138070714Y-54288571D01*
X137713571Y-53788571D02*
X137713571Y-55074285D01*
X137784999Y-55217142D01*
X137927857Y-55288571D01*
X138070714Y-55288571D01*
X138570714Y-55288571D02*
X138570714Y-53788571D01*
X139213571Y-55288571D02*
X139213571Y-54502857D01*
X139142142Y-54360000D01*
X138999285Y-54288571D01*
X138784999Y-54288571D01*
X138642142Y-54360000D01*
X138570714Y-54431428D01*
X140499285Y-55217142D02*
X140356428Y-55288571D01*
X140070714Y-55288571D01*
X139927857Y-55217142D01*
X139856428Y-55074285D01*
X139856428Y-54502857D01*
X139927857Y-54360000D01*
X140070714Y-54288571D01*
X140356428Y-54288571D01*
X140499285Y-54360000D01*
X140570714Y-54502857D01*
X140570714Y-54645714D01*
X139856428Y-54788571D01*
X141213571Y-55288571D02*
X141213571Y-54288571D01*
X141213571Y-54574285D02*
X141284999Y-54431428D01*
X141356428Y-54360000D01*
X141499285Y-54288571D01*
X141642142Y-54288571D01*
X143070714Y-53788571D02*
X143927857Y-53788571D01*
X143499285Y-55288571D02*
X143499285Y-53788571D01*
X145284999Y-55145714D02*
X145213571Y-55217142D01*
X144999285Y-55288571D01*
X144856428Y-55288571D01*
X144642142Y-55217142D01*
X144499285Y-55074285D01*
X144427857Y-54931428D01*
X144356428Y-54645714D01*
X144356428Y-54431428D01*
X144427857Y-54145714D01*
X144499285Y-54002857D01*
X144642142Y-53860000D01*
X144856428Y-53788571D01*
X144999285Y-53788571D01*
X145213571Y-53860000D01*
X145284999Y-53931428D01*
X145856428Y-53931428D02*
X145927857Y-53860000D01*
X146070714Y-53788571D01*
X146427857Y-53788571D01*
X146570714Y-53860000D01*
X146642142Y-53931428D01*
X146713571Y-54074285D01*
X146713571Y-54217142D01*
X146642142Y-54431428D01*
X145784999Y-55288571D01*
X146713571Y-55288571D01*
X148142142Y-55288571D02*
X147284999Y-55288571D01*
X147713571Y-55288571D02*
X147713571Y-53788571D01*
X147570714Y-54002857D01*
X147427857Y-54145714D01*
X147284999Y-54217142D01*
X149499285Y-53788571D02*
X148784999Y-53788571D01*
X148713571Y-54502857D01*
X148784999Y-54431428D01*
X148927857Y-54360000D01*
X149284999Y-54360000D01*
X149427857Y-54431428D01*
X149499285Y-54502857D01*
X149570714Y-54645714D01*
X149570714Y-55002857D01*
X149499285Y-55145714D01*
X149427857Y-55217142D01*
X149284999Y-55288571D01*
X148927857Y-55288571D01*
X148784999Y-55217142D01*
X148713571Y-55145714D01*
X151856428Y-54502857D02*
X151356428Y-54502857D01*
X151356428Y-55288571D02*
X151356428Y-53788571D01*
X152070714Y-53788571D01*
X152642142Y-55288571D02*
X152642142Y-54288571D01*
X152642142Y-54574285D02*
X152713571Y-54431428D01*
X152785000Y-54360000D01*
X152927857Y-54288571D01*
X153070714Y-54288571D01*
X153785000Y-55288571D02*
X153642142Y-55217142D01*
X153570714Y-55145714D01*
X153499285Y-55002857D01*
X153499285Y-54574285D01*
X153570714Y-54431428D01*
X153642142Y-54360000D01*
X153785000Y-54288571D01*
X153999285Y-54288571D01*
X154142142Y-54360000D01*
X154213571Y-54431428D01*
X154285000Y-54574285D01*
X154285000Y-55002857D01*
X154213571Y-55145714D01*
X154142142Y-55217142D01*
X153999285Y-55288571D01*
X153785000Y-55288571D01*
X154927857Y-54288571D02*
X154927857Y-55288571D01*
X154927857Y-54431428D02*
X154999285Y-54360000D01*
X155142142Y-54288571D01*
X155356428Y-54288571D01*
X155499285Y-54360000D01*
X155570714Y-54502857D01*
X155570714Y-55288571D01*
X156070714Y-54288571D02*
X156642142Y-54288571D01*
X156285000Y-53788571D02*
X156285000Y-55074285D01*
X156356428Y-55217142D01*
X156499285Y-55288571D01*
X156642142Y-55288571D01*
X157142142Y-54288571D02*
X157142142Y-55788571D01*
X157142142Y-54360000D02*
X157285000Y-54288571D01*
X157570714Y-54288571D01*
X157713571Y-54360000D01*
X157785000Y-54431428D01*
X157856428Y-54574285D01*
X157856428Y-55002857D01*
X157785000Y-55145714D01*
X157713571Y-55217142D01*
X157570714Y-55288571D01*
X157285000Y-55288571D01*
X157142142Y-55217142D01*
X159142142Y-55288571D02*
X159142142Y-54502857D01*
X159070714Y-54360000D01*
X158927857Y-54288571D01*
X158642142Y-54288571D01*
X158499285Y-54360000D01*
X159142142Y-55217142D02*
X158999285Y-55288571D01*
X158642142Y-55288571D01*
X158499285Y-55217142D01*
X158427857Y-55074285D01*
X158427857Y-54931428D01*
X158499285Y-54788571D01*
X158642142Y-54717142D01*
X158999285Y-54717142D01*
X159142142Y-54645714D01*
X159856428Y-54288571D02*
X159856428Y-55288571D01*
X159856428Y-54431428D02*
X159927857Y-54360000D01*
X160070714Y-54288571D01*
X160285000Y-54288571D01*
X160427857Y-54360000D01*
X160499285Y-54502857D01*
X160499285Y-55288571D01*
X161785000Y-55217142D02*
X161642142Y-55288571D01*
X161356428Y-55288571D01*
X161213571Y-55217142D01*
X161142142Y-55074285D01*
X161142142Y-54502857D01*
X161213571Y-54360000D01*
X161356428Y-54288571D01*
X161642142Y-54288571D01*
X161785000Y-54360000D01*
X161856428Y-54502857D01*
X161856428Y-54645714D01*
X161142142Y-54788571D01*
X162713571Y-55288571D02*
X162570714Y-55217142D01*
X162499285Y-55074285D01*
X162499285Y-53788571D01*
X164356428Y-54860000D02*
X165070714Y-54860000D01*
X164213571Y-55288571D02*
X164713571Y-53788571D01*
X165213571Y-55288571D01*
X166356428Y-55288571D02*
X166356428Y-53788571D01*
X166356428Y-55217142D02*
X166213571Y-55288571D01*
X165927857Y-55288571D01*
X165785000Y-55217142D01*
X165713571Y-55145714D01*
X165642142Y-55002857D01*
X165642142Y-54574285D01*
X165713571Y-54431428D01*
X165785000Y-54360000D01*
X165927857Y-54288571D01*
X166213571Y-54288571D01*
X166356428Y-54360000D01*
X167713571Y-55288571D02*
X167713571Y-54502857D01*
X167642142Y-54360000D01*
X167499285Y-54288571D01*
X167213571Y-54288571D01*
X167070714Y-54360000D01*
X167713571Y-55217142D02*
X167570714Y-55288571D01*
X167213571Y-55288571D01*
X167070714Y-55217142D01*
X166999285Y-55074285D01*
X166999285Y-54931428D01*
X167070714Y-54788571D01*
X167213571Y-54717142D01*
X167570714Y-54717142D01*
X167713571Y-54645714D01*
X168427857Y-54288571D02*
X168427857Y-55788571D01*
X168427857Y-54360000D02*
X168570714Y-54288571D01*
X168856428Y-54288571D01*
X168999285Y-54360000D01*
X169070714Y-54431428D01*
X169142142Y-54574285D01*
X169142142Y-55002857D01*
X169070714Y-55145714D01*
X168999285Y-55217142D01*
X168856428Y-55288571D01*
X168570714Y-55288571D01*
X168427857Y-55217142D01*
X169570714Y-54288571D02*
X170142142Y-54288571D01*
X169785000Y-53788571D02*
X169785000Y-55074285D01*
X169856428Y-55217142D01*
X169999285Y-55288571D01*
X170142142Y-55288571D01*
X171213571Y-55217142D02*
X171070714Y-55288571D01*
X170785000Y-55288571D01*
X170642142Y-55217142D01*
X170570714Y-55074285D01*
X170570714Y-54502857D01*
X170642142Y-54360000D01*
X170785000Y-54288571D01*
X171070714Y-54288571D01*
X171213571Y-54360000D01*
X171285000Y-54502857D01*
X171285000Y-54645714D01*
X170570714Y-54788571D01*
X171927857Y-55288571D02*
X171927857Y-54288571D01*
X171927857Y-54574285D02*
X171999285Y-54431428D01*
X172070714Y-54360000D01*
X172213571Y-54288571D01*
X172356428Y-54288571D01*
X173402857Y-144395000D02*
X174117142Y-144395000D01*
X173260000Y-144823571D02*
X173760000Y-143323571D01*
X174260000Y-144823571D01*
X174760000Y-143323571D02*
X174760000Y-144537857D01*
X174831428Y-144680714D01*
X174902857Y-144752142D01*
X175045714Y-144823571D01*
X175331428Y-144823571D01*
X175474285Y-144752142D01*
X175545714Y-144680714D01*
X175617142Y-144537857D01*
X175617142Y-143323571D01*
X176188571Y-143323571D02*
X177188571Y-144823571D01*
X177188571Y-143323571D02*
X176188571Y-144823571D01*
X126512142Y-144680714D02*
X126440714Y-144752142D01*
X126226428Y-144823571D01*
X126083571Y-144823571D01*
X125869285Y-144752142D01*
X125726428Y-144609285D01*
X125655000Y-144466428D01*
X125583571Y-144180714D01*
X125583571Y-143966428D01*
X125655000Y-143680714D01*
X125726428Y-143537857D01*
X125869285Y-143395000D01*
X126083571Y-143323571D01*
X126226428Y-143323571D01*
X126440714Y-143395000D01*
X126512142Y-143466428D01*
X127155000Y-144823571D02*
X127155000Y-143323571D01*
X128012142Y-144823571D01*
X128012142Y-143323571D01*
X128726428Y-144823571D02*
X128726428Y-143323571D01*
X129583571Y-144823571D02*
X128940714Y-143966428D01*
X129583571Y-143323571D02*
X128726428Y-144180714D01*
X130226428Y-144037857D02*
X130726428Y-144037857D01*
X130940714Y-144823571D02*
X130226428Y-144823571D01*
X130226428Y-143323571D01*
X130940714Y-143323571D01*
X131869285Y-144109285D02*
X131869285Y-144823571D01*
X131369285Y-143323571D02*
X131869285Y-144109285D01*
X132369285Y-143323571D01*
X155063571Y-143323571D02*
X156063571Y-143323571D01*
X155420714Y-144823571D01*
X156635000Y-144823571D02*
X156635000Y-143823571D01*
X156635000Y-143323571D02*
X156563571Y-143395000D01*
X156635000Y-143466428D01*
X156706428Y-143395000D01*
X156635000Y-143323571D01*
X156635000Y-143466428D01*
X157992142Y-143323571D02*
X157706428Y-143323571D01*
X157563571Y-143395000D01*
X157492142Y-143466428D01*
X157349285Y-143680714D01*
X157277857Y-143966428D01*
X157277857Y-144537857D01*
X157349285Y-144680714D01*
X157420714Y-144752142D01*
X157563571Y-144823571D01*
X157849285Y-144823571D01*
X157992142Y-144752142D01*
X158063571Y-144680714D01*
X158135000Y-144537857D01*
X158135000Y-144180714D01*
X158063571Y-144037857D01*
X157992142Y-143966428D01*
X157849285Y-143895000D01*
X157563571Y-143895000D01*
X157420714Y-143966428D01*
X157349285Y-144037857D01*
X157277857Y-144180714D01*
X158849285Y-144823571D02*
X159135000Y-144823571D01*
X159277857Y-144752142D01*
X159349285Y-144680714D01*
X159492142Y-144466428D01*
X159563571Y-144180714D01*
X159563571Y-143609285D01*
X159492142Y-143466428D01*
X159420714Y-143395000D01*
X159277857Y-143323571D01*
X158992142Y-143323571D01*
X158849285Y-143395000D01*
X158777857Y-143466428D01*
X158706428Y-143609285D01*
X158706428Y-143966428D01*
X158777857Y-144109285D01*
X158849285Y-144180714D01*
X158992142Y-144252142D01*
X159277857Y-144252142D01*
X159420714Y-144180714D01*
X159492142Y-144109285D01*
X159563571Y-143966428D01*
X159849285Y-144966428D02*
X160992142Y-144966428D01*
X161349285Y-144823571D02*
X161349285Y-143323571D01*
X161920714Y-143323571D01*
X162063571Y-143395000D01*
X162135000Y-143466428D01*
X162206428Y-143609285D01*
X162206428Y-143823571D01*
X162135000Y-143966428D01*
X162063571Y-144037857D01*
X161920714Y-144109285D01*
X161349285Y-144109285D01*
X162706428Y-143323571D02*
X163635000Y-143323571D01*
X163135000Y-143895000D01*
X163349285Y-143895000D01*
X163492142Y-143966428D01*
X163563571Y-144037857D01*
X163635000Y-144180714D01*
X163635000Y-144537857D01*
X163563571Y-144680714D01*
X163492142Y-144752142D01*
X163349285Y-144823571D01*
X162920714Y-144823571D01*
X162777857Y-144752142D01*
X162706428Y-144680714D01*
X139823571Y-143323571D02*
X140823571Y-143323571D01*
X140180714Y-144823571D01*
X141395000Y-144823571D02*
X141395000Y-143823571D01*
X141395000Y-143323571D02*
X141323571Y-143395000D01*
X141395000Y-143466428D01*
X141466428Y-143395000D01*
X141395000Y-143323571D01*
X141395000Y-143466428D01*
X142752142Y-143323571D02*
X142466428Y-143323571D01*
X142323571Y-143395000D01*
X142252142Y-143466428D01*
X142109285Y-143680714D01*
X142037857Y-143966428D01*
X142037857Y-144537857D01*
X142109285Y-144680714D01*
X142180714Y-144752142D01*
X142323571Y-144823571D01*
X142609285Y-144823571D01*
X142752142Y-144752142D01*
X142823571Y-144680714D01*
X142895000Y-144537857D01*
X142895000Y-144180714D01*
X142823571Y-144037857D01*
X142752142Y-143966428D01*
X142609285Y-143895000D01*
X142323571Y-143895000D01*
X142180714Y-143966428D01*
X142109285Y-144037857D01*
X142037857Y-144180714D01*
X143609285Y-144823571D02*
X143895000Y-144823571D01*
X144037857Y-144752142D01*
X144109285Y-144680714D01*
X144252142Y-144466428D01*
X144323571Y-144180714D01*
X144323571Y-143609285D01*
X144252142Y-143466428D01*
X144180714Y-143395000D01*
X144037857Y-143323571D01*
X143752142Y-143323571D01*
X143609285Y-143395000D01*
X143537857Y-143466428D01*
X143466428Y-143609285D01*
X143466428Y-143966428D01*
X143537857Y-144109285D01*
X143609285Y-144180714D01*
X143752142Y-144252142D01*
X144037857Y-144252142D01*
X144180714Y-144180714D01*
X144252142Y-144109285D01*
X144323571Y-143966428D01*
X144609285Y-144966428D02*
X145752142Y-144966428D01*
X146109285Y-144823571D02*
X146109285Y-143323571D01*
X146680714Y-143323571D01*
X146823571Y-143395000D01*
X146895000Y-143466428D01*
X146966428Y-143609285D01*
X146966428Y-143823571D01*
X146895000Y-143966428D01*
X146823571Y-144037857D01*
X146680714Y-144109285D01*
X146109285Y-144109285D01*
X147537857Y-143466428D02*
X147609285Y-143395000D01*
X147752142Y-143323571D01*
X148109285Y-143323571D01*
X148252142Y-143395000D01*
X148323571Y-143466428D01*
X148395000Y-143609285D01*
X148395000Y-143752142D01*
X148323571Y-143966428D01*
X147466428Y-144823571D01*
X148395000Y-144823571D01*
D11*
G36*
X135021687Y-63652822D02*
X135057247Y-63632502D01*
X135141067Y-63581702D01*
X135257907Y-63505502D01*
X135395067Y-63411522D01*
X135534767Y-63317542D01*
X135646527Y-63241342D01*
X135727807Y-63190542D01*
X135760827Y-63172762D01*
X135778607Y-63177842D01*
X135844647Y-63210862D01*
X135941167Y-63259122D01*
X135994507Y-63289602D01*
X136083407Y-63327702D01*
X136126587Y-63335322D01*
X136134207Y-63322622D01*
X136167227Y-63254042D01*
X136218027Y-63139742D01*
X136284067Y-62989882D01*
X136357727Y-62812082D01*
X136439007Y-62619042D01*
X136520287Y-62423462D01*
X136599027Y-62238042D01*
X136667607Y-62070402D01*
X136720947Y-61933242D01*
X136759047Y-61839262D01*
X136771747Y-61798622D01*
X136766667Y-61791002D01*
X136723487Y-61747822D01*
X136647287Y-61689402D01*
X136482187Y-61554782D01*
X136317087Y-61351582D01*
X136218027Y-61120442D01*
X136185007Y-60861362D01*
X136212947Y-60622602D01*
X136306927Y-60394002D01*
X136466947Y-60188262D01*
X136659987Y-60035862D01*
X136888587Y-59936802D01*
X137142587Y-59906322D01*
X137386427Y-59934262D01*
X137620107Y-60025702D01*
X137825847Y-60183182D01*
X137914747Y-60284782D01*
X138034127Y-60493062D01*
X138102707Y-60716582D01*
X138110327Y-60772462D01*
X138100167Y-61018842D01*
X138026507Y-61255062D01*
X137896967Y-61465882D01*
X137716627Y-61638602D01*
X137693767Y-61653842D01*
X137609947Y-61717342D01*
X137554067Y-61760522D01*
X137510887Y-61796082D01*
X137823307Y-62547922D01*
X137874107Y-62669842D01*
X137960467Y-62875582D01*
X138036667Y-63053382D01*
X138095087Y-63193082D01*
X138138267Y-63287062D01*
X138156047Y-63325162D01*
X138158587Y-63327702D01*
X138186527Y-63332782D01*
X138242407Y-63312462D01*
X138349087Y-63261662D01*
X138417667Y-63226102D01*
X138498947Y-63185462D01*
X138534507Y-63172762D01*
X138564987Y-63188002D01*
X138641187Y-63238802D01*
X138752947Y-63312462D01*
X138887567Y-63403902D01*
X139017107Y-63492802D01*
X139133947Y-63569002D01*
X139220307Y-63624882D01*
X139260947Y-63647742D01*
X139268567Y-63647742D01*
X139306667Y-63627422D01*
X139372707Y-63569002D01*
X139476847Y-63472482D01*
X139621627Y-63330242D01*
X139644487Y-63307382D01*
X139763867Y-63185462D01*
X139860387Y-63083862D01*
X139923887Y-63012742D01*
X139949287Y-62979722D01*
X139926427Y-62939082D01*
X139873087Y-62852722D01*
X139794347Y-62733342D01*
X139697827Y-62593642D01*
X139448907Y-62230422D01*
X139586067Y-61887522D01*
X139629247Y-61783382D01*
X139682587Y-61656382D01*
X139720687Y-61564942D01*
X139741007Y-61526842D01*
X139779107Y-61511602D01*
X139873087Y-61491282D01*
X140007707Y-61463342D01*
X140170267Y-61432862D01*
X140325207Y-61402382D01*
X140464907Y-61376982D01*
X140563967Y-61356662D01*
X140609687Y-61349042D01*
X140619847Y-61341422D01*
X140630007Y-61321102D01*
X140635087Y-61272842D01*
X140640167Y-61189022D01*
X140640167Y-61054402D01*
X140640167Y-60861362D01*
X140640167Y-60841042D01*
X140640167Y-60655622D01*
X140635087Y-60510842D01*
X140630007Y-60414322D01*
X140624927Y-60376222D01*
X140581747Y-60366062D01*
X140482687Y-60345742D01*
X140342987Y-60317802D01*
X140177887Y-60287322D01*
X140167727Y-60284782D01*
X140000087Y-60251762D01*
X139862927Y-60223822D01*
X139766407Y-60200962D01*
X139723227Y-60188262D01*
X139715607Y-60178102D01*
X139682587Y-60112062D01*
X139634327Y-60010462D01*
X139580987Y-59883462D01*
X139525107Y-59753922D01*
X139479387Y-59637082D01*
X139448907Y-59550722D01*
X139438747Y-59510082D01*
X139464147Y-59469442D01*
X139520027Y-59385622D01*
X139601307Y-59266242D01*
X139697827Y-59124002D01*
X139705447Y-59113842D01*
X139799427Y-58974142D01*
X139878167Y-58854762D01*
X139928967Y-58770942D01*
X139949287Y-58732842D01*
X139946747Y-58730302D01*
X139916267Y-58689662D01*
X139845147Y-58608382D01*
X139743547Y-58501702D01*
X139619087Y-58379782D01*
X139580987Y-58341682D01*
X139446367Y-58207062D01*
X139349847Y-58120702D01*
X139291427Y-58074982D01*
X139263487Y-58064822D01*
X139220307Y-58090222D01*
X139131407Y-58148642D01*
X139012027Y-58229922D01*
X138869787Y-58326442D01*
X138859627Y-58331522D01*
X138719927Y-58428042D01*
X138603087Y-58506782D01*
X138521807Y-58562662D01*
X138486247Y-58582982D01*
X138478627Y-58582982D01*
X138422747Y-58567742D01*
X138323687Y-58532182D01*
X138199227Y-58483922D01*
X138069687Y-58433122D01*
X137952847Y-58382322D01*
X137863947Y-58341682D01*
X137823307Y-58318822D01*
X137820767Y-58316282D01*
X137808067Y-58265482D01*
X137782667Y-58161342D01*
X137752187Y-58016562D01*
X137721707Y-57846382D01*
X137716627Y-57818442D01*
X137683607Y-57653342D01*
X137658207Y-57513642D01*
X137637887Y-57419662D01*
X137627727Y-57379022D01*
X137604867Y-57373942D01*
X137523587Y-57368862D01*
X137399127Y-57366322D01*
X137246727Y-57363782D01*
X137089247Y-57363782D01*
X136934307Y-57368862D01*
X136802227Y-57373942D01*
X136708247Y-57379022D01*
X136670147Y-57386642D01*
X136667607Y-57389182D01*
X136652367Y-57439982D01*
X136629507Y-57546662D01*
X136601567Y-57691442D01*
X136568547Y-57861622D01*
X136563467Y-57892102D01*
X136530447Y-58059742D01*
X136502507Y-58196902D01*
X136482187Y-58288342D01*
X136472027Y-58326442D01*
X136456787Y-58334062D01*
X136388207Y-58364542D01*
X136276447Y-58410262D01*
X136139287Y-58466142D01*
X135819247Y-58595682D01*
X135425547Y-58326442D01*
X135389987Y-58303582D01*
X135247747Y-58207062D01*
X135133447Y-58128322D01*
X135052167Y-58077522D01*
X135019147Y-58057202D01*
X135016607Y-58059742D01*
X134975967Y-58092762D01*
X134897227Y-58166422D01*
X134793087Y-58270562D01*
X134668627Y-58392482D01*
X134577187Y-58483922D01*
X134467967Y-58595682D01*
X134399387Y-58669342D01*
X134363827Y-58717602D01*
X134348587Y-58745542D01*
X134353667Y-58763322D01*
X134379067Y-58803962D01*
X134434947Y-58890322D01*
X134516227Y-59009702D01*
X134612747Y-59149402D01*
X134691487Y-59266242D01*
X134775307Y-59398322D01*
X134831187Y-59492302D01*
X134851507Y-59538022D01*
X134846427Y-59555802D01*
X134818487Y-59634542D01*
X134772767Y-59748842D01*
X134711807Y-59888542D01*
X134577187Y-60198422D01*
X134371447Y-60239062D01*
X134249527Y-60261922D01*
X134076807Y-60294942D01*
X133911707Y-60327962D01*
X133652627Y-60376222D01*
X133642467Y-61323642D01*
X133683107Y-61341422D01*
X133721207Y-61351582D01*
X133817727Y-61371902D01*
X133954887Y-61399842D01*
X134114907Y-61430322D01*
X134252067Y-61455722D01*
X134389227Y-61483662D01*
X134488287Y-61501442D01*
X134534007Y-61511602D01*
X134544167Y-61526842D01*
X134579727Y-61592882D01*
X134627987Y-61699562D01*
X134683867Y-61826562D01*
X134739747Y-61961182D01*
X134788007Y-62083102D01*
X134821027Y-62177082D01*
X134833727Y-62225342D01*
X134815947Y-62260902D01*
X134762607Y-62342182D01*
X134686407Y-62459022D01*
X134592427Y-62596182D01*
X134498447Y-62733342D01*
X134419707Y-62850182D01*
X134363827Y-62934002D01*
X134340967Y-62972102D01*
X134353667Y-63000042D01*
X134407007Y-63066082D01*
X134511147Y-63172762D01*
X134666087Y-63325162D01*
X134691487Y-63350562D01*
X134813407Y-63467402D01*
X134917547Y-63563922D01*
X134988667Y-63627422D01*
X135021687Y-63652822D01*
X135021687Y-63652822D01*
G37*
X135021687Y-63652822D02*
X135057247Y-63632502D01*
X135141067Y-63581702D01*
X135257907Y-63505502D01*
X135395067Y-63411522D01*
X135534767Y-63317542D01*
X135646527Y-63241342D01*
X135727807Y-63190542D01*
X135760827Y-63172762D01*
X135778607Y-63177842D01*
X135844647Y-63210862D01*
X135941167Y-63259122D01*
X135994507Y-63289602D01*
X136083407Y-63327702D01*
X136126587Y-63335322D01*
X136134207Y-63322622D01*
X136167227Y-63254042D01*
X136218027Y-63139742D01*
X136284067Y-62989882D01*
X136357727Y-62812082D01*
X136439007Y-62619042D01*
X136520287Y-62423462D01*
X136599027Y-62238042D01*
X136667607Y-62070402D01*
X136720947Y-61933242D01*
X136759047Y-61839262D01*
X136771747Y-61798622D01*
X136766667Y-61791002D01*
X136723487Y-61747822D01*
X136647287Y-61689402D01*
X136482187Y-61554782D01*
X136317087Y-61351582D01*
X136218027Y-61120442D01*
X136185007Y-60861362D01*
X136212947Y-60622602D01*
X136306927Y-60394002D01*
X136466947Y-60188262D01*
X136659987Y-60035862D01*
X136888587Y-59936802D01*
X137142587Y-59906322D01*
X137386427Y-59934262D01*
X137620107Y-60025702D01*
X137825847Y-60183182D01*
X137914747Y-60284782D01*
X138034127Y-60493062D01*
X138102707Y-60716582D01*
X138110327Y-60772462D01*
X138100167Y-61018842D01*
X138026507Y-61255062D01*
X137896967Y-61465882D01*
X137716627Y-61638602D01*
X137693767Y-61653842D01*
X137609947Y-61717342D01*
X137554067Y-61760522D01*
X137510887Y-61796082D01*
X137823307Y-62547922D01*
X137874107Y-62669842D01*
X137960467Y-62875582D01*
X138036667Y-63053382D01*
X138095087Y-63193082D01*
X138138267Y-63287062D01*
X138156047Y-63325162D01*
X138158587Y-63327702D01*
X138186527Y-63332782D01*
X138242407Y-63312462D01*
X138349087Y-63261662D01*
X138417667Y-63226102D01*
X138498947Y-63185462D01*
X138534507Y-63172762D01*
X138564987Y-63188002D01*
X138641187Y-63238802D01*
X138752947Y-63312462D01*
X138887567Y-63403902D01*
X139017107Y-63492802D01*
X139133947Y-63569002D01*
X139220307Y-63624882D01*
X139260947Y-63647742D01*
X139268567Y-63647742D01*
X139306667Y-63627422D01*
X139372707Y-63569002D01*
X139476847Y-63472482D01*
X139621627Y-63330242D01*
X139644487Y-63307382D01*
X139763867Y-63185462D01*
X139860387Y-63083862D01*
X139923887Y-63012742D01*
X139949287Y-62979722D01*
X139926427Y-62939082D01*
X139873087Y-62852722D01*
X139794347Y-62733342D01*
X139697827Y-62593642D01*
X139448907Y-62230422D01*
X139586067Y-61887522D01*
X139629247Y-61783382D01*
X139682587Y-61656382D01*
X139720687Y-61564942D01*
X139741007Y-61526842D01*
X139779107Y-61511602D01*
X139873087Y-61491282D01*
X140007707Y-61463342D01*
X140170267Y-61432862D01*
X140325207Y-61402382D01*
X140464907Y-61376982D01*
X140563967Y-61356662D01*
X140609687Y-61349042D01*
X140619847Y-61341422D01*
X140630007Y-61321102D01*
X140635087Y-61272842D01*
X140640167Y-61189022D01*
X140640167Y-61054402D01*
X140640167Y-60861362D01*
X140640167Y-60841042D01*
X140640167Y-60655622D01*
X140635087Y-60510842D01*
X140630007Y-60414322D01*
X140624927Y-60376222D01*
X140581747Y-60366062D01*
X140482687Y-60345742D01*
X140342987Y-60317802D01*
X140177887Y-60287322D01*
X140167727Y-60284782D01*
X140000087Y-60251762D01*
X139862927Y-60223822D01*
X139766407Y-60200962D01*
X139723227Y-60188262D01*
X139715607Y-60178102D01*
X139682587Y-60112062D01*
X139634327Y-60010462D01*
X139580987Y-59883462D01*
X139525107Y-59753922D01*
X139479387Y-59637082D01*
X139448907Y-59550722D01*
X139438747Y-59510082D01*
X139464147Y-59469442D01*
X139520027Y-59385622D01*
X139601307Y-59266242D01*
X139697827Y-59124002D01*
X139705447Y-59113842D01*
X139799427Y-58974142D01*
X139878167Y-58854762D01*
X139928967Y-58770942D01*
X139949287Y-58732842D01*
X139946747Y-58730302D01*
X139916267Y-58689662D01*
X139845147Y-58608382D01*
X139743547Y-58501702D01*
X139619087Y-58379782D01*
X139580987Y-58341682D01*
X139446367Y-58207062D01*
X139349847Y-58120702D01*
X139291427Y-58074982D01*
X139263487Y-58064822D01*
X139220307Y-58090222D01*
X139131407Y-58148642D01*
X139012027Y-58229922D01*
X138869787Y-58326442D01*
X138859627Y-58331522D01*
X138719927Y-58428042D01*
X138603087Y-58506782D01*
X138521807Y-58562662D01*
X138486247Y-58582982D01*
X138478627Y-58582982D01*
X138422747Y-58567742D01*
X138323687Y-58532182D01*
X138199227Y-58483922D01*
X138069687Y-58433122D01*
X137952847Y-58382322D01*
X137863947Y-58341682D01*
X137823307Y-58318822D01*
X137820767Y-58316282D01*
X137808067Y-58265482D01*
X137782667Y-58161342D01*
X137752187Y-58016562D01*
X137721707Y-57846382D01*
X137716627Y-57818442D01*
X137683607Y-57653342D01*
X137658207Y-57513642D01*
X137637887Y-57419662D01*
X137627727Y-57379022D01*
X137604867Y-57373942D01*
X137523587Y-57368862D01*
X137399127Y-57366322D01*
X137246727Y-57363782D01*
X137089247Y-57363782D01*
X136934307Y-57368862D01*
X136802227Y-57373942D01*
X136708247Y-57379022D01*
X136670147Y-57386642D01*
X136667607Y-57389182D01*
X136652367Y-57439982D01*
X136629507Y-57546662D01*
X136601567Y-57691442D01*
X136568547Y-57861622D01*
X136563467Y-57892102D01*
X136530447Y-58059742D01*
X136502507Y-58196902D01*
X136482187Y-58288342D01*
X136472027Y-58326442D01*
X136456787Y-58334062D01*
X136388207Y-58364542D01*
X136276447Y-58410262D01*
X136139287Y-58466142D01*
X135819247Y-58595682D01*
X135425547Y-58326442D01*
X135389987Y-58303582D01*
X135247747Y-58207062D01*
X135133447Y-58128322D01*
X135052167Y-58077522D01*
X135019147Y-58057202D01*
X135016607Y-58059742D01*
X134975967Y-58092762D01*
X134897227Y-58166422D01*
X134793087Y-58270562D01*
X134668627Y-58392482D01*
X134577187Y-58483922D01*
X134467967Y-58595682D01*
X134399387Y-58669342D01*
X134363827Y-58717602D01*
X134348587Y-58745542D01*
X134353667Y-58763322D01*
X134379067Y-58803962D01*
X134434947Y-58890322D01*
X134516227Y-59009702D01*
X134612747Y-59149402D01*
X134691487Y-59266242D01*
X134775307Y-59398322D01*
X134831187Y-59492302D01*
X134851507Y-59538022D01*
X134846427Y-59555802D01*
X134818487Y-59634542D01*
X134772767Y-59748842D01*
X134711807Y-59888542D01*
X134577187Y-60198422D01*
X134371447Y-60239062D01*
X134249527Y-60261922D01*
X134076807Y-60294942D01*
X133911707Y-60327962D01*
X133652627Y-60376222D01*
X133642467Y-61323642D01*
X133683107Y-61341422D01*
X133721207Y-61351582D01*
X133817727Y-61371902D01*
X133954887Y-61399842D01*
X134114907Y-61430322D01*
X134252067Y-61455722D01*
X134389227Y-61483662D01*
X134488287Y-61501442D01*
X134534007Y-61511602D01*
X134544167Y-61526842D01*
X134579727Y-61592882D01*
X134627987Y-61699562D01*
X134683867Y-61826562D01*
X134739747Y-61961182D01*
X134788007Y-62083102D01*
X134821027Y-62177082D01*
X134833727Y-62225342D01*
X134815947Y-62260902D01*
X134762607Y-62342182D01*
X134686407Y-62459022D01*
X134592427Y-62596182D01*
X134498447Y-62733342D01*
X134419707Y-62850182D01*
X134363827Y-62934002D01*
X134340967Y-62972102D01*
X134353667Y-63000042D01*
X134407007Y-63066082D01*
X134511147Y-63172762D01*
X134666087Y-63325162D01*
X134691487Y-63350562D01*
X134813407Y-63467402D01*
X134917547Y-63563922D01*
X134988667Y-63627422D01*
X135021687Y-63652822D01*
D12*
X134215000Y-65770000D02*
X134215000Y-137430000D01*
X134215000Y-137430000D02*
X124865000Y-137430000D01*
X124865000Y-137430000D02*
X124865000Y-65770000D01*
X124865000Y-65770000D02*
X134215000Y-65770000D01*
X124615000Y-65520000D02*
X124615000Y-68060000D01*
X124615000Y-65520000D02*
X127155000Y-65520000D01*
X139855000Y-65520000D02*
X142395000Y-65520000D01*
X139855000Y-65520000D02*
X139855000Y-68060000D01*
X140105000Y-65770000D02*
X149455000Y-65770000D01*
X140105000Y-137430000D02*
X140105000Y-65770000D01*
X149455000Y-137430000D02*
X140105000Y-137430000D01*
X149455000Y-65770000D02*
X149455000Y-137430000D01*
X179935000Y-108950000D02*
X179935000Y-137430000D01*
X179935000Y-137430000D02*
X170585000Y-137430000D01*
X170585000Y-137430000D02*
X170585000Y-108950000D01*
X170585000Y-108950000D02*
X179935000Y-108950000D01*
X170335000Y-108700000D02*
X170335000Y-111240000D01*
X170335000Y-108700000D02*
X172875000Y-108700000D01*
X164695000Y-65770000D02*
X164695000Y-137430000D01*
X164695000Y-137430000D02*
X155345000Y-137430000D01*
X155345000Y-137430000D02*
X155345000Y-65770000D01*
X155345000Y-65770000D02*
X164695000Y-65770000D01*
X155095000Y-65520000D02*
X155095000Y-68060000D01*
X155095000Y-65520000D02*
X157635000Y-65520000D01*
D13*
X129206666Y-63968380D02*
X129206666Y-64682666D01*
X129159047Y-64825523D01*
X129063809Y-64920761D01*
X128920952Y-64968380D01*
X128825714Y-64968380D01*
X130206666Y-64968380D02*
X129635238Y-64968380D01*
X129920952Y-64968380D02*
X129920952Y-63968380D01*
X129825714Y-64111238D01*
X129730476Y-64206476D01*
X129635238Y-64254095D01*
X144446666Y-63968380D02*
X144446666Y-64682666D01*
X144399047Y-64825523D01*
X144303809Y-64920761D01*
X144160952Y-64968380D01*
X144065714Y-64968380D01*
X144827619Y-63968380D02*
X145446666Y-63968380D01*
X145113333Y-64349333D01*
X145256190Y-64349333D01*
X145351428Y-64396952D01*
X145399047Y-64444571D01*
X145446666Y-64539809D01*
X145446666Y-64777904D01*
X145399047Y-64873142D01*
X145351428Y-64920761D01*
X145256190Y-64968380D01*
X144970476Y-64968380D01*
X144875238Y-64920761D01*
X144827619Y-64873142D01*
X174926666Y-107148380D02*
X174926666Y-107862666D01*
X174879047Y-108005523D01*
X174783809Y-108100761D01*
X174640952Y-108148380D01*
X174545714Y-108148380D01*
X175355238Y-107243619D02*
X175402857Y-107196000D01*
X175498095Y-107148380D01*
X175736190Y-107148380D01*
X175831428Y-107196000D01*
X175879047Y-107243619D01*
X175926666Y-107338857D01*
X175926666Y-107434095D01*
X175879047Y-107576952D01*
X175307619Y-108148380D01*
X175926666Y-108148380D01*
X159686666Y-63968380D02*
X159686666Y-64682666D01*
X159639047Y-64825523D01*
X159543809Y-64920761D01*
X159400952Y-64968380D01*
X159305714Y-64968380D01*
X160591428Y-64301714D02*
X160591428Y-64968380D01*
X160353333Y-63920761D02*
X160115238Y-64635047D01*
X160734285Y-64635047D01*
M02*
