M48
;DRILL file {KiCad 4.0.7} date Mon Nov 20 01:04:43 2017
;FORMAT={-:-/ absolute / inch / decimal}
FMAT,2
INCH,TZ
T1C0.039
%
G90
G05
M72
T1
X3.2Y-5.225
X3.2Y-5.35
X3.3Y-5.225
X3.3Y-5.35
X3.4Y-5.225
X3.4Y-5.35
X3.625Y-4.95
X3.625Y-5.05
X3.625Y-5.15
X3.625Y-5.25
X3.625Y-5.35
X3.625Y-5.45
X3.625Y-5.55
X3.625Y-5.65
X3.725Y-4.95
X3.725Y-5.05
X3.725Y-5.15
X3.725Y-5.25
X3.725Y-5.35
X3.725Y-5.45
X3.725Y-5.55
X3.725Y-5.65
X3.975Y-3.25
X3.975Y-3.35
X3.975Y-3.45
X3.975Y-3.55
X3.975Y-3.65
X3.975Y-3.75
X3.975Y-3.85
X3.975Y-3.95
X3.975Y-4.05
X3.975Y-4.15
X3.975Y-4.25
X3.975Y-4.35
X3.975Y-4.45
X3.975Y-4.55
X3.975Y-4.65
X3.975Y-4.75
X3.975Y-4.85
X3.975Y-4.95
X3.975Y-5.05
X3.975Y-5.15
X3.975Y-5.25
X3.975Y-5.35
X3.975Y-5.45
X3.975Y-5.55
X3.975Y-5.65
X4.075Y-3.25
X4.075Y-3.35
X4.075Y-3.45
X4.075Y-3.55
X4.075Y-3.65
X4.075Y-3.75
X4.075Y-3.85
X4.075Y-3.95
X4.075Y-4.05
X4.075Y-4.15
X4.075Y-4.25
X4.075Y-4.35
X4.075Y-4.45
X4.075Y-4.55
X4.075Y-4.65
X4.075Y-4.75
X4.075Y-4.85
X4.075Y-4.95
X4.075Y-5.05
X4.075Y-5.15
X4.075Y-5.25
X4.075Y-5.35
X4.075Y-5.45
X4.075Y-5.55
X4.075Y-5.65
T0
M30
