G04 #@! TF.GenerationSoftware,KiCad,Pcbnew,(2017-12-02 revision 3109343b9)-master*
G04 #@! TF.CreationDate,2017-12-03T22:01:14+01:00*
G04 #@! TF.ProjectId,TC215_HDDB_Adapter_v2,54433231355F484444425F4164617074,rev?*
G04 #@! TF.SameCoordinates,Original*
G04 #@! TF.FileFunction,Legend,Top*
G04 #@! TF.FilePolarity,Positive*
%FSLAX46Y46*%
G04 Gerber Fmt 4.6, Leading zero omitted, Abs format (unit mm)*
G04 Created by KiCad (PCBNEW (2017-12-02 revision 3109343b9)-master) date Sun Dec  3 22:01:14 2017*
%MOMM*%
%LPD*%
G01*
G04 APERTURE LIST*
%ADD10C,0.250000*%
%ADD11C,0.400000*%
%ADD12C,0.002540*%
%ADD13C,0.120000*%
%ADD14C,0.150000*%
G04 APERTURE END LIST*
D10*
X96009976Y-136607500D02*
X95914738Y-136559880D01*
X95771880Y-136559880D01*
X95629023Y-136607500D01*
X95533785Y-136702738D01*
X95486166Y-136797976D01*
X95438547Y-136988452D01*
X95438547Y-137131309D01*
X95486166Y-137321785D01*
X95533785Y-137417023D01*
X95629023Y-137512261D01*
X95771880Y-137559880D01*
X95867119Y-137559880D01*
X96009976Y-137512261D01*
X96057595Y-137464642D01*
X96057595Y-137131309D01*
X95867119Y-137131309D01*
X96486166Y-137559880D02*
X96486166Y-136559880D01*
X97057595Y-137559880D01*
X97057595Y-136559880D01*
X97533785Y-137559880D02*
X97533785Y-136559880D01*
X97771880Y-136559880D01*
X97914738Y-136607500D01*
X98009976Y-136702738D01*
X98057595Y-136797976D01*
X98105214Y-136988452D01*
X98105214Y-137131309D01*
X98057595Y-137321785D01*
X98009976Y-137417023D01*
X97914738Y-137512261D01*
X97771880Y-137559880D01*
X97533785Y-137559880D01*
X101295690Y-136559880D02*
X100819500Y-136559880D01*
X100771880Y-137036071D01*
X100819500Y-136988452D01*
X100914738Y-136940833D01*
X101152833Y-136940833D01*
X101248071Y-136988452D01*
X101295690Y-137036071D01*
X101343309Y-137131309D01*
X101343309Y-137369404D01*
X101295690Y-137464642D01*
X101248071Y-137512261D01*
X101152833Y-137559880D01*
X100914738Y-137559880D01*
X100819500Y-137512261D01*
X100771880Y-137464642D01*
X101629023Y-136559880D02*
X101962357Y-137559880D01*
X102295690Y-136559880D01*
D11*
X100981261Y-121566309D02*
X98981261Y-121566309D01*
X99933642Y-121566309D02*
X99933642Y-120423452D01*
X100981261Y-120423452D02*
X98981261Y-120423452D01*
X100981261Y-119471071D02*
X98981261Y-119471071D01*
X98981261Y-118994880D01*
X99076500Y-118709166D01*
X99266976Y-118518690D01*
X99457452Y-118423452D01*
X99838404Y-118328214D01*
X100124119Y-118328214D01*
X100505071Y-118423452D01*
X100695547Y-118518690D01*
X100886023Y-118709166D01*
X100981261Y-118994880D01*
X100981261Y-119471071D01*
X98981261Y-116518690D02*
X98981261Y-117471071D01*
X99933642Y-117566309D01*
X99838404Y-117471071D01*
X99743166Y-117280595D01*
X99743166Y-116804404D01*
X99838404Y-116613928D01*
X99933642Y-116518690D01*
X100124119Y-116423452D01*
X100600309Y-116423452D01*
X100790785Y-116518690D01*
X100886023Y-116613928D01*
X100981261Y-116804404D01*
X100981261Y-117280595D01*
X100886023Y-117471071D01*
X100790785Y-117566309D01*
X98981261Y-115185357D02*
X98981261Y-114994880D01*
X99076500Y-114804404D01*
X99171738Y-114709166D01*
X99362214Y-114613928D01*
X99743166Y-114518690D01*
X100219357Y-114518690D01*
X100600309Y-114613928D01*
X100790785Y-114709166D01*
X100886023Y-114804404D01*
X100981261Y-114994880D01*
X100981261Y-115185357D01*
X100886023Y-115375833D01*
X100790785Y-115471071D01*
X100600309Y-115566309D01*
X100219357Y-115661547D01*
X99743166Y-115661547D01*
X99362214Y-115566309D01*
X99171738Y-115471071D01*
X99076500Y-115375833D01*
X98981261Y-115185357D01*
X100981261Y-112137738D02*
X98981261Y-112137738D01*
X98981261Y-111661547D01*
X99076500Y-111375833D01*
X99266976Y-111185357D01*
X99457452Y-111090119D01*
X99838404Y-110994880D01*
X100124119Y-110994880D01*
X100505071Y-111090119D01*
X100695547Y-111185357D01*
X100886023Y-111375833D01*
X100981261Y-111661547D01*
X100981261Y-112137738D01*
X99933642Y-109471071D02*
X100028880Y-109185357D01*
X100124119Y-109090119D01*
X100314595Y-108994880D01*
X100600309Y-108994880D01*
X100790785Y-109090119D01*
X100886023Y-109185357D01*
X100981261Y-109375833D01*
X100981261Y-110137738D01*
X98981261Y-110137738D01*
X98981261Y-109471071D01*
X99076500Y-109280595D01*
X99171738Y-109185357D01*
X99362214Y-109090119D01*
X99552690Y-109090119D01*
X99743166Y-109185357D01*
X99838404Y-109280595D01*
X99933642Y-109471071D01*
X99933642Y-110137738D01*
X99171738Y-108232976D02*
X99076500Y-108137738D01*
X98981261Y-107947261D01*
X98981261Y-107471071D01*
X99076500Y-107280595D01*
X99171738Y-107185357D01*
X99362214Y-107090119D01*
X99552690Y-107090119D01*
X99838404Y-107185357D01*
X100981261Y-108328214D01*
X100981261Y-107090119D01*
X98981261Y-105280595D02*
X98981261Y-106232976D01*
X99933642Y-106328214D01*
X99838404Y-106232976D01*
X99743166Y-106042500D01*
X99743166Y-105566309D01*
X99838404Y-105375833D01*
X99933642Y-105280595D01*
X100124119Y-105185357D01*
X100600309Y-105185357D01*
X100790785Y-105280595D01*
X100886023Y-105375833D01*
X100981261Y-105566309D01*
X100981261Y-106042500D01*
X100886023Y-106232976D01*
X100790785Y-106328214D01*
X100409833Y-102899642D02*
X100409833Y-101947261D01*
X100981261Y-103090119D02*
X98981261Y-102423452D01*
X100981261Y-101756785D01*
X100981261Y-100232976D02*
X98981261Y-100232976D01*
X100886023Y-100232976D02*
X100981261Y-100423452D01*
X100981261Y-100804404D01*
X100886023Y-100994880D01*
X100790785Y-101090119D01*
X100600309Y-101185357D01*
X100028880Y-101185357D01*
X99838404Y-101090119D01*
X99743166Y-100994880D01*
X99647928Y-100804404D01*
X99647928Y-100423452D01*
X99743166Y-100232976D01*
X100981261Y-98423452D02*
X99933642Y-98423452D01*
X99743166Y-98518690D01*
X99647928Y-98709166D01*
X99647928Y-99090119D01*
X99743166Y-99280595D01*
X100886023Y-98423452D02*
X100981261Y-98613928D01*
X100981261Y-99090119D01*
X100886023Y-99280595D01*
X100695547Y-99375833D01*
X100505071Y-99375833D01*
X100314595Y-99280595D01*
X100219357Y-99090119D01*
X100219357Y-98613928D01*
X100124119Y-98423452D01*
X99647928Y-97471071D02*
X101647928Y-97471071D01*
X99743166Y-97471071D02*
X99647928Y-97280595D01*
X99647928Y-96899642D01*
X99743166Y-96709166D01*
X99838404Y-96613928D01*
X100028880Y-96518690D01*
X100600309Y-96518690D01*
X100790785Y-96613928D01*
X100886023Y-96709166D01*
X100981261Y-96899642D01*
X100981261Y-97280595D01*
X100886023Y-97471071D01*
X99647928Y-95947261D02*
X99647928Y-95185357D01*
X98981261Y-95661547D02*
X100695547Y-95661547D01*
X100886023Y-95566309D01*
X100981261Y-95375833D01*
X100981261Y-95185357D01*
X100886023Y-93756785D02*
X100981261Y-93947261D01*
X100981261Y-94328214D01*
X100886023Y-94518690D01*
X100695547Y-94613928D01*
X99933642Y-94613928D01*
X99743166Y-94518690D01*
X99647928Y-94328214D01*
X99647928Y-93947261D01*
X99743166Y-93756785D01*
X99933642Y-93661547D01*
X100124119Y-93661547D01*
X100314595Y-94613928D01*
X100981261Y-92804404D02*
X99647928Y-92804404D01*
X100028880Y-92804404D02*
X99838404Y-92709166D01*
X99743166Y-92613928D01*
X99647928Y-92423452D01*
X99647928Y-92232976D01*
D10*
X97097309Y-128669880D02*
X97097309Y-127669880D01*
X97478261Y-127669880D01*
X97573500Y-127717500D01*
X97621119Y-127765119D01*
X97668738Y-127860357D01*
X97668738Y-128003214D01*
X97621119Y-128098452D01*
X97573500Y-128146071D01*
X97478261Y-128193690D01*
X97097309Y-128193690D01*
X98240166Y-128669880D02*
X98144928Y-128622261D01*
X98097309Y-128574642D01*
X98049690Y-128479404D01*
X98049690Y-128193690D01*
X98097309Y-128098452D01*
X98144928Y-128050833D01*
X98240166Y-128003214D01*
X98383023Y-128003214D01*
X98478261Y-128050833D01*
X98525880Y-128098452D01*
X98573500Y-128193690D01*
X98573500Y-128479404D01*
X98525880Y-128574642D01*
X98478261Y-128622261D01*
X98383023Y-128669880D01*
X98240166Y-128669880D01*
X98906833Y-128003214D02*
X99097309Y-128669880D01*
X99287785Y-128193690D01*
X99478261Y-128669880D01*
X99668738Y-128003214D01*
X100430642Y-128622261D02*
X100335404Y-128669880D01*
X100144928Y-128669880D01*
X100049690Y-128622261D01*
X100002071Y-128527023D01*
X100002071Y-128146071D01*
X100049690Y-128050833D01*
X100144928Y-128003214D01*
X100335404Y-128003214D01*
X100430642Y-128050833D01*
X100478261Y-128146071D01*
X100478261Y-128241309D01*
X100002071Y-128336547D01*
X100906833Y-128669880D02*
X100906833Y-128003214D01*
X100906833Y-128193690D02*
X100954452Y-128098452D01*
X101002071Y-128050833D01*
X101097309Y-128003214D01*
X101192547Y-128003214D01*
D12*
G36*
X98507860Y-88737440D02*
X98540880Y-88719660D01*
X98609460Y-88676480D01*
X98711060Y-88610440D01*
X98827900Y-88531700D01*
X98947280Y-88450420D01*
X99046340Y-88384380D01*
X99114920Y-88341200D01*
X99142860Y-88325960D01*
X99158100Y-88331040D01*
X99213980Y-88358980D01*
X99295260Y-88402160D01*
X99343520Y-88425020D01*
X99419720Y-88458040D01*
X99455280Y-88465660D01*
X99462900Y-88455500D01*
X99490840Y-88397080D01*
X99534020Y-88298020D01*
X99589900Y-88168480D01*
X99655940Y-88016080D01*
X99724520Y-87850980D01*
X99793100Y-87683340D01*
X99859140Y-87525860D01*
X99920100Y-87381080D01*
X99965820Y-87264240D01*
X99996300Y-87182960D01*
X100009000Y-87147400D01*
X100003920Y-87139780D01*
X99968360Y-87104220D01*
X99902320Y-87055960D01*
X99760080Y-86939120D01*
X99620380Y-86763860D01*
X99534020Y-86565740D01*
X99506080Y-86344760D01*
X99528940Y-86141560D01*
X99610220Y-85945980D01*
X99747380Y-85768180D01*
X99915020Y-85636100D01*
X100108060Y-85554820D01*
X100326500Y-85526880D01*
X100534780Y-85549740D01*
X100735440Y-85628480D01*
X100913240Y-85763100D01*
X100986900Y-85849460D01*
X101091040Y-86029800D01*
X101149460Y-86220300D01*
X101154540Y-86268560D01*
X101146920Y-86479380D01*
X101083420Y-86682580D01*
X100974200Y-86862920D01*
X100819260Y-87010240D01*
X100798940Y-87025480D01*
X100727820Y-87078820D01*
X100679560Y-87114380D01*
X100641460Y-87144860D01*
X100910700Y-87792560D01*
X100953880Y-87894160D01*
X101027540Y-88069420D01*
X101091040Y-88221820D01*
X101144380Y-88343740D01*
X101179940Y-88425020D01*
X101195180Y-88458040D01*
X101197720Y-88458040D01*
X101220580Y-88463120D01*
X101268840Y-88445340D01*
X101360280Y-88402160D01*
X101418700Y-88371680D01*
X101487280Y-88338660D01*
X101517760Y-88325960D01*
X101545700Y-88338660D01*
X101611740Y-88381840D01*
X101705720Y-88447880D01*
X101822560Y-88524080D01*
X101931780Y-88600280D01*
X102033380Y-88666320D01*
X102107040Y-88714580D01*
X102142600Y-88732360D01*
X102147680Y-88732360D01*
X102180700Y-88714580D01*
X102239120Y-88666320D01*
X102325480Y-88582500D01*
X102449940Y-88460580D01*
X102470260Y-88442800D01*
X102571860Y-88338660D01*
X102655680Y-88249760D01*
X102711560Y-88188800D01*
X102731880Y-88160860D01*
X102711560Y-88125300D01*
X102665840Y-88051640D01*
X102599800Y-87950040D01*
X102518520Y-87828120D01*
X102302620Y-87518240D01*
X102422000Y-87226140D01*
X102457560Y-87134700D01*
X102503280Y-87025480D01*
X102536300Y-86949280D01*
X102554080Y-86913720D01*
X102587100Y-86903560D01*
X102665840Y-86883240D01*
X102782680Y-86860380D01*
X102922380Y-86834980D01*
X103054460Y-86809580D01*
X103173840Y-86786720D01*
X103260200Y-86771480D01*
X103298300Y-86763860D01*
X103308460Y-86756240D01*
X103316080Y-86738460D01*
X103321160Y-86697820D01*
X103323700Y-86624160D01*
X103326240Y-86509860D01*
X103326240Y-86344760D01*
X103326240Y-86326980D01*
X103323700Y-86169500D01*
X103321160Y-86045040D01*
X103316080Y-85963760D01*
X103311000Y-85930740D01*
X103272900Y-85920580D01*
X103189080Y-85902800D01*
X103069700Y-85879940D01*
X102927460Y-85852000D01*
X102917300Y-85852000D01*
X102775060Y-85824060D01*
X102658220Y-85798660D01*
X102574400Y-85780880D01*
X102538840Y-85768180D01*
X102531220Y-85758020D01*
X102503280Y-85702140D01*
X102462640Y-85615780D01*
X102414380Y-85509100D01*
X102368660Y-85397340D01*
X102328020Y-85295740D01*
X102302620Y-85222080D01*
X102295000Y-85186520D01*
X102315320Y-85153500D01*
X102363580Y-85079840D01*
X102434700Y-84978240D01*
X102515980Y-84856320D01*
X102523600Y-84846160D01*
X102604880Y-84726780D01*
X102670920Y-84625180D01*
X102714100Y-84554060D01*
X102731880Y-84521040D01*
X102731880Y-84518500D01*
X102703940Y-84482940D01*
X102642980Y-84414360D01*
X102554080Y-84322920D01*
X102449940Y-84218780D01*
X102416920Y-84185760D01*
X102300080Y-84071460D01*
X102218800Y-83997800D01*
X102168000Y-83957160D01*
X102145140Y-83947000D01*
X102142600Y-83949540D01*
X102107040Y-83969860D01*
X102030840Y-84020660D01*
X101929240Y-84089240D01*
X101807320Y-84173060D01*
X101799700Y-84178140D01*
X101677780Y-84259420D01*
X101578720Y-84328000D01*
X101507600Y-84373720D01*
X101477120Y-84391500D01*
X101472040Y-84391500D01*
X101423780Y-84378800D01*
X101337420Y-84348320D01*
X101233280Y-84307680D01*
X101121520Y-84264500D01*
X101019920Y-84221320D01*
X100946260Y-84185760D01*
X100910700Y-84165440D01*
X100908160Y-84165440D01*
X100895460Y-84122260D01*
X100875140Y-84030820D01*
X100849740Y-83908900D01*
X100821800Y-83761580D01*
X100816720Y-83738720D01*
X100791320Y-83593940D01*
X100768460Y-83477100D01*
X100750680Y-83395820D01*
X100743060Y-83360260D01*
X100722740Y-83357720D01*
X100651620Y-83352640D01*
X100544940Y-83347560D01*
X100415400Y-83347560D01*
X100280780Y-83347560D01*
X100148700Y-83350100D01*
X100036940Y-83355180D01*
X99955660Y-83360260D01*
X99920100Y-83367880D01*
X99920100Y-83370420D01*
X99907400Y-83413600D01*
X99887080Y-83502500D01*
X99861680Y-83626960D01*
X99833740Y-83774280D01*
X99828660Y-83802220D01*
X99803260Y-83944460D01*
X99777860Y-84061300D01*
X99760080Y-84140040D01*
X99752460Y-84173060D01*
X99739760Y-84178140D01*
X99681340Y-84206080D01*
X99584820Y-84244180D01*
X99465440Y-84292440D01*
X99191120Y-84404200D01*
X98855840Y-84173060D01*
X98825360Y-84152740D01*
X98703440Y-84068920D01*
X98604380Y-84002880D01*
X98533260Y-83959700D01*
X98505320Y-83941920D01*
X98502780Y-83944460D01*
X98469760Y-83972400D01*
X98403720Y-84035900D01*
X98312280Y-84124800D01*
X98205600Y-84228940D01*
X98126860Y-84307680D01*
X98035420Y-84401660D01*
X97977000Y-84465160D01*
X97943980Y-84505800D01*
X97931280Y-84531200D01*
X97936360Y-84548980D01*
X97956680Y-84582000D01*
X98007480Y-84655660D01*
X98076060Y-84759800D01*
X98157340Y-84876640D01*
X98225920Y-84978240D01*
X98299580Y-85090000D01*
X98345300Y-85171280D01*
X98363080Y-85209380D01*
X98358000Y-85227160D01*
X98335140Y-85293200D01*
X98294500Y-85392260D01*
X98243700Y-85511640D01*
X98126860Y-85778340D01*
X97951600Y-85811360D01*
X97847460Y-85831680D01*
X97697600Y-85859620D01*
X97555360Y-85887560D01*
X97334380Y-85930740D01*
X97326760Y-86741000D01*
X97362320Y-86756240D01*
X97395340Y-86766400D01*
X97476620Y-86784180D01*
X97593460Y-86807040D01*
X97730620Y-86832440D01*
X97850000Y-86855300D01*
X97966840Y-86878160D01*
X98053200Y-86893400D01*
X98091300Y-86901020D01*
X98098920Y-86913720D01*
X98129400Y-86972140D01*
X98172580Y-87063580D01*
X98218300Y-87172800D01*
X98266560Y-87287100D01*
X98307200Y-87391240D01*
X98337680Y-87472520D01*
X98347840Y-87513160D01*
X98332600Y-87543640D01*
X98286880Y-87614760D01*
X98220840Y-87713820D01*
X98142100Y-87830660D01*
X98060820Y-87950040D01*
X97992240Y-88049100D01*
X97943980Y-88122760D01*
X97926200Y-88155780D01*
X97936360Y-88178640D01*
X97982080Y-88234520D01*
X98070980Y-88325960D01*
X98203060Y-88458040D01*
X98225920Y-88478360D01*
X98330060Y-88579960D01*
X98418960Y-88661240D01*
X98479920Y-88717120D01*
X98507860Y-88737440D01*
X98507860Y-88737440D01*
G37*
X98507860Y-88737440D02*
X98540880Y-88719660D01*
X98609460Y-88676480D01*
X98711060Y-88610440D01*
X98827900Y-88531700D01*
X98947280Y-88450420D01*
X99046340Y-88384380D01*
X99114920Y-88341200D01*
X99142860Y-88325960D01*
X99158100Y-88331040D01*
X99213980Y-88358980D01*
X99295260Y-88402160D01*
X99343520Y-88425020D01*
X99419720Y-88458040D01*
X99455280Y-88465660D01*
X99462900Y-88455500D01*
X99490840Y-88397080D01*
X99534020Y-88298020D01*
X99589900Y-88168480D01*
X99655940Y-88016080D01*
X99724520Y-87850980D01*
X99793100Y-87683340D01*
X99859140Y-87525860D01*
X99920100Y-87381080D01*
X99965820Y-87264240D01*
X99996300Y-87182960D01*
X100009000Y-87147400D01*
X100003920Y-87139780D01*
X99968360Y-87104220D01*
X99902320Y-87055960D01*
X99760080Y-86939120D01*
X99620380Y-86763860D01*
X99534020Y-86565740D01*
X99506080Y-86344760D01*
X99528940Y-86141560D01*
X99610220Y-85945980D01*
X99747380Y-85768180D01*
X99915020Y-85636100D01*
X100108060Y-85554820D01*
X100326500Y-85526880D01*
X100534780Y-85549740D01*
X100735440Y-85628480D01*
X100913240Y-85763100D01*
X100986900Y-85849460D01*
X101091040Y-86029800D01*
X101149460Y-86220300D01*
X101154540Y-86268560D01*
X101146920Y-86479380D01*
X101083420Y-86682580D01*
X100974200Y-86862920D01*
X100819260Y-87010240D01*
X100798940Y-87025480D01*
X100727820Y-87078820D01*
X100679560Y-87114380D01*
X100641460Y-87144860D01*
X100910700Y-87792560D01*
X100953880Y-87894160D01*
X101027540Y-88069420D01*
X101091040Y-88221820D01*
X101144380Y-88343740D01*
X101179940Y-88425020D01*
X101195180Y-88458040D01*
X101197720Y-88458040D01*
X101220580Y-88463120D01*
X101268840Y-88445340D01*
X101360280Y-88402160D01*
X101418700Y-88371680D01*
X101487280Y-88338660D01*
X101517760Y-88325960D01*
X101545700Y-88338660D01*
X101611740Y-88381840D01*
X101705720Y-88447880D01*
X101822560Y-88524080D01*
X101931780Y-88600280D01*
X102033380Y-88666320D01*
X102107040Y-88714580D01*
X102142600Y-88732360D01*
X102147680Y-88732360D01*
X102180700Y-88714580D01*
X102239120Y-88666320D01*
X102325480Y-88582500D01*
X102449940Y-88460580D01*
X102470260Y-88442800D01*
X102571860Y-88338660D01*
X102655680Y-88249760D01*
X102711560Y-88188800D01*
X102731880Y-88160860D01*
X102711560Y-88125300D01*
X102665840Y-88051640D01*
X102599800Y-87950040D01*
X102518520Y-87828120D01*
X102302620Y-87518240D01*
X102422000Y-87226140D01*
X102457560Y-87134700D01*
X102503280Y-87025480D01*
X102536300Y-86949280D01*
X102554080Y-86913720D01*
X102587100Y-86903560D01*
X102665840Y-86883240D01*
X102782680Y-86860380D01*
X102922380Y-86834980D01*
X103054460Y-86809580D01*
X103173840Y-86786720D01*
X103260200Y-86771480D01*
X103298300Y-86763860D01*
X103308460Y-86756240D01*
X103316080Y-86738460D01*
X103321160Y-86697820D01*
X103323700Y-86624160D01*
X103326240Y-86509860D01*
X103326240Y-86344760D01*
X103326240Y-86326980D01*
X103323700Y-86169500D01*
X103321160Y-86045040D01*
X103316080Y-85963760D01*
X103311000Y-85930740D01*
X103272900Y-85920580D01*
X103189080Y-85902800D01*
X103069700Y-85879940D01*
X102927460Y-85852000D01*
X102917300Y-85852000D01*
X102775060Y-85824060D01*
X102658220Y-85798660D01*
X102574400Y-85780880D01*
X102538840Y-85768180D01*
X102531220Y-85758020D01*
X102503280Y-85702140D01*
X102462640Y-85615780D01*
X102414380Y-85509100D01*
X102368660Y-85397340D01*
X102328020Y-85295740D01*
X102302620Y-85222080D01*
X102295000Y-85186520D01*
X102315320Y-85153500D01*
X102363580Y-85079840D01*
X102434700Y-84978240D01*
X102515980Y-84856320D01*
X102523600Y-84846160D01*
X102604880Y-84726780D01*
X102670920Y-84625180D01*
X102714100Y-84554060D01*
X102731880Y-84521040D01*
X102731880Y-84518500D01*
X102703940Y-84482940D01*
X102642980Y-84414360D01*
X102554080Y-84322920D01*
X102449940Y-84218780D01*
X102416920Y-84185760D01*
X102300080Y-84071460D01*
X102218800Y-83997800D01*
X102168000Y-83957160D01*
X102145140Y-83947000D01*
X102142600Y-83949540D01*
X102107040Y-83969860D01*
X102030840Y-84020660D01*
X101929240Y-84089240D01*
X101807320Y-84173060D01*
X101799700Y-84178140D01*
X101677780Y-84259420D01*
X101578720Y-84328000D01*
X101507600Y-84373720D01*
X101477120Y-84391500D01*
X101472040Y-84391500D01*
X101423780Y-84378800D01*
X101337420Y-84348320D01*
X101233280Y-84307680D01*
X101121520Y-84264500D01*
X101019920Y-84221320D01*
X100946260Y-84185760D01*
X100910700Y-84165440D01*
X100908160Y-84165440D01*
X100895460Y-84122260D01*
X100875140Y-84030820D01*
X100849740Y-83908900D01*
X100821800Y-83761580D01*
X100816720Y-83738720D01*
X100791320Y-83593940D01*
X100768460Y-83477100D01*
X100750680Y-83395820D01*
X100743060Y-83360260D01*
X100722740Y-83357720D01*
X100651620Y-83352640D01*
X100544940Y-83347560D01*
X100415400Y-83347560D01*
X100280780Y-83347560D01*
X100148700Y-83350100D01*
X100036940Y-83355180D01*
X99955660Y-83360260D01*
X99920100Y-83367880D01*
X99920100Y-83370420D01*
X99907400Y-83413600D01*
X99887080Y-83502500D01*
X99861680Y-83626960D01*
X99833740Y-83774280D01*
X99828660Y-83802220D01*
X99803260Y-83944460D01*
X99777860Y-84061300D01*
X99760080Y-84140040D01*
X99752460Y-84173060D01*
X99739760Y-84178140D01*
X99681340Y-84206080D01*
X99584820Y-84244180D01*
X99465440Y-84292440D01*
X99191120Y-84404200D01*
X98855840Y-84173060D01*
X98825360Y-84152740D01*
X98703440Y-84068920D01*
X98604380Y-84002880D01*
X98533260Y-83959700D01*
X98505320Y-83941920D01*
X98502780Y-83944460D01*
X98469760Y-83972400D01*
X98403720Y-84035900D01*
X98312280Y-84124800D01*
X98205600Y-84228940D01*
X98126860Y-84307680D01*
X98035420Y-84401660D01*
X97977000Y-84465160D01*
X97943980Y-84505800D01*
X97931280Y-84531200D01*
X97936360Y-84548980D01*
X97956680Y-84582000D01*
X98007480Y-84655660D01*
X98076060Y-84759800D01*
X98157340Y-84876640D01*
X98225920Y-84978240D01*
X98299580Y-85090000D01*
X98345300Y-85171280D01*
X98363080Y-85209380D01*
X98358000Y-85227160D01*
X98335140Y-85293200D01*
X98294500Y-85392260D01*
X98243700Y-85511640D01*
X98126860Y-85778340D01*
X97951600Y-85811360D01*
X97847460Y-85831680D01*
X97697600Y-85859620D01*
X97555360Y-85887560D01*
X97334380Y-85930740D01*
X97326760Y-86741000D01*
X97362320Y-86756240D01*
X97395340Y-86766400D01*
X97476620Y-86784180D01*
X97593460Y-86807040D01*
X97730620Y-86832440D01*
X97850000Y-86855300D01*
X97966840Y-86878160D01*
X98053200Y-86893400D01*
X98091300Y-86901020D01*
X98098920Y-86913720D01*
X98129400Y-86972140D01*
X98172580Y-87063580D01*
X98218300Y-87172800D01*
X98266560Y-87287100D01*
X98307200Y-87391240D01*
X98337680Y-87472520D01*
X98347840Y-87513160D01*
X98332600Y-87543640D01*
X98286880Y-87614760D01*
X98220840Y-87713820D01*
X98142100Y-87830660D01*
X98060820Y-87950040D01*
X97992240Y-88049100D01*
X97943980Y-88122760D01*
X97926200Y-88155780D01*
X97936360Y-88178640D01*
X97982080Y-88234520D01*
X98070980Y-88325960D01*
X98203060Y-88458040D01*
X98225920Y-88478360D01*
X98330060Y-88579960D01*
X98418960Y-88661240D01*
X98479920Y-88717120D01*
X98507860Y-88737440D01*
D13*
X109795000Y-147340000D02*
X114995000Y-147340000D01*
X109795000Y-86320000D02*
X109795000Y-147340000D01*
X114995000Y-83720000D02*
X114995000Y-147340000D01*
X109795000Y-86320000D02*
X112395000Y-86320000D01*
X112395000Y-86320000D02*
X112395000Y-83720000D01*
X112395000Y-83720000D02*
X114995000Y-83720000D01*
X109795000Y-85050000D02*
X109795000Y-83720000D01*
X109795000Y-83720000D02*
X111125000Y-83720000D01*
X102943500Y-132722500D02*
X102943500Y-130062500D01*
X97803500Y-132722500D02*
X102943500Y-132722500D01*
X97803500Y-130062500D02*
X102943500Y-130062500D01*
X97803500Y-132722500D02*
X97803500Y-130062500D01*
X96533500Y-132722500D02*
X95203500Y-132722500D01*
X95203500Y-132722500D02*
X95203500Y-131392500D01*
X95176500Y-161322500D02*
X100376500Y-161322500D01*
X95176500Y-143482500D02*
X95176500Y-161322500D01*
X100376500Y-140882500D02*
X100376500Y-161322500D01*
X95176500Y-143482500D02*
X97776500Y-143482500D01*
X97776500Y-143482500D02*
X97776500Y-140882500D01*
X97776500Y-140882500D02*
X100376500Y-140882500D01*
X95176500Y-142212500D02*
X95176500Y-140882500D01*
X95176500Y-140882500D02*
X96506500Y-140882500D01*
X102943500Y-135897500D02*
X102943500Y-133237500D01*
X97803500Y-135897500D02*
X102943500Y-135897500D01*
X97803500Y-133237500D02*
X102943500Y-133237500D01*
X97803500Y-135897500D02*
X97803500Y-133237500D01*
X96533500Y-135897500D02*
X95203500Y-135897500D01*
X95203500Y-135897500D02*
X95203500Y-134567500D01*
X74936500Y-88932500D02*
X89476500Y-88932500D01*
X89476500Y-88932500D02*
X89476500Y-142152500D01*
X89476500Y-142152500D02*
X74936500Y-142152500D01*
X90370838Y-98672500D02*
X90370838Y-99172500D01*
X90370838Y-99172500D02*
X89937825Y-98922500D01*
X89937825Y-98922500D02*
X90370838Y-98672500D01*
D14*
X107616666Y-83232380D02*
X107616666Y-83946666D01*
X107569047Y-84089523D01*
X107473809Y-84184761D01*
X107330952Y-84232380D01*
X107235714Y-84232380D01*
X108616666Y-84232380D02*
X108045238Y-84232380D01*
X108330952Y-84232380D02*
X108330952Y-83232380D01*
X108235714Y-83375238D01*
X108140476Y-83470476D01*
X108045238Y-83518095D01*
X93655880Y-132225833D02*
X94370166Y-132225833D01*
X94513023Y-132273452D01*
X94608261Y-132368690D01*
X94655880Y-132511547D01*
X94655880Y-132606785D01*
X94655880Y-131749642D02*
X93655880Y-131749642D01*
X93655880Y-131368690D01*
X93703500Y-131273452D01*
X93751119Y-131225833D01*
X93846357Y-131178214D01*
X93989214Y-131178214D01*
X94084452Y-131225833D01*
X94132071Y-131273452D01*
X94179690Y-131368690D01*
X94179690Y-131749642D01*
X94655880Y-130225833D02*
X94655880Y-130797261D01*
X94655880Y-130511547D02*
X93655880Y-130511547D01*
X93798738Y-130606785D01*
X93893976Y-130702023D01*
X93941595Y-130797261D01*
X97443166Y-139334880D02*
X97443166Y-140049166D01*
X97395547Y-140192023D01*
X97300309Y-140287261D01*
X97157452Y-140334880D01*
X97062214Y-140334880D01*
X97824119Y-139334880D02*
X98443166Y-139334880D01*
X98109833Y-139715833D01*
X98252690Y-139715833D01*
X98347928Y-139763452D01*
X98395547Y-139811071D01*
X98443166Y-139906309D01*
X98443166Y-140144404D01*
X98395547Y-140239642D01*
X98347928Y-140287261D01*
X98252690Y-140334880D01*
X97966976Y-140334880D01*
X97871738Y-140287261D01*
X97824119Y-140239642D01*
X93655880Y-135400833D02*
X94370166Y-135400833D01*
X94513023Y-135448452D01*
X94608261Y-135543690D01*
X94655880Y-135686547D01*
X94655880Y-135781785D01*
X94655880Y-134924642D02*
X93655880Y-134924642D01*
X93655880Y-134543690D01*
X93703500Y-134448452D01*
X93751119Y-134400833D01*
X93846357Y-134353214D01*
X93989214Y-134353214D01*
X94084452Y-134400833D01*
X94132071Y-134448452D01*
X94179690Y-134543690D01*
X94179690Y-134924642D01*
X93751119Y-133972261D02*
X93703500Y-133924642D01*
X93655880Y-133829404D01*
X93655880Y-133591309D01*
X93703500Y-133496071D01*
X93751119Y-133448452D01*
X93846357Y-133400833D01*
X93941595Y-133400833D01*
X94084452Y-133448452D01*
X94655880Y-134019880D01*
X94655880Y-133400833D01*
X89868880Y-115875833D02*
X90583166Y-115875833D01*
X90726023Y-115923452D01*
X90821261Y-116018690D01*
X90868880Y-116161547D01*
X90868880Y-116256785D01*
X89964119Y-115447261D02*
X89916500Y-115399642D01*
X89868880Y-115304404D01*
X89868880Y-115066309D01*
X89916500Y-114971071D01*
X89964119Y-114923452D01*
X90059357Y-114875833D01*
X90154595Y-114875833D01*
X90297452Y-114923452D01*
X90868880Y-115494880D01*
X90868880Y-114875833D01*
M02*
