G04 #@! TF.GenerationSoftware,KiCad,Pcbnew,(2017-12-02 revision 3109343b9)-master*
G04 #@! TF.CreationDate,2017-12-03T22:01:14+01:00*
G04 #@! TF.ProjectId,TC215_HDDB_Adapter_v2,54433231355F484444425F4164617074,rev?*
G04 #@! TF.SameCoordinates,Original*
G04 #@! TF.FileFunction,Copper,L2,Bot,Signal*
G04 #@! TF.FilePolarity,Positive*
%FSLAX46Y46*%
G04 Gerber Fmt 4.6, Leading zero omitted, Abs format (unit mm)*
G04 Created by KiCad (PCBNEW (2017-12-02 revision 3109343b9)-master) date Sun Dec  3 22:01:14 2017*
%MOMM*%
%LPD*%
G01*
G04 APERTURE LIST*
%ADD10R,1.700000X1.700000*%
%ADD11O,1.700000X1.700000*%
%ADD12R,1.600000X1.600000*%
%ADD13C,1.600000*%
%ADD14C,4.000000*%
%ADD15C,0.250000*%
%ADD16C,0.254000*%
G04 APERTURE END LIST*
D10*
X111125000Y-85050000D03*
D11*
X113665000Y-85050000D03*
X111125000Y-87590000D03*
X113665000Y-87590000D03*
X111125000Y-90130000D03*
X113665000Y-90130000D03*
X111125000Y-92670000D03*
X113665000Y-92670000D03*
X111125000Y-95210000D03*
X113665000Y-95210000D03*
X111125000Y-97750000D03*
X113665000Y-97750000D03*
X111125000Y-100290000D03*
X113665000Y-100290000D03*
X111125000Y-102830000D03*
X113665000Y-102830000D03*
X111125000Y-105370000D03*
X113665000Y-105370000D03*
X111125000Y-107910000D03*
X113665000Y-107910000D03*
X111125000Y-110450000D03*
X113665000Y-110450000D03*
X111125000Y-112990000D03*
X113665000Y-112990000D03*
X111125000Y-115530000D03*
X113665000Y-115530000D03*
X111125000Y-118070000D03*
X113665000Y-118070000D03*
X111125000Y-120610000D03*
X113665000Y-120610000D03*
X111125000Y-123150000D03*
X113665000Y-123150000D03*
X111125000Y-125690000D03*
X113665000Y-125690000D03*
X111125000Y-128230000D03*
X113665000Y-128230000D03*
X111125000Y-130770000D03*
X113665000Y-130770000D03*
X111125000Y-133310000D03*
X113665000Y-133310000D03*
X111125000Y-135850000D03*
X113665000Y-135850000D03*
X111125000Y-138390000D03*
X113665000Y-138390000D03*
X111125000Y-140930000D03*
X113665000Y-140930000D03*
X111125000Y-143470000D03*
X113665000Y-143470000D03*
X111125000Y-146010000D03*
X113665000Y-146010000D03*
D10*
X96533500Y-131392500D03*
D11*
X99073500Y-131392500D03*
X101613500Y-131392500D03*
D10*
X96506500Y-142212500D03*
D11*
X99046500Y-142212500D03*
X96506500Y-144752500D03*
X99046500Y-144752500D03*
X96506500Y-147292500D03*
X99046500Y-147292500D03*
X96506500Y-149832500D03*
X99046500Y-149832500D03*
X96506500Y-152372500D03*
X99046500Y-152372500D03*
X96506500Y-154912500D03*
X99046500Y-154912500D03*
X96506500Y-157452500D03*
X99046500Y-157452500D03*
X96506500Y-159992500D03*
X99046500Y-159992500D03*
D10*
X96533500Y-134567500D03*
D11*
X99073500Y-134567500D03*
X101613500Y-134567500D03*
D12*
X87616500Y-98922500D03*
D13*
X87616500Y-101692500D03*
X87616500Y-104462500D03*
X87616500Y-107232500D03*
X87616500Y-110002500D03*
X87616500Y-112772500D03*
X87616500Y-115542500D03*
X87616500Y-118312500D03*
X87616500Y-121082500D03*
X87616500Y-123852500D03*
X87616500Y-126622500D03*
X87616500Y-129392500D03*
X87616500Y-132162500D03*
X84776500Y-100307500D03*
X84776500Y-103077500D03*
X84776500Y-105847500D03*
X84776500Y-108617500D03*
X84776500Y-111387500D03*
X84776500Y-114157500D03*
X84776500Y-116927500D03*
X84776500Y-119697500D03*
X84776500Y-122467500D03*
X84776500Y-125237500D03*
X84776500Y-128007500D03*
X84776500Y-130777500D03*
D14*
X86196500Y-91992500D03*
X86196500Y-139092500D03*
D15*
X111125000Y-85050000D02*
X100330000Y-85050000D01*
X87616500Y-97763500D02*
X87616500Y-98922500D01*
X100330000Y-85050000D02*
X87616500Y-97763500D01*
X90170000Y-101130000D02*
X89607500Y-101692500D01*
X89607500Y-101692500D02*
X87616500Y-101692500D01*
X111125000Y-87590000D02*
X99060000Y-87590000D01*
X99060000Y-87590000D02*
X90170000Y-96480000D01*
X90170000Y-96480000D02*
X90170000Y-101130000D01*
X111125000Y-90130000D02*
X97790000Y-90130000D01*
X97790000Y-90130000D02*
X90805000Y-97115000D01*
X90805000Y-97115000D02*
X90805000Y-101131410D01*
X89171500Y-104462500D02*
X87616500Y-104462500D01*
X90805000Y-101131410D02*
X90791500Y-101144910D01*
X90791500Y-101144910D02*
X90791500Y-102842500D01*
X90791500Y-102842500D02*
X89171500Y-104462500D01*
X111125000Y-92670000D02*
X96520000Y-92670000D01*
X96520000Y-92670000D02*
X91440000Y-97750000D01*
X91440000Y-97750000D02*
X91440000Y-105369000D01*
X89576500Y-107232500D02*
X87616500Y-107232500D01*
X91440000Y-105369000D02*
X89576500Y-107232500D01*
X111125000Y-95210000D02*
X95250000Y-95210000D01*
X92061500Y-107922500D02*
X89981500Y-110002500D01*
X95250000Y-95210000D02*
X92075000Y-98385000D01*
X92075000Y-98385000D02*
X92075000Y-105544000D01*
X92075000Y-105544000D02*
X92061500Y-105557500D01*
X92061500Y-105557500D02*
X92061500Y-107922500D01*
X89981500Y-110002500D02*
X87616500Y-110002500D01*
X111125000Y-97750000D02*
X94615000Y-97750000D01*
X90387500Y-112772500D02*
X87616500Y-112772500D01*
X94615000Y-97750000D02*
X92710000Y-99655000D01*
X92710000Y-110450000D02*
X90387500Y-112772500D01*
X92710000Y-99655000D02*
X92710000Y-110450000D01*
X111125000Y-100290000D02*
X95250000Y-100290000D01*
X95250000Y-100290000D02*
X93345000Y-102195000D01*
X90157500Y-115542500D02*
X87616500Y-115542500D01*
X93345000Y-102195000D02*
X93345000Y-112355000D01*
X93345000Y-112355000D02*
X90157500Y-115542500D01*
X111125000Y-102830000D02*
X95885000Y-102830000D01*
X95885000Y-102830000D02*
X93980000Y-104735000D01*
X90562500Y-118312500D02*
X87616500Y-118312500D01*
X93980000Y-104735000D02*
X93980000Y-114895000D01*
X93980000Y-114895000D02*
X90562500Y-118312500D01*
X111125000Y-105370000D02*
X96520000Y-105370000D01*
X96520000Y-105370000D02*
X94615000Y-107275000D01*
X94615000Y-107275000D02*
X94615000Y-118069000D01*
X94615000Y-118069000D02*
X91601500Y-121082500D01*
X91601500Y-121082500D02*
X87616500Y-121082500D01*
X111125000Y-107910000D02*
X97155000Y-107910000D01*
X95250000Y-109815000D02*
X95250000Y-120609000D01*
X92006500Y-123852500D02*
X87616500Y-123852500D01*
X97155000Y-107910000D02*
X95250000Y-109815000D01*
X95250000Y-120609000D02*
X92006500Y-123852500D01*
X111125000Y-110450000D02*
X97790000Y-110450000D01*
X97790000Y-110450000D02*
X95885000Y-112355000D01*
X95885000Y-112355000D02*
X95885000Y-121244000D01*
X90506500Y-126622500D02*
X87616500Y-126622500D01*
X95885000Y-121244000D02*
X90506500Y-126622500D01*
X111125000Y-112990000D02*
X98425000Y-112990000D01*
X96520000Y-114895000D02*
X96520000Y-123784000D01*
X98425000Y-112990000D02*
X96520000Y-114895000D01*
X96520000Y-123784000D02*
X90911500Y-129392500D01*
X90911500Y-129392500D02*
X87616500Y-129392500D01*
X111125000Y-115530000D02*
X99060000Y-115530000D01*
X90681500Y-132162500D02*
X87616500Y-132162500D01*
X99060000Y-115530000D02*
X97155000Y-117435000D01*
X97155000Y-117435000D02*
X97155000Y-125689000D01*
X97155000Y-125689000D02*
X90681500Y-132162500D01*
X99046500Y-142212500D02*
X101586500Y-142212500D01*
X101586500Y-142212500D02*
X104126500Y-139672500D01*
X104126500Y-139672500D02*
X104126500Y-133957500D01*
X104126500Y-133957500D02*
X109854000Y-128230000D01*
X109854000Y-128230000D02*
X111125000Y-128230000D01*
X99046500Y-144752500D02*
X102221500Y-144752500D01*
X102221500Y-144752500D02*
X104761500Y-142212500D01*
X104761500Y-142212500D02*
X104761500Y-135862500D01*
X104761500Y-135862500D02*
X109854000Y-130770000D01*
X109854000Y-130770000D02*
X111125000Y-130770000D01*
X111125000Y-133310000D02*
X109854000Y-133310000D01*
X109854000Y-133310000D02*
X105396500Y-137767500D01*
X105396500Y-137767500D02*
X105396500Y-144752500D01*
X105396500Y-144752500D02*
X102856500Y-147292500D01*
X102856500Y-147292500D02*
X99046500Y-147292500D01*
X106031500Y-147292500D02*
X103491500Y-149832500D01*
X103491500Y-149832500D02*
X99046500Y-149832500D01*
X106031500Y-139672500D02*
X106031500Y-147292500D01*
X109854000Y-135850000D02*
X106031500Y-139672500D01*
X111125000Y-135850000D02*
X109854000Y-135850000D01*
X111125000Y-135850000D02*
X109841500Y-135850000D01*
X111125000Y-138390000D02*
X109922919Y-138390000D01*
X104126500Y-152372500D02*
X99046500Y-152372500D01*
X109922919Y-138390000D02*
X109910419Y-138402500D01*
X109910419Y-138402500D02*
X109841500Y-138402500D01*
X109841500Y-138402500D02*
X106666500Y-141577500D01*
X106666500Y-141577500D02*
X106666500Y-149832500D01*
X106666500Y-149832500D02*
X104126500Y-152372500D01*
X99046500Y-154912500D02*
X104761500Y-154912500D01*
X111125000Y-140930000D02*
X109854000Y-140930000D01*
X109854000Y-140930000D02*
X107301500Y-143482500D01*
X107301500Y-143482500D02*
X107301500Y-152372500D01*
X107301500Y-152372500D02*
X104761500Y-154912500D01*
X107936500Y-155547500D02*
X106031500Y-157452500D01*
X106031500Y-157452500D02*
X99046500Y-157452500D01*
X107936500Y-144752500D02*
X107936500Y-155547500D01*
X109219000Y-143470000D02*
X107936500Y-144752500D01*
X111125000Y-143470000D02*
X109219000Y-143470000D01*
D16*
G36*
X111552377Y-66722164D02*
X111060061Y-67907794D01*
X111058941Y-69191574D01*
X111549187Y-70378061D01*
X112456164Y-71286623D01*
X113641794Y-71778939D01*
X114925574Y-71780059D01*
X116112061Y-71289813D01*
X117020623Y-70382836D01*
X117512939Y-69197206D01*
X117514059Y-67913426D01*
X117023813Y-66726939D01*
X116550202Y-66252500D01*
X118206500Y-66252500D01*
X118206500Y-164832500D01*
X116550138Y-164832500D01*
X117020623Y-164362836D01*
X117512939Y-163177206D01*
X117514059Y-161893426D01*
X117023813Y-160706939D01*
X116116836Y-159798377D01*
X114931206Y-159306061D01*
X113647426Y-159304941D01*
X112460939Y-159795187D01*
X111552377Y-160702164D01*
X111060061Y-161887794D01*
X111058941Y-163171574D01*
X111549187Y-164358061D01*
X112022798Y-164832500D01*
X80990138Y-164832500D01*
X81460623Y-164362836D01*
X81952939Y-163177206D01*
X81954059Y-161893426D01*
X81463813Y-160706939D01*
X81106888Y-160349390D01*
X95065024Y-160349390D01*
X95234855Y-160759424D01*
X95625142Y-161187683D01*
X96149608Y-161433986D01*
X96379500Y-161313319D01*
X96379500Y-160119500D01*
X95186345Y-160119500D01*
X95065024Y-160349390D01*
X81106888Y-160349390D01*
X80556836Y-159798377D01*
X79371206Y-159306061D01*
X78087426Y-159304941D01*
X76900939Y-159795187D01*
X75992377Y-160702164D01*
X75626500Y-161583295D01*
X75626500Y-157809390D01*
X95065024Y-157809390D01*
X95234855Y-158219424D01*
X95625142Y-158647683D01*
X95784454Y-158722500D01*
X95625142Y-158797317D01*
X95234855Y-159225576D01*
X95065024Y-159635610D01*
X95186345Y-159865500D01*
X96379500Y-159865500D01*
X96379500Y-157579500D01*
X95186345Y-157579500D01*
X95065024Y-157809390D01*
X75626500Y-157809390D01*
X75626500Y-155269390D01*
X95065024Y-155269390D01*
X95234855Y-155679424D01*
X95625142Y-156107683D01*
X95784454Y-156182500D01*
X95625142Y-156257317D01*
X95234855Y-156685576D01*
X95065024Y-157095610D01*
X95186345Y-157325500D01*
X96379500Y-157325500D01*
X96379500Y-155039500D01*
X95186345Y-155039500D01*
X95065024Y-155269390D01*
X75626500Y-155269390D01*
X75626500Y-152729390D01*
X95065024Y-152729390D01*
X95234855Y-153139424D01*
X95625142Y-153567683D01*
X95784454Y-153642500D01*
X95625142Y-153717317D01*
X95234855Y-154145576D01*
X95065024Y-154555610D01*
X95186345Y-154785500D01*
X96379500Y-154785500D01*
X96379500Y-152499500D01*
X95186345Y-152499500D01*
X95065024Y-152729390D01*
X75626500Y-152729390D01*
X75626500Y-150189390D01*
X95065024Y-150189390D01*
X95234855Y-150599424D01*
X95625142Y-151027683D01*
X95784454Y-151102500D01*
X95625142Y-151177317D01*
X95234855Y-151605576D01*
X95065024Y-152015610D01*
X95186345Y-152245500D01*
X96379500Y-152245500D01*
X96379500Y-149959500D01*
X95186345Y-149959500D01*
X95065024Y-150189390D01*
X75626500Y-150189390D01*
X75626500Y-147649390D01*
X95065024Y-147649390D01*
X95234855Y-148059424D01*
X95625142Y-148487683D01*
X95784454Y-148562500D01*
X95625142Y-148637317D01*
X95234855Y-149065576D01*
X95065024Y-149475610D01*
X95186345Y-149705500D01*
X96379500Y-149705500D01*
X96379500Y-147419500D01*
X95186345Y-147419500D01*
X95065024Y-147649390D01*
X75626500Y-147649390D01*
X75626500Y-145109390D01*
X95065024Y-145109390D01*
X95234855Y-145519424D01*
X95625142Y-145947683D01*
X95784454Y-146022500D01*
X95625142Y-146097317D01*
X95234855Y-146525576D01*
X95065024Y-146935610D01*
X95186345Y-147165500D01*
X96379500Y-147165500D01*
X96379500Y-144879500D01*
X95186345Y-144879500D01*
X95065024Y-145109390D01*
X75626500Y-145109390D01*
X75626500Y-142498250D01*
X95021500Y-142498250D01*
X95021500Y-143188810D01*
X95118173Y-143422199D01*
X95296802Y-143600827D01*
X95506378Y-143687636D01*
X95234855Y-143985576D01*
X95065024Y-144395610D01*
X95186345Y-144625500D01*
X96379500Y-144625500D01*
X96379500Y-142339500D01*
X95180250Y-142339500D01*
X95021500Y-142498250D01*
X75626500Y-142498250D01*
X75626500Y-140967522D01*
X84501084Y-140967522D01*
X84721853Y-141338243D01*
X85693512Y-141731619D01*
X86741747Y-141723213D01*
X87671147Y-141338243D01*
X87731920Y-141236190D01*
X95021500Y-141236190D01*
X95021500Y-141926750D01*
X95180250Y-142085500D01*
X96379500Y-142085500D01*
X96379500Y-140886250D01*
X96220750Y-140727500D01*
X95530191Y-140727500D01*
X95296802Y-140824173D01*
X95118173Y-141002801D01*
X95021500Y-141236190D01*
X87731920Y-141236190D01*
X87891916Y-140967522D01*
X86196500Y-139272105D01*
X84501084Y-140967522D01*
X75626500Y-140967522D01*
X75626500Y-138589512D01*
X83557381Y-138589512D01*
X83565787Y-139637747D01*
X83950757Y-140567147D01*
X84321478Y-140787916D01*
X86016895Y-139092500D01*
X86376105Y-139092500D01*
X88071522Y-140787916D01*
X88442243Y-140567147D01*
X88835619Y-139595488D01*
X88827213Y-138547253D01*
X88442243Y-137617853D01*
X88071522Y-137397084D01*
X86376105Y-139092500D01*
X86016895Y-139092500D01*
X84321478Y-137397084D01*
X83950757Y-137617853D01*
X83557381Y-138589512D01*
X75626500Y-138589512D01*
X75626500Y-137217478D01*
X84501084Y-137217478D01*
X86196500Y-138912895D01*
X87891916Y-137217478D01*
X87671147Y-136846757D01*
X86699488Y-136453381D01*
X85651253Y-136461787D01*
X84721853Y-136846757D01*
X84501084Y-137217478D01*
X75626500Y-137217478D01*
X75626500Y-134853250D01*
X95048500Y-134853250D01*
X95048500Y-135543809D01*
X95145173Y-135777198D01*
X95323801Y-135955827D01*
X95557190Y-136052500D01*
X96247750Y-136052500D01*
X96406500Y-135893750D01*
X96406500Y-134694500D01*
X95207250Y-134694500D01*
X95048500Y-134853250D01*
X75626500Y-134853250D01*
X75626500Y-122751687D01*
X83341252Y-122751687D01*
X83559257Y-123279300D01*
X83962577Y-123683324D01*
X84370350Y-123852646D01*
X83964700Y-124020257D01*
X83560676Y-124423577D01*
X83341750Y-124950809D01*
X83341252Y-125521687D01*
X83559257Y-126049300D01*
X83962577Y-126453324D01*
X84370350Y-126622646D01*
X83964700Y-126790257D01*
X83560676Y-127193577D01*
X83341750Y-127720809D01*
X83341252Y-128291687D01*
X83559257Y-128819300D01*
X83962577Y-129223324D01*
X84370350Y-129392646D01*
X83964700Y-129560257D01*
X83560676Y-129963577D01*
X83341750Y-130490809D01*
X83341252Y-131061687D01*
X83559257Y-131589300D01*
X83962577Y-131993324D01*
X84489809Y-132212250D01*
X85060687Y-132212748D01*
X85588300Y-131994743D01*
X85992324Y-131591423D01*
X86211250Y-131064191D01*
X86211748Y-130493313D01*
X85993743Y-129965700D01*
X85590423Y-129561676D01*
X85182650Y-129392354D01*
X85588300Y-129224743D01*
X85992324Y-128821423D01*
X86211250Y-128294191D01*
X86211748Y-127723313D01*
X85993743Y-127195700D01*
X85590423Y-126791676D01*
X85182650Y-126622354D01*
X85588300Y-126454743D01*
X85992324Y-126051423D01*
X86211250Y-125524191D01*
X86211748Y-124953313D01*
X85993743Y-124425700D01*
X85590423Y-124021676D01*
X85182650Y-123852354D01*
X85588300Y-123684743D01*
X85992324Y-123281423D01*
X86211250Y-122754191D01*
X86211748Y-122183313D01*
X85993743Y-121655700D01*
X85590423Y-121251676D01*
X85198440Y-121088910D01*
X85530505Y-120951364D01*
X85604639Y-120705245D01*
X84776500Y-119877105D01*
X83948361Y-120705245D01*
X84022495Y-120951364D01*
X84378438Y-121079304D01*
X83964700Y-121250257D01*
X83560676Y-121653577D01*
X83341750Y-122180809D01*
X83341252Y-122751687D01*
X75626500Y-122751687D01*
X75626500Y-119480723D01*
X83329535Y-119480723D01*
X83356722Y-120050954D01*
X83522636Y-120451505D01*
X83768755Y-120525639D01*
X84596895Y-119697500D01*
X84956105Y-119697500D01*
X85784245Y-120525639D01*
X86030364Y-120451505D01*
X86223465Y-119914277D01*
X86196278Y-119344046D01*
X86030364Y-118943495D01*
X85784245Y-118869361D01*
X84956105Y-119697500D01*
X84596895Y-119697500D01*
X83768755Y-118869361D01*
X83522636Y-118943495D01*
X83329535Y-119480723D01*
X75626500Y-119480723D01*
X75626500Y-117935245D01*
X83948361Y-117935245D01*
X84022495Y-118181364D01*
X84361499Y-118303216D01*
X84022495Y-118443636D01*
X83948361Y-118689755D01*
X84776500Y-119517895D01*
X85604639Y-118689755D01*
X85530505Y-118443636D01*
X85191501Y-118321784D01*
X85530505Y-118181364D01*
X85604639Y-117935245D01*
X84776500Y-117107105D01*
X83948361Y-117935245D01*
X75626500Y-117935245D01*
X75626500Y-116710723D01*
X83329535Y-116710723D01*
X83356722Y-117280954D01*
X83522636Y-117681505D01*
X83768755Y-117755639D01*
X84596895Y-116927500D01*
X84956105Y-116927500D01*
X85784245Y-117755639D01*
X86030364Y-117681505D01*
X86223465Y-117144277D01*
X86196278Y-116574046D01*
X86030364Y-116173495D01*
X85784245Y-116099361D01*
X84956105Y-116927500D01*
X84596895Y-116927500D01*
X83768755Y-116099361D01*
X83522636Y-116173495D01*
X83329535Y-116710723D01*
X75626500Y-116710723D01*
X75626500Y-115165245D01*
X83948361Y-115165245D01*
X84022495Y-115411364D01*
X84361499Y-115533216D01*
X84022495Y-115673636D01*
X83948361Y-115919755D01*
X84776500Y-116747895D01*
X85604639Y-115919755D01*
X85530505Y-115673636D01*
X85191501Y-115551784D01*
X85530505Y-115411364D01*
X85604639Y-115165245D01*
X84776500Y-114337105D01*
X83948361Y-115165245D01*
X75626500Y-115165245D01*
X75626500Y-113940723D01*
X83329535Y-113940723D01*
X83356722Y-114510954D01*
X83522636Y-114911505D01*
X83768755Y-114985639D01*
X84596895Y-114157500D01*
X84956105Y-114157500D01*
X85784245Y-114985639D01*
X86030364Y-114911505D01*
X86223465Y-114374277D01*
X86196278Y-113804046D01*
X86030364Y-113403495D01*
X85784245Y-113329361D01*
X84956105Y-114157500D01*
X84596895Y-114157500D01*
X83768755Y-113329361D01*
X83522636Y-113403495D01*
X83329535Y-113940723D01*
X75626500Y-113940723D01*
X75626500Y-112395245D01*
X83948361Y-112395245D01*
X84022495Y-112641364D01*
X84361499Y-112763216D01*
X84022495Y-112903636D01*
X83948361Y-113149755D01*
X84776500Y-113977895D01*
X85604639Y-113149755D01*
X85530505Y-112903636D01*
X85191501Y-112781784D01*
X85530505Y-112641364D01*
X85604639Y-112395245D01*
X84776500Y-111567105D01*
X83948361Y-112395245D01*
X75626500Y-112395245D01*
X75626500Y-111170723D01*
X83329535Y-111170723D01*
X83356722Y-111740954D01*
X83522636Y-112141505D01*
X83768755Y-112215639D01*
X84596895Y-111387500D01*
X84956105Y-111387500D01*
X85784245Y-112215639D01*
X86030364Y-112141505D01*
X86223465Y-111604277D01*
X86196278Y-111034046D01*
X86030364Y-110633495D01*
X85784245Y-110559361D01*
X84956105Y-111387500D01*
X84596895Y-111387500D01*
X83768755Y-110559361D01*
X83522636Y-110633495D01*
X83329535Y-111170723D01*
X75626500Y-111170723D01*
X75626500Y-100591687D01*
X83341252Y-100591687D01*
X83559257Y-101119300D01*
X83962577Y-101523324D01*
X84370350Y-101692646D01*
X83964700Y-101860257D01*
X83560676Y-102263577D01*
X83341750Y-102790809D01*
X83341252Y-103361687D01*
X83559257Y-103889300D01*
X83962577Y-104293324D01*
X84370350Y-104462646D01*
X83964700Y-104630257D01*
X83560676Y-105033577D01*
X83341750Y-105560809D01*
X83341252Y-106131687D01*
X83559257Y-106659300D01*
X83962577Y-107063324D01*
X84370350Y-107232646D01*
X83964700Y-107400257D01*
X83560676Y-107803577D01*
X83341750Y-108330809D01*
X83341252Y-108901687D01*
X83559257Y-109429300D01*
X83962577Y-109833324D01*
X84354560Y-109996090D01*
X84022495Y-110133636D01*
X83948361Y-110379755D01*
X84776500Y-111207895D01*
X85604639Y-110379755D01*
X85530505Y-110133636D01*
X85174562Y-110005696D01*
X85588300Y-109834743D01*
X85992324Y-109431423D01*
X86211250Y-108904191D01*
X86211748Y-108333313D01*
X85993743Y-107805700D01*
X85590423Y-107401676D01*
X85182650Y-107232354D01*
X85588300Y-107064743D01*
X85992324Y-106661423D01*
X86211250Y-106134191D01*
X86211748Y-105563313D01*
X85993743Y-105035700D01*
X85590423Y-104631676D01*
X85182650Y-104462354D01*
X85588300Y-104294743D01*
X85992324Y-103891423D01*
X86211250Y-103364191D01*
X86211748Y-102793313D01*
X85993743Y-102265700D01*
X85590423Y-101861676D01*
X85182650Y-101692354D01*
X85588300Y-101524743D01*
X85992324Y-101121423D01*
X86211250Y-100594191D01*
X86211748Y-100023313D01*
X85993743Y-99495700D01*
X85590423Y-99091676D01*
X85063191Y-98872750D01*
X84492313Y-98872252D01*
X83964700Y-99090257D01*
X83560676Y-99493577D01*
X83341750Y-100020809D01*
X83341252Y-100591687D01*
X75626500Y-100591687D01*
X75626500Y-98122500D01*
X86169060Y-98122500D01*
X86169060Y-99722500D01*
X86218343Y-99970265D01*
X86358691Y-100180309D01*
X86568735Y-100320657D01*
X86816500Y-100369940D01*
X87059587Y-100369940D01*
X86804700Y-100475257D01*
X86400676Y-100878577D01*
X86181750Y-101405809D01*
X86181252Y-101976687D01*
X86399257Y-102504300D01*
X86802577Y-102908324D01*
X87210350Y-103077646D01*
X86804700Y-103245257D01*
X86400676Y-103648577D01*
X86181750Y-104175809D01*
X86181252Y-104746687D01*
X86399257Y-105274300D01*
X86802577Y-105678324D01*
X87210350Y-105847646D01*
X86804700Y-106015257D01*
X86400676Y-106418577D01*
X86181750Y-106945809D01*
X86181252Y-107516687D01*
X86399257Y-108044300D01*
X86802577Y-108448324D01*
X87210350Y-108617646D01*
X86804700Y-108785257D01*
X86400676Y-109188577D01*
X86181750Y-109715809D01*
X86181252Y-110286687D01*
X86399257Y-110814300D01*
X86802577Y-111218324D01*
X87210350Y-111387646D01*
X86804700Y-111555257D01*
X86400676Y-111958577D01*
X86181750Y-112485809D01*
X86181252Y-113056687D01*
X86399257Y-113584300D01*
X86802577Y-113988324D01*
X87210350Y-114157646D01*
X86804700Y-114325257D01*
X86400676Y-114728577D01*
X86181750Y-115255809D01*
X86181252Y-115826687D01*
X86399257Y-116354300D01*
X86802577Y-116758324D01*
X87210350Y-116927646D01*
X86804700Y-117095257D01*
X86400676Y-117498577D01*
X86181750Y-118025809D01*
X86181252Y-118596687D01*
X86399257Y-119124300D01*
X86802577Y-119528324D01*
X87210350Y-119697646D01*
X86804700Y-119865257D01*
X86400676Y-120268577D01*
X86181750Y-120795809D01*
X86181252Y-121366687D01*
X86399257Y-121894300D01*
X86802577Y-122298324D01*
X87210350Y-122467646D01*
X86804700Y-122635257D01*
X86400676Y-123038577D01*
X86181750Y-123565809D01*
X86181252Y-124136687D01*
X86399257Y-124664300D01*
X86802577Y-125068324D01*
X87210350Y-125237646D01*
X86804700Y-125405257D01*
X86400676Y-125808577D01*
X86181750Y-126335809D01*
X86181252Y-126906687D01*
X86399257Y-127434300D01*
X86802577Y-127838324D01*
X87210350Y-128007646D01*
X86804700Y-128175257D01*
X86400676Y-128578577D01*
X86181750Y-129105809D01*
X86181252Y-129676687D01*
X86399257Y-130204300D01*
X86802577Y-130608324D01*
X87210350Y-130777646D01*
X86804700Y-130945257D01*
X86400676Y-131348577D01*
X86181750Y-131875809D01*
X86181252Y-132446687D01*
X86399257Y-132974300D01*
X86802577Y-133378324D01*
X87329809Y-133597250D01*
X87900687Y-133597748D01*
X87916556Y-133591191D01*
X95048500Y-133591191D01*
X95048500Y-134281750D01*
X95207250Y-134440500D01*
X96406500Y-134440500D01*
X96406500Y-133241250D01*
X96660500Y-133241250D01*
X96660500Y-134440500D01*
X96680500Y-134440500D01*
X96680500Y-134694500D01*
X96660500Y-134694500D01*
X96660500Y-135893750D01*
X96819250Y-136052500D01*
X97509810Y-136052500D01*
X97743199Y-135955827D01*
X97921827Y-135777198D01*
X97994097Y-135602723D01*
X98023446Y-135646647D01*
X98505215Y-135968554D01*
X99073500Y-136081593D01*
X99641785Y-135968554D01*
X100123554Y-135646647D01*
X100343500Y-135317474D01*
X100563446Y-135646647D01*
X101045215Y-135968554D01*
X101613500Y-136081593D01*
X102181785Y-135968554D01*
X102663554Y-135646647D01*
X102985461Y-135164878D01*
X103098500Y-134596593D01*
X103098500Y-134538407D01*
X102985461Y-133970122D01*
X102663554Y-133488353D01*
X102181785Y-133166446D01*
X101613500Y-133053407D01*
X101045215Y-133166446D01*
X100563446Y-133488353D01*
X100343500Y-133817526D01*
X100123554Y-133488353D01*
X99641785Y-133166446D01*
X99073500Y-133053407D01*
X98505215Y-133166446D01*
X98023446Y-133488353D01*
X97994097Y-133532277D01*
X97921827Y-133357802D01*
X97743199Y-133179173D01*
X97509810Y-133082500D01*
X96819250Y-133082500D01*
X96660500Y-133241250D01*
X96406500Y-133241250D01*
X96247750Y-133082500D01*
X95557190Y-133082500D01*
X95323801Y-133179173D01*
X95145173Y-133357802D01*
X95048500Y-133591191D01*
X87916556Y-133591191D01*
X88428300Y-133379743D01*
X88832324Y-132976423D01*
X88854715Y-132922500D01*
X90681500Y-132922500D01*
X90972339Y-132864648D01*
X91218901Y-132699901D01*
X92240552Y-131678250D01*
X95048500Y-131678250D01*
X95048500Y-132368809D01*
X95145173Y-132602198D01*
X95323801Y-132780827D01*
X95557190Y-132877500D01*
X96247750Y-132877500D01*
X96406500Y-132718750D01*
X96406500Y-131519500D01*
X95207250Y-131519500D01*
X95048500Y-131678250D01*
X92240552Y-131678250D01*
X93502611Y-130416191D01*
X95048500Y-130416191D01*
X95048500Y-131106750D01*
X95207250Y-131265500D01*
X96406500Y-131265500D01*
X96406500Y-130066250D01*
X96660500Y-130066250D01*
X96660500Y-131265500D01*
X96680500Y-131265500D01*
X96680500Y-131519500D01*
X96660500Y-131519500D01*
X96660500Y-132718750D01*
X96819250Y-132877500D01*
X97509810Y-132877500D01*
X97743199Y-132780827D01*
X97921827Y-132602198D01*
X97994097Y-132427723D01*
X98023446Y-132471647D01*
X98505215Y-132793554D01*
X99073500Y-132906593D01*
X99641785Y-132793554D01*
X100123554Y-132471647D01*
X100343500Y-132142474D01*
X100563446Y-132471647D01*
X101045215Y-132793554D01*
X101613500Y-132906593D01*
X102181785Y-132793554D01*
X102663554Y-132471647D01*
X102985461Y-131989878D01*
X103098500Y-131421593D01*
X103098500Y-131363407D01*
X102985461Y-130795122D01*
X102663554Y-130313353D01*
X102181785Y-129991446D01*
X101613500Y-129878407D01*
X101045215Y-129991446D01*
X100563446Y-130313353D01*
X100343500Y-130642526D01*
X100123554Y-130313353D01*
X99641785Y-129991446D01*
X99073500Y-129878407D01*
X98505215Y-129991446D01*
X98023446Y-130313353D01*
X97994097Y-130357277D01*
X97921827Y-130182802D01*
X97743199Y-130004173D01*
X97509810Y-129907500D01*
X96819250Y-129907500D01*
X96660500Y-130066250D01*
X96406500Y-130066250D01*
X96247750Y-129907500D01*
X95557190Y-129907500D01*
X95323801Y-130004173D01*
X95145173Y-130182802D01*
X95048500Y-130416191D01*
X93502611Y-130416191D01*
X97692401Y-126226402D01*
X97857147Y-125979840D01*
X97857148Y-125979839D01*
X97915000Y-125689000D01*
X97915000Y-117749802D01*
X99374802Y-116290000D01*
X109852046Y-116290000D01*
X110045853Y-116580054D01*
X110375026Y-116800000D01*
X110045853Y-117019946D01*
X109723946Y-117501715D01*
X109610907Y-118070000D01*
X109723946Y-118638285D01*
X110045853Y-119120054D01*
X110375026Y-119340000D01*
X110045853Y-119559946D01*
X109723946Y-120041715D01*
X109610907Y-120610000D01*
X109723946Y-121178285D01*
X110045853Y-121660054D01*
X110375026Y-121880000D01*
X110045853Y-122099946D01*
X109723946Y-122581715D01*
X109610907Y-123150000D01*
X109723946Y-123718285D01*
X110045853Y-124200054D01*
X110375026Y-124420000D01*
X110045853Y-124639946D01*
X109723946Y-125121715D01*
X109610907Y-125690000D01*
X109723946Y-126258285D01*
X110045853Y-126740054D01*
X110375026Y-126960000D01*
X110045853Y-127179946D01*
X109851746Y-127470448D01*
X109563160Y-127527852D01*
X109316599Y-127692599D01*
X103589099Y-133420099D01*
X103424352Y-133666661D01*
X103366500Y-133957500D01*
X103366500Y-139357698D01*
X101271698Y-141452500D01*
X100319454Y-141452500D01*
X100125647Y-141162446D01*
X99643878Y-140840539D01*
X99075593Y-140727500D01*
X99017407Y-140727500D01*
X98449122Y-140840539D01*
X97967353Y-141162446D01*
X97963403Y-141168358D01*
X97894827Y-141002801D01*
X97716198Y-140824173D01*
X97482809Y-140727500D01*
X96792250Y-140727500D01*
X96633500Y-140886250D01*
X96633500Y-142085500D01*
X96653500Y-142085500D01*
X96653500Y-142339500D01*
X96633500Y-142339500D01*
X96633500Y-144625500D01*
X96653500Y-144625500D01*
X96653500Y-144879500D01*
X96633500Y-144879500D01*
X96633500Y-147165500D01*
X96653500Y-147165500D01*
X96653500Y-147419500D01*
X96633500Y-147419500D01*
X96633500Y-149705500D01*
X96653500Y-149705500D01*
X96653500Y-149959500D01*
X96633500Y-149959500D01*
X96633500Y-152245500D01*
X96653500Y-152245500D01*
X96653500Y-152499500D01*
X96633500Y-152499500D01*
X96633500Y-154785500D01*
X96653500Y-154785500D01*
X96653500Y-155039500D01*
X96633500Y-155039500D01*
X96633500Y-157325500D01*
X96653500Y-157325500D01*
X96653500Y-157579500D01*
X96633500Y-157579500D01*
X96633500Y-159865500D01*
X96653500Y-159865500D01*
X96653500Y-160119500D01*
X96633500Y-160119500D01*
X96633500Y-161313319D01*
X96863392Y-161433986D01*
X97387858Y-161187683D01*
X97778145Y-160759424D01*
X97778155Y-160759399D01*
X97967353Y-161042554D01*
X98449122Y-161364461D01*
X99017407Y-161477500D01*
X99075593Y-161477500D01*
X99643878Y-161364461D01*
X100125647Y-161042554D01*
X100447554Y-160560785D01*
X100560593Y-159992500D01*
X100447554Y-159424215D01*
X100125647Y-158942446D01*
X99796474Y-158722500D01*
X100125647Y-158502554D01*
X100319454Y-158212500D01*
X106031500Y-158212500D01*
X106322339Y-158154648D01*
X106568901Y-157989901D01*
X108473901Y-156084901D01*
X108638648Y-155838339D01*
X108696500Y-155547500D01*
X108696500Y-145067302D01*
X109533802Y-144230000D01*
X109852046Y-144230000D01*
X110045853Y-144520054D01*
X110375026Y-144740000D01*
X110045853Y-144959946D01*
X109723946Y-145441715D01*
X109610907Y-146010000D01*
X109723946Y-146578285D01*
X110045853Y-147060054D01*
X110527622Y-147381961D01*
X111095907Y-147495000D01*
X111154093Y-147495000D01*
X111722378Y-147381961D01*
X112204147Y-147060054D01*
X112393345Y-146776899D01*
X112393355Y-146776924D01*
X112783642Y-147205183D01*
X113308108Y-147451486D01*
X113538000Y-147330819D01*
X113538000Y-146137000D01*
X113792000Y-146137000D01*
X113792000Y-147330819D01*
X114021892Y-147451486D01*
X114546358Y-147205183D01*
X114936645Y-146776924D01*
X115106476Y-146366890D01*
X114985155Y-146137000D01*
X113792000Y-146137000D01*
X113538000Y-146137000D01*
X113518000Y-146137000D01*
X113518000Y-145883000D01*
X113538000Y-145883000D01*
X113538000Y-143597000D01*
X113792000Y-143597000D01*
X113792000Y-145883000D01*
X114985155Y-145883000D01*
X115106476Y-145653110D01*
X114936645Y-145243076D01*
X114546358Y-144814817D01*
X114387046Y-144740000D01*
X114546358Y-144665183D01*
X114936645Y-144236924D01*
X115106476Y-143826890D01*
X114985155Y-143597000D01*
X113792000Y-143597000D01*
X113538000Y-143597000D01*
X113518000Y-143597000D01*
X113518000Y-143343000D01*
X113538000Y-143343000D01*
X113538000Y-141057000D01*
X113792000Y-141057000D01*
X113792000Y-143343000D01*
X114985155Y-143343000D01*
X115106476Y-143113110D01*
X114936645Y-142703076D01*
X114546358Y-142274817D01*
X114387046Y-142200000D01*
X114546358Y-142125183D01*
X114936645Y-141696924D01*
X115106476Y-141286890D01*
X114985155Y-141057000D01*
X113792000Y-141057000D01*
X113538000Y-141057000D01*
X113518000Y-141057000D01*
X113518000Y-140803000D01*
X113538000Y-140803000D01*
X113538000Y-138517000D01*
X113792000Y-138517000D01*
X113792000Y-140803000D01*
X114985155Y-140803000D01*
X115106476Y-140573110D01*
X114936645Y-140163076D01*
X114546358Y-139734817D01*
X114387046Y-139660000D01*
X114546358Y-139585183D01*
X114936645Y-139156924D01*
X115106476Y-138746890D01*
X114985155Y-138517000D01*
X113792000Y-138517000D01*
X113538000Y-138517000D01*
X113518000Y-138517000D01*
X113518000Y-138263000D01*
X113538000Y-138263000D01*
X113538000Y-135977000D01*
X113792000Y-135977000D01*
X113792000Y-138263000D01*
X114985155Y-138263000D01*
X115106476Y-138033110D01*
X114936645Y-137623076D01*
X114546358Y-137194817D01*
X114387046Y-137120000D01*
X114546358Y-137045183D01*
X114936645Y-136616924D01*
X115106476Y-136206890D01*
X114985155Y-135977000D01*
X113792000Y-135977000D01*
X113538000Y-135977000D01*
X113518000Y-135977000D01*
X113518000Y-135723000D01*
X113538000Y-135723000D01*
X113538000Y-133437000D01*
X113792000Y-133437000D01*
X113792000Y-135723000D01*
X114985155Y-135723000D01*
X115106476Y-135493110D01*
X114936645Y-135083076D01*
X114546358Y-134654817D01*
X114387046Y-134580000D01*
X114546358Y-134505183D01*
X114936645Y-134076924D01*
X115106476Y-133666890D01*
X114985155Y-133437000D01*
X113792000Y-133437000D01*
X113538000Y-133437000D01*
X113518000Y-133437000D01*
X113518000Y-133183000D01*
X113538000Y-133183000D01*
X113538000Y-130897000D01*
X113792000Y-130897000D01*
X113792000Y-133183000D01*
X114985155Y-133183000D01*
X115106476Y-132953110D01*
X114936645Y-132543076D01*
X114546358Y-132114817D01*
X114387046Y-132040000D01*
X114546358Y-131965183D01*
X114936645Y-131536924D01*
X115106476Y-131126890D01*
X114985155Y-130897000D01*
X113792000Y-130897000D01*
X113538000Y-130897000D01*
X113518000Y-130897000D01*
X113518000Y-130643000D01*
X113538000Y-130643000D01*
X113538000Y-128357000D01*
X113792000Y-128357000D01*
X113792000Y-130643000D01*
X114985155Y-130643000D01*
X115106476Y-130413110D01*
X114936645Y-130003076D01*
X114546358Y-129574817D01*
X114387046Y-129500000D01*
X114546358Y-129425183D01*
X114936645Y-128996924D01*
X115106476Y-128586890D01*
X114985155Y-128357000D01*
X113792000Y-128357000D01*
X113538000Y-128357000D01*
X113518000Y-128357000D01*
X113518000Y-128103000D01*
X113538000Y-128103000D01*
X113538000Y-125817000D01*
X113792000Y-125817000D01*
X113792000Y-128103000D01*
X114985155Y-128103000D01*
X115106476Y-127873110D01*
X114936645Y-127463076D01*
X114546358Y-127034817D01*
X114387046Y-126960000D01*
X114546358Y-126885183D01*
X114936645Y-126456924D01*
X115106476Y-126046890D01*
X114985155Y-125817000D01*
X113792000Y-125817000D01*
X113538000Y-125817000D01*
X113518000Y-125817000D01*
X113518000Y-125563000D01*
X113538000Y-125563000D01*
X113538000Y-123277000D01*
X113792000Y-123277000D01*
X113792000Y-125563000D01*
X114985155Y-125563000D01*
X115106476Y-125333110D01*
X114936645Y-124923076D01*
X114546358Y-124494817D01*
X114387046Y-124420000D01*
X114546358Y-124345183D01*
X114936645Y-123916924D01*
X115106476Y-123506890D01*
X114985155Y-123277000D01*
X113792000Y-123277000D01*
X113538000Y-123277000D01*
X113518000Y-123277000D01*
X113518000Y-123023000D01*
X113538000Y-123023000D01*
X113538000Y-120737000D01*
X113792000Y-120737000D01*
X113792000Y-123023000D01*
X114985155Y-123023000D01*
X115106476Y-122793110D01*
X114936645Y-122383076D01*
X114546358Y-121954817D01*
X114387046Y-121880000D01*
X114546358Y-121805183D01*
X114936645Y-121376924D01*
X115106476Y-120966890D01*
X114985155Y-120737000D01*
X113792000Y-120737000D01*
X113538000Y-120737000D01*
X113518000Y-120737000D01*
X113518000Y-120483000D01*
X113538000Y-120483000D01*
X113538000Y-118197000D01*
X113792000Y-118197000D01*
X113792000Y-120483000D01*
X114985155Y-120483000D01*
X115106476Y-120253110D01*
X114936645Y-119843076D01*
X114546358Y-119414817D01*
X114387046Y-119340000D01*
X114546358Y-119265183D01*
X114936645Y-118836924D01*
X115106476Y-118426890D01*
X114985155Y-118197000D01*
X113792000Y-118197000D01*
X113538000Y-118197000D01*
X113518000Y-118197000D01*
X113518000Y-117943000D01*
X113538000Y-117943000D01*
X113538000Y-115657000D01*
X113792000Y-115657000D01*
X113792000Y-117943000D01*
X114985155Y-117943000D01*
X115106476Y-117713110D01*
X114936645Y-117303076D01*
X114546358Y-116874817D01*
X114387046Y-116800000D01*
X114546358Y-116725183D01*
X114936645Y-116296924D01*
X115106476Y-115886890D01*
X114985155Y-115657000D01*
X113792000Y-115657000D01*
X113538000Y-115657000D01*
X113518000Y-115657000D01*
X113518000Y-115403000D01*
X113538000Y-115403000D01*
X113538000Y-113117000D01*
X113792000Y-113117000D01*
X113792000Y-115403000D01*
X114985155Y-115403000D01*
X115106476Y-115173110D01*
X114936645Y-114763076D01*
X114546358Y-114334817D01*
X114387046Y-114260000D01*
X114546358Y-114185183D01*
X114936645Y-113756924D01*
X115106476Y-113346890D01*
X114985155Y-113117000D01*
X113792000Y-113117000D01*
X113538000Y-113117000D01*
X113518000Y-113117000D01*
X113518000Y-112863000D01*
X113538000Y-112863000D01*
X113538000Y-110577000D01*
X113792000Y-110577000D01*
X113792000Y-112863000D01*
X114985155Y-112863000D01*
X115106476Y-112633110D01*
X114936645Y-112223076D01*
X114546358Y-111794817D01*
X114387046Y-111720000D01*
X114546358Y-111645183D01*
X114936645Y-111216924D01*
X115106476Y-110806890D01*
X114985155Y-110577000D01*
X113792000Y-110577000D01*
X113538000Y-110577000D01*
X113518000Y-110577000D01*
X113518000Y-110323000D01*
X113538000Y-110323000D01*
X113538000Y-108037000D01*
X113792000Y-108037000D01*
X113792000Y-110323000D01*
X114985155Y-110323000D01*
X115106476Y-110093110D01*
X114936645Y-109683076D01*
X114546358Y-109254817D01*
X114387046Y-109180000D01*
X114546358Y-109105183D01*
X114936645Y-108676924D01*
X115106476Y-108266890D01*
X114985155Y-108037000D01*
X113792000Y-108037000D01*
X113538000Y-108037000D01*
X113518000Y-108037000D01*
X113518000Y-107783000D01*
X113538000Y-107783000D01*
X113538000Y-105497000D01*
X113792000Y-105497000D01*
X113792000Y-107783000D01*
X114985155Y-107783000D01*
X115106476Y-107553110D01*
X114936645Y-107143076D01*
X114546358Y-106714817D01*
X114387046Y-106640000D01*
X114546358Y-106565183D01*
X114936645Y-106136924D01*
X115106476Y-105726890D01*
X114985155Y-105497000D01*
X113792000Y-105497000D01*
X113538000Y-105497000D01*
X113518000Y-105497000D01*
X113518000Y-105243000D01*
X113538000Y-105243000D01*
X113538000Y-102957000D01*
X113792000Y-102957000D01*
X113792000Y-105243000D01*
X114985155Y-105243000D01*
X115106476Y-105013110D01*
X114936645Y-104603076D01*
X114546358Y-104174817D01*
X114387046Y-104100000D01*
X114546358Y-104025183D01*
X114936645Y-103596924D01*
X115106476Y-103186890D01*
X114985155Y-102957000D01*
X113792000Y-102957000D01*
X113538000Y-102957000D01*
X113518000Y-102957000D01*
X113518000Y-102703000D01*
X113538000Y-102703000D01*
X113538000Y-100417000D01*
X113792000Y-100417000D01*
X113792000Y-102703000D01*
X114985155Y-102703000D01*
X115106476Y-102473110D01*
X114936645Y-102063076D01*
X114546358Y-101634817D01*
X114387046Y-101560000D01*
X114546358Y-101485183D01*
X114936645Y-101056924D01*
X115106476Y-100646890D01*
X114985155Y-100417000D01*
X113792000Y-100417000D01*
X113538000Y-100417000D01*
X113518000Y-100417000D01*
X113518000Y-100163000D01*
X113538000Y-100163000D01*
X113538000Y-97877000D01*
X113792000Y-97877000D01*
X113792000Y-100163000D01*
X114985155Y-100163000D01*
X115106476Y-99933110D01*
X114936645Y-99523076D01*
X114546358Y-99094817D01*
X114387046Y-99020000D01*
X114546358Y-98945183D01*
X114936645Y-98516924D01*
X115106476Y-98106890D01*
X114985155Y-97877000D01*
X113792000Y-97877000D01*
X113538000Y-97877000D01*
X113518000Y-97877000D01*
X113518000Y-97623000D01*
X113538000Y-97623000D01*
X113538000Y-95337000D01*
X113792000Y-95337000D01*
X113792000Y-97623000D01*
X114985155Y-97623000D01*
X115106476Y-97393110D01*
X114936645Y-96983076D01*
X114546358Y-96554817D01*
X114387046Y-96480000D01*
X114546358Y-96405183D01*
X114936645Y-95976924D01*
X115106476Y-95566890D01*
X114985155Y-95337000D01*
X113792000Y-95337000D01*
X113538000Y-95337000D01*
X113518000Y-95337000D01*
X113518000Y-95083000D01*
X113538000Y-95083000D01*
X113538000Y-92797000D01*
X113792000Y-92797000D01*
X113792000Y-95083000D01*
X114985155Y-95083000D01*
X115106476Y-94853110D01*
X114936645Y-94443076D01*
X114546358Y-94014817D01*
X114387046Y-93940000D01*
X114546358Y-93865183D01*
X114936645Y-93436924D01*
X115106476Y-93026890D01*
X114985155Y-92797000D01*
X113792000Y-92797000D01*
X113538000Y-92797000D01*
X113518000Y-92797000D01*
X113518000Y-92543000D01*
X113538000Y-92543000D01*
X113538000Y-90257000D01*
X113792000Y-90257000D01*
X113792000Y-92543000D01*
X114985155Y-92543000D01*
X115106476Y-92313110D01*
X114936645Y-91903076D01*
X114546358Y-91474817D01*
X114387046Y-91400000D01*
X114546358Y-91325183D01*
X114936645Y-90896924D01*
X115106476Y-90486890D01*
X114985155Y-90257000D01*
X113792000Y-90257000D01*
X113538000Y-90257000D01*
X113518000Y-90257000D01*
X113518000Y-90003000D01*
X113538000Y-90003000D01*
X113538000Y-87717000D01*
X113792000Y-87717000D01*
X113792000Y-90003000D01*
X114985155Y-90003000D01*
X115106476Y-89773110D01*
X114936645Y-89363076D01*
X114546358Y-88934817D01*
X114387046Y-88860000D01*
X114546358Y-88785183D01*
X114936645Y-88356924D01*
X115106476Y-87946890D01*
X114985155Y-87717000D01*
X113792000Y-87717000D01*
X113538000Y-87717000D01*
X113518000Y-87717000D01*
X113518000Y-87463000D01*
X113538000Y-87463000D01*
X113538000Y-85177000D01*
X113792000Y-85177000D01*
X113792000Y-87463000D01*
X114985155Y-87463000D01*
X115106476Y-87233110D01*
X114936645Y-86823076D01*
X114546358Y-86394817D01*
X114387046Y-86320000D01*
X114546358Y-86245183D01*
X114936645Y-85816924D01*
X115106476Y-85406890D01*
X114985155Y-85177000D01*
X113792000Y-85177000D01*
X113538000Y-85177000D01*
X113518000Y-85177000D01*
X113518000Y-84923000D01*
X113538000Y-84923000D01*
X113538000Y-83729181D01*
X113792000Y-83729181D01*
X113792000Y-84923000D01*
X114985155Y-84923000D01*
X115106476Y-84693110D01*
X114936645Y-84283076D01*
X114546358Y-83854817D01*
X114021892Y-83608514D01*
X113792000Y-83729181D01*
X113538000Y-83729181D01*
X113308108Y-83608514D01*
X112783642Y-83854817D01*
X112594961Y-84061855D01*
X112573157Y-83952235D01*
X112432809Y-83742191D01*
X112222765Y-83601843D01*
X111975000Y-83552560D01*
X110275000Y-83552560D01*
X110027235Y-83601843D01*
X109817191Y-83742191D01*
X109676843Y-83952235D01*
X109627560Y-84200000D01*
X109627560Y-84290000D01*
X100330000Y-84290000D01*
X100039161Y-84347852D01*
X99792599Y-84512599D01*
X87079099Y-97226099D01*
X86914352Y-97472661D01*
X86913875Y-97475060D01*
X86816500Y-97475060D01*
X86568735Y-97524343D01*
X86358691Y-97664691D01*
X86218343Y-97874735D01*
X86169060Y-98122500D01*
X75626500Y-98122500D01*
X75626500Y-93867522D01*
X84501084Y-93867522D01*
X84721853Y-94238243D01*
X85693512Y-94631619D01*
X86741747Y-94623213D01*
X87671147Y-94238243D01*
X87891916Y-93867522D01*
X86196500Y-92172105D01*
X84501084Y-93867522D01*
X75626500Y-93867522D01*
X75626500Y-91489512D01*
X83557381Y-91489512D01*
X83565787Y-92537747D01*
X83950757Y-93467147D01*
X84321478Y-93687916D01*
X86016895Y-91992500D01*
X86376105Y-91992500D01*
X88071522Y-93687916D01*
X88442243Y-93467147D01*
X88835619Y-92495488D01*
X88827213Y-91447253D01*
X88442243Y-90517853D01*
X88071522Y-90297084D01*
X86376105Y-91992500D01*
X86016895Y-91992500D01*
X84321478Y-90297084D01*
X83950757Y-90517853D01*
X83557381Y-91489512D01*
X75626500Y-91489512D01*
X75626500Y-90117478D01*
X84501084Y-90117478D01*
X86196500Y-91812895D01*
X87891916Y-90117478D01*
X87671147Y-89746757D01*
X86699488Y-89353381D01*
X85651253Y-89361787D01*
X84721853Y-89746757D01*
X84501084Y-90117478D01*
X75626500Y-90117478D01*
X75626500Y-69500291D01*
X75989187Y-70378061D01*
X76896164Y-71286623D01*
X78081794Y-71778939D01*
X79365574Y-71780059D01*
X80552061Y-71289813D01*
X81460623Y-70382836D01*
X81952939Y-69197206D01*
X81954059Y-67913426D01*
X81463813Y-66726939D01*
X80990202Y-66252500D01*
X112022862Y-66252500D01*
X111552377Y-66722164D01*
X111552377Y-66722164D01*
G37*
X111552377Y-66722164D02*
X111060061Y-67907794D01*
X111058941Y-69191574D01*
X111549187Y-70378061D01*
X112456164Y-71286623D01*
X113641794Y-71778939D01*
X114925574Y-71780059D01*
X116112061Y-71289813D01*
X117020623Y-70382836D01*
X117512939Y-69197206D01*
X117514059Y-67913426D01*
X117023813Y-66726939D01*
X116550202Y-66252500D01*
X118206500Y-66252500D01*
X118206500Y-164832500D01*
X116550138Y-164832500D01*
X117020623Y-164362836D01*
X117512939Y-163177206D01*
X117514059Y-161893426D01*
X117023813Y-160706939D01*
X116116836Y-159798377D01*
X114931206Y-159306061D01*
X113647426Y-159304941D01*
X112460939Y-159795187D01*
X111552377Y-160702164D01*
X111060061Y-161887794D01*
X111058941Y-163171574D01*
X111549187Y-164358061D01*
X112022798Y-164832500D01*
X80990138Y-164832500D01*
X81460623Y-164362836D01*
X81952939Y-163177206D01*
X81954059Y-161893426D01*
X81463813Y-160706939D01*
X81106888Y-160349390D01*
X95065024Y-160349390D01*
X95234855Y-160759424D01*
X95625142Y-161187683D01*
X96149608Y-161433986D01*
X96379500Y-161313319D01*
X96379500Y-160119500D01*
X95186345Y-160119500D01*
X95065024Y-160349390D01*
X81106888Y-160349390D01*
X80556836Y-159798377D01*
X79371206Y-159306061D01*
X78087426Y-159304941D01*
X76900939Y-159795187D01*
X75992377Y-160702164D01*
X75626500Y-161583295D01*
X75626500Y-157809390D01*
X95065024Y-157809390D01*
X95234855Y-158219424D01*
X95625142Y-158647683D01*
X95784454Y-158722500D01*
X95625142Y-158797317D01*
X95234855Y-159225576D01*
X95065024Y-159635610D01*
X95186345Y-159865500D01*
X96379500Y-159865500D01*
X96379500Y-157579500D01*
X95186345Y-157579500D01*
X95065024Y-157809390D01*
X75626500Y-157809390D01*
X75626500Y-155269390D01*
X95065024Y-155269390D01*
X95234855Y-155679424D01*
X95625142Y-156107683D01*
X95784454Y-156182500D01*
X95625142Y-156257317D01*
X95234855Y-156685576D01*
X95065024Y-157095610D01*
X95186345Y-157325500D01*
X96379500Y-157325500D01*
X96379500Y-155039500D01*
X95186345Y-155039500D01*
X95065024Y-155269390D01*
X75626500Y-155269390D01*
X75626500Y-152729390D01*
X95065024Y-152729390D01*
X95234855Y-153139424D01*
X95625142Y-153567683D01*
X95784454Y-153642500D01*
X95625142Y-153717317D01*
X95234855Y-154145576D01*
X95065024Y-154555610D01*
X95186345Y-154785500D01*
X96379500Y-154785500D01*
X96379500Y-152499500D01*
X95186345Y-152499500D01*
X95065024Y-152729390D01*
X75626500Y-152729390D01*
X75626500Y-150189390D01*
X95065024Y-150189390D01*
X95234855Y-150599424D01*
X95625142Y-151027683D01*
X95784454Y-151102500D01*
X95625142Y-151177317D01*
X95234855Y-151605576D01*
X95065024Y-152015610D01*
X95186345Y-152245500D01*
X96379500Y-152245500D01*
X96379500Y-149959500D01*
X95186345Y-149959500D01*
X95065024Y-150189390D01*
X75626500Y-150189390D01*
X75626500Y-147649390D01*
X95065024Y-147649390D01*
X95234855Y-148059424D01*
X95625142Y-148487683D01*
X95784454Y-148562500D01*
X95625142Y-148637317D01*
X95234855Y-149065576D01*
X95065024Y-149475610D01*
X95186345Y-149705500D01*
X96379500Y-149705500D01*
X96379500Y-147419500D01*
X95186345Y-147419500D01*
X95065024Y-147649390D01*
X75626500Y-147649390D01*
X75626500Y-145109390D01*
X95065024Y-145109390D01*
X95234855Y-145519424D01*
X95625142Y-145947683D01*
X95784454Y-146022500D01*
X95625142Y-146097317D01*
X95234855Y-146525576D01*
X95065024Y-146935610D01*
X95186345Y-147165500D01*
X96379500Y-147165500D01*
X96379500Y-144879500D01*
X95186345Y-144879500D01*
X95065024Y-145109390D01*
X75626500Y-145109390D01*
X75626500Y-142498250D01*
X95021500Y-142498250D01*
X95021500Y-143188810D01*
X95118173Y-143422199D01*
X95296802Y-143600827D01*
X95506378Y-143687636D01*
X95234855Y-143985576D01*
X95065024Y-144395610D01*
X95186345Y-144625500D01*
X96379500Y-144625500D01*
X96379500Y-142339500D01*
X95180250Y-142339500D01*
X95021500Y-142498250D01*
X75626500Y-142498250D01*
X75626500Y-140967522D01*
X84501084Y-140967522D01*
X84721853Y-141338243D01*
X85693512Y-141731619D01*
X86741747Y-141723213D01*
X87671147Y-141338243D01*
X87731920Y-141236190D01*
X95021500Y-141236190D01*
X95021500Y-141926750D01*
X95180250Y-142085500D01*
X96379500Y-142085500D01*
X96379500Y-140886250D01*
X96220750Y-140727500D01*
X95530191Y-140727500D01*
X95296802Y-140824173D01*
X95118173Y-141002801D01*
X95021500Y-141236190D01*
X87731920Y-141236190D01*
X87891916Y-140967522D01*
X86196500Y-139272105D01*
X84501084Y-140967522D01*
X75626500Y-140967522D01*
X75626500Y-138589512D01*
X83557381Y-138589512D01*
X83565787Y-139637747D01*
X83950757Y-140567147D01*
X84321478Y-140787916D01*
X86016895Y-139092500D01*
X86376105Y-139092500D01*
X88071522Y-140787916D01*
X88442243Y-140567147D01*
X88835619Y-139595488D01*
X88827213Y-138547253D01*
X88442243Y-137617853D01*
X88071522Y-137397084D01*
X86376105Y-139092500D01*
X86016895Y-139092500D01*
X84321478Y-137397084D01*
X83950757Y-137617853D01*
X83557381Y-138589512D01*
X75626500Y-138589512D01*
X75626500Y-137217478D01*
X84501084Y-137217478D01*
X86196500Y-138912895D01*
X87891916Y-137217478D01*
X87671147Y-136846757D01*
X86699488Y-136453381D01*
X85651253Y-136461787D01*
X84721853Y-136846757D01*
X84501084Y-137217478D01*
X75626500Y-137217478D01*
X75626500Y-134853250D01*
X95048500Y-134853250D01*
X95048500Y-135543809D01*
X95145173Y-135777198D01*
X95323801Y-135955827D01*
X95557190Y-136052500D01*
X96247750Y-136052500D01*
X96406500Y-135893750D01*
X96406500Y-134694500D01*
X95207250Y-134694500D01*
X95048500Y-134853250D01*
X75626500Y-134853250D01*
X75626500Y-122751687D01*
X83341252Y-122751687D01*
X83559257Y-123279300D01*
X83962577Y-123683324D01*
X84370350Y-123852646D01*
X83964700Y-124020257D01*
X83560676Y-124423577D01*
X83341750Y-124950809D01*
X83341252Y-125521687D01*
X83559257Y-126049300D01*
X83962577Y-126453324D01*
X84370350Y-126622646D01*
X83964700Y-126790257D01*
X83560676Y-127193577D01*
X83341750Y-127720809D01*
X83341252Y-128291687D01*
X83559257Y-128819300D01*
X83962577Y-129223324D01*
X84370350Y-129392646D01*
X83964700Y-129560257D01*
X83560676Y-129963577D01*
X83341750Y-130490809D01*
X83341252Y-131061687D01*
X83559257Y-131589300D01*
X83962577Y-131993324D01*
X84489809Y-132212250D01*
X85060687Y-132212748D01*
X85588300Y-131994743D01*
X85992324Y-131591423D01*
X86211250Y-131064191D01*
X86211748Y-130493313D01*
X85993743Y-129965700D01*
X85590423Y-129561676D01*
X85182650Y-129392354D01*
X85588300Y-129224743D01*
X85992324Y-128821423D01*
X86211250Y-128294191D01*
X86211748Y-127723313D01*
X85993743Y-127195700D01*
X85590423Y-126791676D01*
X85182650Y-126622354D01*
X85588300Y-126454743D01*
X85992324Y-126051423D01*
X86211250Y-125524191D01*
X86211748Y-124953313D01*
X85993743Y-124425700D01*
X85590423Y-124021676D01*
X85182650Y-123852354D01*
X85588300Y-123684743D01*
X85992324Y-123281423D01*
X86211250Y-122754191D01*
X86211748Y-122183313D01*
X85993743Y-121655700D01*
X85590423Y-121251676D01*
X85198440Y-121088910D01*
X85530505Y-120951364D01*
X85604639Y-120705245D01*
X84776500Y-119877105D01*
X83948361Y-120705245D01*
X84022495Y-120951364D01*
X84378438Y-121079304D01*
X83964700Y-121250257D01*
X83560676Y-121653577D01*
X83341750Y-122180809D01*
X83341252Y-122751687D01*
X75626500Y-122751687D01*
X75626500Y-119480723D01*
X83329535Y-119480723D01*
X83356722Y-120050954D01*
X83522636Y-120451505D01*
X83768755Y-120525639D01*
X84596895Y-119697500D01*
X84956105Y-119697500D01*
X85784245Y-120525639D01*
X86030364Y-120451505D01*
X86223465Y-119914277D01*
X86196278Y-119344046D01*
X86030364Y-118943495D01*
X85784245Y-118869361D01*
X84956105Y-119697500D01*
X84596895Y-119697500D01*
X83768755Y-118869361D01*
X83522636Y-118943495D01*
X83329535Y-119480723D01*
X75626500Y-119480723D01*
X75626500Y-117935245D01*
X83948361Y-117935245D01*
X84022495Y-118181364D01*
X84361499Y-118303216D01*
X84022495Y-118443636D01*
X83948361Y-118689755D01*
X84776500Y-119517895D01*
X85604639Y-118689755D01*
X85530505Y-118443636D01*
X85191501Y-118321784D01*
X85530505Y-118181364D01*
X85604639Y-117935245D01*
X84776500Y-117107105D01*
X83948361Y-117935245D01*
X75626500Y-117935245D01*
X75626500Y-116710723D01*
X83329535Y-116710723D01*
X83356722Y-117280954D01*
X83522636Y-117681505D01*
X83768755Y-117755639D01*
X84596895Y-116927500D01*
X84956105Y-116927500D01*
X85784245Y-117755639D01*
X86030364Y-117681505D01*
X86223465Y-117144277D01*
X86196278Y-116574046D01*
X86030364Y-116173495D01*
X85784245Y-116099361D01*
X84956105Y-116927500D01*
X84596895Y-116927500D01*
X83768755Y-116099361D01*
X83522636Y-116173495D01*
X83329535Y-116710723D01*
X75626500Y-116710723D01*
X75626500Y-115165245D01*
X83948361Y-115165245D01*
X84022495Y-115411364D01*
X84361499Y-115533216D01*
X84022495Y-115673636D01*
X83948361Y-115919755D01*
X84776500Y-116747895D01*
X85604639Y-115919755D01*
X85530505Y-115673636D01*
X85191501Y-115551784D01*
X85530505Y-115411364D01*
X85604639Y-115165245D01*
X84776500Y-114337105D01*
X83948361Y-115165245D01*
X75626500Y-115165245D01*
X75626500Y-113940723D01*
X83329535Y-113940723D01*
X83356722Y-114510954D01*
X83522636Y-114911505D01*
X83768755Y-114985639D01*
X84596895Y-114157500D01*
X84956105Y-114157500D01*
X85784245Y-114985639D01*
X86030364Y-114911505D01*
X86223465Y-114374277D01*
X86196278Y-113804046D01*
X86030364Y-113403495D01*
X85784245Y-113329361D01*
X84956105Y-114157500D01*
X84596895Y-114157500D01*
X83768755Y-113329361D01*
X83522636Y-113403495D01*
X83329535Y-113940723D01*
X75626500Y-113940723D01*
X75626500Y-112395245D01*
X83948361Y-112395245D01*
X84022495Y-112641364D01*
X84361499Y-112763216D01*
X84022495Y-112903636D01*
X83948361Y-113149755D01*
X84776500Y-113977895D01*
X85604639Y-113149755D01*
X85530505Y-112903636D01*
X85191501Y-112781784D01*
X85530505Y-112641364D01*
X85604639Y-112395245D01*
X84776500Y-111567105D01*
X83948361Y-112395245D01*
X75626500Y-112395245D01*
X75626500Y-111170723D01*
X83329535Y-111170723D01*
X83356722Y-111740954D01*
X83522636Y-112141505D01*
X83768755Y-112215639D01*
X84596895Y-111387500D01*
X84956105Y-111387500D01*
X85784245Y-112215639D01*
X86030364Y-112141505D01*
X86223465Y-111604277D01*
X86196278Y-111034046D01*
X86030364Y-110633495D01*
X85784245Y-110559361D01*
X84956105Y-111387500D01*
X84596895Y-111387500D01*
X83768755Y-110559361D01*
X83522636Y-110633495D01*
X83329535Y-111170723D01*
X75626500Y-111170723D01*
X75626500Y-100591687D01*
X83341252Y-100591687D01*
X83559257Y-101119300D01*
X83962577Y-101523324D01*
X84370350Y-101692646D01*
X83964700Y-101860257D01*
X83560676Y-102263577D01*
X83341750Y-102790809D01*
X83341252Y-103361687D01*
X83559257Y-103889300D01*
X83962577Y-104293324D01*
X84370350Y-104462646D01*
X83964700Y-104630257D01*
X83560676Y-105033577D01*
X83341750Y-105560809D01*
X83341252Y-106131687D01*
X83559257Y-106659300D01*
X83962577Y-107063324D01*
X84370350Y-107232646D01*
X83964700Y-107400257D01*
X83560676Y-107803577D01*
X83341750Y-108330809D01*
X83341252Y-108901687D01*
X83559257Y-109429300D01*
X83962577Y-109833324D01*
X84354560Y-109996090D01*
X84022495Y-110133636D01*
X83948361Y-110379755D01*
X84776500Y-111207895D01*
X85604639Y-110379755D01*
X85530505Y-110133636D01*
X85174562Y-110005696D01*
X85588300Y-109834743D01*
X85992324Y-109431423D01*
X86211250Y-108904191D01*
X86211748Y-108333313D01*
X85993743Y-107805700D01*
X85590423Y-107401676D01*
X85182650Y-107232354D01*
X85588300Y-107064743D01*
X85992324Y-106661423D01*
X86211250Y-106134191D01*
X86211748Y-105563313D01*
X85993743Y-105035700D01*
X85590423Y-104631676D01*
X85182650Y-104462354D01*
X85588300Y-104294743D01*
X85992324Y-103891423D01*
X86211250Y-103364191D01*
X86211748Y-102793313D01*
X85993743Y-102265700D01*
X85590423Y-101861676D01*
X85182650Y-101692354D01*
X85588300Y-101524743D01*
X85992324Y-101121423D01*
X86211250Y-100594191D01*
X86211748Y-100023313D01*
X85993743Y-99495700D01*
X85590423Y-99091676D01*
X85063191Y-98872750D01*
X84492313Y-98872252D01*
X83964700Y-99090257D01*
X83560676Y-99493577D01*
X83341750Y-100020809D01*
X83341252Y-100591687D01*
X75626500Y-100591687D01*
X75626500Y-98122500D01*
X86169060Y-98122500D01*
X86169060Y-99722500D01*
X86218343Y-99970265D01*
X86358691Y-100180309D01*
X86568735Y-100320657D01*
X86816500Y-100369940D01*
X87059587Y-100369940D01*
X86804700Y-100475257D01*
X86400676Y-100878577D01*
X86181750Y-101405809D01*
X86181252Y-101976687D01*
X86399257Y-102504300D01*
X86802577Y-102908324D01*
X87210350Y-103077646D01*
X86804700Y-103245257D01*
X86400676Y-103648577D01*
X86181750Y-104175809D01*
X86181252Y-104746687D01*
X86399257Y-105274300D01*
X86802577Y-105678324D01*
X87210350Y-105847646D01*
X86804700Y-106015257D01*
X86400676Y-106418577D01*
X86181750Y-106945809D01*
X86181252Y-107516687D01*
X86399257Y-108044300D01*
X86802577Y-108448324D01*
X87210350Y-108617646D01*
X86804700Y-108785257D01*
X86400676Y-109188577D01*
X86181750Y-109715809D01*
X86181252Y-110286687D01*
X86399257Y-110814300D01*
X86802577Y-111218324D01*
X87210350Y-111387646D01*
X86804700Y-111555257D01*
X86400676Y-111958577D01*
X86181750Y-112485809D01*
X86181252Y-113056687D01*
X86399257Y-113584300D01*
X86802577Y-113988324D01*
X87210350Y-114157646D01*
X86804700Y-114325257D01*
X86400676Y-114728577D01*
X86181750Y-115255809D01*
X86181252Y-115826687D01*
X86399257Y-116354300D01*
X86802577Y-116758324D01*
X87210350Y-116927646D01*
X86804700Y-117095257D01*
X86400676Y-117498577D01*
X86181750Y-118025809D01*
X86181252Y-118596687D01*
X86399257Y-119124300D01*
X86802577Y-119528324D01*
X87210350Y-119697646D01*
X86804700Y-119865257D01*
X86400676Y-120268577D01*
X86181750Y-120795809D01*
X86181252Y-121366687D01*
X86399257Y-121894300D01*
X86802577Y-122298324D01*
X87210350Y-122467646D01*
X86804700Y-122635257D01*
X86400676Y-123038577D01*
X86181750Y-123565809D01*
X86181252Y-124136687D01*
X86399257Y-124664300D01*
X86802577Y-125068324D01*
X87210350Y-125237646D01*
X86804700Y-125405257D01*
X86400676Y-125808577D01*
X86181750Y-126335809D01*
X86181252Y-126906687D01*
X86399257Y-127434300D01*
X86802577Y-127838324D01*
X87210350Y-128007646D01*
X86804700Y-128175257D01*
X86400676Y-128578577D01*
X86181750Y-129105809D01*
X86181252Y-129676687D01*
X86399257Y-130204300D01*
X86802577Y-130608324D01*
X87210350Y-130777646D01*
X86804700Y-130945257D01*
X86400676Y-131348577D01*
X86181750Y-131875809D01*
X86181252Y-132446687D01*
X86399257Y-132974300D01*
X86802577Y-133378324D01*
X87329809Y-133597250D01*
X87900687Y-133597748D01*
X87916556Y-133591191D01*
X95048500Y-133591191D01*
X95048500Y-134281750D01*
X95207250Y-134440500D01*
X96406500Y-134440500D01*
X96406500Y-133241250D01*
X96660500Y-133241250D01*
X96660500Y-134440500D01*
X96680500Y-134440500D01*
X96680500Y-134694500D01*
X96660500Y-134694500D01*
X96660500Y-135893750D01*
X96819250Y-136052500D01*
X97509810Y-136052500D01*
X97743199Y-135955827D01*
X97921827Y-135777198D01*
X97994097Y-135602723D01*
X98023446Y-135646647D01*
X98505215Y-135968554D01*
X99073500Y-136081593D01*
X99641785Y-135968554D01*
X100123554Y-135646647D01*
X100343500Y-135317474D01*
X100563446Y-135646647D01*
X101045215Y-135968554D01*
X101613500Y-136081593D01*
X102181785Y-135968554D01*
X102663554Y-135646647D01*
X102985461Y-135164878D01*
X103098500Y-134596593D01*
X103098500Y-134538407D01*
X102985461Y-133970122D01*
X102663554Y-133488353D01*
X102181785Y-133166446D01*
X101613500Y-133053407D01*
X101045215Y-133166446D01*
X100563446Y-133488353D01*
X100343500Y-133817526D01*
X100123554Y-133488353D01*
X99641785Y-133166446D01*
X99073500Y-133053407D01*
X98505215Y-133166446D01*
X98023446Y-133488353D01*
X97994097Y-133532277D01*
X97921827Y-133357802D01*
X97743199Y-133179173D01*
X97509810Y-133082500D01*
X96819250Y-133082500D01*
X96660500Y-133241250D01*
X96406500Y-133241250D01*
X96247750Y-133082500D01*
X95557190Y-133082500D01*
X95323801Y-133179173D01*
X95145173Y-133357802D01*
X95048500Y-133591191D01*
X87916556Y-133591191D01*
X88428300Y-133379743D01*
X88832324Y-132976423D01*
X88854715Y-132922500D01*
X90681500Y-132922500D01*
X90972339Y-132864648D01*
X91218901Y-132699901D01*
X92240552Y-131678250D01*
X95048500Y-131678250D01*
X95048500Y-132368809D01*
X95145173Y-132602198D01*
X95323801Y-132780827D01*
X95557190Y-132877500D01*
X96247750Y-132877500D01*
X96406500Y-132718750D01*
X96406500Y-131519500D01*
X95207250Y-131519500D01*
X95048500Y-131678250D01*
X92240552Y-131678250D01*
X93502611Y-130416191D01*
X95048500Y-130416191D01*
X95048500Y-131106750D01*
X95207250Y-131265500D01*
X96406500Y-131265500D01*
X96406500Y-130066250D01*
X96660500Y-130066250D01*
X96660500Y-131265500D01*
X96680500Y-131265500D01*
X96680500Y-131519500D01*
X96660500Y-131519500D01*
X96660500Y-132718750D01*
X96819250Y-132877500D01*
X97509810Y-132877500D01*
X97743199Y-132780827D01*
X97921827Y-132602198D01*
X97994097Y-132427723D01*
X98023446Y-132471647D01*
X98505215Y-132793554D01*
X99073500Y-132906593D01*
X99641785Y-132793554D01*
X100123554Y-132471647D01*
X100343500Y-132142474D01*
X100563446Y-132471647D01*
X101045215Y-132793554D01*
X101613500Y-132906593D01*
X102181785Y-132793554D01*
X102663554Y-132471647D01*
X102985461Y-131989878D01*
X103098500Y-131421593D01*
X103098500Y-131363407D01*
X102985461Y-130795122D01*
X102663554Y-130313353D01*
X102181785Y-129991446D01*
X101613500Y-129878407D01*
X101045215Y-129991446D01*
X100563446Y-130313353D01*
X100343500Y-130642526D01*
X100123554Y-130313353D01*
X99641785Y-129991446D01*
X99073500Y-129878407D01*
X98505215Y-129991446D01*
X98023446Y-130313353D01*
X97994097Y-130357277D01*
X97921827Y-130182802D01*
X97743199Y-130004173D01*
X97509810Y-129907500D01*
X96819250Y-129907500D01*
X96660500Y-130066250D01*
X96406500Y-130066250D01*
X96247750Y-129907500D01*
X95557190Y-129907500D01*
X95323801Y-130004173D01*
X95145173Y-130182802D01*
X95048500Y-130416191D01*
X93502611Y-130416191D01*
X97692401Y-126226402D01*
X97857147Y-125979840D01*
X97857148Y-125979839D01*
X97915000Y-125689000D01*
X97915000Y-117749802D01*
X99374802Y-116290000D01*
X109852046Y-116290000D01*
X110045853Y-116580054D01*
X110375026Y-116800000D01*
X110045853Y-117019946D01*
X109723946Y-117501715D01*
X109610907Y-118070000D01*
X109723946Y-118638285D01*
X110045853Y-119120054D01*
X110375026Y-119340000D01*
X110045853Y-119559946D01*
X109723946Y-120041715D01*
X109610907Y-120610000D01*
X109723946Y-121178285D01*
X110045853Y-121660054D01*
X110375026Y-121880000D01*
X110045853Y-122099946D01*
X109723946Y-122581715D01*
X109610907Y-123150000D01*
X109723946Y-123718285D01*
X110045853Y-124200054D01*
X110375026Y-124420000D01*
X110045853Y-124639946D01*
X109723946Y-125121715D01*
X109610907Y-125690000D01*
X109723946Y-126258285D01*
X110045853Y-126740054D01*
X110375026Y-126960000D01*
X110045853Y-127179946D01*
X109851746Y-127470448D01*
X109563160Y-127527852D01*
X109316599Y-127692599D01*
X103589099Y-133420099D01*
X103424352Y-133666661D01*
X103366500Y-133957500D01*
X103366500Y-139357698D01*
X101271698Y-141452500D01*
X100319454Y-141452500D01*
X100125647Y-141162446D01*
X99643878Y-140840539D01*
X99075593Y-140727500D01*
X99017407Y-140727500D01*
X98449122Y-140840539D01*
X97967353Y-141162446D01*
X97963403Y-141168358D01*
X97894827Y-141002801D01*
X97716198Y-140824173D01*
X97482809Y-140727500D01*
X96792250Y-140727500D01*
X96633500Y-140886250D01*
X96633500Y-142085500D01*
X96653500Y-142085500D01*
X96653500Y-142339500D01*
X96633500Y-142339500D01*
X96633500Y-144625500D01*
X96653500Y-144625500D01*
X96653500Y-144879500D01*
X96633500Y-144879500D01*
X96633500Y-147165500D01*
X96653500Y-147165500D01*
X96653500Y-147419500D01*
X96633500Y-147419500D01*
X96633500Y-149705500D01*
X96653500Y-149705500D01*
X96653500Y-149959500D01*
X96633500Y-149959500D01*
X96633500Y-152245500D01*
X96653500Y-152245500D01*
X96653500Y-152499500D01*
X96633500Y-152499500D01*
X96633500Y-154785500D01*
X96653500Y-154785500D01*
X96653500Y-155039500D01*
X96633500Y-155039500D01*
X96633500Y-157325500D01*
X96653500Y-157325500D01*
X96653500Y-157579500D01*
X96633500Y-157579500D01*
X96633500Y-159865500D01*
X96653500Y-159865500D01*
X96653500Y-160119500D01*
X96633500Y-160119500D01*
X96633500Y-161313319D01*
X96863392Y-161433986D01*
X97387858Y-161187683D01*
X97778145Y-160759424D01*
X97778155Y-160759399D01*
X97967353Y-161042554D01*
X98449122Y-161364461D01*
X99017407Y-161477500D01*
X99075593Y-161477500D01*
X99643878Y-161364461D01*
X100125647Y-161042554D01*
X100447554Y-160560785D01*
X100560593Y-159992500D01*
X100447554Y-159424215D01*
X100125647Y-158942446D01*
X99796474Y-158722500D01*
X100125647Y-158502554D01*
X100319454Y-158212500D01*
X106031500Y-158212500D01*
X106322339Y-158154648D01*
X106568901Y-157989901D01*
X108473901Y-156084901D01*
X108638648Y-155838339D01*
X108696500Y-155547500D01*
X108696500Y-145067302D01*
X109533802Y-144230000D01*
X109852046Y-144230000D01*
X110045853Y-144520054D01*
X110375026Y-144740000D01*
X110045853Y-144959946D01*
X109723946Y-145441715D01*
X109610907Y-146010000D01*
X109723946Y-146578285D01*
X110045853Y-147060054D01*
X110527622Y-147381961D01*
X111095907Y-147495000D01*
X111154093Y-147495000D01*
X111722378Y-147381961D01*
X112204147Y-147060054D01*
X112393345Y-146776899D01*
X112393355Y-146776924D01*
X112783642Y-147205183D01*
X113308108Y-147451486D01*
X113538000Y-147330819D01*
X113538000Y-146137000D01*
X113792000Y-146137000D01*
X113792000Y-147330819D01*
X114021892Y-147451486D01*
X114546358Y-147205183D01*
X114936645Y-146776924D01*
X115106476Y-146366890D01*
X114985155Y-146137000D01*
X113792000Y-146137000D01*
X113538000Y-146137000D01*
X113518000Y-146137000D01*
X113518000Y-145883000D01*
X113538000Y-145883000D01*
X113538000Y-143597000D01*
X113792000Y-143597000D01*
X113792000Y-145883000D01*
X114985155Y-145883000D01*
X115106476Y-145653110D01*
X114936645Y-145243076D01*
X114546358Y-144814817D01*
X114387046Y-144740000D01*
X114546358Y-144665183D01*
X114936645Y-144236924D01*
X115106476Y-143826890D01*
X114985155Y-143597000D01*
X113792000Y-143597000D01*
X113538000Y-143597000D01*
X113518000Y-143597000D01*
X113518000Y-143343000D01*
X113538000Y-143343000D01*
X113538000Y-141057000D01*
X113792000Y-141057000D01*
X113792000Y-143343000D01*
X114985155Y-143343000D01*
X115106476Y-143113110D01*
X114936645Y-142703076D01*
X114546358Y-142274817D01*
X114387046Y-142200000D01*
X114546358Y-142125183D01*
X114936645Y-141696924D01*
X115106476Y-141286890D01*
X114985155Y-141057000D01*
X113792000Y-141057000D01*
X113538000Y-141057000D01*
X113518000Y-141057000D01*
X113518000Y-140803000D01*
X113538000Y-140803000D01*
X113538000Y-138517000D01*
X113792000Y-138517000D01*
X113792000Y-140803000D01*
X114985155Y-140803000D01*
X115106476Y-140573110D01*
X114936645Y-140163076D01*
X114546358Y-139734817D01*
X114387046Y-139660000D01*
X114546358Y-139585183D01*
X114936645Y-139156924D01*
X115106476Y-138746890D01*
X114985155Y-138517000D01*
X113792000Y-138517000D01*
X113538000Y-138517000D01*
X113518000Y-138517000D01*
X113518000Y-138263000D01*
X113538000Y-138263000D01*
X113538000Y-135977000D01*
X113792000Y-135977000D01*
X113792000Y-138263000D01*
X114985155Y-138263000D01*
X115106476Y-138033110D01*
X114936645Y-137623076D01*
X114546358Y-137194817D01*
X114387046Y-137120000D01*
X114546358Y-137045183D01*
X114936645Y-136616924D01*
X115106476Y-136206890D01*
X114985155Y-135977000D01*
X113792000Y-135977000D01*
X113538000Y-135977000D01*
X113518000Y-135977000D01*
X113518000Y-135723000D01*
X113538000Y-135723000D01*
X113538000Y-133437000D01*
X113792000Y-133437000D01*
X113792000Y-135723000D01*
X114985155Y-135723000D01*
X115106476Y-135493110D01*
X114936645Y-135083076D01*
X114546358Y-134654817D01*
X114387046Y-134580000D01*
X114546358Y-134505183D01*
X114936645Y-134076924D01*
X115106476Y-133666890D01*
X114985155Y-133437000D01*
X113792000Y-133437000D01*
X113538000Y-133437000D01*
X113518000Y-133437000D01*
X113518000Y-133183000D01*
X113538000Y-133183000D01*
X113538000Y-130897000D01*
X113792000Y-130897000D01*
X113792000Y-133183000D01*
X114985155Y-133183000D01*
X115106476Y-132953110D01*
X114936645Y-132543076D01*
X114546358Y-132114817D01*
X114387046Y-132040000D01*
X114546358Y-131965183D01*
X114936645Y-131536924D01*
X115106476Y-131126890D01*
X114985155Y-130897000D01*
X113792000Y-130897000D01*
X113538000Y-130897000D01*
X113518000Y-130897000D01*
X113518000Y-130643000D01*
X113538000Y-130643000D01*
X113538000Y-128357000D01*
X113792000Y-128357000D01*
X113792000Y-130643000D01*
X114985155Y-130643000D01*
X115106476Y-130413110D01*
X114936645Y-130003076D01*
X114546358Y-129574817D01*
X114387046Y-129500000D01*
X114546358Y-129425183D01*
X114936645Y-128996924D01*
X115106476Y-128586890D01*
X114985155Y-128357000D01*
X113792000Y-128357000D01*
X113538000Y-128357000D01*
X113518000Y-128357000D01*
X113518000Y-128103000D01*
X113538000Y-128103000D01*
X113538000Y-125817000D01*
X113792000Y-125817000D01*
X113792000Y-128103000D01*
X114985155Y-128103000D01*
X115106476Y-127873110D01*
X114936645Y-127463076D01*
X114546358Y-127034817D01*
X114387046Y-126960000D01*
X114546358Y-126885183D01*
X114936645Y-126456924D01*
X115106476Y-126046890D01*
X114985155Y-125817000D01*
X113792000Y-125817000D01*
X113538000Y-125817000D01*
X113518000Y-125817000D01*
X113518000Y-125563000D01*
X113538000Y-125563000D01*
X113538000Y-123277000D01*
X113792000Y-123277000D01*
X113792000Y-125563000D01*
X114985155Y-125563000D01*
X115106476Y-125333110D01*
X114936645Y-124923076D01*
X114546358Y-124494817D01*
X114387046Y-124420000D01*
X114546358Y-124345183D01*
X114936645Y-123916924D01*
X115106476Y-123506890D01*
X114985155Y-123277000D01*
X113792000Y-123277000D01*
X113538000Y-123277000D01*
X113518000Y-123277000D01*
X113518000Y-123023000D01*
X113538000Y-123023000D01*
X113538000Y-120737000D01*
X113792000Y-120737000D01*
X113792000Y-123023000D01*
X114985155Y-123023000D01*
X115106476Y-122793110D01*
X114936645Y-122383076D01*
X114546358Y-121954817D01*
X114387046Y-121880000D01*
X114546358Y-121805183D01*
X114936645Y-121376924D01*
X115106476Y-120966890D01*
X114985155Y-120737000D01*
X113792000Y-120737000D01*
X113538000Y-120737000D01*
X113518000Y-120737000D01*
X113518000Y-120483000D01*
X113538000Y-120483000D01*
X113538000Y-118197000D01*
X113792000Y-118197000D01*
X113792000Y-120483000D01*
X114985155Y-120483000D01*
X115106476Y-120253110D01*
X114936645Y-119843076D01*
X114546358Y-119414817D01*
X114387046Y-119340000D01*
X114546358Y-119265183D01*
X114936645Y-118836924D01*
X115106476Y-118426890D01*
X114985155Y-118197000D01*
X113792000Y-118197000D01*
X113538000Y-118197000D01*
X113518000Y-118197000D01*
X113518000Y-117943000D01*
X113538000Y-117943000D01*
X113538000Y-115657000D01*
X113792000Y-115657000D01*
X113792000Y-117943000D01*
X114985155Y-117943000D01*
X115106476Y-117713110D01*
X114936645Y-117303076D01*
X114546358Y-116874817D01*
X114387046Y-116800000D01*
X114546358Y-116725183D01*
X114936645Y-116296924D01*
X115106476Y-115886890D01*
X114985155Y-115657000D01*
X113792000Y-115657000D01*
X113538000Y-115657000D01*
X113518000Y-115657000D01*
X113518000Y-115403000D01*
X113538000Y-115403000D01*
X113538000Y-113117000D01*
X113792000Y-113117000D01*
X113792000Y-115403000D01*
X114985155Y-115403000D01*
X115106476Y-115173110D01*
X114936645Y-114763076D01*
X114546358Y-114334817D01*
X114387046Y-114260000D01*
X114546358Y-114185183D01*
X114936645Y-113756924D01*
X115106476Y-113346890D01*
X114985155Y-113117000D01*
X113792000Y-113117000D01*
X113538000Y-113117000D01*
X113518000Y-113117000D01*
X113518000Y-112863000D01*
X113538000Y-112863000D01*
X113538000Y-110577000D01*
X113792000Y-110577000D01*
X113792000Y-112863000D01*
X114985155Y-112863000D01*
X115106476Y-112633110D01*
X114936645Y-112223076D01*
X114546358Y-111794817D01*
X114387046Y-111720000D01*
X114546358Y-111645183D01*
X114936645Y-111216924D01*
X115106476Y-110806890D01*
X114985155Y-110577000D01*
X113792000Y-110577000D01*
X113538000Y-110577000D01*
X113518000Y-110577000D01*
X113518000Y-110323000D01*
X113538000Y-110323000D01*
X113538000Y-108037000D01*
X113792000Y-108037000D01*
X113792000Y-110323000D01*
X114985155Y-110323000D01*
X115106476Y-110093110D01*
X114936645Y-109683076D01*
X114546358Y-109254817D01*
X114387046Y-109180000D01*
X114546358Y-109105183D01*
X114936645Y-108676924D01*
X115106476Y-108266890D01*
X114985155Y-108037000D01*
X113792000Y-108037000D01*
X113538000Y-108037000D01*
X113518000Y-108037000D01*
X113518000Y-107783000D01*
X113538000Y-107783000D01*
X113538000Y-105497000D01*
X113792000Y-105497000D01*
X113792000Y-107783000D01*
X114985155Y-107783000D01*
X115106476Y-107553110D01*
X114936645Y-107143076D01*
X114546358Y-106714817D01*
X114387046Y-106640000D01*
X114546358Y-106565183D01*
X114936645Y-106136924D01*
X115106476Y-105726890D01*
X114985155Y-105497000D01*
X113792000Y-105497000D01*
X113538000Y-105497000D01*
X113518000Y-105497000D01*
X113518000Y-105243000D01*
X113538000Y-105243000D01*
X113538000Y-102957000D01*
X113792000Y-102957000D01*
X113792000Y-105243000D01*
X114985155Y-105243000D01*
X115106476Y-105013110D01*
X114936645Y-104603076D01*
X114546358Y-104174817D01*
X114387046Y-104100000D01*
X114546358Y-104025183D01*
X114936645Y-103596924D01*
X115106476Y-103186890D01*
X114985155Y-102957000D01*
X113792000Y-102957000D01*
X113538000Y-102957000D01*
X113518000Y-102957000D01*
X113518000Y-102703000D01*
X113538000Y-102703000D01*
X113538000Y-100417000D01*
X113792000Y-100417000D01*
X113792000Y-102703000D01*
X114985155Y-102703000D01*
X115106476Y-102473110D01*
X114936645Y-102063076D01*
X114546358Y-101634817D01*
X114387046Y-101560000D01*
X114546358Y-101485183D01*
X114936645Y-101056924D01*
X115106476Y-100646890D01*
X114985155Y-100417000D01*
X113792000Y-100417000D01*
X113538000Y-100417000D01*
X113518000Y-100417000D01*
X113518000Y-100163000D01*
X113538000Y-100163000D01*
X113538000Y-97877000D01*
X113792000Y-97877000D01*
X113792000Y-100163000D01*
X114985155Y-100163000D01*
X115106476Y-99933110D01*
X114936645Y-99523076D01*
X114546358Y-99094817D01*
X114387046Y-99020000D01*
X114546358Y-98945183D01*
X114936645Y-98516924D01*
X115106476Y-98106890D01*
X114985155Y-97877000D01*
X113792000Y-97877000D01*
X113538000Y-97877000D01*
X113518000Y-97877000D01*
X113518000Y-97623000D01*
X113538000Y-97623000D01*
X113538000Y-95337000D01*
X113792000Y-95337000D01*
X113792000Y-97623000D01*
X114985155Y-97623000D01*
X115106476Y-97393110D01*
X114936645Y-96983076D01*
X114546358Y-96554817D01*
X114387046Y-96480000D01*
X114546358Y-96405183D01*
X114936645Y-95976924D01*
X115106476Y-95566890D01*
X114985155Y-95337000D01*
X113792000Y-95337000D01*
X113538000Y-95337000D01*
X113518000Y-95337000D01*
X113518000Y-95083000D01*
X113538000Y-95083000D01*
X113538000Y-92797000D01*
X113792000Y-92797000D01*
X113792000Y-95083000D01*
X114985155Y-95083000D01*
X115106476Y-94853110D01*
X114936645Y-94443076D01*
X114546358Y-94014817D01*
X114387046Y-93940000D01*
X114546358Y-93865183D01*
X114936645Y-93436924D01*
X115106476Y-93026890D01*
X114985155Y-92797000D01*
X113792000Y-92797000D01*
X113538000Y-92797000D01*
X113518000Y-92797000D01*
X113518000Y-92543000D01*
X113538000Y-92543000D01*
X113538000Y-90257000D01*
X113792000Y-90257000D01*
X113792000Y-92543000D01*
X114985155Y-92543000D01*
X115106476Y-92313110D01*
X114936645Y-91903076D01*
X114546358Y-91474817D01*
X114387046Y-91400000D01*
X114546358Y-91325183D01*
X114936645Y-90896924D01*
X115106476Y-90486890D01*
X114985155Y-90257000D01*
X113792000Y-90257000D01*
X113538000Y-90257000D01*
X113518000Y-90257000D01*
X113518000Y-90003000D01*
X113538000Y-90003000D01*
X113538000Y-87717000D01*
X113792000Y-87717000D01*
X113792000Y-90003000D01*
X114985155Y-90003000D01*
X115106476Y-89773110D01*
X114936645Y-89363076D01*
X114546358Y-88934817D01*
X114387046Y-88860000D01*
X114546358Y-88785183D01*
X114936645Y-88356924D01*
X115106476Y-87946890D01*
X114985155Y-87717000D01*
X113792000Y-87717000D01*
X113538000Y-87717000D01*
X113518000Y-87717000D01*
X113518000Y-87463000D01*
X113538000Y-87463000D01*
X113538000Y-85177000D01*
X113792000Y-85177000D01*
X113792000Y-87463000D01*
X114985155Y-87463000D01*
X115106476Y-87233110D01*
X114936645Y-86823076D01*
X114546358Y-86394817D01*
X114387046Y-86320000D01*
X114546358Y-86245183D01*
X114936645Y-85816924D01*
X115106476Y-85406890D01*
X114985155Y-85177000D01*
X113792000Y-85177000D01*
X113538000Y-85177000D01*
X113518000Y-85177000D01*
X113518000Y-84923000D01*
X113538000Y-84923000D01*
X113538000Y-83729181D01*
X113792000Y-83729181D01*
X113792000Y-84923000D01*
X114985155Y-84923000D01*
X115106476Y-84693110D01*
X114936645Y-84283076D01*
X114546358Y-83854817D01*
X114021892Y-83608514D01*
X113792000Y-83729181D01*
X113538000Y-83729181D01*
X113308108Y-83608514D01*
X112783642Y-83854817D01*
X112594961Y-84061855D01*
X112573157Y-83952235D01*
X112432809Y-83742191D01*
X112222765Y-83601843D01*
X111975000Y-83552560D01*
X110275000Y-83552560D01*
X110027235Y-83601843D01*
X109817191Y-83742191D01*
X109676843Y-83952235D01*
X109627560Y-84200000D01*
X109627560Y-84290000D01*
X100330000Y-84290000D01*
X100039161Y-84347852D01*
X99792599Y-84512599D01*
X87079099Y-97226099D01*
X86914352Y-97472661D01*
X86913875Y-97475060D01*
X86816500Y-97475060D01*
X86568735Y-97524343D01*
X86358691Y-97664691D01*
X86218343Y-97874735D01*
X86169060Y-98122500D01*
X75626500Y-98122500D01*
X75626500Y-93867522D01*
X84501084Y-93867522D01*
X84721853Y-94238243D01*
X85693512Y-94631619D01*
X86741747Y-94623213D01*
X87671147Y-94238243D01*
X87891916Y-93867522D01*
X86196500Y-92172105D01*
X84501084Y-93867522D01*
X75626500Y-93867522D01*
X75626500Y-91489512D01*
X83557381Y-91489512D01*
X83565787Y-92537747D01*
X83950757Y-93467147D01*
X84321478Y-93687916D01*
X86016895Y-91992500D01*
X86376105Y-91992500D01*
X88071522Y-93687916D01*
X88442243Y-93467147D01*
X88835619Y-92495488D01*
X88827213Y-91447253D01*
X88442243Y-90517853D01*
X88071522Y-90297084D01*
X86376105Y-91992500D01*
X86016895Y-91992500D01*
X84321478Y-90297084D01*
X83950757Y-90517853D01*
X83557381Y-91489512D01*
X75626500Y-91489512D01*
X75626500Y-90117478D01*
X84501084Y-90117478D01*
X86196500Y-91812895D01*
X87891916Y-90117478D01*
X87671147Y-89746757D01*
X86699488Y-89353381D01*
X85651253Y-89361787D01*
X84721853Y-89746757D01*
X84501084Y-90117478D01*
X75626500Y-90117478D01*
X75626500Y-69500291D01*
X75989187Y-70378061D01*
X76896164Y-71286623D01*
X78081794Y-71778939D01*
X79365574Y-71780059D01*
X80552061Y-71289813D01*
X81460623Y-70382836D01*
X81952939Y-69197206D01*
X81954059Y-67913426D01*
X81463813Y-66726939D01*
X80990202Y-66252500D01*
X112022862Y-66252500D01*
X111552377Y-66722164D01*
M02*
