G04 #@! TF.FileFunction,Copper,L1,Top,Signal*
%FSLAX46Y46*%
G04 Gerber Fmt 4.6, Leading zero omitted, Abs format (unit mm)*
G04 Created by KiCad (PCBNEW 4.0.7) date Mon Nov 20 01:04:48 2017*
%MOMM*%
%LPD*%
G01*
G04 APERTURE LIST*
%ADD10C,0.100000*%
%ADD11R,3.480000X1.846667*%
%ADD12R,1.700000X1.700000*%
%ADD13O,1.700000X1.700000*%
%ADD14C,0.750000*%
%ADD15C,0.250000*%
%ADD16C,0.254000*%
G04 APERTURE END LIST*
D10*
D11*
X76980000Y-97795000D03*
X76980000Y-100565000D03*
X76980000Y-103335000D03*
X76980000Y-106105000D03*
X76980000Y-108875000D03*
X76980000Y-111645000D03*
X76980000Y-114415000D03*
X76980000Y-117185000D03*
X76980000Y-119955000D03*
X76980000Y-122725000D03*
X76980000Y-125495000D03*
X76980000Y-128265000D03*
D12*
X100965000Y-82550000D03*
D13*
X103505000Y-82550000D03*
X100965000Y-85090000D03*
X103505000Y-85090000D03*
X100965000Y-87630000D03*
X103505000Y-87630000D03*
X100965000Y-90170000D03*
X103505000Y-90170000D03*
X100965000Y-92710000D03*
X103505000Y-92710000D03*
X100965000Y-95250000D03*
X103505000Y-95250000D03*
X100965000Y-97790000D03*
X103505000Y-97790000D03*
X100965000Y-100330000D03*
X103505000Y-100330000D03*
X100965000Y-102870000D03*
X103505000Y-102870000D03*
X100965000Y-105410000D03*
X103505000Y-105410000D03*
X100965000Y-107950000D03*
X103505000Y-107950000D03*
X100965000Y-110490000D03*
X103505000Y-110490000D03*
X100965000Y-113030000D03*
X103505000Y-113030000D03*
X100965000Y-115570000D03*
X103505000Y-115570000D03*
X100965000Y-118110000D03*
X103505000Y-118110000D03*
X100965000Y-120650000D03*
X103505000Y-120650000D03*
X100965000Y-123190000D03*
X103505000Y-123190000D03*
X100965000Y-125730000D03*
X103505000Y-125730000D03*
X100965000Y-128270000D03*
X103505000Y-128270000D03*
X100965000Y-130810000D03*
X103505000Y-130810000D03*
X100965000Y-133350000D03*
X103505000Y-133350000D03*
X100965000Y-135890000D03*
X103505000Y-135890000D03*
X100965000Y-138430000D03*
X103505000Y-138430000D03*
X100965000Y-140970000D03*
X103505000Y-140970000D03*
X100965000Y-143510000D03*
X103505000Y-143510000D03*
D12*
X81280000Y-132715000D03*
D13*
X83820000Y-132715000D03*
X86360000Y-132715000D03*
D12*
X92075000Y-125730000D03*
D13*
X94615000Y-125730000D03*
X92075000Y-128270000D03*
X94615000Y-128270000D03*
X92075000Y-130810000D03*
X94615000Y-130810000D03*
X92075000Y-133350000D03*
X94615000Y-133350000D03*
X92075000Y-135890000D03*
X94615000Y-135890000D03*
X92075000Y-138430000D03*
X94615000Y-138430000D03*
X92075000Y-140970000D03*
X94615000Y-140970000D03*
X92075000Y-143510000D03*
X94615000Y-143510000D03*
D12*
X81280000Y-135890000D03*
D13*
X83820000Y-135890000D03*
X86360000Y-135890000D03*
D14*
X76980000Y-117185000D02*
X78088335Y-117185000D01*
D15*
X77470000Y-97795000D02*
X80015000Y-97795000D01*
X80015000Y-97795000D02*
X83820000Y-101600000D01*
X83820000Y-101600000D02*
X83820000Y-114300000D01*
X83820000Y-114300000D02*
X85090000Y-115570000D01*
X85090000Y-115570000D02*
X102229999Y-115570000D01*
X102229999Y-115570000D02*
X100965000Y-115570000D01*
X88900000Y-118110000D02*
X100965000Y-118110000D01*
X88900000Y-118110000D02*
X84455000Y-118110000D01*
X79610000Y-100565000D02*
X77470000Y-100565000D01*
X83185000Y-104140000D02*
X79610000Y-100565000D01*
X83185000Y-116840000D02*
X83185000Y-104140000D01*
X84455000Y-118110000D02*
X83185000Y-116840000D01*
X98425000Y-120015000D02*
X99060000Y-120650000D01*
X99060000Y-120650000D02*
X100965000Y-120650000D01*
X83185000Y-120015000D02*
X98425000Y-120015000D01*
X77470000Y-103335000D02*
X79840000Y-103335000D01*
X79840000Y-103335000D02*
X82550000Y-106045000D01*
X82550000Y-106045000D02*
X82550000Y-119380000D01*
X82550000Y-119380000D02*
X83185000Y-120015000D01*
X100330000Y-120015000D02*
X100965000Y-120650000D01*
X77470000Y-106105000D02*
X79435000Y-106105000D01*
X79435000Y-106105000D02*
X81915000Y-108585000D01*
X81915000Y-108585000D02*
X81915000Y-120015000D01*
X81915000Y-120015000D02*
X85090000Y-123190000D01*
X85090000Y-123190000D02*
X86995000Y-123190000D01*
X86995000Y-123190000D02*
X88900000Y-121285000D01*
X88900000Y-121285000D02*
X97790000Y-121285000D01*
X97790000Y-121285000D02*
X99695000Y-123190000D01*
X99695000Y-123190000D02*
X100965000Y-123190000D01*
D14*
X86360000Y-132715000D02*
X86360000Y-135890000D01*
X86360000Y-131445000D02*
X86360000Y-132715000D01*
X100965000Y-143510000D02*
X99060000Y-143510000D01*
X88900000Y-128905000D02*
X86360000Y-131445000D01*
X99060000Y-143510000D02*
X97790000Y-142240000D01*
X97790000Y-142240000D02*
X97790000Y-124245062D01*
X97790000Y-124245062D02*
X96264948Y-122720010D01*
X96264948Y-122720010D02*
X90425052Y-122720010D01*
X88900000Y-124245062D02*
X88900000Y-128905000D01*
X90425052Y-122720010D02*
X88900000Y-124245062D01*
X94615000Y-143510000D02*
X95885000Y-143510000D01*
X95885000Y-143510000D02*
X96520000Y-142875000D01*
X88265000Y-138430000D02*
X84455000Y-138430000D01*
X96520000Y-142875000D02*
X96520000Y-124460000D01*
X96520000Y-124460000D02*
X95885000Y-123825000D01*
X95885000Y-123825000D02*
X90805000Y-123825000D01*
X83820000Y-137795000D02*
X83820000Y-135890000D01*
X90805000Y-123825000D02*
X90170000Y-124460000D01*
X90170000Y-124460000D02*
X90170000Y-136525000D01*
X90170000Y-136525000D02*
X88265000Y-138430000D01*
X84455000Y-138430000D02*
X83820000Y-137795000D01*
X76980000Y-122725000D02*
X76980000Y-119955000D01*
X76980000Y-125495000D02*
X76980000Y-122725000D01*
X76980000Y-128265000D02*
X76980000Y-125495000D01*
X83820000Y-132715000D02*
X83820000Y-131512919D01*
X83820000Y-131512919D02*
X80572081Y-128265000D01*
X80572081Y-128265000D02*
X79470000Y-128265000D01*
X79470000Y-128265000D02*
X76980000Y-128265000D01*
D16*
G36*
X106206500Y-146832500D02*
X75626500Y-146832500D01*
X75626500Y-143669074D01*
X76752441Y-143669074D01*
X77242687Y-144855561D01*
X78149664Y-145764123D01*
X79335294Y-146256439D01*
X80619074Y-146257559D01*
X81805561Y-145767313D01*
X82714123Y-144860336D01*
X83126637Y-143866890D01*
X90633524Y-143866890D01*
X90803355Y-144276924D01*
X91193642Y-144705183D01*
X91718108Y-144951486D01*
X91948000Y-144830819D01*
X91948000Y-143637000D01*
X90754845Y-143637000D01*
X90633524Y-143866890D01*
X83126637Y-143866890D01*
X83206439Y-143674706D01*
X83207559Y-142390926D01*
X82767909Y-141326890D01*
X90633524Y-141326890D01*
X90803355Y-141736924D01*
X91193642Y-142165183D01*
X91352954Y-142240000D01*
X91193642Y-142314817D01*
X90803355Y-142743076D01*
X90633524Y-143153110D01*
X90754845Y-143383000D01*
X91948000Y-143383000D01*
X91948000Y-141097000D01*
X90754845Y-141097000D01*
X90633524Y-141326890D01*
X82767909Y-141326890D01*
X82717313Y-141204439D01*
X81810336Y-140295877D01*
X80624706Y-139803561D01*
X79340926Y-139802441D01*
X78154439Y-140292687D01*
X77245877Y-141199664D01*
X76753561Y-142385294D01*
X76752441Y-143669074D01*
X75626500Y-143669074D01*
X75626500Y-136175750D01*
X79795000Y-136175750D01*
X79795000Y-136866309D01*
X79891673Y-137099698D01*
X80070301Y-137278327D01*
X80303690Y-137375000D01*
X80994250Y-137375000D01*
X81153000Y-137216250D01*
X81153000Y-136017000D01*
X79953750Y-136017000D01*
X79795000Y-136175750D01*
X75626500Y-136175750D01*
X75626500Y-134913691D01*
X79795000Y-134913691D01*
X79795000Y-135604250D01*
X79953750Y-135763000D01*
X81153000Y-135763000D01*
X81153000Y-134563750D01*
X80994250Y-134405000D01*
X80303690Y-134405000D01*
X80070301Y-134501673D01*
X79891673Y-134680302D01*
X79795000Y-134913691D01*
X75626500Y-134913691D01*
X75626500Y-133000750D01*
X79795000Y-133000750D01*
X79795000Y-133691309D01*
X79891673Y-133924698D01*
X80070301Y-134103327D01*
X80303690Y-134200000D01*
X80994250Y-134200000D01*
X81153000Y-134041250D01*
X81153000Y-132842000D01*
X79953750Y-132842000D01*
X79795000Y-133000750D01*
X75626500Y-133000750D01*
X75626500Y-131738691D01*
X79795000Y-131738691D01*
X79795000Y-132429250D01*
X79953750Y-132588000D01*
X81153000Y-132588000D01*
X81153000Y-131388750D01*
X80994250Y-131230000D01*
X80303690Y-131230000D01*
X80070301Y-131326673D01*
X79891673Y-131505302D01*
X79795000Y-131738691D01*
X75626500Y-131738691D01*
X75626500Y-129835773D01*
X78720000Y-129835773D01*
X78955317Y-129791495D01*
X79171441Y-129652423D01*
X79316431Y-129440223D01*
X79349889Y-129275000D01*
X80153725Y-129275000D01*
X82108725Y-131230000D01*
X81565750Y-131230000D01*
X81407000Y-131388750D01*
X81407000Y-132588000D01*
X81427000Y-132588000D01*
X81427000Y-132842000D01*
X81407000Y-132842000D01*
X81407000Y-134041250D01*
X81565750Y-134200000D01*
X82256310Y-134200000D01*
X82489699Y-134103327D01*
X82668327Y-133924698D01*
X82740597Y-133750223D01*
X82769946Y-133794147D01*
X83251715Y-134116054D01*
X83820000Y-134229093D01*
X84388285Y-134116054D01*
X84870054Y-133794147D01*
X85090000Y-133464974D01*
X85309946Y-133794147D01*
X85350000Y-133820910D01*
X85350000Y-134784090D01*
X85309946Y-134810853D01*
X85090000Y-135140026D01*
X84870054Y-134810853D01*
X84388285Y-134488946D01*
X83820000Y-134375907D01*
X83251715Y-134488946D01*
X82769946Y-134810853D01*
X82740597Y-134854777D01*
X82668327Y-134680302D01*
X82489699Y-134501673D01*
X82256310Y-134405000D01*
X81565750Y-134405000D01*
X81407000Y-134563750D01*
X81407000Y-135763000D01*
X81427000Y-135763000D01*
X81427000Y-136017000D01*
X81407000Y-136017000D01*
X81407000Y-137216250D01*
X81565750Y-137375000D01*
X82256310Y-137375000D01*
X82489699Y-137278327D01*
X82668327Y-137099698D01*
X82740597Y-136925223D01*
X82769946Y-136969147D01*
X82810000Y-136995910D01*
X82810000Y-137795000D01*
X82886882Y-138181510D01*
X83105822Y-138509178D01*
X83740822Y-139144178D01*
X84068490Y-139363118D01*
X84455000Y-139440000D01*
X88265000Y-139440000D01*
X88651510Y-139363118D01*
X88979178Y-139144178D01*
X89336466Y-138786890D01*
X90633524Y-138786890D01*
X90803355Y-139196924D01*
X91193642Y-139625183D01*
X91352954Y-139700000D01*
X91193642Y-139774817D01*
X90803355Y-140203076D01*
X90633524Y-140613110D01*
X90754845Y-140843000D01*
X91948000Y-140843000D01*
X91948000Y-138557000D01*
X90754845Y-138557000D01*
X90633524Y-138786890D01*
X89336466Y-138786890D01*
X90884178Y-137239178D01*
X91074458Y-136954403D01*
X91193642Y-137085183D01*
X91352954Y-137160000D01*
X91193642Y-137234817D01*
X90803355Y-137663076D01*
X90633524Y-138073110D01*
X90754845Y-138303000D01*
X91948000Y-138303000D01*
X91948000Y-136017000D01*
X91928000Y-136017000D01*
X91928000Y-135763000D01*
X91948000Y-135763000D01*
X91948000Y-133477000D01*
X91928000Y-133477000D01*
X91928000Y-133223000D01*
X91948000Y-133223000D01*
X91948000Y-130937000D01*
X91928000Y-130937000D01*
X91928000Y-130683000D01*
X91948000Y-130683000D01*
X91948000Y-128397000D01*
X91928000Y-128397000D01*
X91928000Y-128143000D01*
X91948000Y-128143000D01*
X91948000Y-125857000D01*
X91928000Y-125857000D01*
X91928000Y-125603000D01*
X91948000Y-125603000D01*
X91948000Y-125583000D01*
X92202000Y-125583000D01*
X92202000Y-125603000D01*
X92222000Y-125603000D01*
X92222000Y-125857000D01*
X92202000Y-125857000D01*
X92202000Y-128143000D01*
X92222000Y-128143000D01*
X92222000Y-128397000D01*
X92202000Y-128397000D01*
X92202000Y-130683000D01*
X92222000Y-130683000D01*
X92222000Y-130937000D01*
X92202000Y-130937000D01*
X92202000Y-133223000D01*
X92222000Y-133223000D01*
X92222000Y-133477000D01*
X92202000Y-133477000D01*
X92202000Y-135763000D01*
X92222000Y-135763000D01*
X92222000Y-136017000D01*
X92202000Y-136017000D01*
X92202000Y-138303000D01*
X92222000Y-138303000D01*
X92222000Y-138557000D01*
X92202000Y-138557000D01*
X92202000Y-140843000D01*
X92222000Y-140843000D01*
X92222000Y-141097000D01*
X92202000Y-141097000D01*
X92202000Y-143383000D01*
X92222000Y-143383000D01*
X92222000Y-143637000D01*
X92202000Y-143637000D01*
X92202000Y-144830819D01*
X92431892Y-144951486D01*
X92956358Y-144705183D01*
X93346645Y-144276924D01*
X93346655Y-144276899D01*
X93535853Y-144560054D01*
X94017622Y-144881961D01*
X94585907Y-144995000D01*
X94644093Y-144995000D01*
X95212378Y-144881961D01*
X95694147Y-144560054D01*
X95720910Y-144520000D01*
X95885000Y-144520000D01*
X96271510Y-144443118D01*
X96599178Y-144224178D01*
X97234178Y-143589178D01*
X97425094Y-143303450D01*
X98345822Y-144224178D01*
X98673490Y-144443118D01*
X99060000Y-144520000D01*
X99859090Y-144520000D01*
X99885853Y-144560054D01*
X100367622Y-144881961D01*
X100935907Y-144995000D01*
X100994093Y-144995000D01*
X101562378Y-144881961D01*
X102044147Y-144560054D01*
X102233345Y-144276899D01*
X102233355Y-144276924D01*
X102623642Y-144705183D01*
X103148108Y-144951486D01*
X103378000Y-144830819D01*
X103378000Y-143637000D01*
X103632000Y-143637000D01*
X103632000Y-144830819D01*
X103861892Y-144951486D01*
X104386358Y-144705183D01*
X104776645Y-144276924D01*
X104946476Y-143866890D01*
X104825155Y-143637000D01*
X103632000Y-143637000D01*
X103378000Y-143637000D01*
X103358000Y-143637000D01*
X103358000Y-143383000D01*
X103378000Y-143383000D01*
X103378000Y-141097000D01*
X103632000Y-141097000D01*
X103632000Y-143383000D01*
X104825155Y-143383000D01*
X104946476Y-143153110D01*
X104776645Y-142743076D01*
X104386358Y-142314817D01*
X104227046Y-142240000D01*
X104386358Y-142165183D01*
X104776645Y-141736924D01*
X104946476Y-141326890D01*
X104825155Y-141097000D01*
X103632000Y-141097000D01*
X103378000Y-141097000D01*
X103358000Y-141097000D01*
X103358000Y-140843000D01*
X103378000Y-140843000D01*
X103378000Y-138557000D01*
X103632000Y-138557000D01*
X103632000Y-140843000D01*
X104825155Y-140843000D01*
X104946476Y-140613110D01*
X104776645Y-140203076D01*
X104386358Y-139774817D01*
X104227046Y-139700000D01*
X104386358Y-139625183D01*
X104776645Y-139196924D01*
X104946476Y-138786890D01*
X104825155Y-138557000D01*
X103632000Y-138557000D01*
X103378000Y-138557000D01*
X103358000Y-138557000D01*
X103358000Y-138303000D01*
X103378000Y-138303000D01*
X103378000Y-136017000D01*
X103632000Y-136017000D01*
X103632000Y-138303000D01*
X104825155Y-138303000D01*
X104946476Y-138073110D01*
X104776645Y-137663076D01*
X104386358Y-137234817D01*
X104227046Y-137160000D01*
X104386358Y-137085183D01*
X104776645Y-136656924D01*
X104946476Y-136246890D01*
X104825155Y-136017000D01*
X103632000Y-136017000D01*
X103378000Y-136017000D01*
X103358000Y-136017000D01*
X103358000Y-135763000D01*
X103378000Y-135763000D01*
X103378000Y-133477000D01*
X103632000Y-133477000D01*
X103632000Y-135763000D01*
X104825155Y-135763000D01*
X104946476Y-135533110D01*
X104776645Y-135123076D01*
X104386358Y-134694817D01*
X104227046Y-134620000D01*
X104386358Y-134545183D01*
X104776645Y-134116924D01*
X104946476Y-133706890D01*
X104825155Y-133477000D01*
X103632000Y-133477000D01*
X103378000Y-133477000D01*
X103358000Y-133477000D01*
X103358000Y-133223000D01*
X103378000Y-133223000D01*
X103378000Y-130937000D01*
X103632000Y-130937000D01*
X103632000Y-133223000D01*
X104825155Y-133223000D01*
X104946476Y-132993110D01*
X104776645Y-132583076D01*
X104386358Y-132154817D01*
X104227046Y-132080000D01*
X104386358Y-132005183D01*
X104776645Y-131576924D01*
X104946476Y-131166890D01*
X104825155Y-130937000D01*
X103632000Y-130937000D01*
X103378000Y-130937000D01*
X103358000Y-130937000D01*
X103358000Y-130683000D01*
X103378000Y-130683000D01*
X103378000Y-128397000D01*
X103632000Y-128397000D01*
X103632000Y-130683000D01*
X104825155Y-130683000D01*
X104946476Y-130453110D01*
X104776645Y-130043076D01*
X104386358Y-129614817D01*
X104227046Y-129540000D01*
X104386358Y-129465183D01*
X104776645Y-129036924D01*
X104946476Y-128626890D01*
X104825155Y-128397000D01*
X103632000Y-128397000D01*
X103378000Y-128397000D01*
X103358000Y-128397000D01*
X103358000Y-128143000D01*
X103378000Y-128143000D01*
X103378000Y-125857000D01*
X103632000Y-125857000D01*
X103632000Y-128143000D01*
X104825155Y-128143000D01*
X104946476Y-127913110D01*
X104776645Y-127503076D01*
X104386358Y-127074817D01*
X104227046Y-127000000D01*
X104386358Y-126925183D01*
X104776645Y-126496924D01*
X104946476Y-126086890D01*
X104825155Y-125857000D01*
X103632000Y-125857000D01*
X103378000Y-125857000D01*
X103358000Y-125857000D01*
X103358000Y-125603000D01*
X103378000Y-125603000D01*
X103378000Y-123317000D01*
X103632000Y-123317000D01*
X103632000Y-125603000D01*
X104825155Y-125603000D01*
X104946476Y-125373110D01*
X104776645Y-124963076D01*
X104386358Y-124534817D01*
X104227046Y-124460000D01*
X104386358Y-124385183D01*
X104776645Y-123956924D01*
X104946476Y-123546890D01*
X104825155Y-123317000D01*
X103632000Y-123317000D01*
X103378000Y-123317000D01*
X103358000Y-123317000D01*
X103358000Y-123063000D01*
X103378000Y-123063000D01*
X103378000Y-120777000D01*
X103632000Y-120777000D01*
X103632000Y-123063000D01*
X104825155Y-123063000D01*
X104946476Y-122833110D01*
X104776645Y-122423076D01*
X104386358Y-121994817D01*
X104227046Y-121920000D01*
X104386358Y-121845183D01*
X104776645Y-121416924D01*
X104946476Y-121006890D01*
X104825155Y-120777000D01*
X103632000Y-120777000D01*
X103378000Y-120777000D01*
X103358000Y-120777000D01*
X103358000Y-120523000D01*
X103378000Y-120523000D01*
X103378000Y-118237000D01*
X103632000Y-118237000D01*
X103632000Y-120523000D01*
X104825155Y-120523000D01*
X104946476Y-120293110D01*
X104776645Y-119883076D01*
X104386358Y-119454817D01*
X104227046Y-119380000D01*
X104386358Y-119305183D01*
X104776645Y-118876924D01*
X104946476Y-118466890D01*
X104825155Y-118237000D01*
X103632000Y-118237000D01*
X103378000Y-118237000D01*
X103358000Y-118237000D01*
X103358000Y-117983000D01*
X103378000Y-117983000D01*
X103378000Y-115697000D01*
X103632000Y-115697000D01*
X103632000Y-117983000D01*
X104825155Y-117983000D01*
X104946476Y-117753110D01*
X104776645Y-117343076D01*
X104386358Y-116914817D01*
X104227046Y-116840000D01*
X104386358Y-116765183D01*
X104776645Y-116336924D01*
X104946476Y-115926890D01*
X104825155Y-115697000D01*
X103632000Y-115697000D01*
X103378000Y-115697000D01*
X103358000Y-115697000D01*
X103358000Y-115443000D01*
X103378000Y-115443000D01*
X103378000Y-113157000D01*
X103632000Y-113157000D01*
X103632000Y-115443000D01*
X104825155Y-115443000D01*
X104946476Y-115213110D01*
X104776645Y-114803076D01*
X104386358Y-114374817D01*
X104227046Y-114300000D01*
X104386358Y-114225183D01*
X104776645Y-113796924D01*
X104946476Y-113386890D01*
X104825155Y-113157000D01*
X103632000Y-113157000D01*
X103378000Y-113157000D01*
X103358000Y-113157000D01*
X103358000Y-112903000D01*
X103378000Y-112903000D01*
X103378000Y-110617000D01*
X103632000Y-110617000D01*
X103632000Y-112903000D01*
X104825155Y-112903000D01*
X104946476Y-112673110D01*
X104776645Y-112263076D01*
X104386358Y-111834817D01*
X104227046Y-111760000D01*
X104386358Y-111685183D01*
X104776645Y-111256924D01*
X104946476Y-110846890D01*
X104825155Y-110617000D01*
X103632000Y-110617000D01*
X103378000Y-110617000D01*
X103358000Y-110617000D01*
X103358000Y-110363000D01*
X103378000Y-110363000D01*
X103378000Y-108077000D01*
X103632000Y-108077000D01*
X103632000Y-110363000D01*
X104825155Y-110363000D01*
X104946476Y-110133110D01*
X104776645Y-109723076D01*
X104386358Y-109294817D01*
X104227046Y-109220000D01*
X104386358Y-109145183D01*
X104776645Y-108716924D01*
X104946476Y-108306890D01*
X104825155Y-108077000D01*
X103632000Y-108077000D01*
X103378000Y-108077000D01*
X103358000Y-108077000D01*
X103358000Y-107823000D01*
X103378000Y-107823000D01*
X103378000Y-105537000D01*
X103632000Y-105537000D01*
X103632000Y-107823000D01*
X104825155Y-107823000D01*
X104946476Y-107593110D01*
X104776645Y-107183076D01*
X104386358Y-106754817D01*
X104227046Y-106680000D01*
X104386358Y-106605183D01*
X104776645Y-106176924D01*
X104946476Y-105766890D01*
X104825155Y-105537000D01*
X103632000Y-105537000D01*
X103378000Y-105537000D01*
X103358000Y-105537000D01*
X103358000Y-105283000D01*
X103378000Y-105283000D01*
X103378000Y-102997000D01*
X103632000Y-102997000D01*
X103632000Y-105283000D01*
X104825155Y-105283000D01*
X104946476Y-105053110D01*
X104776645Y-104643076D01*
X104386358Y-104214817D01*
X104227046Y-104140000D01*
X104386358Y-104065183D01*
X104776645Y-103636924D01*
X104946476Y-103226890D01*
X104825155Y-102997000D01*
X103632000Y-102997000D01*
X103378000Y-102997000D01*
X103358000Y-102997000D01*
X103358000Y-102743000D01*
X103378000Y-102743000D01*
X103378000Y-100457000D01*
X103632000Y-100457000D01*
X103632000Y-102743000D01*
X104825155Y-102743000D01*
X104946476Y-102513110D01*
X104776645Y-102103076D01*
X104386358Y-101674817D01*
X104227046Y-101600000D01*
X104386358Y-101525183D01*
X104776645Y-101096924D01*
X104946476Y-100686890D01*
X104825155Y-100457000D01*
X103632000Y-100457000D01*
X103378000Y-100457000D01*
X103358000Y-100457000D01*
X103358000Y-100203000D01*
X103378000Y-100203000D01*
X103378000Y-97917000D01*
X103632000Y-97917000D01*
X103632000Y-100203000D01*
X104825155Y-100203000D01*
X104946476Y-99973110D01*
X104776645Y-99563076D01*
X104386358Y-99134817D01*
X104227046Y-99060000D01*
X104386358Y-98985183D01*
X104776645Y-98556924D01*
X104946476Y-98146890D01*
X104825155Y-97917000D01*
X103632000Y-97917000D01*
X103378000Y-97917000D01*
X103358000Y-97917000D01*
X103358000Y-97663000D01*
X103378000Y-97663000D01*
X103378000Y-95377000D01*
X103632000Y-95377000D01*
X103632000Y-97663000D01*
X104825155Y-97663000D01*
X104946476Y-97433110D01*
X104776645Y-97023076D01*
X104386358Y-96594817D01*
X104227046Y-96520000D01*
X104386358Y-96445183D01*
X104776645Y-96016924D01*
X104946476Y-95606890D01*
X104825155Y-95377000D01*
X103632000Y-95377000D01*
X103378000Y-95377000D01*
X103358000Y-95377000D01*
X103358000Y-95123000D01*
X103378000Y-95123000D01*
X103378000Y-92837000D01*
X103632000Y-92837000D01*
X103632000Y-95123000D01*
X104825155Y-95123000D01*
X104946476Y-94893110D01*
X104776645Y-94483076D01*
X104386358Y-94054817D01*
X104227046Y-93980000D01*
X104386358Y-93905183D01*
X104776645Y-93476924D01*
X104946476Y-93066890D01*
X104825155Y-92837000D01*
X103632000Y-92837000D01*
X103378000Y-92837000D01*
X103358000Y-92837000D01*
X103358000Y-92583000D01*
X103378000Y-92583000D01*
X103378000Y-90297000D01*
X103632000Y-90297000D01*
X103632000Y-92583000D01*
X104825155Y-92583000D01*
X104946476Y-92353110D01*
X104776645Y-91943076D01*
X104386358Y-91514817D01*
X104227046Y-91440000D01*
X104386358Y-91365183D01*
X104776645Y-90936924D01*
X104946476Y-90526890D01*
X104825155Y-90297000D01*
X103632000Y-90297000D01*
X103378000Y-90297000D01*
X103358000Y-90297000D01*
X103358000Y-90043000D01*
X103378000Y-90043000D01*
X103378000Y-87757000D01*
X103632000Y-87757000D01*
X103632000Y-90043000D01*
X104825155Y-90043000D01*
X104946476Y-89813110D01*
X104776645Y-89403076D01*
X104386358Y-88974817D01*
X104227046Y-88900000D01*
X104386358Y-88825183D01*
X104776645Y-88396924D01*
X104946476Y-87986890D01*
X104825155Y-87757000D01*
X103632000Y-87757000D01*
X103378000Y-87757000D01*
X103358000Y-87757000D01*
X103358000Y-87503000D01*
X103378000Y-87503000D01*
X103378000Y-85217000D01*
X103632000Y-85217000D01*
X103632000Y-87503000D01*
X104825155Y-87503000D01*
X104946476Y-87273110D01*
X104776645Y-86863076D01*
X104386358Y-86434817D01*
X104227046Y-86360000D01*
X104386358Y-86285183D01*
X104776645Y-85856924D01*
X104946476Y-85446890D01*
X104825155Y-85217000D01*
X103632000Y-85217000D01*
X103378000Y-85217000D01*
X103358000Y-85217000D01*
X103358000Y-84963000D01*
X103378000Y-84963000D01*
X103378000Y-82677000D01*
X103632000Y-82677000D01*
X103632000Y-84963000D01*
X104825155Y-84963000D01*
X104946476Y-84733110D01*
X104776645Y-84323076D01*
X104386358Y-83894817D01*
X104227046Y-83820000D01*
X104386358Y-83745183D01*
X104776645Y-83316924D01*
X104946476Y-82906890D01*
X104825155Y-82677000D01*
X103632000Y-82677000D01*
X103378000Y-82677000D01*
X103358000Y-82677000D01*
X103358000Y-82423000D01*
X103378000Y-82423000D01*
X103378000Y-81229181D01*
X103632000Y-81229181D01*
X103632000Y-82423000D01*
X104825155Y-82423000D01*
X104946476Y-82193110D01*
X104776645Y-81783076D01*
X104386358Y-81354817D01*
X103861892Y-81108514D01*
X103632000Y-81229181D01*
X103378000Y-81229181D01*
X103148108Y-81108514D01*
X102623642Y-81354817D01*
X102436192Y-81560504D01*
X102418162Y-81464683D01*
X102279090Y-81248559D01*
X102066890Y-81103569D01*
X101815000Y-81052560D01*
X100115000Y-81052560D01*
X99879683Y-81096838D01*
X99663559Y-81235910D01*
X99518569Y-81448110D01*
X99467560Y-81700000D01*
X99467560Y-83400000D01*
X99511838Y-83635317D01*
X99650910Y-83851441D01*
X99863110Y-83996431D01*
X99930541Y-84010086D01*
X99885853Y-84039946D01*
X99563946Y-84521715D01*
X99450907Y-85090000D01*
X99563946Y-85658285D01*
X99885853Y-86140054D01*
X100215026Y-86360000D01*
X99885853Y-86579946D01*
X99563946Y-87061715D01*
X99450907Y-87630000D01*
X99563946Y-88198285D01*
X99885853Y-88680054D01*
X100215026Y-88900000D01*
X99885853Y-89119946D01*
X99563946Y-89601715D01*
X99450907Y-90170000D01*
X99563946Y-90738285D01*
X99885853Y-91220054D01*
X100215026Y-91440000D01*
X99885853Y-91659946D01*
X99563946Y-92141715D01*
X99450907Y-92710000D01*
X99563946Y-93278285D01*
X99885853Y-93760054D01*
X100215026Y-93980000D01*
X99885853Y-94199946D01*
X99563946Y-94681715D01*
X99450907Y-95250000D01*
X99563946Y-95818285D01*
X99885853Y-96300054D01*
X100215026Y-96520000D01*
X99885853Y-96739946D01*
X99563946Y-97221715D01*
X99450907Y-97790000D01*
X99563946Y-98358285D01*
X99885853Y-98840054D01*
X100215026Y-99060000D01*
X99885853Y-99279946D01*
X99563946Y-99761715D01*
X99450907Y-100330000D01*
X99563946Y-100898285D01*
X99885853Y-101380054D01*
X100215026Y-101600000D01*
X99885853Y-101819946D01*
X99563946Y-102301715D01*
X99450907Y-102870000D01*
X99563946Y-103438285D01*
X99885853Y-103920054D01*
X100215026Y-104140000D01*
X99885853Y-104359946D01*
X99563946Y-104841715D01*
X99450907Y-105410000D01*
X99563946Y-105978285D01*
X99885853Y-106460054D01*
X100215026Y-106680000D01*
X99885853Y-106899946D01*
X99563946Y-107381715D01*
X99450907Y-107950000D01*
X99563946Y-108518285D01*
X99885853Y-109000054D01*
X100215026Y-109220000D01*
X99885853Y-109439946D01*
X99563946Y-109921715D01*
X99450907Y-110490000D01*
X99563946Y-111058285D01*
X99885853Y-111540054D01*
X100215026Y-111760000D01*
X99885853Y-111979946D01*
X99563946Y-112461715D01*
X99450907Y-113030000D01*
X99563946Y-113598285D01*
X99885853Y-114080054D01*
X100215026Y-114300000D01*
X99885853Y-114519946D01*
X99692046Y-114810000D01*
X85404802Y-114810000D01*
X84580000Y-113985198D01*
X84580000Y-101600000D01*
X84522148Y-101309161D01*
X84357401Y-101062599D01*
X80552401Y-97257599D01*
X80305839Y-97092852D01*
X80015000Y-97035000D01*
X79367440Y-97035000D01*
X79367440Y-96871667D01*
X79323162Y-96636350D01*
X79184090Y-96420226D01*
X78971890Y-96275236D01*
X78720000Y-96224227D01*
X75626500Y-96224227D01*
X75626500Y-83669074D01*
X76752441Y-83669074D01*
X77242687Y-84855561D01*
X78149664Y-85764123D01*
X79335294Y-86256439D01*
X80619074Y-86257559D01*
X81805561Y-85767313D01*
X82714123Y-84860336D01*
X83206439Y-83674706D01*
X83207559Y-82390926D01*
X82717313Y-81204439D01*
X81810336Y-80295877D01*
X80624706Y-79803561D01*
X79340926Y-79802441D01*
X78154439Y-80292687D01*
X77245877Y-81199664D01*
X76753561Y-82385294D01*
X76752441Y-83669074D01*
X75626500Y-83669074D01*
X75626500Y-79252500D01*
X106206500Y-79252500D01*
X106206500Y-146832500D01*
X106206500Y-146832500D01*
G37*
X106206500Y-146832500D02*
X75626500Y-146832500D01*
X75626500Y-143669074D01*
X76752441Y-143669074D01*
X77242687Y-144855561D01*
X78149664Y-145764123D01*
X79335294Y-146256439D01*
X80619074Y-146257559D01*
X81805561Y-145767313D01*
X82714123Y-144860336D01*
X83126637Y-143866890D01*
X90633524Y-143866890D01*
X90803355Y-144276924D01*
X91193642Y-144705183D01*
X91718108Y-144951486D01*
X91948000Y-144830819D01*
X91948000Y-143637000D01*
X90754845Y-143637000D01*
X90633524Y-143866890D01*
X83126637Y-143866890D01*
X83206439Y-143674706D01*
X83207559Y-142390926D01*
X82767909Y-141326890D01*
X90633524Y-141326890D01*
X90803355Y-141736924D01*
X91193642Y-142165183D01*
X91352954Y-142240000D01*
X91193642Y-142314817D01*
X90803355Y-142743076D01*
X90633524Y-143153110D01*
X90754845Y-143383000D01*
X91948000Y-143383000D01*
X91948000Y-141097000D01*
X90754845Y-141097000D01*
X90633524Y-141326890D01*
X82767909Y-141326890D01*
X82717313Y-141204439D01*
X81810336Y-140295877D01*
X80624706Y-139803561D01*
X79340926Y-139802441D01*
X78154439Y-140292687D01*
X77245877Y-141199664D01*
X76753561Y-142385294D01*
X76752441Y-143669074D01*
X75626500Y-143669074D01*
X75626500Y-136175750D01*
X79795000Y-136175750D01*
X79795000Y-136866309D01*
X79891673Y-137099698D01*
X80070301Y-137278327D01*
X80303690Y-137375000D01*
X80994250Y-137375000D01*
X81153000Y-137216250D01*
X81153000Y-136017000D01*
X79953750Y-136017000D01*
X79795000Y-136175750D01*
X75626500Y-136175750D01*
X75626500Y-134913691D01*
X79795000Y-134913691D01*
X79795000Y-135604250D01*
X79953750Y-135763000D01*
X81153000Y-135763000D01*
X81153000Y-134563750D01*
X80994250Y-134405000D01*
X80303690Y-134405000D01*
X80070301Y-134501673D01*
X79891673Y-134680302D01*
X79795000Y-134913691D01*
X75626500Y-134913691D01*
X75626500Y-133000750D01*
X79795000Y-133000750D01*
X79795000Y-133691309D01*
X79891673Y-133924698D01*
X80070301Y-134103327D01*
X80303690Y-134200000D01*
X80994250Y-134200000D01*
X81153000Y-134041250D01*
X81153000Y-132842000D01*
X79953750Y-132842000D01*
X79795000Y-133000750D01*
X75626500Y-133000750D01*
X75626500Y-131738691D01*
X79795000Y-131738691D01*
X79795000Y-132429250D01*
X79953750Y-132588000D01*
X81153000Y-132588000D01*
X81153000Y-131388750D01*
X80994250Y-131230000D01*
X80303690Y-131230000D01*
X80070301Y-131326673D01*
X79891673Y-131505302D01*
X79795000Y-131738691D01*
X75626500Y-131738691D01*
X75626500Y-129835773D01*
X78720000Y-129835773D01*
X78955317Y-129791495D01*
X79171441Y-129652423D01*
X79316431Y-129440223D01*
X79349889Y-129275000D01*
X80153725Y-129275000D01*
X82108725Y-131230000D01*
X81565750Y-131230000D01*
X81407000Y-131388750D01*
X81407000Y-132588000D01*
X81427000Y-132588000D01*
X81427000Y-132842000D01*
X81407000Y-132842000D01*
X81407000Y-134041250D01*
X81565750Y-134200000D01*
X82256310Y-134200000D01*
X82489699Y-134103327D01*
X82668327Y-133924698D01*
X82740597Y-133750223D01*
X82769946Y-133794147D01*
X83251715Y-134116054D01*
X83820000Y-134229093D01*
X84388285Y-134116054D01*
X84870054Y-133794147D01*
X85090000Y-133464974D01*
X85309946Y-133794147D01*
X85350000Y-133820910D01*
X85350000Y-134784090D01*
X85309946Y-134810853D01*
X85090000Y-135140026D01*
X84870054Y-134810853D01*
X84388285Y-134488946D01*
X83820000Y-134375907D01*
X83251715Y-134488946D01*
X82769946Y-134810853D01*
X82740597Y-134854777D01*
X82668327Y-134680302D01*
X82489699Y-134501673D01*
X82256310Y-134405000D01*
X81565750Y-134405000D01*
X81407000Y-134563750D01*
X81407000Y-135763000D01*
X81427000Y-135763000D01*
X81427000Y-136017000D01*
X81407000Y-136017000D01*
X81407000Y-137216250D01*
X81565750Y-137375000D01*
X82256310Y-137375000D01*
X82489699Y-137278327D01*
X82668327Y-137099698D01*
X82740597Y-136925223D01*
X82769946Y-136969147D01*
X82810000Y-136995910D01*
X82810000Y-137795000D01*
X82886882Y-138181510D01*
X83105822Y-138509178D01*
X83740822Y-139144178D01*
X84068490Y-139363118D01*
X84455000Y-139440000D01*
X88265000Y-139440000D01*
X88651510Y-139363118D01*
X88979178Y-139144178D01*
X89336466Y-138786890D01*
X90633524Y-138786890D01*
X90803355Y-139196924D01*
X91193642Y-139625183D01*
X91352954Y-139700000D01*
X91193642Y-139774817D01*
X90803355Y-140203076D01*
X90633524Y-140613110D01*
X90754845Y-140843000D01*
X91948000Y-140843000D01*
X91948000Y-138557000D01*
X90754845Y-138557000D01*
X90633524Y-138786890D01*
X89336466Y-138786890D01*
X90884178Y-137239178D01*
X91074458Y-136954403D01*
X91193642Y-137085183D01*
X91352954Y-137160000D01*
X91193642Y-137234817D01*
X90803355Y-137663076D01*
X90633524Y-138073110D01*
X90754845Y-138303000D01*
X91948000Y-138303000D01*
X91948000Y-136017000D01*
X91928000Y-136017000D01*
X91928000Y-135763000D01*
X91948000Y-135763000D01*
X91948000Y-133477000D01*
X91928000Y-133477000D01*
X91928000Y-133223000D01*
X91948000Y-133223000D01*
X91948000Y-130937000D01*
X91928000Y-130937000D01*
X91928000Y-130683000D01*
X91948000Y-130683000D01*
X91948000Y-128397000D01*
X91928000Y-128397000D01*
X91928000Y-128143000D01*
X91948000Y-128143000D01*
X91948000Y-125857000D01*
X91928000Y-125857000D01*
X91928000Y-125603000D01*
X91948000Y-125603000D01*
X91948000Y-125583000D01*
X92202000Y-125583000D01*
X92202000Y-125603000D01*
X92222000Y-125603000D01*
X92222000Y-125857000D01*
X92202000Y-125857000D01*
X92202000Y-128143000D01*
X92222000Y-128143000D01*
X92222000Y-128397000D01*
X92202000Y-128397000D01*
X92202000Y-130683000D01*
X92222000Y-130683000D01*
X92222000Y-130937000D01*
X92202000Y-130937000D01*
X92202000Y-133223000D01*
X92222000Y-133223000D01*
X92222000Y-133477000D01*
X92202000Y-133477000D01*
X92202000Y-135763000D01*
X92222000Y-135763000D01*
X92222000Y-136017000D01*
X92202000Y-136017000D01*
X92202000Y-138303000D01*
X92222000Y-138303000D01*
X92222000Y-138557000D01*
X92202000Y-138557000D01*
X92202000Y-140843000D01*
X92222000Y-140843000D01*
X92222000Y-141097000D01*
X92202000Y-141097000D01*
X92202000Y-143383000D01*
X92222000Y-143383000D01*
X92222000Y-143637000D01*
X92202000Y-143637000D01*
X92202000Y-144830819D01*
X92431892Y-144951486D01*
X92956358Y-144705183D01*
X93346645Y-144276924D01*
X93346655Y-144276899D01*
X93535853Y-144560054D01*
X94017622Y-144881961D01*
X94585907Y-144995000D01*
X94644093Y-144995000D01*
X95212378Y-144881961D01*
X95694147Y-144560054D01*
X95720910Y-144520000D01*
X95885000Y-144520000D01*
X96271510Y-144443118D01*
X96599178Y-144224178D01*
X97234178Y-143589178D01*
X97425094Y-143303450D01*
X98345822Y-144224178D01*
X98673490Y-144443118D01*
X99060000Y-144520000D01*
X99859090Y-144520000D01*
X99885853Y-144560054D01*
X100367622Y-144881961D01*
X100935907Y-144995000D01*
X100994093Y-144995000D01*
X101562378Y-144881961D01*
X102044147Y-144560054D01*
X102233345Y-144276899D01*
X102233355Y-144276924D01*
X102623642Y-144705183D01*
X103148108Y-144951486D01*
X103378000Y-144830819D01*
X103378000Y-143637000D01*
X103632000Y-143637000D01*
X103632000Y-144830819D01*
X103861892Y-144951486D01*
X104386358Y-144705183D01*
X104776645Y-144276924D01*
X104946476Y-143866890D01*
X104825155Y-143637000D01*
X103632000Y-143637000D01*
X103378000Y-143637000D01*
X103358000Y-143637000D01*
X103358000Y-143383000D01*
X103378000Y-143383000D01*
X103378000Y-141097000D01*
X103632000Y-141097000D01*
X103632000Y-143383000D01*
X104825155Y-143383000D01*
X104946476Y-143153110D01*
X104776645Y-142743076D01*
X104386358Y-142314817D01*
X104227046Y-142240000D01*
X104386358Y-142165183D01*
X104776645Y-141736924D01*
X104946476Y-141326890D01*
X104825155Y-141097000D01*
X103632000Y-141097000D01*
X103378000Y-141097000D01*
X103358000Y-141097000D01*
X103358000Y-140843000D01*
X103378000Y-140843000D01*
X103378000Y-138557000D01*
X103632000Y-138557000D01*
X103632000Y-140843000D01*
X104825155Y-140843000D01*
X104946476Y-140613110D01*
X104776645Y-140203076D01*
X104386358Y-139774817D01*
X104227046Y-139700000D01*
X104386358Y-139625183D01*
X104776645Y-139196924D01*
X104946476Y-138786890D01*
X104825155Y-138557000D01*
X103632000Y-138557000D01*
X103378000Y-138557000D01*
X103358000Y-138557000D01*
X103358000Y-138303000D01*
X103378000Y-138303000D01*
X103378000Y-136017000D01*
X103632000Y-136017000D01*
X103632000Y-138303000D01*
X104825155Y-138303000D01*
X104946476Y-138073110D01*
X104776645Y-137663076D01*
X104386358Y-137234817D01*
X104227046Y-137160000D01*
X104386358Y-137085183D01*
X104776645Y-136656924D01*
X104946476Y-136246890D01*
X104825155Y-136017000D01*
X103632000Y-136017000D01*
X103378000Y-136017000D01*
X103358000Y-136017000D01*
X103358000Y-135763000D01*
X103378000Y-135763000D01*
X103378000Y-133477000D01*
X103632000Y-133477000D01*
X103632000Y-135763000D01*
X104825155Y-135763000D01*
X104946476Y-135533110D01*
X104776645Y-135123076D01*
X104386358Y-134694817D01*
X104227046Y-134620000D01*
X104386358Y-134545183D01*
X104776645Y-134116924D01*
X104946476Y-133706890D01*
X104825155Y-133477000D01*
X103632000Y-133477000D01*
X103378000Y-133477000D01*
X103358000Y-133477000D01*
X103358000Y-133223000D01*
X103378000Y-133223000D01*
X103378000Y-130937000D01*
X103632000Y-130937000D01*
X103632000Y-133223000D01*
X104825155Y-133223000D01*
X104946476Y-132993110D01*
X104776645Y-132583076D01*
X104386358Y-132154817D01*
X104227046Y-132080000D01*
X104386358Y-132005183D01*
X104776645Y-131576924D01*
X104946476Y-131166890D01*
X104825155Y-130937000D01*
X103632000Y-130937000D01*
X103378000Y-130937000D01*
X103358000Y-130937000D01*
X103358000Y-130683000D01*
X103378000Y-130683000D01*
X103378000Y-128397000D01*
X103632000Y-128397000D01*
X103632000Y-130683000D01*
X104825155Y-130683000D01*
X104946476Y-130453110D01*
X104776645Y-130043076D01*
X104386358Y-129614817D01*
X104227046Y-129540000D01*
X104386358Y-129465183D01*
X104776645Y-129036924D01*
X104946476Y-128626890D01*
X104825155Y-128397000D01*
X103632000Y-128397000D01*
X103378000Y-128397000D01*
X103358000Y-128397000D01*
X103358000Y-128143000D01*
X103378000Y-128143000D01*
X103378000Y-125857000D01*
X103632000Y-125857000D01*
X103632000Y-128143000D01*
X104825155Y-128143000D01*
X104946476Y-127913110D01*
X104776645Y-127503076D01*
X104386358Y-127074817D01*
X104227046Y-127000000D01*
X104386358Y-126925183D01*
X104776645Y-126496924D01*
X104946476Y-126086890D01*
X104825155Y-125857000D01*
X103632000Y-125857000D01*
X103378000Y-125857000D01*
X103358000Y-125857000D01*
X103358000Y-125603000D01*
X103378000Y-125603000D01*
X103378000Y-123317000D01*
X103632000Y-123317000D01*
X103632000Y-125603000D01*
X104825155Y-125603000D01*
X104946476Y-125373110D01*
X104776645Y-124963076D01*
X104386358Y-124534817D01*
X104227046Y-124460000D01*
X104386358Y-124385183D01*
X104776645Y-123956924D01*
X104946476Y-123546890D01*
X104825155Y-123317000D01*
X103632000Y-123317000D01*
X103378000Y-123317000D01*
X103358000Y-123317000D01*
X103358000Y-123063000D01*
X103378000Y-123063000D01*
X103378000Y-120777000D01*
X103632000Y-120777000D01*
X103632000Y-123063000D01*
X104825155Y-123063000D01*
X104946476Y-122833110D01*
X104776645Y-122423076D01*
X104386358Y-121994817D01*
X104227046Y-121920000D01*
X104386358Y-121845183D01*
X104776645Y-121416924D01*
X104946476Y-121006890D01*
X104825155Y-120777000D01*
X103632000Y-120777000D01*
X103378000Y-120777000D01*
X103358000Y-120777000D01*
X103358000Y-120523000D01*
X103378000Y-120523000D01*
X103378000Y-118237000D01*
X103632000Y-118237000D01*
X103632000Y-120523000D01*
X104825155Y-120523000D01*
X104946476Y-120293110D01*
X104776645Y-119883076D01*
X104386358Y-119454817D01*
X104227046Y-119380000D01*
X104386358Y-119305183D01*
X104776645Y-118876924D01*
X104946476Y-118466890D01*
X104825155Y-118237000D01*
X103632000Y-118237000D01*
X103378000Y-118237000D01*
X103358000Y-118237000D01*
X103358000Y-117983000D01*
X103378000Y-117983000D01*
X103378000Y-115697000D01*
X103632000Y-115697000D01*
X103632000Y-117983000D01*
X104825155Y-117983000D01*
X104946476Y-117753110D01*
X104776645Y-117343076D01*
X104386358Y-116914817D01*
X104227046Y-116840000D01*
X104386358Y-116765183D01*
X104776645Y-116336924D01*
X104946476Y-115926890D01*
X104825155Y-115697000D01*
X103632000Y-115697000D01*
X103378000Y-115697000D01*
X103358000Y-115697000D01*
X103358000Y-115443000D01*
X103378000Y-115443000D01*
X103378000Y-113157000D01*
X103632000Y-113157000D01*
X103632000Y-115443000D01*
X104825155Y-115443000D01*
X104946476Y-115213110D01*
X104776645Y-114803076D01*
X104386358Y-114374817D01*
X104227046Y-114300000D01*
X104386358Y-114225183D01*
X104776645Y-113796924D01*
X104946476Y-113386890D01*
X104825155Y-113157000D01*
X103632000Y-113157000D01*
X103378000Y-113157000D01*
X103358000Y-113157000D01*
X103358000Y-112903000D01*
X103378000Y-112903000D01*
X103378000Y-110617000D01*
X103632000Y-110617000D01*
X103632000Y-112903000D01*
X104825155Y-112903000D01*
X104946476Y-112673110D01*
X104776645Y-112263076D01*
X104386358Y-111834817D01*
X104227046Y-111760000D01*
X104386358Y-111685183D01*
X104776645Y-111256924D01*
X104946476Y-110846890D01*
X104825155Y-110617000D01*
X103632000Y-110617000D01*
X103378000Y-110617000D01*
X103358000Y-110617000D01*
X103358000Y-110363000D01*
X103378000Y-110363000D01*
X103378000Y-108077000D01*
X103632000Y-108077000D01*
X103632000Y-110363000D01*
X104825155Y-110363000D01*
X104946476Y-110133110D01*
X104776645Y-109723076D01*
X104386358Y-109294817D01*
X104227046Y-109220000D01*
X104386358Y-109145183D01*
X104776645Y-108716924D01*
X104946476Y-108306890D01*
X104825155Y-108077000D01*
X103632000Y-108077000D01*
X103378000Y-108077000D01*
X103358000Y-108077000D01*
X103358000Y-107823000D01*
X103378000Y-107823000D01*
X103378000Y-105537000D01*
X103632000Y-105537000D01*
X103632000Y-107823000D01*
X104825155Y-107823000D01*
X104946476Y-107593110D01*
X104776645Y-107183076D01*
X104386358Y-106754817D01*
X104227046Y-106680000D01*
X104386358Y-106605183D01*
X104776645Y-106176924D01*
X104946476Y-105766890D01*
X104825155Y-105537000D01*
X103632000Y-105537000D01*
X103378000Y-105537000D01*
X103358000Y-105537000D01*
X103358000Y-105283000D01*
X103378000Y-105283000D01*
X103378000Y-102997000D01*
X103632000Y-102997000D01*
X103632000Y-105283000D01*
X104825155Y-105283000D01*
X104946476Y-105053110D01*
X104776645Y-104643076D01*
X104386358Y-104214817D01*
X104227046Y-104140000D01*
X104386358Y-104065183D01*
X104776645Y-103636924D01*
X104946476Y-103226890D01*
X104825155Y-102997000D01*
X103632000Y-102997000D01*
X103378000Y-102997000D01*
X103358000Y-102997000D01*
X103358000Y-102743000D01*
X103378000Y-102743000D01*
X103378000Y-100457000D01*
X103632000Y-100457000D01*
X103632000Y-102743000D01*
X104825155Y-102743000D01*
X104946476Y-102513110D01*
X104776645Y-102103076D01*
X104386358Y-101674817D01*
X104227046Y-101600000D01*
X104386358Y-101525183D01*
X104776645Y-101096924D01*
X104946476Y-100686890D01*
X104825155Y-100457000D01*
X103632000Y-100457000D01*
X103378000Y-100457000D01*
X103358000Y-100457000D01*
X103358000Y-100203000D01*
X103378000Y-100203000D01*
X103378000Y-97917000D01*
X103632000Y-97917000D01*
X103632000Y-100203000D01*
X104825155Y-100203000D01*
X104946476Y-99973110D01*
X104776645Y-99563076D01*
X104386358Y-99134817D01*
X104227046Y-99060000D01*
X104386358Y-98985183D01*
X104776645Y-98556924D01*
X104946476Y-98146890D01*
X104825155Y-97917000D01*
X103632000Y-97917000D01*
X103378000Y-97917000D01*
X103358000Y-97917000D01*
X103358000Y-97663000D01*
X103378000Y-97663000D01*
X103378000Y-95377000D01*
X103632000Y-95377000D01*
X103632000Y-97663000D01*
X104825155Y-97663000D01*
X104946476Y-97433110D01*
X104776645Y-97023076D01*
X104386358Y-96594817D01*
X104227046Y-96520000D01*
X104386358Y-96445183D01*
X104776645Y-96016924D01*
X104946476Y-95606890D01*
X104825155Y-95377000D01*
X103632000Y-95377000D01*
X103378000Y-95377000D01*
X103358000Y-95377000D01*
X103358000Y-95123000D01*
X103378000Y-95123000D01*
X103378000Y-92837000D01*
X103632000Y-92837000D01*
X103632000Y-95123000D01*
X104825155Y-95123000D01*
X104946476Y-94893110D01*
X104776645Y-94483076D01*
X104386358Y-94054817D01*
X104227046Y-93980000D01*
X104386358Y-93905183D01*
X104776645Y-93476924D01*
X104946476Y-93066890D01*
X104825155Y-92837000D01*
X103632000Y-92837000D01*
X103378000Y-92837000D01*
X103358000Y-92837000D01*
X103358000Y-92583000D01*
X103378000Y-92583000D01*
X103378000Y-90297000D01*
X103632000Y-90297000D01*
X103632000Y-92583000D01*
X104825155Y-92583000D01*
X104946476Y-92353110D01*
X104776645Y-91943076D01*
X104386358Y-91514817D01*
X104227046Y-91440000D01*
X104386358Y-91365183D01*
X104776645Y-90936924D01*
X104946476Y-90526890D01*
X104825155Y-90297000D01*
X103632000Y-90297000D01*
X103378000Y-90297000D01*
X103358000Y-90297000D01*
X103358000Y-90043000D01*
X103378000Y-90043000D01*
X103378000Y-87757000D01*
X103632000Y-87757000D01*
X103632000Y-90043000D01*
X104825155Y-90043000D01*
X104946476Y-89813110D01*
X104776645Y-89403076D01*
X104386358Y-88974817D01*
X104227046Y-88900000D01*
X104386358Y-88825183D01*
X104776645Y-88396924D01*
X104946476Y-87986890D01*
X104825155Y-87757000D01*
X103632000Y-87757000D01*
X103378000Y-87757000D01*
X103358000Y-87757000D01*
X103358000Y-87503000D01*
X103378000Y-87503000D01*
X103378000Y-85217000D01*
X103632000Y-85217000D01*
X103632000Y-87503000D01*
X104825155Y-87503000D01*
X104946476Y-87273110D01*
X104776645Y-86863076D01*
X104386358Y-86434817D01*
X104227046Y-86360000D01*
X104386358Y-86285183D01*
X104776645Y-85856924D01*
X104946476Y-85446890D01*
X104825155Y-85217000D01*
X103632000Y-85217000D01*
X103378000Y-85217000D01*
X103358000Y-85217000D01*
X103358000Y-84963000D01*
X103378000Y-84963000D01*
X103378000Y-82677000D01*
X103632000Y-82677000D01*
X103632000Y-84963000D01*
X104825155Y-84963000D01*
X104946476Y-84733110D01*
X104776645Y-84323076D01*
X104386358Y-83894817D01*
X104227046Y-83820000D01*
X104386358Y-83745183D01*
X104776645Y-83316924D01*
X104946476Y-82906890D01*
X104825155Y-82677000D01*
X103632000Y-82677000D01*
X103378000Y-82677000D01*
X103358000Y-82677000D01*
X103358000Y-82423000D01*
X103378000Y-82423000D01*
X103378000Y-81229181D01*
X103632000Y-81229181D01*
X103632000Y-82423000D01*
X104825155Y-82423000D01*
X104946476Y-82193110D01*
X104776645Y-81783076D01*
X104386358Y-81354817D01*
X103861892Y-81108514D01*
X103632000Y-81229181D01*
X103378000Y-81229181D01*
X103148108Y-81108514D01*
X102623642Y-81354817D01*
X102436192Y-81560504D01*
X102418162Y-81464683D01*
X102279090Y-81248559D01*
X102066890Y-81103569D01*
X101815000Y-81052560D01*
X100115000Y-81052560D01*
X99879683Y-81096838D01*
X99663559Y-81235910D01*
X99518569Y-81448110D01*
X99467560Y-81700000D01*
X99467560Y-83400000D01*
X99511838Y-83635317D01*
X99650910Y-83851441D01*
X99863110Y-83996431D01*
X99930541Y-84010086D01*
X99885853Y-84039946D01*
X99563946Y-84521715D01*
X99450907Y-85090000D01*
X99563946Y-85658285D01*
X99885853Y-86140054D01*
X100215026Y-86360000D01*
X99885853Y-86579946D01*
X99563946Y-87061715D01*
X99450907Y-87630000D01*
X99563946Y-88198285D01*
X99885853Y-88680054D01*
X100215026Y-88900000D01*
X99885853Y-89119946D01*
X99563946Y-89601715D01*
X99450907Y-90170000D01*
X99563946Y-90738285D01*
X99885853Y-91220054D01*
X100215026Y-91440000D01*
X99885853Y-91659946D01*
X99563946Y-92141715D01*
X99450907Y-92710000D01*
X99563946Y-93278285D01*
X99885853Y-93760054D01*
X100215026Y-93980000D01*
X99885853Y-94199946D01*
X99563946Y-94681715D01*
X99450907Y-95250000D01*
X99563946Y-95818285D01*
X99885853Y-96300054D01*
X100215026Y-96520000D01*
X99885853Y-96739946D01*
X99563946Y-97221715D01*
X99450907Y-97790000D01*
X99563946Y-98358285D01*
X99885853Y-98840054D01*
X100215026Y-99060000D01*
X99885853Y-99279946D01*
X99563946Y-99761715D01*
X99450907Y-100330000D01*
X99563946Y-100898285D01*
X99885853Y-101380054D01*
X100215026Y-101600000D01*
X99885853Y-101819946D01*
X99563946Y-102301715D01*
X99450907Y-102870000D01*
X99563946Y-103438285D01*
X99885853Y-103920054D01*
X100215026Y-104140000D01*
X99885853Y-104359946D01*
X99563946Y-104841715D01*
X99450907Y-105410000D01*
X99563946Y-105978285D01*
X99885853Y-106460054D01*
X100215026Y-106680000D01*
X99885853Y-106899946D01*
X99563946Y-107381715D01*
X99450907Y-107950000D01*
X99563946Y-108518285D01*
X99885853Y-109000054D01*
X100215026Y-109220000D01*
X99885853Y-109439946D01*
X99563946Y-109921715D01*
X99450907Y-110490000D01*
X99563946Y-111058285D01*
X99885853Y-111540054D01*
X100215026Y-111760000D01*
X99885853Y-111979946D01*
X99563946Y-112461715D01*
X99450907Y-113030000D01*
X99563946Y-113598285D01*
X99885853Y-114080054D01*
X100215026Y-114300000D01*
X99885853Y-114519946D01*
X99692046Y-114810000D01*
X85404802Y-114810000D01*
X84580000Y-113985198D01*
X84580000Y-101600000D01*
X84522148Y-101309161D01*
X84357401Y-101062599D01*
X80552401Y-97257599D01*
X80305839Y-97092852D01*
X80015000Y-97035000D01*
X79367440Y-97035000D01*
X79367440Y-96871667D01*
X79323162Y-96636350D01*
X79184090Y-96420226D01*
X78971890Y-96275236D01*
X78720000Y-96224227D01*
X75626500Y-96224227D01*
X75626500Y-83669074D01*
X76752441Y-83669074D01*
X77242687Y-84855561D01*
X78149664Y-85764123D01*
X79335294Y-86256439D01*
X80619074Y-86257559D01*
X81805561Y-85767313D01*
X82714123Y-84860336D01*
X83206439Y-83674706D01*
X83207559Y-82390926D01*
X82717313Y-81204439D01*
X81810336Y-80295877D01*
X80624706Y-79803561D01*
X79340926Y-79802441D01*
X78154439Y-80292687D01*
X77245877Y-81199664D01*
X76753561Y-82385294D01*
X76752441Y-83669074D01*
X75626500Y-83669074D01*
X75626500Y-79252500D01*
X106206500Y-79252500D01*
X106206500Y-146832500D01*
G36*
X81155000Y-108899802D02*
X81155000Y-120015000D01*
X81212852Y-120305839D01*
X81377599Y-120552401D01*
X84552599Y-123727401D01*
X84799161Y-123892148D01*
X85090000Y-123950000D01*
X86995000Y-123950000D01*
X87285839Y-123892148D01*
X87532401Y-123727401D01*
X89214802Y-122045000D01*
X89671706Y-122045000D01*
X88185822Y-123530884D01*
X87966882Y-123858552D01*
X87890000Y-124245062D01*
X87890000Y-128486644D01*
X85645822Y-130730822D01*
X85426882Y-131058490D01*
X85350000Y-131445000D01*
X85350000Y-131609090D01*
X85309946Y-131635853D01*
X85090000Y-131965026D01*
X84870054Y-131635853D01*
X84830000Y-131609090D01*
X84830000Y-131512919D01*
X84753118Y-131126409D01*
X84534178Y-130798741D01*
X81286259Y-127550822D01*
X80958591Y-127331882D01*
X80572081Y-127255000D01*
X79351132Y-127255000D01*
X79323162Y-127106350D01*
X79184090Y-126890226D01*
X79171832Y-126881851D01*
X79316431Y-126670223D01*
X79367440Y-126418333D01*
X79367440Y-124571667D01*
X79323162Y-124336350D01*
X79184090Y-124120226D01*
X79171832Y-124111851D01*
X79316431Y-123900223D01*
X79367440Y-123648333D01*
X79367440Y-121801667D01*
X79323162Y-121566350D01*
X79184090Y-121350226D01*
X79171832Y-121341851D01*
X79316431Y-121130223D01*
X79367440Y-120878333D01*
X79367440Y-119031667D01*
X79323162Y-118796350D01*
X79184090Y-118580226D01*
X79161540Y-118564818D01*
X79258327Y-118468031D01*
X79355000Y-118234642D01*
X79355000Y-117470750D01*
X79196250Y-117312000D01*
X77107000Y-117312000D01*
X77107000Y-117332000D01*
X76853000Y-117332000D01*
X76853000Y-117312000D01*
X76833000Y-117312000D01*
X76833000Y-117058000D01*
X76853000Y-117058000D01*
X76853000Y-114542000D01*
X77107000Y-114542000D01*
X77107000Y-117058000D01*
X79196250Y-117058000D01*
X79355000Y-116899250D01*
X79355000Y-116135358D01*
X79258327Y-115901969D01*
X79156359Y-115800000D01*
X79258327Y-115698031D01*
X79355000Y-115464642D01*
X79355000Y-114700750D01*
X79196250Y-114542000D01*
X77107000Y-114542000D01*
X76853000Y-114542000D01*
X76833000Y-114542000D01*
X76833000Y-114288000D01*
X76853000Y-114288000D01*
X76853000Y-111772000D01*
X77107000Y-111772000D01*
X77107000Y-114288000D01*
X79196250Y-114288000D01*
X79355000Y-114129250D01*
X79355000Y-113365358D01*
X79258327Y-113131969D01*
X79156359Y-113030000D01*
X79258327Y-112928031D01*
X79355000Y-112694642D01*
X79355000Y-111930750D01*
X79196250Y-111772000D01*
X77107000Y-111772000D01*
X76853000Y-111772000D01*
X76833000Y-111772000D01*
X76833000Y-111518000D01*
X76853000Y-111518000D01*
X76853000Y-109002000D01*
X77107000Y-109002000D01*
X77107000Y-111518000D01*
X79196250Y-111518000D01*
X79355000Y-111359250D01*
X79355000Y-110595358D01*
X79258327Y-110361969D01*
X79156359Y-110260000D01*
X79258327Y-110158031D01*
X79355000Y-109924642D01*
X79355000Y-109160750D01*
X79196250Y-109002000D01*
X77107000Y-109002000D01*
X76853000Y-109002000D01*
X76833000Y-109002000D01*
X76833000Y-108748000D01*
X76853000Y-108748000D01*
X76853000Y-108728000D01*
X77107000Y-108728000D01*
X77107000Y-108748000D01*
X79196250Y-108748000D01*
X79355000Y-108589250D01*
X79355000Y-107825358D01*
X79258327Y-107591969D01*
X79163738Y-107497380D01*
X79171441Y-107492423D01*
X79316431Y-107280223D01*
X79353310Y-107098112D01*
X81155000Y-108899802D01*
X81155000Y-108899802D01*
G37*
X81155000Y-108899802D02*
X81155000Y-120015000D01*
X81212852Y-120305839D01*
X81377599Y-120552401D01*
X84552599Y-123727401D01*
X84799161Y-123892148D01*
X85090000Y-123950000D01*
X86995000Y-123950000D01*
X87285839Y-123892148D01*
X87532401Y-123727401D01*
X89214802Y-122045000D01*
X89671706Y-122045000D01*
X88185822Y-123530884D01*
X87966882Y-123858552D01*
X87890000Y-124245062D01*
X87890000Y-128486644D01*
X85645822Y-130730822D01*
X85426882Y-131058490D01*
X85350000Y-131445000D01*
X85350000Y-131609090D01*
X85309946Y-131635853D01*
X85090000Y-131965026D01*
X84870054Y-131635853D01*
X84830000Y-131609090D01*
X84830000Y-131512919D01*
X84753118Y-131126409D01*
X84534178Y-130798741D01*
X81286259Y-127550822D01*
X80958591Y-127331882D01*
X80572081Y-127255000D01*
X79351132Y-127255000D01*
X79323162Y-127106350D01*
X79184090Y-126890226D01*
X79171832Y-126881851D01*
X79316431Y-126670223D01*
X79367440Y-126418333D01*
X79367440Y-124571667D01*
X79323162Y-124336350D01*
X79184090Y-124120226D01*
X79171832Y-124111851D01*
X79316431Y-123900223D01*
X79367440Y-123648333D01*
X79367440Y-121801667D01*
X79323162Y-121566350D01*
X79184090Y-121350226D01*
X79171832Y-121341851D01*
X79316431Y-121130223D01*
X79367440Y-120878333D01*
X79367440Y-119031667D01*
X79323162Y-118796350D01*
X79184090Y-118580226D01*
X79161540Y-118564818D01*
X79258327Y-118468031D01*
X79355000Y-118234642D01*
X79355000Y-117470750D01*
X79196250Y-117312000D01*
X77107000Y-117312000D01*
X77107000Y-117332000D01*
X76853000Y-117332000D01*
X76853000Y-117312000D01*
X76833000Y-117312000D01*
X76833000Y-117058000D01*
X76853000Y-117058000D01*
X76853000Y-114542000D01*
X77107000Y-114542000D01*
X77107000Y-117058000D01*
X79196250Y-117058000D01*
X79355000Y-116899250D01*
X79355000Y-116135358D01*
X79258327Y-115901969D01*
X79156359Y-115800000D01*
X79258327Y-115698031D01*
X79355000Y-115464642D01*
X79355000Y-114700750D01*
X79196250Y-114542000D01*
X77107000Y-114542000D01*
X76853000Y-114542000D01*
X76833000Y-114542000D01*
X76833000Y-114288000D01*
X76853000Y-114288000D01*
X76853000Y-111772000D01*
X77107000Y-111772000D01*
X77107000Y-114288000D01*
X79196250Y-114288000D01*
X79355000Y-114129250D01*
X79355000Y-113365358D01*
X79258327Y-113131969D01*
X79156359Y-113030000D01*
X79258327Y-112928031D01*
X79355000Y-112694642D01*
X79355000Y-111930750D01*
X79196250Y-111772000D01*
X77107000Y-111772000D01*
X76853000Y-111772000D01*
X76833000Y-111772000D01*
X76833000Y-111518000D01*
X76853000Y-111518000D01*
X76853000Y-109002000D01*
X77107000Y-109002000D01*
X77107000Y-111518000D01*
X79196250Y-111518000D01*
X79355000Y-111359250D01*
X79355000Y-110595358D01*
X79258327Y-110361969D01*
X79156359Y-110260000D01*
X79258327Y-110158031D01*
X79355000Y-109924642D01*
X79355000Y-109160750D01*
X79196250Y-109002000D01*
X77107000Y-109002000D01*
X76853000Y-109002000D01*
X76833000Y-109002000D01*
X76833000Y-108748000D01*
X76853000Y-108748000D01*
X76853000Y-108728000D01*
X77107000Y-108728000D01*
X77107000Y-108748000D01*
X79196250Y-108748000D01*
X79355000Y-108589250D01*
X79355000Y-107825358D01*
X79258327Y-107591969D01*
X79163738Y-107497380D01*
X79171441Y-107492423D01*
X79316431Y-107280223D01*
X79353310Y-107098112D01*
X81155000Y-108899802D01*
M02*
