G04 #@! TF.FileFunction,Soldermask,Bot*
%FSLAX46Y46*%
G04 Gerber Fmt 4.6, Leading zero omitted, Abs format (unit mm)*
G04 Created by KiCad (PCBNEW 4.0.7) date Mon Nov 20 01:04:48 2017*
%MOMM*%
%LPD*%
G01*
G04 APERTURE LIST*
%ADD10C,0.100000*%
%ADD11R,3.880000X2.246667*%
%ADD12R,2.100000X2.100000*%
%ADD13O,2.100000X2.100000*%
%ADD14C,3.600000*%
G04 APERTURE END LIST*
D10*
D11*
X76980000Y-96410000D03*
X76980000Y-99180000D03*
X76980000Y-101950000D03*
X76980000Y-104720000D03*
X76980000Y-107490000D03*
X76980000Y-110260000D03*
X76980000Y-113030000D03*
X76980000Y-115800000D03*
X76980000Y-118570000D03*
X76980000Y-121340000D03*
X76980000Y-124110000D03*
X76980000Y-126880000D03*
X76980000Y-129650000D03*
D12*
X100965000Y-82550000D03*
D13*
X103505000Y-82550000D03*
X100965000Y-85090000D03*
X103505000Y-85090000D03*
X100965000Y-87630000D03*
X103505000Y-87630000D03*
X100965000Y-90170000D03*
X103505000Y-90170000D03*
X100965000Y-92710000D03*
X103505000Y-92710000D03*
X100965000Y-95250000D03*
X103505000Y-95250000D03*
X100965000Y-97790000D03*
X103505000Y-97790000D03*
X100965000Y-100330000D03*
X103505000Y-100330000D03*
X100965000Y-102870000D03*
X103505000Y-102870000D03*
X100965000Y-105410000D03*
X103505000Y-105410000D03*
X100965000Y-107950000D03*
X103505000Y-107950000D03*
X100965000Y-110490000D03*
X103505000Y-110490000D03*
X100965000Y-113030000D03*
X103505000Y-113030000D03*
X100965000Y-115570000D03*
X103505000Y-115570000D03*
X100965000Y-118110000D03*
X103505000Y-118110000D03*
X100965000Y-120650000D03*
X103505000Y-120650000D03*
X100965000Y-123190000D03*
X103505000Y-123190000D03*
X100965000Y-125730000D03*
X103505000Y-125730000D03*
X100965000Y-128270000D03*
X103505000Y-128270000D03*
X100965000Y-130810000D03*
X103505000Y-130810000D03*
X100965000Y-133350000D03*
X103505000Y-133350000D03*
X100965000Y-135890000D03*
X103505000Y-135890000D03*
X100965000Y-138430000D03*
X103505000Y-138430000D03*
X100965000Y-140970000D03*
X103505000Y-140970000D03*
X100965000Y-143510000D03*
X103505000Y-143510000D03*
D14*
X79980000Y-83030000D03*
X79980000Y-143030000D03*
D12*
X81280000Y-132715000D03*
D13*
X83820000Y-132715000D03*
X86360000Y-132715000D03*
D12*
X92075000Y-125730000D03*
D13*
X94615000Y-125730000D03*
X92075000Y-128270000D03*
X94615000Y-128270000D03*
X92075000Y-130810000D03*
X94615000Y-130810000D03*
X92075000Y-133350000D03*
X94615000Y-133350000D03*
X92075000Y-135890000D03*
X94615000Y-135890000D03*
X92075000Y-138430000D03*
X94615000Y-138430000D03*
X92075000Y-140970000D03*
X94615000Y-140970000D03*
X92075000Y-143510000D03*
X94615000Y-143510000D03*
D12*
X81280000Y-135890000D03*
D13*
X83820000Y-135890000D03*
X86360000Y-135890000D03*
M02*
