G04 #@! TF.FileFunction,Legend,Top*
%FSLAX46Y46*%
G04 Gerber Fmt 4.6, Leading zero omitted, Abs format (unit mm)*
G04 Created by KiCad (PCBNEW 4.0.7) date Mon Nov 20 01:04:48 2017*
%MOMM*%
%LPD*%
G01*
G04 APERTURE LIST*
%ADD10C,0.100000*%
%ADD11C,0.250000*%
%ADD12C,0.400000*%
%ADD13C,0.002540*%
%ADD14C,0.120000*%
%ADD15C,0.150000*%
G04 APERTURE END LIST*
D10*
D11*
X80756476Y-137930000D02*
X80661238Y-137882381D01*
X80518381Y-137882381D01*
X80375523Y-137930000D01*
X80280285Y-138025238D01*
X80232666Y-138120476D01*
X80185047Y-138310952D01*
X80185047Y-138453810D01*
X80232666Y-138644286D01*
X80280285Y-138739524D01*
X80375523Y-138834762D01*
X80518381Y-138882381D01*
X80613619Y-138882381D01*
X80756476Y-138834762D01*
X80804095Y-138787143D01*
X80804095Y-138453810D01*
X80613619Y-138453810D01*
X81232666Y-138882381D02*
X81232666Y-137882381D01*
X81804095Y-138882381D01*
X81804095Y-137882381D01*
X82280285Y-138882381D02*
X82280285Y-137882381D01*
X82518380Y-137882381D01*
X82661238Y-137930000D01*
X82756476Y-138025238D01*
X82804095Y-138120476D01*
X82851714Y-138310952D01*
X82851714Y-138453810D01*
X82804095Y-138644286D01*
X82756476Y-138739524D01*
X82661238Y-138834762D01*
X82518380Y-138882381D01*
X82280285Y-138882381D01*
X86042191Y-137882381D02*
X85566000Y-137882381D01*
X85518381Y-138358571D01*
X85566000Y-138310952D01*
X85661238Y-138263333D01*
X85899334Y-138263333D01*
X85994572Y-138310952D01*
X86042191Y-138358571D01*
X86089810Y-138453810D01*
X86089810Y-138691905D01*
X86042191Y-138787143D01*
X85994572Y-138834762D01*
X85899334Y-138882381D01*
X85661238Y-138882381D01*
X85566000Y-138834762D01*
X85518381Y-138787143D01*
X86375524Y-137882381D02*
X86708857Y-138882381D01*
X87042191Y-137882381D01*
D12*
X90821262Y-119066311D02*
X88821262Y-119066311D01*
X89773643Y-119066311D02*
X89773643Y-117923453D01*
X90821262Y-117923453D02*
X88821262Y-117923453D01*
X90821262Y-116971073D02*
X88821262Y-116971073D01*
X88821262Y-116494882D01*
X88916500Y-116209168D01*
X89106976Y-116018692D01*
X89297452Y-115923453D01*
X89678405Y-115828215D01*
X89964119Y-115828215D01*
X90345071Y-115923453D01*
X90535548Y-116018692D01*
X90726024Y-116209168D01*
X90821262Y-116494882D01*
X90821262Y-116971073D01*
X88821262Y-114018692D02*
X88821262Y-114971073D01*
X89773643Y-115066311D01*
X89678405Y-114971073D01*
X89583167Y-114780596D01*
X89583167Y-114304406D01*
X89678405Y-114113930D01*
X89773643Y-114018692D01*
X89964119Y-113923453D01*
X90440310Y-113923453D01*
X90630786Y-114018692D01*
X90726024Y-114113930D01*
X90821262Y-114304406D01*
X90821262Y-114780596D01*
X90726024Y-114971073D01*
X90630786Y-115066311D01*
X88821262Y-112685358D02*
X88821262Y-112494882D01*
X88916500Y-112304406D01*
X89011738Y-112209168D01*
X89202214Y-112113930D01*
X89583167Y-112018691D01*
X90059357Y-112018691D01*
X90440310Y-112113930D01*
X90630786Y-112209168D01*
X90726024Y-112304406D01*
X90821262Y-112494882D01*
X90821262Y-112685358D01*
X90726024Y-112875834D01*
X90630786Y-112971072D01*
X90440310Y-113066311D01*
X90059357Y-113161549D01*
X89583167Y-113161549D01*
X89202214Y-113066311D01*
X89011738Y-112971072D01*
X88916500Y-112875834D01*
X88821262Y-112685358D01*
X90821262Y-109637739D02*
X88821262Y-109637739D01*
X88821262Y-109161548D01*
X88916500Y-108875834D01*
X89106976Y-108685358D01*
X89297452Y-108590119D01*
X89678405Y-108494881D01*
X89964119Y-108494881D01*
X90345071Y-108590119D01*
X90535548Y-108685358D01*
X90726024Y-108875834D01*
X90821262Y-109161548D01*
X90821262Y-109637739D01*
X89773643Y-106971072D02*
X89868881Y-106685358D01*
X89964119Y-106590119D01*
X90154595Y-106494881D01*
X90440310Y-106494881D01*
X90630786Y-106590119D01*
X90726024Y-106685358D01*
X90821262Y-106875834D01*
X90821262Y-107637739D01*
X88821262Y-107637739D01*
X88821262Y-106971072D01*
X88916500Y-106780596D01*
X89011738Y-106685358D01*
X89202214Y-106590119D01*
X89392690Y-106590119D01*
X89583167Y-106685358D01*
X89678405Y-106780596D01*
X89773643Y-106971072D01*
X89773643Y-107637739D01*
X89011738Y-105732977D02*
X88916500Y-105637739D01*
X88821262Y-105447262D01*
X88821262Y-104971072D01*
X88916500Y-104780596D01*
X89011738Y-104685358D01*
X89202214Y-104590119D01*
X89392690Y-104590119D01*
X89678405Y-104685358D01*
X90821262Y-105828215D01*
X90821262Y-104590119D01*
X88821262Y-102780596D02*
X88821262Y-103732977D01*
X89773643Y-103828215D01*
X89678405Y-103732977D01*
X89583167Y-103542500D01*
X89583167Y-103066310D01*
X89678405Y-102875834D01*
X89773643Y-102780596D01*
X89964119Y-102685357D01*
X90440310Y-102685357D01*
X90630786Y-102780596D01*
X90726024Y-102875834D01*
X90821262Y-103066310D01*
X90821262Y-103542500D01*
X90726024Y-103732977D01*
X90630786Y-103828215D01*
X90249833Y-100399643D02*
X90249833Y-99447262D01*
X90821262Y-100590119D02*
X88821262Y-99923452D01*
X90821262Y-99256785D01*
X90821262Y-97732976D02*
X88821262Y-97732976D01*
X90726024Y-97732976D02*
X90821262Y-97923452D01*
X90821262Y-98304404D01*
X90726024Y-98494880D01*
X90630786Y-98590119D01*
X90440310Y-98685357D01*
X89868881Y-98685357D01*
X89678405Y-98590119D01*
X89583167Y-98494880D01*
X89487929Y-98304404D01*
X89487929Y-97923452D01*
X89583167Y-97732976D01*
X90821262Y-95923452D02*
X89773643Y-95923452D01*
X89583167Y-96018690D01*
X89487929Y-96209166D01*
X89487929Y-96590118D01*
X89583167Y-96780595D01*
X90726024Y-95923452D02*
X90821262Y-96113928D01*
X90821262Y-96590118D01*
X90726024Y-96780595D01*
X90535548Y-96875833D01*
X90345071Y-96875833D01*
X90154595Y-96780595D01*
X90059357Y-96590118D01*
X90059357Y-96113928D01*
X89964119Y-95923452D01*
X89487929Y-94971071D02*
X91487929Y-94971071D01*
X89583167Y-94971071D02*
X89487929Y-94780594D01*
X89487929Y-94399642D01*
X89583167Y-94209166D01*
X89678405Y-94113928D01*
X89868881Y-94018690D01*
X90440310Y-94018690D01*
X90630786Y-94113928D01*
X90726024Y-94209166D01*
X90821262Y-94399642D01*
X90821262Y-94780594D01*
X90726024Y-94971071D01*
X89487929Y-93447261D02*
X89487929Y-92685356D01*
X88821262Y-93161547D02*
X90535548Y-93161547D01*
X90726024Y-93066308D01*
X90821262Y-92875832D01*
X90821262Y-92685356D01*
X90726024Y-91256785D02*
X90821262Y-91447261D01*
X90821262Y-91828213D01*
X90726024Y-92018690D01*
X90535548Y-92113928D01*
X89773643Y-92113928D01*
X89583167Y-92018690D01*
X89487929Y-91828213D01*
X89487929Y-91447261D01*
X89583167Y-91256785D01*
X89773643Y-91161547D01*
X89964119Y-91161547D01*
X90154595Y-92113928D01*
X90821262Y-90304404D02*
X89487929Y-90304404D01*
X89868881Y-90304404D02*
X89678405Y-90209165D01*
X89583167Y-90113927D01*
X89487929Y-89923451D01*
X89487929Y-89732975D01*
D11*
X81843809Y-129992381D02*
X81843809Y-128992381D01*
X82224762Y-128992381D01*
X82320000Y-129040000D01*
X82367619Y-129087619D01*
X82415238Y-129182857D01*
X82415238Y-129325714D01*
X82367619Y-129420952D01*
X82320000Y-129468571D01*
X82224762Y-129516190D01*
X81843809Y-129516190D01*
X82986666Y-129992381D02*
X82891428Y-129944762D01*
X82843809Y-129897143D01*
X82796190Y-129801905D01*
X82796190Y-129516190D01*
X82843809Y-129420952D01*
X82891428Y-129373333D01*
X82986666Y-129325714D01*
X83129524Y-129325714D01*
X83224762Y-129373333D01*
X83272381Y-129420952D01*
X83320000Y-129516190D01*
X83320000Y-129801905D01*
X83272381Y-129897143D01*
X83224762Y-129944762D01*
X83129524Y-129992381D01*
X82986666Y-129992381D01*
X83653333Y-129325714D02*
X83843809Y-129992381D01*
X84034286Y-129516190D01*
X84224762Y-129992381D01*
X84415238Y-129325714D01*
X85177143Y-129944762D02*
X85081905Y-129992381D01*
X84891428Y-129992381D01*
X84796190Y-129944762D01*
X84748571Y-129849524D01*
X84748571Y-129468571D01*
X84796190Y-129373333D01*
X84891428Y-129325714D01*
X85081905Y-129325714D01*
X85177143Y-129373333D01*
X85224762Y-129468571D01*
X85224762Y-129563810D01*
X84748571Y-129659048D01*
X85653333Y-129992381D02*
X85653333Y-129325714D01*
X85653333Y-129516190D02*
X85700952Y-129420952D01*
X85748571Y-129373333D01*
X85843809Y-129325714D01*
X85939048Y-129325714D01*
D13*
G36*
X88347860Y-86237440D02*
X88380880Y-86219660D01*
X88449460Y-86176480D01*
X88551060Y-86110440D01*
X88667900Y-86031700D01*
X88787280Y-85950420D01*
X88886340Y-85884380D01*
X88954920Y-85841200D01*
X88982860Y-85825960D01*
X88998100Y-85831040D01*
X89053980Y-85858980D01*
X89135260Y-85902160D01*
X89183520Y-85925020D01*
X89259720Y-85958040D01*
X89295280Y-85965660D01*
X89302900Y-85955500D01*
X89330840Y-85897080D01*
X89374020Y-85798020D01*
X89429900Y-85668480D01*
X89495940Y-85516080D01*
X89564520Y-85350980D01*
X89633100Y-85183340D01*
X89699140Y-85025860D01*
X89760100Y-84881080D01*
X89805820Y-84764240D01*
X89836300Y-84682960D01*
X89849000Y-84647400D01*
X89843920Y-84639780D01*
X89808360Y-84604220D01*
X89742320Y-84555960D01*
X89600080Y-84439120D01*
X89460380Y-84263860D01*
X89374020Y-84065740D01*
X89346080Y-83844760D01*
X89368940Y-83641560D01*
X89450220Y-83445980D01*
X89587380Y-83268180D01*
X89755020Y-83136100D01*
X89948060Y-83054820D01*
X90166500Y-83026880D01*
X90374780Y-83049740D01*
X90575440Y-83128480D01*
X90753240Y-83263100D01*
X90826900Y-83349460D01*
X90931040Y-83529800D01*
X90989460Y-83720300D01*
X90994540Y-83768560D01*
X90986920Y-83979380D01*
X90923420Y-84182580D01*
X90814200Y-84362920D01*
X90659260Y-84510240D01*
X90638940Y-84525480D01*
X90567820Y-84578820D01*
X90519560Y-84614380D01*
X90481460Y-84644860D01*
X90750700Y-85292560D01*
X90793880Y-85394160D01*
X90867540Y-85569420D01*
X90931040Y-85721820D01*
X90984380Y-85843740D01*
X91019940Y-85925020D01*
X91035180Y-85958040D01*
X91037720Y-85958040D01*
X91060580Y-85963120D01*
X91108840Y-85945340D01*
X91200280Y-85902160D01*
X91258700Y-85871680D01*
X91327280Y-85838660D01*
X91357760Y-85825960D01*
X91385700Y-85838660D01*
X91451740Y-85881840D01*
X91545720Y-85947880D01*
X91662560Y-86024080D01*
X91771780Y-86100280D01*
X91873380Y-86166320D01*
X91947040Y-86214580D01*
X91982600Y-86232360D01*
X91987680Y-86232360D01*
X92020700Y-86214580D01*
X92079120Y-86166320D01*
X92165480Y-86082500D01*
X92289940Y-85960580D01*
X92310260Y-85942800D01*
X92411860Y-85838660D01*
X92495680Y-85749760D01*
X92551560Y-85688800D01*
X92571880Y-85660860D01*
X92571880Y-85660860D01*
X92551560Y-85625300D01*
X92505840Y-85551640D01*
X92439800Y-85450040D01*
X92358520Y-85328120D01*
X92142620Y-85018240D01*
X92262000Y-84726140D01*
X92297560Y-84634700D01*
X92343280Y-84525480D01*
X92376300Y-84449280D01*
X92394080Y-84413720D01*
X92427100Y-84403560D01*
X92505840Y-84383240D01*
X92622680Y-84360380D01*
X92762380Y-84334980D01*
X92894460Y-84309580D01*
X93013840Y-84286720D01*
X93100200Y-84271480D01*
X93138300Y-84263860D01*
X93148460Y-84256240D01*
X93156080Y-84238460D01*
X93161160Y-84197820D01*
X93163700Y-84124160D01*
X93166240Y-84009860D01*
X93166240Y-83844760D01*
X93166240Y-83826980D01*
X93163700Y-83669500D01*
X93161160Y-83545040D01*
X93156080Y-83463760D01*
X93151000Y-83430740D01*
X93151000Y-83430740D01*
X93112900Y-83420580D01*
X93029080Y-83402800D01*
X92909700Y-83379940D01*
X92767460Y-83352000D01*
X92757300Y-83352000D01*
X92615060Y-83324060D01*
X92498220Y-83298660D01*
X92414400Y-83280880D01*
X92378840Y-83268180D01*
X92371220Y-83258020D01*
X92343280Y-83202140D01*
X92302640Y-83115780D01*
X92254380Y-83009100D01*
X92208660Y-82897340D01*
X92168020Y-82795740D01*
X92142620Y-82722080D01*
X92135000Y-82686520D01*
X92135000Y-82686520D01*
X92155320Y-82653500D01*
X92203580Y-82579840D01*
X92274700Y-82478240D01*
X92355980Y-82356320D01*
X92363600Y-82346160D01*
X92444880Y-82226780D01*
X92510920Y-82125180D01*
X92554100Y-82054060D01*
X92571880Y-82021040D01*
X92571880Y-82018500D01*
X92543940Y-81982940D01*
X92482980Y-81914360D01*
X92394080Y-81822920D01*
X92289940Y-81718780D01*
X92256920Y-81685760D01*
X92140080Y-81571460D01*
X92058800Y-81497800D01*
X92008000Y-81457160D01*
X91985140Y-81447000D01*
X91982600Y-81449540D01*
X91947040Y-81469860D01*
X91870840Y-81520660D01*
X91769240Y-81589240D01*
X91647320Y-81673060D01*
X91639700Y-81678140D01*
X91517780Y-81759420D01*
X91418720Y-81828000D01*
X91347600Y-81873720D01*
X91317120Y-81891500D01*
X91312040Y-81891500D01*
X91263780Y-81878800D01*
X91177420Y-81848320D01*
X91073280Y-81807680D01*
X90961520Y-81764500D01*
X90859920Y-81721320D01*
X90786260Y-81685760D01*
X90750700Y-81665440D01*
X90748160Y-81665440D01*
X90735460Y-81622260D01*
X90715140Y-81530820D01*
X90689740Y-81408900D01*
X90661800Y-81261580D01*
X90656720Y-81238720D01*
X90631320Y-81093940D01*
X90608460Y-80977100D01*
X90590680Y-80895820D01*
X90583060Y-80860260D01*
X90562740Y-80857720D01*
X90491620Y-80852640D01*
X90384940Y-80847560D01*
X90255400Y-80847560D01*
X90120780Y-80847560D01*
X89988700Y-80850100D01*
X89876940Y-80855180D01*
X89795660Y-80860260D01*
X89760100Y-80867880D01*
X89760100Y-80870420D01*
X89747400Y-80913600D01*
X89727080Y-81002500D01*
X89701680Y-81126960D01*
X89673740Y-81274280D01*
X89668660Y-81302220D01*
X89643260Y-81444460D01*
X89617860Y-81561300D01*
X89600080Y-81640040D01*
X89592460Y-81673060D01*
X89579760Y-81678140D01*
X89521340Y-81706080D01*
X89424820Y-81744180D01*
X89305440Y-81792440D01*
X89031120Y-81904200D01*
X88695840Y-81673060D01*
X88665360Y-81652740D01*
X88543440Y-81568920D01*
X88444380Y-81502880D01*
X88373260Y-81459700D01*
X88345320Y-81441920D01*
X88342780Y-81444460D01*
X88309760Y-81472400D01*
X88243720Y-81535900D01*
X88152280Y-81624800D01*
X88045600Y-81728940D01*
X87966860Y-81807680D01*
X87875420Y-81901660D01*
X87817000Y-81965160D01*
X87783980Y-82005800D01*
X87771280Y-82031200D01*
X87776360Y-82048980D01*
X87796680Y-82082000D01*
X87847480Y-82155660D01*
X87916060Y-82259800D01*
X87997340Y-82376640D01*
X88065920Y-82478240D01*
X88139580Y-82590000D01*
X88185300Y-82671280D01*
X88203080Y-82709380D01*
X88198000Y-82727160D01*
X88175140Y-82793200D01*
X88134500Y-82892260D01*
X88083700Y-83011640D01*
X87966860Y-83278340D01*
X87791600Y-83311360D01*
X87687460Y-83331680D01*
X87537600Y-83359620D01*
X87395360Y-83387560D01*
X87174380Y-83430740D01*
X87166760Y-84241000D01*
X87202320Y-84256240D01*
X87235340Y-84266400D01*
X87316620Y-84284180D01*
X87433460Y-84307040D01*
X87570620Y-84332440D01*
X87690000Y-84355300D01*
X87806840Y-84378160D01*
X87893200Y-84393400D01*
X87931300Y-84401020D01*
X87938920Y-84413720D01*
X87969400Y-84472140D01*
X88012580Y-84563580D01*
X88058300Y-84672800D01*
X88106560Y-84787100D01*
X88147200Y-84891240D01*
X88177680Y-84972520D01*
X88187840Y-85013160D01*
X88172600Y-85043640D01*
X88126880Y-85114760D01*
X88060840Y-85213820D01*
X87982100Y-85330660D01*
X87900820Y-85450040D01*
X87832240Y-85549100D01*
X87783980Y-85622760D01*
X87766200Y-85655780D01*
X87776360Y-85678640D01*
X87822080Y-85734520D01*
X87910980Y-85825960D01*
X88043060Y-85958040D01*
X88065920Y-85978360D01*
X88170060Y-86079960D01*
X88258960Y-86161240D01*
X88319920Y-86217120D01*
X88347860Y-86237440D01*
X88347860Y-86237440D01*
G37*
X88347860Y-86237440D02*
X88380880Y-86219660D01*
X88449460Y-86176480D01*
X88551060Y-86110440D01*
X88667900Y-86031700D01*
X88787280Y-85950420D01*
X88886340Y-85884380D01*
X88954920Y-85841200D01*
X88982860Y-85825960D01*
X88998100Y-85831040D01*
X89053980Y-85858980D01*
X89135260Y-85902160D01*
X89183520Y-85925020D01*
X89259720Y-85958040D01*
X89295280Y-85965660D01*
X89302900Y-85955500D01*
X89330840Y-85897080D01*
X89374020Y-85798020D01*
X89429900Y-85668480D01*
X89495940Y-85516080D01*
X89564520Y-85350980D01*
X89633100Y-85183340D01*
X89699140Y-85025860D01*
X89760100Y-84881080D01*
X89805820Y-84764240D01*
X89836300Y-84682960D01*
X89849000Y-84647400D01*
X89843920Y-84639780D01*
X89808360Y-84604220D01*
X89742320Y-84555960D01*
X89600080Y-84439120D01*
X89460380Y-84263860D01*
X89374020Y-84065740D01*
X89346080Y-83844760D01*
X89368940Y-83641560D01*
X89450220Y-83445980D01*
X89587380Y-83268180D01*
X89755020Y-83136100D01*
X89948060Y-83054820D01*
X90166500Y-83026880D01*
X90374780Y-83049740D01*
X90575440Y-83128480D01*
X90753240Y-83263100D01*
X90826900Y-83349460D01*
X90931040Y-83529800D01*
X90989460Y-83720300D01*
X90994540Y-83768560D01*
X90986920Y-83979380D01*
X90923420Y-84182580D01*
X90814200Y-84362920D01*
X90659260Y-84510240D01*
X90638940Y-84525480D01*
X90567820Y-84578820D01*
X90519560Y-84614380D01*
X90481460Y-84644860D01*
X90750700Y-85292560D01*
X90793880Y-85394160D01*
X90867540Y-85569420D01*
X90931040Y-85721820D01*
X90984380Y-85843740D01*
X91019940Y-85925020D01*
X91035180Y-85958040D01*
X91037720Y-85958040D01*
X91060580Y-85963120D01*
X91108840Y-85945340D01*
X91200280Y-85902160D01*
X91258700Y-85871680D01*
X91327280Y-85838660D01*
X91357760Y-85825960D01*
X91385700Y-85838660D01*
X91451740Y-85881840D01*
X91545720Y-85947880D01*
X91662560Y-86024080D01*
X91771780Y-86100280D01*
X91873380Y-86166320D01*
X91947040Y-86214580D01*
X91982600Y-86232360D01*
X91987680Y-86232360D01*
X92020700Y-86214580D01*
X92079120Y-86166320D01*
X92165480Y-86082500D01*
X92289940Y-85960580D01*
X92310260Y-85942800D01*
X92411860Y-85838660D01*
X92495680Y-85749760D01*
X92551560Y-85688800D01*
X92571880Y-85660860D01*
X92571880Y-85660860D01*
X92551560Y-85625300D01*
X92505840Y-85551640D01*
X92439800Y-85450040D01*
X92358520Y-85328120D01*
X92142620Y-85018240D01*
X92262000Y-84726140D01*
X92297560Y-84634700D01*
X92343280Y-84525480D01*
X92376300Y-84449280D01*
X92394080Y-84413720D01*
X92427100Y-84403560D01*
X92505840Y-84383240D01*
X92622680Y-84360380D01*
X92762380Y-84334980D01*
X92894460Y-84309580D01*
X93013840Y-84286720D01*
X93100200Y-84271480D01*
X93138300Y-84263860D01*
X93148460Y-84256240D01*
X93156080Y-84238460D01*
X93161160Y-84197820D01*
X93163700Y-84124160D01*
X93166240Y-84009860D01*
X93166240Y-83844760D01*
X93166240Y-83826980D01*
X93163700Y-83669500D01*
X93161160Y-83545040D01*
X93156080Y-83463760D01*
X93151000Y-83430740D01*
X93151000Y-83430740D01*
X93112900Y-83420580D01*
X93029080Y-83402800D01*
X92909700Y-83379940D01*
X92767460Y-83352000D01*
X92757300Y-83352000D01*
X92615060Y-83324060D01*
X92498220Y-83298660D01*
X92414400Y-83280880D01*
X92378840Y-83268180D01*
X92371220Y-83258020D01*
X92343280Y-83202140D01*
X92302640Y-83115780D01*
X92254380Y-83009100D01*
X92208660Y-82897340D01*
X92168020Y-82795740D01*
X92142620Y-82722080D01*
X92135000Y-82686520D01*
X92135000Y-82686520D01*
X92155320Y-82653500D01*
X92203580Y-82579840D01*
X92274700Y-82478240D01*
X92355980Y-82356320D01*
X92363600Y-82346160D01*
X92444880Y-82226780D01*
X92510920Y-82125180D01*
X92554100Y-82054060D01*
X92571880Y-82021040D01*
X92571880Y-82018500D01*
X92543940Y-81982940D01*
X92482980Y-81914360D01*
X92394080Y-81822920D01*
X92289940Y-81718780D01*
X92256920Y-81685760D01*
X92140080Y-81571460D01*
X92058800Y-81497800D01*
X92008000Y-81457160D01*
X91985140Y-81447000D01*
X91982600Y-81449540D01*
X91947040Y-81469860D01*
X91870840Y-81520660D01*
X91769240Y-81589240D01*
X91647320Y-81673060D01*
X91639700Y-81678140D01*
X91517780Y-81759420D01*
X91418720Y-81828000D01*
X91347600Y-81873720D01*
X91317120Y-81891500D01*
X91312040Y-81891500D01*
X91263780Y-81878800D01*
X91177420Y-81848320D01*
X91073280Y-81807680D01*
X90961520Y-81764500D01*
X90859920Y-81721320D01*
X90786260Y-81685760D01*
X90750700Y-81665440D01*
X90748160Y-81665440D01*
X90735460Y-81622260D01*
X90715140Y-81530820D01*
X90689740Y-81408900D01*
X90661800Y-81261580D01*
X90656720Y-81238720D01*
X90631320Y-81093940D01*
X90608460Y-80977100D01*
X90590680Y-80895820D01*
X90583060Y-80860260D01*
X90562740Y-80857720D01*
X90491620Y-80852640D01*
X90384940Y-80847560D01*
X90255400Y-80847560D01*
X90120780Y-80847560D01*
X89988700Y-80850100D01*
X89876940Y-80855180D01*
X89795660Y-80860260D01*
X89760100Y-80867880D01*
X89760100Y-80870420D01*
X89747400Y-80913600D01*
X89727080Y-81002500D01*
X89701680Y-81126960D01*
X89673740Y-81274280D01*
X89668660Y-81302220D01*
X89643260Y-81444460D01*
X89617860Y-81561300D01*
X89600080Y-81640040D01*
X89592460Y-81673060D01*
X89579760Y-81678140D01*
X89521340Y-81706080D01*
X89424820Y-81744180D01*
X89305440Y-81792440D01*
X89031120Y-81904200D01*
X88695840Y-81673060D01*
X88665360Y-81652740D01*
X88543440Y-81568920D01*
X88444380Y-81502880D01*
X88373260Y-81459700D01*
X88345320Y-81441920D01*
X88342780Y-81444460D01*
X88309760Y-81472400D01*
X88243720Y-81535900D01*
X88152280Y-81624800D01*
X88045600Y-81728940D01*
X87966860Y-81807680D01*
X87875420Y-81901660D01*
X87817000Y-81965160D01*
X87783980Y-82005800D01*
X87771280Y-82031200D01*
X87776360Y-82048980D01*
X87796680Y-82082000D01*
X87847480Y-82155660D01*
X87916060Y-82259800D01*
X87997340Y-82376640D01*
X88065920Y-82478240D01*
X88139580Y-82590000D01*
X88185300Y-82671280D01*
X88203080Y-82709380D01*
X88198000Y-82727160D01*
X88175140Y-82793200D01*
X88134500Y-82892260D01*
X88083700Y-83011640D01*
X87966860Y-83278340D01*
X87791600Y-83311360D01*
X87687460Y-83331680D01*
X87537600Y-83359620D01*
X87395360Y-83387560D01*
X87174380Y-83430740D01*
X87166760Y-84241000D01*
X87202320Y-84256240D01*
X87235340Y-84266400D01*
X87316620Y-84284180D01*
X87433460Y-84307040D01*
X87570620Y-84332440D01*
X87690000Y-84355300D01*
X87806840Y-84378160D01*
X87893200Y-84393400D01*
X87931300Y-84401020D01*
X87938920Y-84413720D01*
X87969400Y-84472140D01*
X88012580Y-84563580D01*
X88058300Y-84672800D01*
X88106560Y-84787100D01*
X88147200Y-84891240D01*
X88177680Y-84972520D01*
X88187840Y-85013160D01*
X88172600Y-85043640D01*
X88126880Y-85114760D01*
X88060840Y-85213820D01*
X87982100Y-85330660D01*
X87900820Y-85450040D01*
X87832240Y-85549100D01*
X87783980Y-85622760D01*
X87766200Y-85655780D01*
X87776360Y-85678640D01*
X87822080Y-85734520D01*
X87910980Y-85825960D01*
X88043060Y-85958040D01*
X88065920Y-85978360D01*
X88170060Y-86079960D01*
X88258960Y-86161240D01*
X88319920Y-86217120D01*
X88347860Y-86237440D01*
D14*
X99635000Y-144840000D02*
X104835000Y-144840000D01*
X99635000Y-83820000D02*
X99635000Y-144840000D01*
X104835000Y-81220000D02*
X104835000Y-144840000D01*
X99635000Y-83820000D02*
X102235000Y-83820000D01*
X102235000Y-83820000D02*
X102235000Y-81220000D01*
X102235000Y-81220000D02*
X104835000Y-81220000D01*
X99635000Y-82550000D02*
X99635000Y-81220000D01*
X99635000Y-81220000D02*
X100965000Y-81220000D01*
X87690000Y-134045000D02*
X87690000Y-131385000D01*
X82550000Y-134045000D02*
X87690000Y-134045000D01*
X82550000Y-131385000D02*
X87690000Y-131385000D01*
X82550000Y-134045000D02*
X82550000Y-131385000D01*
X81280000Y-134045000D02*
X79950000Y-134045000D01*
X79950000Y-134045000D02*
X79950000Y-132715000D01*
X90745000Y-144840000D02*
X95945000Y-144840000D01*
X90745000Y-127000000D02*
X90745000Y-144840000D01*
X95945000Y-124400000D02*
X95945000Y-144840000D01*
X90745000Y-127000000D02*
X93345000Y-127000000D01*
X93345000Y-127000000D02*
X93345000Y-124400000D01*
X93345000Y-124400000D02*
X95945000Y-124400000D01*
X90745000Y-125730000D02*
X90745000Y-124400000D01*
X90745000Y-124400000D02*
X92075000Y-124400000D01*
X87690000Y-137220000D02*
X87690000Y-134560000D01*
X82550000Y-137220000D02*
X87690000Y-137220000D01*
X82550000Y-134560000D02*
X87690000Y-134560000D01*
X82550000Y-137220000D02*
X82550000Y-134560000D01*
X81280000Y-137220000D02*
X79950000Y-137220000D01*
X79950000Y-137220000D02*
X79950000Y-135890000D01*
D15*
X97456667Y-80732381D02*
X97456667Y-81446667D01*
X97409047Y-81589524D01*
X97313809Y-81684762D01*
X97170952Y-81732381D01*
X97075714Y-81732381D01*
X98456667Y-81732381D02*
X97885238Y-81732381D01*
X98170952Y-81732381D02*
X98170952Y-80732381D01*
X98075714Y-80875238D01*
X97980476Y-80970476D01*
X97885238Y-81018095D01*
X78402381Y-133548333D02*
X79116667Y-133548333D01*
X79259524Y-133595953D01*
X79354762Y-133691191D01*
X79402381Y-133834048D01*
X79402381Y-133929286D01*
X79402381Y-133072143D02*
X78402381Y-133072143D01*
X78402381Y-132691190D01*
X78450000Y-132595952D01*
X78497619Y-132548333D01*
X78592857Y-132500714D01*
X78735714Y-132500714D01*
X78830952Y-132548333D01*
X78878571Y-132595952D01*
X78926190Y-132691190D01*
X78926190Y-133072143D01*
X79402381Y-131548333D02*
X79402381Y-132119762D01*
X79402381Y-131834048D02*
X78402381Y-131834048D01*
X78545238Y-131929286D01*
X78640476Y-132024524D01*
X78688095Y-132119762D01*
X93011667Y-122852381D02*
X93011667Y-123566667D01*
X92964047Y-123709524D01*
X92868809Y-123804762D01*
X92725952Y-123852381D01*
X92630714Y-123852381D01*
X93392619Y-122852381D02*
X94011667Y-122852381D01*
X93678333Y-123233333D01*
X93821191Y-123233333D01*
X93916429Y-123280952D01*
X93964048Y-123328571D01*
X94011667Y-123423810D01*
X94011667Y-123661905D01*
X93964048Y-123757143D01*
X93916429Y-123804762D01*
X93821191Y-123852381D01*
X93535476Y-123852381D01*
X93440238Y-123804762D01*
X93392619Y-123757143D01*
X78402381Y-136723333D02*
X79116667Y-136723333D01*
X79259524Y-136770953D01*
X79354762Y-136866191D01*
X79402381Y-137009048D01*
X79402381Y-137104286D01*
X79402381Y-136247143D02*
X78402381Y-136247143D01*
X78402381Y-135866190D01*
X78450000Y-135770952D01*
X78497619Y-135723333D01*
X78592857Y-135675714D01*
X78735714Y-135675714D01*
X78830952Y-135723333D01*
X78878571Y-135770952D01*
X78926190Y-135866190D01*
X78926190Y-136247143D01*
X78497619Y-135294762D02*
X78450000Y-135247143D01*
X78402381Y-135151905D01*
X78402381Y-134913809D01*
X78450000Y-134818571D01*
X78497619Y-134770952D01*
X78592857Y-134723333D01*
X78688095Y-134723333D01*
X78830952Y-134770952D01*
X79402381Y-135342381D01*
X79402381Y-134723333D01*
M02*
