M48
;DRILL file {KiCad (2017-12-02 revision 3109343b9)-master} date Sun Dec  3 22:01:19 2017
;FORMAT={-:-/ absolute / inch / decimal}
FMAT,2
INCH,TZ
T1C0.039
T2C0.126
%
G90
G05
M72
T1
X3.8005Y-5.1729
X3.9005Y-5.1729
X4.0005Y-5.1729
X3.3377Y-3.9491
X3.3377Y-4.0582
X3.3377Y-4.1672
X3.3377Y-4.2763
X3.3377Y-4.3853
X3.3377Y-4.4944
X3.3377Y-4.6034
X3.3377Y-4.7125
X3.3377Y-4.8216
X3.3377Y-4.9306
X3.3377Y-5.0397
X3.3377Y-5.1487
X3.4495Y-3.8946
X3.4495Y-4.0036
X3.4495Y-4.1127
X3.4495Y-4.2218
X3.4495Y-4.3308
X3.4495Y-4.4399
X3.4495Y-4.5489
X3.4495Y-4.658
X3.4495Y-4.767
X3.4495Y-4.8761
X3.4495Y-4.9851
X3.4495Y-5.0942
X3.4495Y-5.2032
X4.375Y-3.3484
X4.375Y-3.4484
X4.375Y-3.5484
X4.375Y-3.6484
X4.375Y-3.7484
X4.375Y-3.8484
X4.375Y-3.9484
X4.375Y-4.0484
X4.375Y-4.1484
X4.375Y-4.2484
X4.375Y-4.3484
X4.375Y-4.4484
X4.375Y-4.5484
X4.375Y-4.6484
X4.375Y-4.7484
X4.375Y-4.8484
X4.375Y-4.9484
X4.375Y-5.0484
X4.375Y-5.1484
X4.375Y-5.2484
X4.375Y-5.3484
X4.375Y-5.4484
X4.375Y-5.5484
X4.375Y-5.6484
X4.375Y-5.7484
X4.475Y-3.3484
X4.475Y-3.4484
X4.475Y-3.5484
X4.475Y-3.6484
X4.475Y-3.7484
X4.475Y-3.8484
X4.475Y-3.9484
X4.475Y-4.0484
X4.475Y-4.1484
X4.475Y-4.2484
X4.475Y-4.3484
X4.475Y-4.4484
X4.475Y-4.5484
X4.475Y-4.6484
X4.475Y-4.7484
X4.475Y-4.8484
X4.475Y-4.9484
X4.475Y-5.0484
X4.475Y-5.1484
X4.475Y-5.2484
X4.475Y-5.3484
X4.475Y-5.4484
X4.475Y-5.5484
X4.475Y-5.6484
X4.475Y-5.7484
X3.7995Y-5.5989
X3.7995Y-5.6989
X3.7995Y-5.7989
X3.7995Y-5.8989
X3.7995Y-5.9989
X3.7995Y-6.0989
X3.7995Y-6.1989
X3.7995Y-6.2989
X3.8995Y-5.5989
X3.8995Y-5.6989
X3.8995Y-5.7989
X3.8995Y-5.8989
X3.8995Y-5.9989
X3.8995Y-6.0989
X3.8995Y-6.1989
X3.8995Y-6.2989
X3.8005Y-5.2979
X3.9005Y-5.2979
X4.0005Y-5.2979
T2
X3.3936Y-3.6218
X3.3936Y-5.4761
T0
M30
